<svg width="593" height="320" viewBox="0 0 593 320" fill="none" xmlns="http://www.w3.org/2000/svg">
<ellipse cx="447.764" cy="156.042" rx="145.236" ry="156.042" fill="#D9D9D9"/>
<ellipse cx="447.764" cy="156.042" rx="145.236" ry="156.042" fill="url(#paint0_linear_174_2231)"/>
<path d="M0.280869 114.532C1.20686 111.331 4.21951 108.937 7.36098 107.132C10.5025 105.327 13.9595 103.877 16.6423 101.568C19.3244 99.259 21.1284 95.7481 19.8832 92.6322C18.3697 88.8453 13.3262 87.332 8.91742 86.311C49.2699 82.4905 89.8186 80.4983 130.403 80.3421C131.318 79.2502 132.6 78.4408 134.068 78.0294C135.536 77.618 137.114 77.6256 138.577 78.0513C140.04 78.4769 141.312 79.2988 142.213 80.3995C143.113 81.5001 143.596 82.8233 143.592 84.18V199.055H128.936V128.489C94.126 128.563 59.3154 128.638 24.5046 128.712C18.8685 128.724 13.0042 128.692 7.93709 126.518C2.86921 124.345 -1.11097 119.343 0.280869 114.532Z" fill="#CCCCCC"/>
<path d="M187.792 240.709C169.935 240.323 150.792 249.345 145.71 264.785L242.644 261.227C240.811 260.085 238.97 258.956 237.12 257.842C222.247 248.923 205.649 241.094 187.792 240.709Z" fill="#F2F2F2"/>
<path d="M44.1233 289.817C57.0136 297.851 69.5934 306.426 83.9562 312.003C119.521 325.813 160.461 319.373 197.882 310.396C235.303 301.42 273.502 290.015 311.883 294.642C333.647 297.265 354.194 304.943 375.202 310.703C396.209 316.463 418.812 320.32 440.008 315.148C461.203 309.977 480.321 293.578 480.875 273.786C320.863 247.11 172.515 246.318 44.1233 289.817Z" fill="#F2F2F2"/>
<path d="M258.99 156.712H158.791C157.362 156.713 155.991 157.225 154.981 158.137C153.97 159.048 153.402 160.284 153.401 161.572V194.489C153.402 195.777 153.97 197.013 154.981 197.924C155.991 198.836 157.362 199.348 158.791 199.349H258.99C260.419 199.348 261.789 198.836 262.8 197.924C263.811 197.013 264.379 195.777 264.38 194.489V161.572C264.379 160.284 263.811 159.048 262.8 158.137C261.789 157.225 260.419 156.713 258.99 156.712V156.712Z" fill="#E6E6E6"/>
<path d="M163.396 156.712H160.638V199.349H163.396V156.712Z" fill="#CCCCCC"/>
<path d="M175.114 156.712H172.357V199.349H175.114V156.712Z" fill="#CCCCCC"/>
<path d="M186.833 156.712H184.075V199.349H186.833V156.712Z" fill="#CCCCCC"/>
<path d="M198.551 156.712H195.794V199.349H198.551V156.712Z" fill="#CCCCCC"/>
<path d="M210.269 156.712H207.512V199.349H210.269V156.712Z" fill="#CCCCCC"/>
<path d="M221.987 156.712H219.23V199.349H221.987V156.712Z" fill="#CCCCCC"/>
<path d="M233.706 156.712H230.948V199.349H233.706V156.712Z" fill="#CCCCCC"/>
<path d="M245.424 156.712H242.667V199.349H245.424V156.712Z" fill="#CCCCCC"/>
<path d="M257.142 156.712H254.385V199.349H257.142V156.712Z" fill="#CCCCCC"/>
<path d="M505.074 156.712H404.875C403.446 156.713 402.076 157.225 401.065 158.137C400.054 159.048 399.486 160.284 399.485 161.572V194.489C399.486 195.777 400.054 197.013 401.065 197.924C402.076 198.836 403.446 199.348 404.875 199.349H505.074C506.503 199.348 507.874 198.836 508.884 197.924C509.895 197.013 510.463 195.777 510.464 194.489V161.572C510.463 160.284 509.895 159.048 508.884 158.137C507.874 157.225 506.503 156.713 505.074 156.712V156.712Z" fill="#E6E6E6"/>
<path d="M409.48 156.712H406.723V199.349H409.48V156.712Z" fill="#CCCCCC"/>
<path d="M421.198 156.712H418.441V199.349H421.198V156.712Z" fill="#CCCCCC"/>
<path d="M432.917 156.712H430.159V199.349H432.917V156.712Z" fill="#CCCCCC"/>
<path d="M444.635 156.712H441.878V199.349H444.635V156.712Z" fill="#CCCCCC"/>
<path d="M456.353 156.712H453.596V199.349H456.353V156.712Z" fill="#CCCCCC"/>
<path d="M468.072 156.712H465.314V199.349H468.072V156.712Z" fill="#CCCCCC"/>
<path d="M479.79 156.712H477.032V199.349H479.79V156.712Z" fill="#CCCCCC"/>
<path d="M491.508 156.712H488.751V199.349H491.508V156.712Z" fill="#CCCCCC"/>
<path d="M503.226 156.712H500.469V199.349H503.226V156.712Z" fill="#CCCCCC"/>
<path d="M393.405 156.712H293.207C291.778 156.713 290.407 157.225 289.396 158.137C288.386 159.048 287.818 160.284 287.817 161.572V194.489C287.818 195.777 288.386 197.013 289.396 197.924C290.407 198.836 291.778 199.348 293.207 199.349H393.405C394.835 199.348 396.205 198.836 397.216 197.924C398.227 197.013 398.795 195.777 398.796 194.489V161.572C398.795 160.284 398.227 159.048 397.216 158.137C396.205 157.225 394.835 156.713 393.405 156.712V156.712Z" fill="#E6E6E6"/>
<path d="M297.812 156.712H295.054V199.349H297.812V156.712Z" fill="#CCCCCC"/>
<path d="M309.53 156.712H306.773V199.349H309.53V156.712Z" fill="#CCCCCC"/>
<path d="M321.248 156.712H318.491V199.349H321.248V156.712Z" fill="#CCCCCC"/>
<path d="M332.967 156.712H330.209V199.349H332.967V156.712Z" fill="#CCCCCC"/>
<path d="M344.685 156.712H341.927V199.349H344.685V156.712Z" fill="#CCCCCC"/>
<path d="M356.403 156.712H353.646V199.349H356.403V156.712Z" fill="#CCCCCC"/>
<path d="M368.122 156.712H365.364V199.349H368.122V156.712Z" fill="#CCCCCC"/>
<path d="M379.84 156.712H377.082V199.349H379.84V156.712Z" fill="#CCCCCC"/>
<path d="M391.558 156.712H388.801V199.349H391.558V156.712Z" fill="#CCCCCC"/>
<path d="M483.016 159.82H382.817C381.388 159.821 380.018 160.333 379.007 161.244C377.996 162.156 377.428 163.391 377.427 164.68V197.596C377.428 198.885 377.996 200.121 379.007 201.032C380.018 201.943 381.388 202.456 382.817 202.457H483.016C484.445 202.456 485.816 201.943 486.826 201.032C487.837 200.121 488.405 198.885 488.406 197.596V164.68C488.405 163.391 487.837 162.156 486.826 161.244C485.816 160.333 484.445 159.821 483.016 159.82Z" fill="#E84D3D"/>
<path d="M387.422 159.82H384.665V202.457H387.422V159.82Z" fill="#3F3D56"/>
<path d="M399.141 159.82H396.383V202.457H399.141V159.82Z" fill="#3F3D56"/>
<path d="M410.859 159.82H408.102V202.457H410.859V159.82Z" fill="#3F3D56"/>
<path d="M422.577 159.82H419.82V202.457H422.577V159.82Z" fill="#3F3D56"/>
<path d="M434.296 159.82H431.539V202.457H434.296V159.82Z" fill="#3F3D56"/>
<path d="M446.013 159.82H443.256V202.457H446.013V159.82Z" fill="#3F3D56"/>
<path d="M457.732 159.82H454.975V202.457H457.732V159.82Z" fill="#3F3D56"/>
<path d="M469.45 159.82H466.693V202.457H469.45V159.82Z" fill="#3F3D56"/>
<path d="M481.168 159.82H478.411V202.457H481.168V159.82Z" fill="#3F3D56"/>
<path d="M356.872 159.82H256.673C255.244 159.821 253.873 160.333 252.863 161.244C251.852 162.156 251.284 163.391 251.283 164.68V197.596C251.284 198.885 251.852 200.121 252.863 201.032C253.873 201.943 255.244 202.456 256.673 202.457H356.872C358.301 202.456 359.672 201.943 360.682 201.032C361.693 200.121 362.261 198.885 362.262 197.596V164.68C362.261 163.391 361.693 162.156 360.682 161.244C359.672 160.333 358.301 159.821 356.872 159.82Z" fill="#E84D3D"/>
<path d="M261.278 159.82H258.521V202.457H261.278V159.82Z" fill="#3F3D56"/>
<path d="M272.996 159.82H270.239V202.457H272.996V159.82Z" fill="#3F3D56"/>
<path d="M284.715 159.82H281.958V202.457H284.715V159.82Z" fill="#3F3D56"/>
<path d="M296.433 159.82H293.676V202.457H296.433V159.82Z" fill="#3F3D56"/>
<path d="M308.152 159.82H305.394V202.457H308.152V159.82Z" fill="#3F3D56"/>
<path d="M319.87 159.82H317.112V202.457H319.87V159.82Z" fill="#3F3D56"/>
<path d="M331.588 159.82H328.831V202.457H331.588V159.82Z" fill="#3F3D56"/>
<path d="M343.306 159.82H340.549V202.457H343.306V159.82Z" fill="#3F3D56"/>
<path d="M355.024 159.82H352.267V202.457H355.024V159.82Z" fill="#3F3D56"/>
<path d="M222.456 159.82H122.258C120.829 159.821 119.458 160.333 118.447 161.244C117.437 162.156 116.868 163.391 116.867 164.68V197.596C116.868 198.885 117.437 200.121 118.447 201.032C119.458 201.943 120.829 202.456 122.258 202.457H222.456C223.885 202.456 225.256 201.943 226.267 201.032C227.277 200.121 227.846 198.885 227.847 197.596V164.68C227.846 163.391 227.277 162.156 226.267 161.244C225.256 160.333 223.885 159.821 222.456 159.82V159.82Z" fill="#E84D3D"/>
<path d="M126.862 159.82H124.105V202.457H126.862V159.82Z" fill="#3F3D56"/>
<path d="M138.581 159.82H135.823V202.457H138.581V159.82Z" fill="#3F3D56"/>
<path d="M150.299 159.82H147.542V202.457H150.299V159.82Z" fill="#3F3D56"/>
<path d="M162.017 159.82H159.26V202.457H162.017V159.82Z" fill="#3F3D56"/>
<path d="M173.736 159.82H170.978V202.457H173.736V159.82Z" fill="#3F3D56"/>
<path d="M185.454 159.82H182.697V202.457H185.454V159.82Z" fill="#3F3D56"/>
<path d="M197.172 159.82H194.415V202.457H197.172V159.82Z" fill="#3F3D56"/>
<path d="M208.891 159.82H206.134V202.457H208.891V159.82Z" fill="#3F3D56"/>
<path d="M220.609 159.82H217.851V202.457H220.609V159.82Z" fill="#3F3D56"/>
<path d="M571.231 204.974C571.066 204.436 570.852 203.912 570.592 203.406L558.291 179.541C557.388 177.791 555.95 176.309 554.144 175.27C552.339 174.232 550.242 173.68 548.101 173.68H497.643C495.501 173.68 493.405 174.232 491.599 175.27C489.794 176.309 488.355 177.791 487.453 179.541L477.338 199.163H188.963L179.17 180.163C178.267 178.412 176.828 176.93 175.023 175.892C173.218 174.853 171.121 174.301 168.979 174.301H118.521C116.585 174.302 114.681 174.755 112.996 175.616L104.513 161.956C103.952 161.054 103.076 160.345 102.021 159.94C100.966 159.535 99.7924 159.457 98.683 159.718C97.5736 159.979 96.5915 160.564 95.8905 161.383C95.1896 162.201 94.8093 163.205 94.8093 164.239V271.519C94.8093 273.117 95.1585 274.7 95.8369 276.177C96.5152 277.653 97.5095 278.995 98.763 280.125C100.016 281.256 101.505 282.152 103.142 282.764C104.78 283.375 106.535 283.69 108.308 283.69H494.445C496.243 283.69 498.023 283.366 499.68 282.738C501.337 282.109 502.838 281.188 504.096 280.029L569.372 219.843C571.493 217.915 572.83 215.398 573.168 212.7C573.505 210.001 572.823 207.279 571.231 204.974V204.974Z" fill="#3F3D56"/>
<path d="M503.295 197.609H496.955C495.602 197.607 494.305 197.122 493.349 196.26C492.393 195.397 491.855 194.228 491.853 193.009V186.671C491.855 185.451 492.393 184.282 493.349 183.419C494.305 182.557 495.602 182.072 496.955 182.071H503.295C504.647 182.072 505.944 182.557 506.9 183.419C507.857 184.282 508.395 185.451 508.396 186.671V193.009C508.395 194.228 507.857 195.397 506.9 196.26C505.944 197.122 504.647 197.607 503.295 197.609Z" fill="white"/>
<path d="M526.042 197.609H519.702C518.35 197.607 517.053 197.122 516.096 196.26C515.14 195.397 514.602 194.228 514.6 193.009V186.671C514.602 185.451 515.14 184.282 516.096 183.419C517.053 182.557 518.35 182.072 519.702 182.071H526.042C527.395 182.072 528.691 182.557 529.648 183.419C530.604 184.282 531.142 185.451 531.144 186.671V193.009C531.142 194.228 530.604 195.397 529.648 196.26C528.691 197.122 527.395 197.607 526.042 197.609V197.609Z" fill="white"/>
<path d="M548.789 197.609H542.449C541.097 197.607 539.8 197.122 538.843 196.26C537.887 195.397 537.349 194.228 537.347 193.009V186.671C537.349 185.451 537.887 184.282 538.843 183.419C539.8 182.557 541.097 182.072 542.449 182.071H548.789C550.142 182.072 551.438 182.557 552.395 183.419C553.351 184.282 553.889 185.451 553.891 186.671V193.009C553.889 194.228 553.351 195.397 552.395 196.26C551.438 197.122 550.142 197.607 548.789 197.609Z" fill="white"/>
<path d="M124.173 198.23H117.834C116.481 198.229 115.184 197.744 114.228 196.881C113.271 196.019 112.733 194.85 112.732 193.63V187.292C112.733 186.073 113.271 184.903 114.228 184.041C115.184 183.179 116.481 182.693 117.834 182.692H124.173C125.526 182.693 126.823 183.179 127.779 184.041C128.736 184.903 129.274 186.073 129.275 187.292V193.63C129.274 194.85 128.736 196.019 127.779 196.881C126.823 197.744 125.526 198.229 124.173 198.23V198.23Z" fill="white"/>
<path d="M146.921 198.23H140.581C139.228 198.229 137.931 197.744 136.975 196.881C136.019 196.019 135.481 194.85 135.479 193.63V187.292C135.481 186.073 136.019 184.903 136.975 184.041C137.931 183.179 139.228 182.693 140.581 182.692H146.921C148.273 182.693 149.57 183.179 150.526 184.041C151.483 184.903 152.021 186.073 152.022 187.292V193.63C152.021 194.85 151.483 196.019 150.526 196.881C149.57 197.744 148.273 198.229 146.921 198.23V198.23Z" fill="white"/>
<path d="M169.668 198.23H163.328C161.975 198.229 160.679 197.744 159.722 196.881C158.766 196.019 158.228 194.85 158.226 193.63V187.292C158.228 186.073 158.766 184.903 159.722 184.041C160.679 183.179 161.975 182.693 163.328 182.692H169.668C171.02 182.693 172.317 183.179 173.274 184.041C174.23 184.903 174.768 186.073 174.77 187.292V193.63C174.768 194.85 174.23 196.019 173.274 196.881C172.317 197.744 171.02 198.229 169.668 198.23V198.23Z" fill="white"/>
<path d="M84.8306 263.686C66.9736 263.301 47.8301 272.323 42.7488 287.763L139.683 284.205C137.85 283.062 136.008 281.934 134.158 280.82C119.286 271.9 102.688 264.072 84.8306 263.686Z" fill="#E84D3D"/>
<path d="M139.683 284.205C152.573 292.239 165.153 300.813 179.516 306.39C215.08 320.201 256.021 313.76 293.442 304.784C330.863 295.808 369.061 284.403 407.442 289.029C429.206 291.652 449.753 299.33 470.761 305.09C491.769 310.85 514.372 314.707 535.567 309.536C556.762 304.364 575.88 287.965 576.434 268.173C416.423 241.498 268.074 240.706 139.683 284.205Z" fill="#E84D3D"/>
<defs>
<linearGradient id="paint0_linear_174_2231" x1="509.673" y1="11.1127" x2="143.114" y2="261.476" gradientUnits="userSpaceOnUse">
<stop stop-color="#E84D3D"/>
<stop offset="1" stop-color="#5944D7"/>
</linearGradient>
</defs>
</svg>
