<svg width="541" height="272" viewBox="0 0 541 272" fill="none" xmlns="http://www.w3.org/2000/svg">
<circle cx="408.5" cy="132.5" r="132.5" fill="#D9D9D9"/>
<circle cx="408.5" cy="132.5" r="132.5" fill="url(#paint0_linear_174_2231)"/>
<path d="M0.255966 97.2533C1.10075 94.5352 3.84923 92.5017 6.71523 90.9692C9.58122 89.4368 12.7352 88.2052 15.1827 86.2446C17.6296 84.2841 19.2754 81.3029 18.1394 78.657C16.7586 75.4414 12.1574 74.1565 8.13518 73.2895C44.9492 70.0454 81.9422 68.3537 118.968 68.2211C119.802 67.294 120.972 66.6067 122.312 66.2573C123.651 65.908 125.09 65.9145 126.425 66.2759C127.759 66.6373 128.92 67.3352 129.742 68.2698C130.564 69.2044 131.004 70.328 131 71.48V169.024H117.63V109.104C85.8718 109.167 54.1138 109.231 22.3555 109.294C17.2137 109.304 11.8636 109.277 7.24081 107.431C2.61732 105.585 -1.01382 101.338 0.255966 97.2533Z" fill="#CCCCCC"/>
<path d="M171.325 204.394C155.034 204.066 137.569 211.727 132.933 224.838L221.367 221.817C219.694 220.846 218.014 219.888 216.327 218.942C202.758 211.369 187.616 204.721 171.325 204.394Z" fill="#F2F2F2"/>
<path d="M40.2539 246.094C52.0139 252.916 63.4906 260.196 76.5939 264.932C109.04 276.659 146.39 271.19 180.53 263.568C214.669 255.946 249.518 246.262 284.534 250.19C304.389 252.418 323.134 258.937 342.3 263.828C361.465 268.719 382.087 271.994 401.423 267.603C420.76 263.212 438.201 249.287 438.707 232.481C292.727 209.83 157.387 209.157 40.2539 246.094Z" fill="#F2F2F2"/>
<path d="M236.279 133.07H144.867C143.563 133.07 142.313 133.505 141.391 134.279C140.468 135.053 139.95 136.102 139.949 137.197V165.147C139.95 166.241 140.468 167.29 141.391 168.064C142.313 168.838 143.563 169.273 144.867 169.274H236.279C237.583 169.273 238.833 168.838 239.755 168.064C240.677 167.29 241.196 166.241 241.197 165.147V137.197C241.196 136.102 240.677 135.053 239.755 134.279C238.833 133.505 237.583 133.07 236.279 133.07Z" fill="#E6E6E6"/>
<path d="M149.068 133.07H146.552V169.274H149.068V133.07Z" fill="#CCCCCC"/>
<path d="M159.759 133.07H157.243V169.274H159.759V133.07Z" fill="#CCCCCC"/>
<path d="M170.449 133.07H167.934V169.274H170.449V133.07Z" fill="#CCCCCC"/>
<path d="M181.14 133.07H178.625V169.274H181.14V133.07Z" fill="#CCCCCC"/>
<path d="M191.831 133.07H189.315V169.274H191.831V133.07Z" fill="#CCCCCC"/>
<path d="M202.521 133.07H200.006V169.274H202.521V133.07Z" fill="#CCCCCC"/>
<path d="M213.212 133.07H210.697V169.274H213.212V133.07Z" fill="#CCCCCC"/>
<path d="M223.903 133.07H221.387V169.274H223.903V133.07Z" fill="#CCCCCC"/>
<path d="M234.594 133.07H232.078V169.274H234.594V133.07Z" fill="#CCCCCC"/>
<path d="M460.784 133.07H369.372C368.068 133.07 366.818 133.505 365.896 134.279C364.974 135.053 364.455 136.102 364.454 137.197V165.147C364.455 166.241 364.974 167.29 365.896 168.064C366.818 168.838 368.068 169.273 369.372 169.274H460.784C462.088 169.273 463.338 168.838 464.26 168.064C465.182 167.29 465.701 166.241 465.702 165.147V137.197C465.701 136.102 465.182 135.053 464.26 134.279C463.338 133.505 462.088 133.07 460.784 133.07Z" fill="#E6E6E6"/>
<path d="M373.573 133.07H371.058V169.274H373.573V133.07Z" fill="#CCCCCC"/>
<path d="M384.264 133.07H381.748V169.274H384.264V133.07Z" fill="#CCCCCC"/>
<path d="M394.954 133.07H392.439V169.274H394.954V133.07Z" fill="#CCCCCC"/>
<path d="M405.645 133.07H403.13V169.274H405.645V133.07Z" fill="#CCCCCC"/>
<path d="M416.336 133.07H413.82V169.274H416.336V133.07Z" fill="#CCCCCC"/>
<path d="M427.027 133.07H424.511V169.274H427.027V133.07Z" fill="#CCCCCC"/>
<path d="M437.717 133.07H435.202V169.274H437.717V133.07Z" fill="#CCCCCC"/>
<path d="M448.408 133.07H445.893V169.274H448.408V133.07Z" fill="#CCCCCC"/>
<path d="M459.099 133.07H456.583V169.274H459.099V133.07Z" fill="#CCCCCC"/>
<path d="M358.908 133.07H267.496C266.192 133.07 264.941 133.505 264.019 134.279C263.097 135.053 262.579 136.102 262.578 137.197V165.147C262.579 166.241 263.097 167.29 264.019 168.064C264.941 168.838 266.192 169.273 267.496 169.274H358.908C360.212 169.273 361.462 168.838 362.384 168.064C363.306 167.29 363.825 166.241 363.826 165.147V137.197C363.825 136.102 363.306 135.053 362.384 134.279C361.462 133.505 360.212 133.07 358.908 133.07Z" fill="#E6E6E6"/>
<path d="M271.697 133.07H269.181V169.274H271.697V133.07Z" fill="#CCCCCC"/>
<path d="M282.388 133.07H279.872V169.274H282.388V133.07Z" fill="#CCCCCC"/>
<path d="M293.078 133.07H290.562V169.274H293.078V133.07Z" fill="#CCCCCC"/>
<path d="M303.769 133.07H301.253V169.274H303.769V133.07Z" fill="#CCCCCC"/>
<path d="M314.46 133.07H311.944V169.274H314.46V133.07Z" fill="#CCCCCC"/>
<path d="M325.15 133.07H322.635V169.274H325.15V133.07Z" fill="#CCCCCC"/>
<path d="M335.841 133.07H333.326V169.274H335.841V133.07Z" fill="#CCCCCC"/>
<path d="M346.532 133.07H344.016V169.274H346.532V133.07Z" fill="#CCCCCC"/>
<path d="M357.222 133.07H354.707V169.274H357.222V133.07Z" fill="#CCCCCC"/>
<path d="M440.66 135.708H349.248C347.944 135.709 346.694 136.144 345.772 136.918C344.85 137.692 344.331 138.741 344.331 139.835V167.785C344.331 168.88 344.85 169.929 345.772 170.703C346.694 171.477 347.944 171.912 349.248 171.913H440.66C441.964 171.912 443.215 171.477 444.137 170.703C445.059 169.929 445.577 168.88 445.578 167.785V139.835C445.577 138.741 445.059 137.692 444.137 136.918C443.215 136.144 441.964 135.709 440.66 135.708Z" fill="#E84D3D"/>
<path d="M353.449 135.708H350.934V171.913H353.449V135.708Z" fill="#3F3D56"/>
<path d="M364.14 135.708H361.625V171.913H364.14V135.708Z" fill="#3F3D56"/>
<path d="M374.831 135.708H372.315V171.913H374.831V135.708Z" fill="#3F3D56"/>
<path d="M385.521 135.708H383.006V171.913H385.521V135.708Z" fill="#3F3D56"/>
<path d="M396.212 135.708H393.697V171.913H396.212V135.708Z" fill="#3F3D56"/>
<path d="M406.903 135.708H404.387V171.913H406.903V135.708Z" fill="#3F3D56"/>
<path d="M417.594 135.708H415.078V171.913H417.594V135.708Z" fill="#3F3D56"/>
<path d="M428.284 135.708H425.769V171.913H428.284V135.708Z" fill="#3F3D56"/>
<path d="M438.975 135.708H436.459V171.913H438.975V135.708Z" fill="#3F3D56"/>
<path d="M325.578 135.708H234.166C232.862 135.709 231.611 136.144 230.689 136.918C229.767 137.692 229.249 138.741 229.248 139.835V167.785C229.249 168.88 229.767 169.929 230.689 170.703C231.611 171.477 232.862 171.912 234.166 171.913H325.578C326.882 171.912 328.132 171.477 329.054 170.703C329.976 169.929 330.495 168.88 330.495 167.785V139.835C330.495 138.741 329.976 137.692 329.054 136.918C328.132 136.144 326.882 135.709 325.578 135.708Z" fill="#E84D3D"/>
<path d="M238.367 135.708H235.851V171.913H238.367V135.708Z" fill="#3F3D56"/>
<path d="M249.057 135.708H246.542V171.913H249.057V135.708Z" fill="#3F3D56"/>
<path d="M259.748 135.708H257.233V171.913H259.748V135.708Z" fill="#3F3D56"/>
<path d="M270.439 135.708H267.923V171.913H270.439V135.708Z" fill="#3F3D56"/>
<path d="M281.13 135.708H278.614V171.913H281.13V135.708Z" fill="#3F3D56"/>
<path d="M291.82 135.708H289.305V171.913H291.82V135.708Z" fill="#3F3D56"/>
<path d="M302.511 135.708H299.996V171.913H302.511V135.708Z" fill="#3F3D56"/>
<path d="M313.202 135.708H310.687V171.913H313.202V135.708Z" fill="#3F3D56"/>
<path d="M323.892 135.708H321.377V171.913H323.892V135.708Z" fill="#3F3D56"/>
<path d="M202.949 135.708H111.537C110.233 135.709 108.983 136.144 108.061 136.918C107.139 137.692 106.62 138.741 106.619 139.835V167.785C106.62 168.88 107.139 169.929 108.061 170.703C108.983 171.477 110.233 171.912 111.537 171.913H202.949C204.253 171.912 205.503 171.477 206.425 170.703C207.348 169.929 207.866 168.88 207.867 167.785V139.835C207.866 138.741 207.348 137.692 206.425 136.918C205.503 136.144 204.253 135.709 202.949 135.708Z" fill="#E84D3D"/>
<path d="M115.738 135.708H113.223V171.913H115.738V135.708Z" fill="#3F3D56"/>
<path d="M126.429 135.708H123.913V171.913H126.429V135.708Z" fill="#3F3D56"/>
<path d="M137.119 135.708H134.604V171.913H137.119V135.708Z" fill="#3F3D56"/>
<path d="M147.81 135.708H145.295V171.913H147.81V135.708Z" fill="#3F3D56"/>
<path d="M158.501 135.708H155.985V171.913H158.501V135.708Z" fill="#3F3D56"/>
<path d="M169.192 135.708H166.676V171.913H169.192V135.708Z" fill="#3F3D56"/>
<path d="M179.882 135.708H177.367V171.913H179.882V135.708Z" fill="#3F3D56"/>
<path d="M190.573 135.708H188.058V171.913H190.573V135.708Z" fill="#3F3D56"/>
<path d="M201.264 135.708H198.748V171.913H201.264V135.708Z" fill="#3F3D56"/>
<path d="M521.14 174.05C520.989 173.594 520.794 173.148 520.557 172.718L509.335 152.455C508.511 150.968 507.199 149.709 505.552 148.828C503.904 147.946 501.992 147.477 500.038 147.477H454.005C452.051 147.477 450.138 147.946 448.491 148.828C446.844 149.709 445.531 150.968 444.708 152.455L435.481 169.115H172.393L163.458 152.982C162.635 151.496 161.322 150.237 159.675 149.355C158.028 148.474 156.115 148.005 154.162 148.005H108.128C106.362 148.006 104.625 148.39 103.088 149.121L95.348 137.522C94.8369 136.756 94.0376 136.154 93.0752 135.81C92.1128 135.467 91.0417 135.4 90.0296 135.622C89.0174 135.843 88.1215 136.341 87.482 137.035C86.8425 137.73 86.4956 138.583 86.4956 139.461V230.556C86.4956 231.913 86.8142 233.257 87.433 234.511C88.0519 235.765 88.959 236.904 90.1026 237.864C91.2461 238.823 92.6037 239.585 94.0978 240.104C95.5919 240.623 97.1933 240.891 98.8105 240.891H451.087C452.727 240.891 454.351 240.616 455.863 240.082C457.375 239.548 458.745 238.766 459.892 237.782L519.444 186.676C521.379 185.039 522.599 182.902 522.907 180.611C523.215 178.319 522.592 176.008 521.14 174.05Z" fill="#3F3D56"/>
<path d="M459.161 167.796H453.377C452.143 167.795 450.96 167.383 450.087 166.651C449.215 165.918 448.724 164.926 448.722 163.89V158.508C448.724 157.473 449.215 156.48 450.087 155.748C450.96 155.015 452.143 154.603 453.377 154.602H459.161C460.395 154.603 461.578 155.015 462.45 155.748C463.323 156.48 463.814 157.473 463.815 158.508V163.89C463.814 164.926 463.323 165.918 462.45 166.651C461.578 167.383 460.395 167.795 459.161 167.796Z" fill="white"/>
<path d="M479.913 167.796H474.13C472.896 167.795 471.712 167.383 470.84 166.651C469.967 165.918 469.477 164.926 469.475 163.89V158.508C469.477 157.473 469.967 156.48 470.84 155.748C471.712 155.015 472.896 154.603 474.13 154.602H479.913C481.147 154.603 482.33 155.015 483.203 155.748C484.076 156.48 484.566 157.473 484.568 158.508V163.89C484.566 164.926 484.076 165.918 483.203 166.651C482.33 167.383 481.147 167.795 479.913 167.796Z" fill="white"/>
<path d="M500.666 167.796H494.882C493.648 167.795 492.465 167.383 491.592 166.651C490.72 165.918 490.229 164.926 490.228 163.89V158.508C490.229 157.473 490.72 156.48 491.592 155.748C492.465 155.015 493.648 154.603 494.882 154.602H500.666C501.9 154.603 503.083 155.015 503.955 155.748C504.828 156.48 505.319 157.473 505.32 158.508V163.89C505.319 164.926 504.828 165.918 503.955 166.651C503.083 167.383 501.9 167.795 500.666 167.796Z" fill="white"/>
<path d="M113.285 168.324H107.501C106.267 168.323 105.084 167.911 104.211 167.178C103.338 166.446 102.848 165.453 102.846 164.418V159.036C102.848 158 103.338 157.008 104.211 156.275C105.084 155.543 106.267 155.131 107.501 155.13H113.285C114.519 155.131 115.702 155.543 116.574 156.275C117.447 157.008 117.938 158 117.939 159.036V164.418C117.938 165.453 117.447 166.446 116.574 167.178C115.702 167.911 114.519 168.323 113.285 168.324Z" fill="white"/>
<path d="M134.037 168.324H128.253C127.019 168.323 125.836 167.911 124.963 167.178C124.091 166.446 123.6 165.453 123.599 164.418V159.036C123.6 158 124.091 157.008 124.963 156.275C125.836 155.543 127.019 155.131 128.253 155.13H134.037C135.271 155.131 136.454 155.543 137.327 156.275C138.199 157.008 138.69 158 138.691 159.036V164.418C138.69 165.453 138.199 166.446 137.327 167.178C136.454 167.911 135.271 168.323 134.037 168.324Z" fill="white"/>
<path d="M154.79 168.324H149.006C147.772 168.323 146.589 167.911 145.716 167.178C144.844 166.446 144.353 165.453 144.351 164.418V159.036C144.353 158 144.844 157.008 145.716 156.275C146.589 155.543 147.772 155.131 149.006 155.13H154.79C156.024 155.131 157.207 155.543 158.079 156.275C158.952 157.008 159.443 158 159.444 159.036V164.418C159.443 165.453 158.952 166.446 158.079 167.178C157.207 167.911 156.024 168.323 154.79 168.324Z" fill="white"/>
<path d="M77.3917 223.905C61.1005 223.577 43.6357 231.238 39 244.349L127.434 241.328C125.761 240.357 124.081 239.399 122.394 238.453C108.825 230.88 93.6828 224.232 77.3917 223.905Z" fill="#E84D3D"/>
<path d="M127.434 241.328C139.194 248.15 150.671 255.43 163.774 260.166C196.22 271.893 233.57 266.424 267.71 258.802C301.849 251.18 336.698 241.496 371.714 245.424C391.569 247.652 410.314 254.171 429.48 259.062C448.645 263.953 469.267 267.228 488.603 262.837C507.94 258.446 525.381 244.521 525.887 227.715C379.907 205.064 244.567 204.391 127.434 241.328Z" fill="#E84D3D"/>
<defs>
<linearGradient id="paint0_linear_174_2231" x1="464.98" y1="9.4362" x2="146.214" y2="243.355" gradientUnits="userSpaceOnUse">
<stop stop-color="#E84D3D"/>
<stop offset="1" stop-color="#5944D7"/>
</linearGradient>
</defs>
</svg>
