<svg width="178" height="94" viewBox="0 0 178 94" fill="none" xmlns="http://www.w3.org/2000/svg">
<path d="M28.7422 28V10.8672H29.9492V26.8984H38.1055V28H28.7422ZM45.5703 15.0156C46.6562 15.0156 47.5586 15.2695 48.2773 15.7773C49.0039 16.2852 49.543 16.9805 49.8945 17.8633C50.2539 18.7461 50.4336 19.7578 50.4336 20.8984V21.7539H41.2344C41.2344 23.5039 41.6367 24.8477 42.4414 25.7852C43.2539 26.7227 44.4141 27.1914 45.9219 27.1914C46.7109 27.1914 47.3945 27.1289 47.9727 27.0039C48.5586 26.8711 49.207 26.6484 49.918 26.3359V27.4258C49.293 27.707 48.668 27.9102 48.043 28.0352C47.418 28.168 46.6992 28.2344 45.8867 28.2344C44.5977 28.2344 43.5156 27.9688 42.6406 27.4375C41.7734 26.8984 41.1172 26.1406 40.6719 25.1641C40.2344 24.1875 40.0156 23.0469 40.0156 21.7422C40.0156 20.4688 40.2266 19.3242 40.6484 18.3086C41.0781 17.293 41.7031 16.4922 42.5234 15.9062C43.3516 15.3125 44.3672 15.0156 45.5703 15.0156ZM45.5586 16.0352C44.3398 16.0352 43.3516 16.4414 42.5938 17.2539C41.8438 18.0586 41.4023 19.2227 41.2695 20.7461H49.2031C49.2031 19.8164 49.0703 18.9961 48.8047 18.2852C48.5391 17.5742 48.1367 17.0234 47.5977 16.6328C47.0664 16.2344 46.3867 16.0352 45.5586 16.0352ZM58.3906 15.0391C59.7891 15.0391 60.8359 15.3906 61.5312 16.0938C62.2266 16.7969 62.5742 17.918 62.5742 19.457V28H61.6602L61.4492 25.7734H61.3789C61.1055 26.25 60.7734 26.6758 60.3828 27.0508C59.9922 27.418 59.5117 27.707 58.9414 27.918C58.3789 28.1289 57.6914 28.2344 56.8789 28.2344C56.0586 28.2344 55.3555 28.0977 54.7695 27.8242C54.1914 27.5508 53.7422 27.1523 53.4219 26.6289C53.1094 26.1055 52.9531 25.4688 52.9531 24.7188C52.9531 23.4531 53.4766 22.4922 54.5234 21.8359C55.5703 21.1719 57.0742 20.7969 59.0352 20.7109L61.4023 20.5938V19.668C61.4023 18.3633 61.1445 17.4336 60.6289 16.8789C60.1133 16.3242 59.3516 16.0469 58.3438 16.0469C57.6875 16.0469 57.0547 16.1328 56.4453 16.3047C55.8438 16.4688 55.2305 16.707 54.6055 17.0195L54.2305 16.0352C54.8398 15.7461 55.4922 15.5078 56.1875 15.3203C56.8906 15.1328 57.625 15.0391 58.3906 15.0391ZM61.3906 21.5195L59.1641 21.6133C57.5469 21.6914 56.3164 21.9805 55.4727 22.4805C54.6289 22.9805 54.207 23.7305 54.207 24.7305C54.207 25.5352 54.457 26.1523 54.957 26.582C55.4648 27.0117 56.168 27.2266 57.0664 27.2266C58.4648 27.2266 59.5312 26.8281 60.2656 26.0312C61.0078 25.2344 61.3828 24.1484 61.3906 22.7734V21.5195ZM71.7383 15.0391C72.0742 15.0391 72.3906 15.0586 72.6875 15.0977C72.9844 15.1367 73.2617 15.1914 73.5195 15.2617L73.332 16.3516C73.0742 16.2812 72.8125 16.2305 72.5469 16.1992C72.2812 16.1602 71.9961 16.1406 71.6914 16.1406C71.0898 16.1406 70.5508 16.2539 70.0742 16.4805C69.6055 16.707 69.207 17.0312 68.8789 17.4531C68.5508 17.875 68.3008 18.3828 68.1289 18.9766C67.957 19.5703 67.8711 20.2344 67.8711 20.9688V28H66.6758V15.2617H67.6953L67.8125 17.6641H67.8828C68.0781 17.1719 68.3516 16.7305 68.7031 16.3398C69.0625 15.9414 69.4961 15.625 70.0039 15.3906C70.5117 15.1562 71.0898 15.0391 71.7383 15.0391ZM81.6289 15.0156C83.0586 15.0156 84.1562 15.3906 84.9219 16.1406C85.6875 16.8906 86.0703 18.0664 86.0703 19.668V28H84.8984V19.7383C84.8984 18.4727 84.6094 17.543 84.0312 16.9492C83.4531 16.3555 82.6133 16.0586 81.5117 16.0586C80.1133 16.0586 79.043 16.4688 78.3008 17.2891C77.5664 18.1016 77.1992 19.332 77.1992 20.9805V28H76.0156V15.2617H76.9766L77.1523 17.582H77.2227C77.4492 17.1055 77.7578 16.6758 78.1484 16.293C78.5469 15.9023 79.0352 15.5938 79.6133 15.3672C80.1914 15.1328 80.8633 15.0156 81.6289 15.0156ZM104.152 28L97.8594 12.1797H97.8008C97.8164 12.4688 97.8281 12.7734 97.8359 13.0938C97.8516 13.4062 97.8633 13.7344 97.8711 14.0781C97.8789 14.4219 97.8828 14.7812 97.8828 15.1562V28H96.7344V10.8672H98.5625L104.633 26.125H104.703L110.82 10.8672H112.602V28H111.418V15.0156C111.418 14.7109 111.422 14.3984 111.43 14.0781C111.438 13.7578 111.445 13.4414 111.453 13.1289C111.469 12.8086 111.484 12.5 111.5 12.2031H111.43L105.113 28H104.152ZM127.719 21.6133C127.719 22.5977 127.598 23.4961 127.355 24.3086C127.113 25.1133 126.754 25.8086 126.277 26.3945C125.801 26.9805 125.207 27.4336 124.496 27.7539C123.793 28.0742 122.973 28.2344 122.035 28.2344C121.145 28.2344 120.352 28.0781 119.656 27.7656C118.961 27.4453 118.371 26.9922 117.887 26.4062C117.41 25.8203 117.047 25.125 116.797 24.3203C116.547 23.5078 116.422 22.6055 116.422 21.6133C116.422 20.2461 116.648 19.0703 117.102 18.0859C117.562 17.0938 118.219 16.3359 119.07 15.8125C119.93 15.2812 120.957 15.0156 122.152 15.0156C123.387 15.0156 124.414 15.2969 125.234 15.8594C126.062 16.4141 126.684 17.1875 127.098 18.1797C127.512 19.1719 127.719 20.3164 127.719 21.6133ZM117.641 21.6133C117.641 22.7305 117.801 23.707 118.121 24.543C118.441 25.3789 118.926 26.0312 119.574 26.5C120.23 26.9688 121.059 27.2031 122.059 27.2031C123.082 27.2031 123.922 26.9688 124.578 26.5C125.234 26.0312 125.719 25.375 126.031 24.5312C126.344 23.6875 126.5 22.7148 126.5 21.6133C126.5 20.543 126.352 19.5898 126.055 18.7539C125.758 17.918 125.289 17.2617 124.648 16.7852C124.008 16.3008 123.172 16.0586 122.141 16.0586C120.664 16.0586 119.543 16.5508 118.777 17.5352C118.02 18.5195 117.641 19.8789 117.641 21.6133ZM136.309 15.0391C136.645 15.0391 136.961 15.0586 137.258 15.0977C137.555 15.1367 137.832 15.1914 138.09 15.2617L137.902 16.3516C137.645 16.2812 137.383 16.2305 137.117 16.1992C136.852 16.1602 136.566 16.1406 136.262 16.1406C135.66 16.1406 135.121 16.2539 134.645 16.4805C134.176 16.707 133.777 17.0312 133.449 17.4531C133.121 17.875 132.871 18.3828 132.699 18.9766C132.527 19.5703 132.441 20.2344 132.441 20.9688V28H131.246V15.2617H132.266L132.383 17.6641H132.453C132.648 17.1719 132.922 16.7305 133.273 16.3398C133.633 15.9414 134.066 15.625 134.574 15.3906C135.082 15.1562 135.66 15.0391 136.309 15.0391ZM145.414 15.0156C146.5 15.0156 147.402 15.2695 148.121 15.7773C148.848 16.2852 149.387 16.9805 149.738 17.8633C150.098 18.7461 150.277 19.7578 150.277 20.8984V21.7539H141.078C141.078 23.5039 141.48 24.8477 142.285 25.7852C143.098 26.7227 144.258 27.1914 145.766 27.1914C146.555 27.1914 147.238 27.1289 147.816 27.0039C148.402 26.8711 149.051 26.6484 149.762 26.3359V27.4258C149.137 27.707 148.512 27.9102 147.887 28.0352C147.262 28.168 146.543 28.2344 145.73 28.2344C144.441 28.2344 143.359 27.9688 142.484 27.4375C141.617 26.8984 140.961 26.1406 140.516 25.1641C140.078 24.1875 139.859 23.0469 139.859 21.7422C139.859 20.4688 140.07 19.3242 140.492 18.3086C140.922 17.293 141.547 16.4922 142.367 15.9062C143.195 15.3125 144.211 15.0156 145.414 15.0156ZM145.402 16.0352C144.184 16.0352 143.195 16.4414 142.438 17.2539C141.688 18.0586 141.246 19.2227 141.113 20.7461H149.047C149.047 19.8164 148.914 18.9961 148.648 18.2852C148.383 17.5742 147.98 17.0234 147.441 16.6328C146.91 16.2344 146.23 16.0352 145.402 16.0352Z" fill="white"/>
<rect x="66" y="47" width="46" height="47" rx="23" fill="#E84D3D"/>
<rect x="76.9999" y="72.218" width="2.89076" height="16.6623" rx="1.44538" transform="rotate(-45 76.9999 72.218)" fill="white"/>
<rect x="98.8425" y="70.1739" width="2.89076" height="16.6623" rx="1.44538" transform="rotate(45 98.8425 70.1739)" fill="white"/>
<rect x="76.9999" y="62.0441" width="2.89076" height="16.6623" rx="1.44538" transform="rotate(-45 76.9999 62.0441)" fill="white"/>
<rect x="98.8425" y="60" width="2.89076" height="16.6623" rx="1.44538" transform="rotate(45 98.8425 60)" fill="white"/>
</svg>
