<svg width="1012" height="751" viewBox="0 0 1012 751" fill="none" xmlns="http://www.w3.org/2000/svg">
<line x1="766.009" y1="438.5" x2="824.009" y2="439.5" stroke="#47D1DA"/>
<line x1="766.267" y1="438.577" x2="812.267" y2="467.577" stroke="#47D1DA"/>
<line x1="766.467" y1="438.821" x2="776.467" y2="464.82" stroke="#47D1DA"/>
<line x1="830.163" y1="439.527" x2="859.163" y2="449.527" stroke="#47D1DA"/>
<line x1="814.811" y1="467.537" x2="858.811" y2="449.537" stroke="#47D1DA"/>
<line x1="780.924" y1="461.506" x2="858.924" y2="449.506" stroke="#47D1DA"/>
<line x1="766.053" y1="439.503" x2="859.053" y2="449.503" stroke="#47D1DA"/>
<path d="M266.401 214.15C266.079 211.612 265.43 209.127 264.468 206.756C264.345 206.308 264.13 205.89 263.837 205.529C263.544 205.168 263.178 204.872 262.764 204.66C262.211 204.517 261.631 204.51 261.075 204.641L252.399 205.968C251.672 206.001 250.977 206.271 250.419 206.736C249.289 207.923 250.402 209.835 250.367 211.473C250.328 213.315 248.69 214.81 246.914 215.305C245.101 215.671 243.23 215.648 241.427 215.237L229.295 213.353C232.868 212.214 236.048 210.093 238.473 207.235C240.069 205.345 240.919 201.817 238.611 200.923C237.926 200.735 237.211 200.677 236.504 200.754C231.008 200.796 226.682 196.211 221.537 194.28C218.243 193.124 214.668 193.038 211.323 194.035C207.978 195.031 205.034 197.059 202.911 199.828L209.374 200.139C209.982 200.105 210.585 200.266 211.096 200.597C212.512 201.76 210.751 203.993 210.951 205.814C211.21 208.179 214.353 208.684 216.723 208.923C219.092 209.162 222.098 211.085 220.958 213.175C209.049 217.273 196.93 205.163 184.422 206.654C181.257 207.031 178.268 208.274 175.177 209.055C156.297 213.827 136.779 201.094 117.492 203.791C113.204 204.521 108.99 205.631 104.9 207.109C102.275 207.97 99.5366 208.9 97.6293 210.897C95.722 212.894 94.9961 216.309 96.803 218.398C91.8228 218.807 86.8094 218.331 81.9957 216.991C83.2974 217.714 84.3803 218.774 85.1308 220.059C85.8812 221.344 86.2715 222.808 86.2607 224.296C78.4847 225.562 70.9147 227.868 63.7542 231.152C65.0906 233.372 66.6516 235.449 68.4125 237.351L58.5683 243.67C61.8942 244.507 63.6137 249.038 61.6796 251.867C65.1281 250.335 67.2653 246.37 70.9529 245.566C73.3688 245.039 75.827 246.026 78.1188 246.954C80.4106 247.881 82.9296 248.781 85.3021 248.085C87.6746 247.389 89.4245 244.315 87.917 242.357C98.0577 239.401 108.538 237.765 119.098 237.49C119.913 237.388 120.739 237.545 121.459 237.938C122.834 238.891 122.472 240.949 122.398 242.618C122.324 244.288 123.627 246.483 125.121 245.73C123.363 247.253 124.866 250.119 126.552 251.72C128.238 253.321 130.27 255.531 129.238 257.613C128.969 258.157 128.512 258.592 128.253 259.14C127.487 260.759 128.702 262.647 130.135 263.722C131.568 264.797 133.324 265.549 134.319 267.038C135.315 268.526 134.862 271.133 133.082 271.34L128.023 264.923C126.294 266.713 125.109 268.957 124.605 271.393C129.97 275.775 130.777 284.694 126.286 289.965C123.99 292.66 120.726 294.297 117.877 296.398C115.029 298.499 112.392 301.492 112.4 305.03C112.412 311.142 111.912 316.82 114.205 322.487C118.432 332.936 123.313 343.109 128.818 352.947C130.264 355.53 132.132 358.361 135.061 358.806C131.36 349.804 128.028 340.662 125.065 331.38C126.995 331.387 129.225 331.54 130.356 333.102C131.292 334.395 131.091 336.153 131.382 337.723C131.752 339.244 132.37 340.694 133.209 342.015L150.884 373.469C152.349 376.076 154.03 378.875 156.83 379.931C158.621 380.606 160.692 380.479 162.34 381.451C163.632 382.213 164.502 383.565 165.818 384.283C169.542 386.312 174.719 382.42 178.199 384.843C179.193 385.536 179.826 386.636 180.743 387.43C183.957 390.21 189.228 388.35 192.938 390.424C195.329 391.761 196.568 394.434 197.843 396.857C201.038 402.925 206.206 408.87 213.052 409.353C215.203 409.505 217.399 409.098 219.501 409.576C221.603 410.054 223.672 411.886 223.335 414.013C222.756 417.66 224.56 421.653 224.076 425.314C223.193 431.982 213.727 434.912 212.914 441.588C212.736 443.05 213.014 444.559 212.666 445.99C212.239 447.743 210.921 449.171 210.452 450.914C209.564 454.218 211.933 457.505 214.536 459.727C217.138 461.95 220.242 463.866 221.665 466.977C223.169 470.265 222.43 474.099 222.919 477.681C223.987 485.501 230.747 491.298 237.705 495.036C239.825 496.175 242.101 497.277 243.473 499.253C245.264 501.832 245.085 505.231 245.683 508.312C247.148 515.858 253.506 522.076 253.687 529.76C253.815 535.222 250.776 540.177 248.961 545.33C247.259 550.268 246.643 555.514 247.155 560.711C247.667 565.908 249.295 570.933 251.929 575.444C253.287 577.735 254.911 579.895 255.871 582.379C257.586 586.81 257.029 591.848 258.61 596.329C260.7 602.254 266.442 607.147 265.892 613.405C268.499 618.813 274.256 621.471 280.044 623.08L290.418 625.965C292.405 626.518 294.48 627.075 296.503 626.675C298.526 626.275 300.456 624.597 300.404 622.537C295.316 621.391 290.066 620.172 285.872 617.075C281.678 613.978 278.806 608.463 280.397 603.501C281.135 601.2 282.704 598.543 281.212 596.642C280.358 595.554 278.795 595.269 277.831 594.276C276.328 592.727 276.845 590.125 277.925 588.257C279.006 586.389 280.568 584.72 281.004 582.607C281.224 581.425 281.077 580.204 280.583 579.107C280.088 578.011 279.27 577.092 278.238 576.473C280.162 575.748 281.911 574.626 283.373 573.182C284.723 571.641 285.347 569.266 284.285 567.515C287.439 567.914 291.163 568.11 293.234 565.699C294.887 563.774 294.774 560.896 294.121 558.445C293.467 555.993 292.363 553.613 292.328 551.076C299.605 551.421 306.898 551.174 314.135 550.337C313.088 546.816 310.71 543.841 307.505 542.042C310.782 541.488 313.768 537.568 314.804 534.412C315.839 531.257 315.575 527.819 314.935 524.56C314.689 523.721 314.655 522.835 314.837 521.979C315.206 520.804 316.361 520.087 317.43 519.474L333.699 510.14C334.67 509.654 335.549 509.005 336.3 508.221C338.005 506.221 337.752 503.201 336.879 500.724C336.007 498.246 334.609 495.916 334.273 493.31C333.267 485.519 341.616 479.928 344.433 472.594C345.539 469.715 345.764 466.587 345.978 463.511C346.208 460.208 346.225 456.371 343.687 454.242C341.253 452.201 337.45 452.656 334.904 450.758C332.569 449.018 331.764 445.638 329.213 444.233C326.897 442.956 323.993 443.768 321.416 443.168C316.88 442.111 314.026 436.888 309.394 436.404C306.78 436.132 303.822 437.408 301.68 435.887C299.792 434.547 299.716 431.854 299.357 429.569C298.727 426.017 297.023 422.743 294.475 420.189C291.926 417.634 288.654 415.921 285.101 415.28C282.406 414.849 279.473 415.013 277.181 413.533C274.859 412.035 273.795 409.23 271.971 407.155C269.032 403.811 264.404 402.623 260.068 401.605L242.431 397.463C239.3 396.727 235.264 396.337 233.584 399.077C233.087 400.121 232.735 401.227 232.538 402.366C231.908 404.425 230.641 406.233 228.919 407.528C227.197 408.823 225.108 409.539 222.953 409.574C221.474 407.055 219.08 405.203 216.268 404.406C214.48 403.908 212.566 403.853 210.86 403.12C209.931 402.668 209.104 402.03 208.431 401.247C207.757 400.464 207.25 399.551 206.942 398.566C206.633 397.58 206.529 396.542 206.636 395.515C206.743 394.488 207.059 393.493 207.564 392.592C208.58 390.783 208.973 388.69 208.681 386.637C208.389 384.583 207.428 382.682 205.948 381.228C202.948 378.538 198.61 377.888 194.588 378.157C193.535 375.861 195.296 373.27 197.194 371.601C199.091 369.933 201.396 368.292 201.809 365.8C202.459 361.881 197.454 358.904 193.653 360.073C189.852 361.241 187.426 364.93 185.822 368.565C184.902 370.651 184.12 372.848 182.669 374.607C181.217 376.366 178.88 377.625 176.669 377.061C173.54 376.262 172.331 372.547 171.638 369.395C170.709 365.165 169.774 360.878 169.969 356.552C170.164 352.226 171.623 347.785 174.816 344.857C180.018 340.085 187.999 340.553 195.021 341.314C193.362 339.447 193.772 336.3 195.547 334.542C196.484 333.711 197.61 333.12 198.827 332.821C200.044 332.523 201.315 332.525 202.531 332.828C204.647 333.268 206.553 334.407 207.943 336.06C209.938 338.491 210.505 341.772 212.013 344.531C213.521 347.289 216.913 349.642 219.688 348.162C222.086 346.884 222.466 343.563 221.87 340.914C221.273 338.265 220.006 335.69 220.222 332.983C220.634 327.819 225.992 324.711 230.72 322.584C235.449 320.457 240.863 317.597 241.612 312.471C241.637 311.467 241.827 310.475 242.173 309.532C242.697 308.7 243.426 308.015 244.29 307.543C258.089 298.432 272.118 289.21 287.89 284.232C288.711 283.973 288.807 284.261 289.643 284.058C290.814 283.382 290.038 281.512 288.916 280.759C287.794 280.006 286.294 279.429 286.01 278.108C285.8 277.138 286.373 276.185 286.521 275.203C286.887 272.791 283.998 270.564 281.755 271.529C280.489 269.852 282.995 267.905 285.022 267.347C291.109 265.674 297.358 264.654 303.661 264.305C304.389 264.19 305.134 264.316 305.782 264.666C306.841 265.398 306.706 267.079 305.955 268.125C305.205 269.17 304.038 269.827 303.103 270.712C302.081 271.706 301.353 272.962 300.996 274.341C300.64 275.721 300.67 277.172 301.083 278.536C304.374 280.208 307.951 281.93 311.596 281.341C315.241 280.751 318.476 276.66 316.763 273.393C315.167 270.35 310.375 269.664 309.551 266.329C308.586 262.425 314.119 258.952 312.872 255.128C312.327 253.453 310.656 252.467 309.373 251.258C307.859 249.775 306.829 247.869 306.419 245.791C306.008 243.713 306.236 241.559 307.073 239.613C304.985 239.98 302.839 239.841 300.815 239.209C298.791 238.576 296.949 237.468 295.442 235.977C292.66 233.172 290.441 228.747 286.49 228.873C282.865 228.988 279.743 233.213 276.353 231.924C275.519 231.607 274.64 230.961 273.832 231.34C273.567 231.511 273.345 231.741 273.182 232.011C273.019 232.281 272.92 232.585 272.891 232.899C272.03 237.014 273.512 241.702 271.267 245.257C268.825 249.126 263.175 249.663 260.213 253.152C258.606 255.046 257.983 257.598 256.506 259.595C255.028 261.591 251.892 262.861 250.119 261.121C250.99 259.331 251.228 257.299 250.794 255.356C250.36 253.414 249.279 251.676 247.728 250.427C246.081 249.354 244.307 248.491 242.445 247.86C240.366 246.981 238.387 245.879 236.545 244.574C235.621 244.018 234.871 243.216 234.378 242.259C233.988 241.059 234.041 239.76 234.526 238.597C235.426 236.021 237.012 233.74 239.114 231.999C241.216 230.259 243.754 229.125 246.454 228.72C248.814 228.399 251.562 228.512 253.125 226.715C253.951 225.764 254.385 224.327 255.585 223.94C256.353 223.786 257.149 223.884 257.857 224.22L266.669 227.319C267.652 227.762 268.734 227.941 269.808 227.837C270.34 227.766 270.826 227.496 271.167 227.081C271.508 226.667 271.68 226.139 271.648 225.603C271.366 224.141 269.115 223.439 269.32 221.965C269.434 221.487 269.692 221.055 270.057 220.726C273.237 217.344 277.126 214.707 281.446 213.003C285.766 211.299 290.409 210.57 295.044 210.868C296.156 212.693 294.397 214.854 292.934 216.412C291.47 217.97 290.294 220.754 292.064 221.953C292.789 222.323 293.596 222.504 294.41 222.481C296.58 222.774 298.688 223.413 300.655 224.373C303.7 225.697 306.687 227.146 309.615 228.719C309.356 226.79 309.11 224.758 309.841 222.954C310.573 221.151 312.653 219.736 314.47 220.439C316.22 221.115 317.118 223.431 318.984 223.644C321.472 223.927 322.453 220.254 321.414 217.978C320.375 215.702 318.317 213.796 318.145 211.3C318.03 209.616 318.671 207.528 317.325 206.508C316.846 206.202 316.302 206.012 315.736 205.952L282.12 199.772C280.124 199.405 277.24 199.686 277.151 201.712C277.102 202.843 278.113 203.962 277.665 205.001C277.187 206.111 275.617 206.009 274.473 206.402C272.699 207.011 271.809 209.116 271.979 210.983C272.291 212.838 273.01 214.6 274.085 216.145C271.898 215.231 268.587 215.063 266.401 214.15Z" fill="#3F3D56"/>
<path d="M239.578 185.641C237.459 184.94 235.174 184.907 233.035 185.547C230.896 186.187 229.006 187.469 227.621 189.219C227.067 189.947 226.603 190.95 227.066 191.739C227.73 192.869 229.423 192.423 230.671 192.018C232.505 191.363 234.502 191.316 236.366 191.883C237.537 192.285 238.586 192.995 239.763 193.382C240.336 193.621 240.963 193.7 241.578 193.611C242.192 193.521 242.771 193.266 243.251 192.872C244.059 192.049 244.11 190.77 244.111 189.617C244.167 189.231 244.136 188.838 244.021 188.466C243.905 188.093 243.708 187.752 243.443 187.465C242.972 187.193 242.443 187.036 241.899 187.009C240.681 186.784 239.58 186.141 238.786 185.192" fill="#3F3D56"/>
<path d="M251.7 182.269C251.225 182.243 250.752 182.34 250.326 182.549C249.9 182.759 249.535 183.075 249.266 183.466C248.997 183.857 248.834 184.311 248.791 184.784C248.749 185.257 248.828 185.733 249.023 186.165C250.48 186.562 252.002 186.662 253.498 186.457C254.245 186.341 254.94 186.007 255.496 185.498C256.053 184.988 256.446 184.325 256.626 183.592C254.865 183.912 253.047 183.565 251.528 182.619" fill="#3F3D56"/>
<path d="M292.368 176.638C288.403 177.48 284.551 178.788 280.892 180.533C282.617 181.195 284.083 182.393 285.075 183.951C286.066 185.509 286.53 187.343 286.399 189.184C286.244 189.891 286.262 190.625 286.451 191.323C286.873 192.344 288.094 192.727 289.168 192.989C291.097 193.576 293.111 193.833 295.126 193.749C296.134 193.696 297.112 193.393 297.973 192.868C298.834 192.342 299.551 191.61 300.057 190.738C300.349 189.911 300.692 189.102 301.083 188.316C303.657 184.4 311.302 189.135 314.065 185.351C315.038 184.017 314.949 182.01 316.218 180.954C316.875 180.494 317.635 180.204 318.432 180.11C323.989 179.007 329.601 178.208 335.245 177.718C337.92 177.485 341.405 176.526 341.428 173.844C331.355 171.868 320.911 173.271 311.719 177.837C308.407 179.494 304.027 182.98 300.837 180.783C299.642 179.961 299.701 177.745 298.058 176.82C296.377 175.875 294.152 176.259 292.368 176.638Z" fill="#3F3D56"/>
<path d="M325.309 182.792L330.037 183.7C329.167 183.662 328.298 183.809 327.49 184.132C326.681 184.456 325.95 184.948 325.347 185.576C324.743 186.203 324.281 186.953 323.99 187.773C323.699 188.594 323.587 189.467 323.661 190.334C328.089 191.812 332.916 190.374 337.581 190.57C342.245 190.767 347.672 194.095 346.876 198.691C346.635 200.08 345.831 201.469 346.249 202.816C346.542 203.76 347.376 204.43 347.846 205.3C348.826 207.112 348.043 209.404 346.805 211.051C345.567 212.698 343.903 214.012 342.817 215.763C340.115 220.116 341.65 225.745 343.26 230.608C343.725 232.446 344.585 234.161 345.779 235.634C348.164 238.168 352.05 238.388 355.531 238.439C358.064 238.476 360.966 238.351 362.568 236.39C364.66 233.829 363.197 229.835 364.575 226.83C365.825 224.101 369.012 222.931 371.898 222.1C377.187 220.579 382.577 219.286 387.577 216.988C393.786 214.135 399.589 209.689 406.413 209.322C408.327 209.219 410.289 209.444 412.133 208.92C413.978 208.396 415.729 206.803 415.59 204.893C415.471 203.261 414.088 202.062 413.008 200.832C411.928 199.601 411.08 197.709 412.072 196.407L429.96 193.069C428.692 189.617 427.704 185.07 430.617 182.823C431.669 182.013 433.076 181.689 433.971 180.709C435.497 179.038 434.73 176.16 432.969 174.74C431.208 173.319 428.827 172.989 426.571 172.802C418.728 172.151 410.84 172.581 402.981 173.011C387.62 173.853 372.259 174.694 356.898 175.535C353.805 175.704 350.235 175.446 347.399 176.5C344.998 177.392 343.291 179.03 340.544 179.605C335.475 180.668 329.896 179.949 325.309 182.792Z" fill="#3F3D56"/>
<path d="M410.016 220.131C409.534 220.055 409.041 220.167 408.639 220.443C408.374 220.735 408.216 221.109 408.191 221.503C407.886 223.242 408.25 225.033 409.209 226.515C409.698 227.242 410.373 227.826 411.164 228.204C411.954 228.583 412.832 228.744 413.706 228.669C415.835 228.398 417.404 226.583 419.361 225.697C422.378 224.334 435.19 222.208 426.327 217.425C423.273 215.776 421.3 217.232 418.892 218.317C416.154 219.717 413.085 220.344 410.016 220.131V220.131Z" fill="#3F3D56"/>
<path d="M487.64 180.092C486.605 180.514 485.739 181.267 485.178 182.233C484.919 182.723 484.859 183.294 485.01 183.828C485.161 184.361 485.511 184.816 485.989 185.099C486.375 185.239 486.785 185.304 487.196 185.29L491.403 185.416C493.191 185.469 495.424 185.849 495.904 187.57C496.261 188.848 495.463 190.49 496.426 191.404C496.839 191.723 497.336 191.917 497.857 191.961C499.243 192.317 500.691 192.364 502.097 192.098C505.158 191.278 503.55 189.411 504.514 187.749C505.989 185.205 505.734 186.745 508.334 185.287C510.253 184.211 512.734 182.258 511.132 179.514C508.345 174.743 491.752 178.042 487.64 180.092Z" fill="#3F3D56"/>
<path d="M570.69 177.693L568.247 178.019C562.737 178.754 557.196 179.495 551.889 181.148C554.186 182.055 556.596 182.646 559.053 182.904C560.405 182.97 561.749 183.161 563.066 183.474C565.41 184.171 567.771 185.971 570.036 185.049C571.44 184.477 571.898 183.017 573.061 182.243C573.864 181.708 576.91 180.843 577.251 180.304C580.003 175.942 572.806 177.411 570.69 177.693Z" fill="#3F3D56"/>
<path d="M581.419 188.788C578.155 190.611 575.127 192.826 572.402 195.384C571.254 196.463 570.082 197.804 570.186 199.374C570.324 201.462 572.55 202.673 574.478 203.488L582.289 206.792C583.237 205.458 582.369 203.616 581.39 202.305C580.411 200.994 579.247 199.477 579.68 197.899C580.174 196.098 582.371 195.485 584.214 195.174C587.216 194.669 595.315 194.709 594.342 189.875C593.196 184.179 584.433 187.105 581.419 188.788Z" fill="#3F3D56"/>
<path d="M579.848 511.13C579.105 513.281 579.034 515.814 580.32 517.692C581.764 519.799 584.652 520.585 587.151 520.05C589.64 519.389 591.858 517.964 593.493 515.977C594.989 514.311 596.219 512.427 597.141 510.388C598.428 507.211 599.335 503.893 599.845 500.504L602.27 487.783C602.812 484.94 602.791 476.224 597.561 479.064C596.132 479.839 592.823 485.965 591.326 487.702C588.627 490.832 588.27 493.87 586.849 497.662C585.07 502.413 581.493 506.372 579.848 511.13Z" fill="#3F3D56"/>
<path d="M856.097 576.228C854.386 575.56 852.725 574.77 851.127 573.864C849.525 578.264 848.674 582.901 848.608 587.582L860.319 580.962C862.08 579.966 864.077 578.582 864.039 576.56C864.055 576.31 864.003 576.061 863.889 575.838C863.776 575.615 863.604 575.427 863.392 575.294C863.132 575.189 862.848 575.156 862.571 575.198C860.834 575.342 859.251 576.196 857.613 576.789C855.975 577.383 854.059 577.697 852.556 576.816" fill="#3F3D56"/>
<path d="M917.875 580.158C916.59 580.508 915.334 580.958 914.12 581.505C911.432 582.871 909.604 585.466 907.186 587.265C904.871 588.987 902.085 589.932 899.351 590.851C898.546 591.562 898.916 592.993 899.789 593.617C900.728 594.15 901.805 594.392 902.882 594.311C905.723 594.374 908.717 594.401 911.205 593.03C912.608 592.121 913.92 591.081 915.124 589.923C918.034 587.497 921.528 585.897 924.987 584.35C926.246 583.876 927.41 583.18 928.425 582.297C930.598 580.158 930.751 576.857 927.617 576.129C925.085 575.541 920.286 579.379 917.875 580.158Z" fill="#3F3D56"/>
<path d="M945.172 562.345C945.312 560.873 945.116 559.388 944.599 558.002C944.081 556.617 943.255 555.367 942.183 554.348C942.15 557.293 942.061 560.431 940.403 562.866C939.221 564.602 937.369 565.774 936.075 567.427C934.78 569.08 934.206 571.7 935.724 573.151C936.695 573.888 937.877 574.295 939.096 574.311C942.118 574.666 945.616 574.864 947.736 572.683C948.893 571.492 949.456 569.729 950.867 568.854C951.392 568.633 951.862 568.298 952.24 567.872C952.823 566.946 951.897 565.727 950.855 565.393C949.813 565.06 948.665 565.217 947.617 564.9C946.57 564.583 945.609 563.407 946.147 562.455" fill="#3F3D56"/>
<path d="M896.658 454.357C895.072 454.742 893.43 454.839 891.81 454.642C889.12 454.148 887.026 452.122 884.853 450.461C879.69 446.533 873.413 444.342 866.924 444.203C861.022 444.091 855.064 445.689 849.267 444.574C849.646 446.679 851.448 448.258 853.372 449.196C855.295 450.134 857.418 450.606 859.351 451.525C862.446 453.012 864.901 455.563 866.265 458.712C866.887 460.163 867.279 461.743 868.222 463.011C870.149 465.601 873.802 466.17 877.026 465.958C881.229 465.682 885.619 464.474 889.529 466.039C892.52 467.236 894.661 469.851 897.159 471.885C899.657 473.919 903.174 475.428 906.043 473.961C903.063 472.997 900.471 471.108 898.643 468.568C896.815 466.028 895.847 462.971 895.881 459.843C898.694 460.101 906.796 460.001 906.359 455.226C905.99 451.179 899.073 453.92 896.658 454.357Z" fill="#3F3D56"/>
<path d="M859.86 487.282C860.359 484.546 863.091 482.129 862.24 479.48C861.652 477.649 859.526 476.744 857.601 476.699C855.676 476.654 853.784 477.227 851.86 477.281C850.607 477.214 849.351 477.232 848.1 477.334C844.279 477.961 841.924 481.963 838.323 483.385C836.134 484.25 833.674 484.085 831.397 484.683C826.228 486.041 822.957 490.92 819.344 494.855C813.505 501.184 805.899 505.615 797.511 507.575C794.572 508.255 791.412 508.69 789.076 510.597C785.982 513.123 785.221 517.452 784.533 521.384C782.631 532.241 779.725 542.9 775.852 553.221L788.126 554.787C790.459 555.084 792.877 555.376 795.126 554.685C796.76 554.069 798.307 553.246 799.73 552.235C805.197 548.844 811.315 546.638 817.689 545.758C820.903 545.318 824.273 545.237 827.289 546.43C830.305 547.624 832.893 550.331 833.146 553.562C834.45 553.157 835.84 553.113 837.168 553.436C838.495 553.758 839.71 554.435 840.682 555.393C842.604 557.35 843.863 559.86 844.28 562.569C844.604 564.247 844.927 566.257 846.485 566.961C847.756 567.535 849.215 566.917 850.605 566.805C855.324 566.428 859.24 571.925 863.878 570.979C868.853 569.964 870.074 562.521 874.927 561.03C877.714 560.174 881.624 561.215 882.958 558.625C884.135 556.342 881.788 553.707 882.03 551.151C882.328 548.003 886.044 546.667 888.909 545.324C898.787 540.694 903.474 527.412 898.687 517.616C895.852 511.813 890.272 507.244 889.241 500.868C888.448 495.963 890.384 490.242 887.253 486.381C885.661 484.417 882.964 483.333 882.017 480.989C881.42 479.514 881.66 477.84 881.339 476.281C881.018 474.723 879.657 473.093 878.116 473.497C873.645 474.669 872.218 488.469 869.824 491.823C866.185 496.92 858.714 493.562 859.86 487.282Z" fill="#3F3D56"/>
<path d="M777.209 459.571C775.681 459.143 774.012 458.721 772.548 459.333C771.084 459.945 770.229 462.092 771.404 463.158C780.597 462.8 789.847 462.445 798.962 463.692C809.464 465.129 819.857 468.689 830.405 467.642C824.38 465.866 818.255 464.446 812.063 463.39L801.736 461.419C798.966 460.839 796.167 460.407 793.351 460.124C787.46 459.638 783.001 461.194 777.209 459.571Z" fill="#3F3D56"/>
<path d="M786.412 427.583C785.649 427.52 784.704 427.465 784.309 428.12C783.932 428.747 784.364 429.574 784.161 430.277C783.884 431.236 782.626 431.481 781.635 431.351C780.644 431.22 779.572 430.907 778.694 431.385C778.249 431.689 777.914 432.129 777.74 432.639C777.567 433.149 777.563 433.701 777.73 434.213C778.089 435.23 778.67 436.155 779.43 436.92C780.729 438.555 782.208 440.038 783.84 441.34C787 443.67 791.281 444.793 793.271 448.175C793.551 448.831 793.983 449.411 794.53 449.869C795.485 450.474 796.731 450.014 797.76 449.544L801.365 447.898C802.015 447.664 802.595 447.27 803.051 446.753C803.875 445.636 803.369 444.049 802.677 442.846C801.986 441.643 801.101 440.398 801.249 439.019C801.514 436.56 804.679 435.619 805.98 433.515C807.292 431.394 806.438 428.662 806.589 426.173C806.766 423.263 808.596 419.478 805.651 417.303C803.148 415.455 800.756 417.163 798.959 419.203C795.17 423.505 793.378 428.165 786.412 427.583Z" fill="#3F3D56"/>
<path d="M808.298 384.101C809.529 386.455 812.095 387.861 813.438 390.154C814.893 392.639 814.727 395.851 816.305 398.26C817.925 400.732 821.183 402.044 822.092 404.855C823.083 407.925 820.834 411.655 822.627 414.337C822.961 414.775 823.383 415.14 823.866 415.407C824.349 415.674 824.881 415.837 825.431 415.888C825.98 415.938 826.534 415.874 827.057 415.7C827.581 415.525 828.062 415.244 828.471 414.873C829.227 414.051 829.631 412.966 829.598 411.85C829.565 410.734 829.097 409.675 828.294 408.898C827.232 407.931 825.707 407.513 824.821 406.384C824.359 405.732 824.052 404.984 823.922 404.196C823.438 401.923 823.516 399.567 824.147 397.331C824.384 396.763 824.444 396.137 824.32 395.535C823.921 394.376 822.35 394.294 821.248 393.756C818.744 392.535 818.804 389.005 819.242 386.255C818.951 388.086 812.425 384.973 811.742 383.936C810.384 381.876 811.123 377.904 810.854 375.628C807.923 377.039 806.793 381.222 808.298 384.101Z" fill="#3F3D56"/>
<path d="M742.555 420.33C741.35 418.983 739.536 417.574 737.921 418.386C736.689 419.006 736.35 420.709 736.833 422C737.421 423.254 738.327 424.332 739.461 425.129C742.826 427.902 746.45 430.405 749.385 433.628C754.639 439.396 757.422 447.179 763.136 452.493C764.285 453.725 765.805 454.547 767.466 454.834C769.131 454.989 771 453.924 771.191 452.265C771.349 450.898 770.395 449.675 769.463 448.662C767.243 446.25 764.814 444.03 762.718 441.509C761.75 440.541 761.142 439.272 760.994 437.912C760.983 436.555 762.222 435.135 763.538 435.471C761.938 435.062 760.751 432.398 758.402 431.898C756.438 431.479 755.963 432.693 753.627 431.692C749.171 429.783 745.675 423.82 742.555 420.33Z" fill="#3F3D56"/>
<path d="M847.257 289.163C845.978 288.783 844.722 288.334 843.492 287.819C840.184 286.827 835.806 289.256 836.247 292.679C836.54 294.953 838.659 296.487 839.829 298.459C841.564 301.385 841.101 305.095 840.189 308.371C839.966 309.385 839.54 310.344 838.938 311.191C838.096 312.085 837.089 312.809 835.973 313.322C831.505 315.825 827.565 319.169 824.37 323.17C824.023 323.539 823.781 323.995 823.67 324.489C823.512 325.645 824.675 326.487 825.332 327.451C826.792 329.592 825.737 332.473 825.881 335.06C825.859 335.425 825.931 335.791 826.089 336.121C826.248 336.451 826.489 336.736 826.788 336.947C827.669 337.394 828.711 336.635 829.189 335.772C830.772 332.906 829.579 328.307 832.549 326.925C833.111 326.664 833.792 326.553 834.167 326.06C834.761 325.278 834.188 324.12 834.489 323.185C834.941 321.782 836.863 321.719 838.338 321.781C840.878 321.887 843.417 321.549 845.841 320.783C846.792 320.557 847.656 320.057 848.325 319.346C849.213 318.239 849.134 316.665 848.957 315.258C848.068 308.242 845.844 301.46 842.403 295.28C845.012 295.612 847.85 295.901 850.102 294.543C851.362 293.782 852.874 291.507 852.249 289.959C851.26 287.511 849.474 289.572 847.257 289.163Z" fill="#3F3D56"/>
<path d="M512.807 327.75C513.119 329.423 513.426 331.185 512.878 332.796C512.329 334.407 510.603 335.753 508.973 335.259C507.707 334.876 506.977 333.605 506.078 332.636C501.083 327.248 489.812 330.368 486.726 323.702C485.466 320.981 486.322 317.722 485.463 314.85C484.921 313.19 483.843 311.757 482.397 310.776C480.952 309.795 479.221 309.322 477.477 309.43C475.886 309.659 474.338 310.121 472.881 310.801C463.124 314.705 452.881 317.264 442.433 318.409C440.447 318.53 438.483 318.887 436.582 319.472C432.292 321.026 429.361 325 427.275 329.054C425.189 333.109 423.649 337.499 420.852 341.101C417.913 344.887 413.794 347.538 409.952 350.406C408.472 351.359 407.24 352.649 406.356 354.171C405.523 355.879 405.57 357.866 405.635 359.766L406.42 382.832C406.521 385.799 406.648 388.872 407.977 391.527C409.637 394.843 412.916 397.014 415.19 399.943C417.512 402.953 418.721 406.671 418.613 410.47C418.565 411.997 418.413 413.803 419.603 414.762C420.327 415.231 421.175 415.474 422.038 415.461L453.269 418.015C458.763 418.464 464.852 419.203 468.439 423.385C470.131 425.358 471.491 428.196 474.084 428.408C475.196 428.499 476.279 428.043 477.391 427.955C480.198 427.733 482.663 429.861 484.219 432.205C486.574 435.777 487.643 440.044 487.25 444.304C486.995 446.978 486.166 449.577 485.987 452.257C485.306 462.455 493.959 471.315 494.127 481.534C494.225 487.545 491.369 493.162 488.585 498.491C493.079 505.293 489.399 514.351 491.188 522.303C492.885 529.847 499.182 535.753 500.751 543.325C501.469 546.792 501.51 551.057 504.57 552.843C505.913 553.496 507.401 553.794 508.892 553.707C517.885 553.814 526.776 551.791 534.837 547.806C538.62 545.931 542.541 543.131 543.202 538.963C543.734 535.602 542.029 531.843 543.765 528.915C545.811 525.465 551.053 525.739 554.063 523.086C558.948 518.782 555.139 510.575 557.118 504.376C558.897 498.805 565.02 495.845 568.055 490.844C569.25 488.693 570.107 486.372 570.597 483.962C571.987 478.201 572.853 472.327 573.183 466.41C573.264 462.815 573.529 459.227 573.978 455.659C577.25 435.347 597.349 421.746 603.875 402.234C604.498 400.37 604.791 397.888 603.131 396.833C602.147 396.364 601.031 396.248 599.971 396.503L585.574 398.316C583.786 398.542 581.89 398.752 580.248 398.01C578.606 397.268 577.429 395.193 578.3 393.616C580.745 389.191 575.715 383.599 573.481 379.064C567.462 366.853 560.296 355.242 552.077 344.386C551.551 343.828 551.222 343.113 551.139 342.351L555.225 342.487C553.846 337.542 551.57 332.131 546.761 330.322C544.052 329.303 541.051 329.655 538.16 329.813C529.88 330.265 521.003 329.016 512.807 327.75Z" fill="#3F3D56"/>
<path d="M538.167 216.321C540.334 218.62 542.762 221.057 545.897 221.458C551.434 222.166 555.415 216.445 557.95 211.476C558.044 212.743 558.629 213.923 559.58 214.766C560.532 215.609 561.775 216.047 563.045 215.988C564.411 215.759 565.716 215.249 566.876 214.492C577.848 208.502 590.136 205.328 602.638 205.256C602.518 204.31 602.753 203.352 603.298 202.569C603.843 201.786 604.658 201.232 605.588 201.014C608.13 200.511 610.42 202.706 611.646 204.987C612.872 207.268 613.637 209.911 615.585 211.619C617.533 213.326 621.305 213.251 622.074 210.779C622.813 208.406 620.338 206.382 618.282 204.982C616.226 203.583 614.059 200.993 615.443 198.928C625.948 196.605 636.518 194.273 647.267 193.811C649.097 193.875 650.92 193.561 652.624 192.89C654.263 192.086 655.566 190.262 655.125 188.491C652.779 189.042 650.322 188.883 648.068 188.033C645.813 187.183 643.863 185.682 642.466 183.721C657.381 182.491 673.245 181.443 686.463 188.455C688.049 191.857 679.965 194.687 682.128 197.755C682.817 198.734 684.2 198.849 685.398 198.871C694.583 199.041 703.822 199.208 712.903 197.823C716.222 197.317 719.574 196.602 722.906 197.012C728.456 197.696 733.203 201.396 738.664 202.602C740.886 203.093 743.378 203.11 745.251 201.818C747.124 200.527 747.93 197.586 746.394 195.908C751.535 190.874 760.068 192.122 766.85 194.531C773.632 196.941 780.057 200.828 787.235 201.365C792.383 201.75 797.602 200.367 802.688 201.246C805.884 201.799 808.859 203.219 811.983 204.092C817.891 205.743 824.141 205.394 830.276 205.474C845.928 205.684 861.409 208.758 875.952 214.541C877.844 215.157 879.578 216.18 881.03 217.539C882.383 218.986 883.074 221.236 882.164 222.996L867.136 220.803C868.552 223.587 872.215 224.062 875.19 225.023C878.165 225.983 881.249 229.265 879.461 231.828C876.238 230.802 873.317 234.022 871.689 236.984C870.061 239.947 868.076 243.494 864.698 243.675C861.674 243.836 858.015 241.263 856.044 243.561C858.768 246.994 861.1 250.719 862.998 254.668C864.946 258.723 866.333 263.831 863.701 267.479C863.286 268.13 862.658 268.617 861.924 268.855C859.774 269.399 858.377 266.771 856.835 265.178C854.891 263.171 851.953 262.603 849.322 261.661C846.69 260.72 843.918 258.868 843.713 256.084C843.584 254.351 844.5 252.74 845.174 251.139C846.308 248.44 846.804 245.516 846.623 242.595C846.476 240.244 845.816 237.799 844.126 236.157C842.437 234.515 839.52 233.994 837.706 235.498C836.86 236.2 836.181 237.323 835.082 237.365C833.14 237.439 831.649 234.056 830.087 235.211C830.27 236.441 830.015 237.697 829.366 238.758C824.703 242.809 817.541 241.095 811.53 242.526C808.672 243.343 805.936 244.537 803.393 246.076C802.442 246.483 801.633 247.161 801.067 248.027C800.317 249.484 801.144 251.349 802.467 252.318C803.869 253.177 805.445 253.714 807.081 253.891C814.408 255.278 821.843 257.424 827.628 262.126C833.413 266.828 837.207 274.601 835.376 281.824L820.926 268.029C821.475 273.821 821.786 279.629 821.86 285.453C821.954 286.591 821.797 287.734 821.402 288.805C820.372 291.078 817.58 291.843 815.133 292.345C814.453 292.474 813.807 292.746 813.239 293.142C812.671 293.538 812.194 294.049 811.838 294.643C811.482 295.237 811.255 295.899 811.174 296.586C811.092 297.273 811.157 297.97 811.364 298.63C812.233 301.461 814.401 303.668 816.385 305.867C818.37 308.066 820.323 310.566 820.583 313.515C820.842 316.465 818.615 319.79 815.658 319.584C813.417 319.429 811.754 317.424 810.798 315.393C809.842 313.362 809.273 311.099 807.837 309.373C803.489 304.149 793.723 306.387 789.828 300.818C788.836 301.943 788.147 303.303 787.828 304.769C787.51 306.234 787.571 307.757 788.007 309.192C789.819 308.059 792.299 309.112 793.661 310.759C795.022 312.405 795.665 314.517 796.734 316.366C798.176 318.862 800.472 321.074 800.674 323.949C800.62 325.036 800.639 326.126 800.729 327.21C801.086 328.952 802.56 330.203 803.582 331.659C805.959 335.047 805.842 339.701 804.309 343.545C802.777 347.389 800.024 350.601 797.297 353.715C792.534 359.155 787.674 364.562 782.027 369.079C780.416 370.368 778.696 371.635 777.693 373.437C776.689 375.239 776.638 377.769 778.18 379.14C777.076 379.195 775.097 379.737 773.994 379.792C773.606 375.37 773.522 370.927 773.742 366.493C769.387 364.404 764.699 369.998 765.261 374.791C765.823 379.584 769.293 383.43 771.763 387.577C773.57 390.609 774.912 394.145 774.309 397.623C773.706 401.1 770.599 404.307 767.08 404.001C761.483 403.513 759.142 395.485 753.599 394.566C753.11 394.452 752.597 394.503 752.141 394.711C751.318 395.162 751.175 396.262 751.129 397.198C750.902 401.795 750.705 406.574 752.501 410.812C755.129 417.012 761.916 422.219 760.493 428.799C752.822 425.237 748.834 416.644 747.024 408.389C745.213 400.135 744.911 391.469 741.666 383.665C739.201 386.821 734.021 384.212 731.769 380.901C729.634 377.763 728.319 374.132 726.248 370.95C724.177 367.769 721.004 364.921 717.209 364.746C713.231 364.563 709.781 367.29 706.746 369.867C704.251 371.986 701.69 374.189 700.231 377.118C698.109 381.381 698.664 386.407 698.562 391.167C698.451 396.312 697.359 401.742 693.849 405.509C690.338 409.276 683.859 410.589 679.986 407.193C677.965 405.421 676.986 402.772 676.114 400.23C671.912 387.977 668.412 375.494 665.631 362.842C664.981 365.729 662.443 369.451 660.018 367.75C659.474 367.293 659.033 366.726 658.725 366.086C654.202 358.428 645.827 353.834 637.364 351.08C628.902 348.326 619.998 347.041 611.63 344.014C606.94 342.317 602.461 340.088 598.28 337.371C597.214 338.935 596.592 340.758 596.479 342.647C596.366 344.536 596.766 346.42 597.638 348.1C599.495 351.384 603.695 353.284 607.291 352.136C609.149 351.543 610.719 350.254 612.562 349.618C614.406 348.981 616.881 349.294 617.687 351.069C618.459 352.767 617.292 354.822 617.871 356.596C618.752 359.297 622.83 359.505 624.256 361.964C625.317 363.793 624.444 366.221 622.929 367.697C621.415 369.173 619.393 369.982 617.544 371.01C611.544 374.343 607.277 380.034 602.033 384.461C596.789 388.888 589.391 392.12 583.141 389.281C584.631 381.745 575.645 376.212 573.992 368.71C573.448 366.24 573.73 363.618 572.954 361.211C571.829 357.727 568.735 355.332 566.197 352.692C563.119 349.455 560.72 345.634 559.144 341.456C557.567 337.278 556.844 332.827 557.017 328.365C557.154 325.265 557.725 322.114 557.018 319.091C556.311 316.069 553.806 313.144 550.703 313.281C543.615 313.594 534.685 314.121 530.966 308.084C529.639 305.93 529.061 302.774 530.98 301.124C532.334 299.959 534.332 300.069 536.11 300.244L552.081 301.813C555.816 302.18 559.854 302.483 563.059 300.532C566.264 298.581 567.653 293.403 564.685 291.107C562.517 289.43 558.631 289.521 558.001 286.855C557.476 284.634 559.936 282.114 558.607 280.258C557.655 278.928 555.512 279.297 554.214 280.295C552.916 281.292 551.975 282.751 550.522 283.506C547.973 284.831 544.928 283.57 542.187 282.713C539.445 281.856 535.769 281.783 534.439 284.328C532.952 287.173 535.759 290.901 534.283 293.752C532.331 297.522 525.722 295.376 522.982 298.618C519.837 302.339 525.122 307.887 524.061 312.64C522.707 313.31 521.202 313.617 519.694 313.533C518.185 313.448 516.724 312.974 515.454 312.157C514.204 311.308 513.208 310.136 512.572 308.767C511.936 307.397 511.683 305.881 511.841 304.38C512.103 302.241 513.219 300.059 512.471 298.038C511.867 296.405 510.225 295.432 508.699 294.59L493.179 286.022C491.739 288.692 493.56 292.003 495.838 294.008C498.117 296.014 500.97 297.525 502.467 300.164C503.414 301.993 503.626 304.114 503.06 306.094C502.494 308.074 501.194 309.764 499.423 310.818C499.201 310.971 498.949 311.074 498.683 311.12C498.418 311.166 498.146 311.155 497.885 311.086C497.637 310.94 497.421 310.747 497.25 310.517C497.079 310.286 496.955 310.024 496.887 309.745C494.149 302.744 490.038 295.842 483.465 292.185C476.892 288.527 467.447 289.279 463.137 295.44C462.113 296.903 461.426 298.571 460.534 300.118C455.795 308.338 445.637 312.23 436.147 311.976C435.218 312.027 434.295 311.81 433.486 311.351C431.953 310.293 432.022 308.047 432.256 306.2L433.253 298.359C433.453 296.785 433.743 295.045 434.99 294.062C436.748 292.676 439.284 293.551 441.523 293.518C443.22 293.439 444.851 292.841 446.195 291.804C447.539 290.767 448.532 289.343 449.039 287.724C449.491 286.088 449.488 284.361 449.031 282.727C448.573 281.093 447.677 279.616 446.441 278.453C445.415 277.49 444.037 276.28 444.579 274.982C444.796 274.623 445.088 274.315 445.436 274.081C445.784 273.847 446.179 273.692 446.593 273.627C450.615 272.46 454.865 272.154 458.82 270.777C462.775 269.401 466.61 266.584 467.547 262.506C467.834 261.256 467.964 259.742 469.088 259.122C469.652 258.885 470.257 258.761 470.869 258.759C473.013 258.454 474.966 257.358 476.342 255.688C477.718 254.017 478.418 251.892 478.304 249.731C480.2 248.408 482.855 249.381 484.689 250.789C486.522 252.196 488.141 254.055 490.372 254.662C494.53 255.793 498.548 252.115 502.857 252.098C504.669 252.09 506.545 252.731 508.25 252.117C509.978 251.495 511.01 249.776 512.337 248.506C513.663 247.236 515.99 246.462 517.215 247.83L516.172 240.112C518.273 240.642 520.462 240.717 522.594 240.332C524.726 239.947 526.751 239.11 528.532 237.879L515.053 233.329C514.583 233.212 514.15 232.98 513.792 232.655C512.812 231.601 513.786 229.958 514.583 228.76C516.489 225.893 516.809 221.17 513.674 219.743C511.534 218.769 509.078 219.938 507.024 221.082L497.186 226.563C496.873 228.431 499.16 229.49 500.577 230.749C501.435 231.51 502.041 232.513 502.318 233.625C502.594 234.737 502.528 235.907 502.127 236.981C501.726 238.055 501.009 238.982 500.07 239.641C499.132 240.3 498.016 240.661 496.869 240.675C497.517 241.516 497.967 242.493 498.186 243.531C498.405 244.57 498.387 245.645 498.134 246.676L491.515 247.152C490.772 247.301 490 247.151 489.368 246.733C488.66 246.105 488.756 245.004 488.592 244.072C488.196 241.824 485.992 240.248 483.743 239.844C481.493 239.439 479.192 239.957 476.965 240.469C476.019 240.809 474.981 240.785 474.051 240.402C473.519 240.056 473.114 239.546 472.899 238.948C471.922 236.583 472.835 233.803 474.403 231.78C475.972 229.757 478.119 228.278 480.047 226.594C484.658 222.552 488.046 217.303 489.827 211.438C493.471 209.913 497.244 207.84 500.888 206.315C506.506 203.473 512.806 202.254 519.08 202.794L531.421 203.029C535.075 203.099 538.827 203.188 542.206 204.58C545.584 205.971 548.553 208.981 548.786 212.625C548.857 213.037 548.821 213.461 548.682 213.856C548.544 214.251 548.307 214.604 547.995 214.883C547.518 215.143 546.977 215.264 546.435 215.234C543.027 215.354 541.574 216.202 538.167 216.321Z" fill="#3F3D56"/>
<path d="M439.803 254.961C440.285 254.505 440.632 253.925 440.806 253.285C440.979 252.645 440.973 251.97 440.787 251.333C439.614 250.881 438.338 250.764 437.102 250.998C435.867 251.231 434.721 251.804 433.793 252.652C433.062 253.391 432.432 254.223 431.919 255.127C430.298 257.77 428.863 260.928 429.803 263.882C429.88 264.204 430.02 264.508 430.216 264.775C430.411 265.043 430.658 265.268 430.943 265.439C431.364 265.608 431.818 265.679 432.271 265.647C434.057 265.645 435.842 265.535 437.615 265.318C438.704 265.185 439.969 264.878 440.39 263.866C440.943 262.535 439.604 261.029 439.994 259.643C440.251 259.022 440.64 258.465 441.134 258.011C441.38 257.782 441.568 257.499 441.685 257.185C441.802 256.871 441.843 256.533 441.807 256.2C441.649 255.549 440.652 255.18 440.293 255.746" fill="#3F3D56"/>
<path d="M449.066 242.963C447.479 242.599 445.843 242.496 444.223 242.659C443.865 242.648 443.51 242.729 443.191 242.893C442.883 243.121 442.659 243.444 442.555 243.813C442.213 244.91 442.297 246.096 442.791 247.134C443.285 248.172 444.152 248.987 445.219 249.415C445.801 249.548 446.358 249.772 446.871 250.078C448.241 251.14 447.367 253.31 447.627 255.022C447.918 256.945 449.781 258.559 449.439 260.474C449.17 261.983 447.558 263.177 447.817 264.687C448.089 266.269 450.098 266.744 451.7 266.871C452.628 267.033 453.583 266.924 454.45 266.556C455.319 265.962 455.937 265.068 456.185 264.045C456.841 262.096 457.116 260.039 456.997 257.985C456.99 257.052 456.755 256.134 456.313 255.311C455.831 254.659 455.296 254.048 454.715 253.482C451.647 249.917 454.877 244.599 449.066 242.963Z" fill="#3F3D56"/>
<path d="M831.472 425.373C833.959 425.015 836.522 424.913 839.062 425.074C839.623 425.063 840.18 425.143 840.679 425.305C841.163 425.529 841.513 425.848 841.675 426.211C842.212 427.292 842.08 428.46 841.306 429.483C840.533 430.506 839.174 431.308 837.501 431.73C836.589 431.861 835.716 432.082 834.912 432.383C832.766 433.429 834.134 435.567 833.728 437.254C833.271 439.149 830.351 440.739 830.887 442.626C831.309 444.112 833.836 445.289 833.429 446.777C833.003 448.335 829.854 448.803 827.345 448.928C825.89 449.088 824.393 448.98 823.034 448.618C821.672 448.033 820.703 447.151 820.314 446.144C819.287 444.223 818.855 442.197 819.043 440.174C819.054 439.254 819.422 438.349 820.114 437.539C820.87 436.897 821.708 436.294 822.619 435.737C827.428 432.225 822.365 426.985 831.472 425.373Z" fill="#3F3D56"/>
<path d="M814.5 473C818.642 473 822 469.642 822 465.5C822 461.358 818.642 458 814.5 458C810.358 458 807 461.358 807 465.5C807 469.642 810.358 473 814.5 473Z" fill="#E84D3D"/>
<path d="M831.5 447C835.642 447 839 443.642 839 439.5C839 435.358 835.642 432 831.5 432C827.358 432 824 435.358 824 439.5C824 443.642 827.358 447 831.5 447Z" fill="#E84D3D"/>
<path d="M778 470C781.866 470 785 466.642 785 462.5C785 458.358 781.866 455 778 455C774.134 455 771 458.358 771 462.5C771 466.642 774.134 470 778 470Z" fill="#E84D3D"/>
<path d="M862.5 455C866.642 455 870 451.642 870 447.5C870 443.358 866.642 440 862.5 440C858.358 440 855 443.358 855 447.5C855 451.642 858.358 455 862.5 455Z" fill="#E84D3D"/>
<path d="M764.5 447C768.642 447 772 443.866 772 440C772 436.134 768.642 433 764.5 433C760.358 433 757 436.134 757 440C757 443.866 760.358 447 764.5 447Z" fill="#E84D3D"/>
<line x1="766.059" y1="438.503" x2="859.059" y2="449.503" stroke="#47D1DA"/>
<g clip-path="url(#clip0_161_88)">
<path d="M743.477 465.027C743.433 464.85 743.288 464.718 743.138 464.619C742.987 464.52 742.821 464.44 742.692 464.313C742.563 464.186 742.477 463.992 742.536 463.821C742.609 463.612 742.851 463.529 743.063 463.473C741.126 463.262 739.179 463.153 737.231 463.144C737.187 463.084 737.126 463.039 737.055 463.017C736.985 462.994 736.909 462.994 736.839 463.018C736.768 463.041 736.707 463.087 736.664 463.147C736.621 463.208 736.598 463.281 736.598 463.355V469.68H737.301V465.795C738.973 465.799 740.644 465.803 742.315 465.807C742.585 465.808 742.867 465.806 743.11 465.686C743.353 465.567 743.544 465.291 743.477 465.027Z" fill="#CCCCCC"/>
<path d="M747.362 476.36V474.228H748.98C749.266 474.228 749.55 474.171 749.815 474.061C750.079 473.95 750.32 473.788 750.522 473.583C750.725 473.379 750.885 473.136 750.995 472.868C751.104 472.601 751.161 472.315 751.161 472.025L738.849 472.025C738.849 471.762 738.953 471.508 739.138 471.322C739.322 471.135 739.573 471.03 739.834 471.03H748.417V470.783C748.417 469.939 747.838 469.254 747.124 469.254H736.427C734.78 469.254 733.275 470.326 732.498 472.025H730.776C730.63 472.025 730.489 472.083 730.384 472.186L729.295 473.252C729.214 473.33 729.159 473.432 729.136 473.542C729.113 473.653 729.123 473.768 729.165 473.873C729.207 473.978 729.279 474.068 729.372 474.131C729.465 474.195 729.574 474.228 729.686 474.228H731.04V476.36H724.821C724.741 476.36 724.663 476.377 724.59 476.41C724.518 476.443 724.453 476.491 724.4 476.551L723.149 477.973C723.077 478.054 723.03 478.156 723.014 478.264C722.997 478.372 723.012 478.483 723.056 478.583C723.101 478.683 723.173 478.768 723.264 478.828C723.355 478.887 723.461 478.919 723.57 478.919H727.438C727.533 478.919 727.627 478.943 727.711 478.99C727.794 479.037 727.865 479.104 727.915 479.186L728.594 480.282C728.645 480.365 728.675 480.46 728.679 480.558C728.683 480.655 728.663 480.752 728.619 480.84C728.576 480.927 728.51 481.001 728.43 481.056C728.35 481.11 728.257 481.143 728.16 481.15L719.771 481.806C719.668 481.814 719.57 481.85 719.487 481.91C719.404 481.97 719.338 482.052 719.297 482.147L717.521 486.297C717.484 486.384 717.469 486.478 717.477 486.572C717.485 486.666 717.516 486.756 717.567 486.835C717.618 486.914 717.688 486.978 717.77 487.023C717.852 487.068 717.944 487.091 718.037 487.091H746.07C746.756 487.092 747.441 487.028 748.117 486.903C753.121 485.97 756.719 481.501 756.719 476.36L747.362 476.36ZM733.151 474.228H745.251V476.36H733.151V474.228ZM750.739 478.777C750.739 479.075 750.68 479.371 750.567 479.647C750.454 479.923 750.288 480.174 750.079 480.385C749.87 480.596 749.622 480.763 749.349 480.878C749.076 480.992 748.783 481.051 748.487 481.051H730.337C730.337 480.448 730.574 479.869 730.996 479.443C731.418 479.016 731.991 478.777 732.588 478.777L750.739 478.777Z" fill="#3F3D56"/>
<path d="M747.784 479.914H732.729C732.635 479.914 732.546 479.951 732.48 480.018C732.414 480.085 732.377 480.175 732.377 480.269V481.122H748.136V480.269C748.136 480.175 748.098 480.085 748.033 480.018C747.967 479.951 747.877 479.914 747.784 479.914V479.914ZM735.683 480.056H737.344V480.98H735.683V480.056ZM735.543 480.98H733.883V480.056H735.543V480.98ZM737.484 480.056H739.145V480.98H737.484V480.056ZM739.285 480.056H740.945V480.98H739.285V480.056ZM741.086 480.056H742.746V480.98H741.086V480.056ZM742.887 480.056H744.547V480.98H742.887V480.056ZM744.688 480.056H746.348V480.98H744.688V480.056ZM732.518 480.269C732.518 480.213 732.54 480.158 732.579 480.118C732.619 480.078 732.673 480.056 732.729 480.056H733.742V480.98H732.518V480.269ZM747.995 480.98H746.489V480.056H747.784C747.84 480.056 747.894 480.078 747.933 480.118C747.973 480.158 747.995 480.213 747.995 480.269V480.98Z" fill="#3F3D56"/>
<path d="M746.799 469.893H745.884V473.731H746.799V469.893Z" fill="#3F3D56"/>
<path d="M729.985 487.305H715.211C715.155 487.305 715.101 487.282 715.062 487.242C715.022 487.202 715 487.148 715 487.091C715 487.035 715.022 486.981 715.062 486.941C715.101 486.901 715.155 486.878 715.211 486.878H729.985C730.041 486.878 730.095 486.901 730.134 486.941C730.174 486.981 730.196 487.035 730.196 487.091C730.196 487.148 730.174 487.202 730.134 487.242C730.095 487.282 730.041 487.305 729.985 487.305V487.305Z" fill="#CCCCCC"/>
<path d="M723.442 488.584H717.322C717.266 488.584 717.212 488.561 717.172 488.521C717.133 488.481 717.111 488.427 717.111 488.371C717.111 488.314 717.133 488.26 717.172 488.22C717.212 488.18 717.266 488.157 717.322 488.157H723.442C723.498 488.157 723.552 488.18 723.591 488.22C723.631 488.26 723.653 488.314 723.653 488.371C723.653 488.427 723.631 488.481 723.591 488.521C723.552 488.561 723.498 488.584 723.442 488.584V488.584Z" fill="#CCCCCC"/>
<path d="M750.457 487.305H735.683C735.627 487.305 735.574 487.282 735.534 487.242C735.495 487.202 735.472 487.148 735.472 487.091C735.472 487.035 735.495 486.981 735.534 486.941C735.574 486.901 735.627 486.878 735.683 486.878H750.457C750.513 486.878 750.567 486.901 750.607 486.941C750.646 486.981 750.668 487.035 750.668 487.091C750.668 487.148 750.646 487.202 750.607 487.242C750.567 487.282 750.513 487.305 750.457 487.305V487.305Z" fill="#CCCCCC"/>
<path d="M741.382 488.584H726.608C726.552 488.584 726.498 488.561 726.459 488.521C726.419 488.481 726.397 488.427 726.397 488.371C726.397 488.314 726.419 488.26 726.459 488.22C726.498 488.18 726.552 488.157 726.608 488.157H741.382C741.438 488.157 741.492 488.18 741.531 488.22C741.571 488.26 741.593 488.314 741.593 488.371C741.593 488.427 741.571 488.481 741.531 488.521C741.492 488.561 741.438 488.584 741.382 488.584V488.584Z" fill="#CCCCCC"/>
<path d="M729.985 489.721H715.211C715.155 489.721 715.102 489.698 715.062 489.658C715.022 489.618 715 489.564 715 489.508C715 489.451 715.022 489.397 715.062 489.357C715.102 489.317 715.155 489.294 715.211 489.294H729.985C730.041 489.294 730.094 489.317 730.134 489.357C730.173 489.397 730.196 489.451 730.196 489.508C730.196 489.564 730.173 489.618 730.134 489.658C730.094 489.698 730.041 489.721 729.985 489.721V489.721Z" fill="#CCCCCC"/>
<path d="M738.849 491H732.729C732.673 491 732.619 490.978 732.579 490.938C732.54 490.898 732.518 490.843 732.518 490.787C732.518 490.73 732.54 490.676 732.579 490.636C732.619 490.596 732.673 490.574 732.729 490.574H738.849C738.905 490.574 738.959 490.596 738.998 490.636C739.038 490.676 739.06 490.73 739.06 490.787C739.06 490.843 739.038 490.898 738.998 490.938C738.959 490.978 738.905 491 738.849 491V491Z" fill="#CCCCCC"/>
<path d="M725.623 491H719.502C719.447 491 719.393 490.978 719.353 490.938C719.314 490.898 719.291 490.843 719.291 490.787C719.291 490.73 719.314 490.676 719.353 490.636C719.393 490.596 719.447 490.574 719.502 490.574H725.623C725.679 490.574 725.733 490.596 725.772 490.636C725.812 490.676 725.834 490.73 725.834 490.787C725.834 490.843 725.812 490.898 725.772 490.938C725.733 490.978 725.679 491 725.623 491V491Z" fill="#CCCCCC"/>
<path d="M750.457 489.721H735.683C735.627 489.721 735.574 489.698 735.534 489.658C735.495 489.618 735.472 489.564 735.472 489.508C735.472 489.451 735.495 489.397 735.534 489.357C735.574 489.317 735.627 489.294 735.683 489.294H750.457C750.513 489.294 750.567 489.317 750.606 489.357C750.646 489.397 750.668 489.451 750.668 489.508C750.668 489.564 750.646 489.618 750.606 489.658C750.567 489.698 750.513 489.721 750.457 489.721V489.721Z" fill="#CCCCCC"/>
<path d="M756.789 491H742.015C741.959 491 741.905 490.978 741.866 490.938C741.826 490.898 741.804 490.843 741.804 490.787C741.804 490.73 741.826 490.676 741.866 490.636C741.905 490.596 741.959 490.574 742.015 490.574H756.789C756.845 490.574 756.899 490.596 756.938 490.636C756.978 490.676 757 490.73 757 490.787C757 490.843 756.978 490.898 756.938 490.938C756.899 490.978 756.845 491 756.789 491V491Z" fill="#CCCCCC"/>
</g>
<g clip-path="url(#clip1_161_88)">
<path d="M856.477 367.027C856.433 366.85 856.288 366.718 856.138 366.619C855.987 366.52 855.821 366.44 855.692 366.313C855.563 366.186 855.477 365.992 855.536 365.821C855.609 365.612 855.851 365.529 856.063 365.473C854.126 365.262 852.179 365.153 850.231 365.144C850.187 365.084 850.126 365.039 850.055 365.017C849.985 364.994 849.909 364.994 849.839 365.018C849.768 365.041 849.707 365.087 849.664 365.147C849.621 365.208 849.598 365.281 849.598 365.355V371.68H850.301V367.795C851.973 367.799 853.644 367.803 855.315 367.807C855.585 367.808 855.867 367.806 856.11 367.686C856.353 367.567 856.544 367.291 856.477 367.027Z" fill="#CCCCCC"/>
<path d="M860.362 378.36V376.228H861.98C862.266 376.228 862.55 376.171 862.815 376.061C863.079 375.95 863.32 375.788 863.522 375.583C863.725 375.379 863.885 375.136 863.995 374.868C864.104 374.601 864.161 374.315 864.161 374.025L851.849 374.025C851.849 373.761 851.953 373.508 852.138 373.322C852.322 373.135 852.573 373.03 852.834 373.03H861.417V372.783C861.417 371.938 860.838 371.254 860.124 371.254H849.427C847.78 371.254 846.275 372.326 845.498 374.025H843.776C843.63 374.025 843.489 374.083 843.384 374.186L842.295 375.252C842.214 375.33 842.159 375.432 842.136 375.542C842.113 375.653 842.123 375.768 842.165 375.873C842.207 375.978 842.279 376.068 842.372 376.131C842.465 376.195 842.574 376.228 842.686 376.228H844.04V378.36H837.821C837.741 378.36 837.663 378.377 837.59 378.41C837.518 378.443 837.453 378.491 837.4 378.551L836.149 379.973C836.077 380.054 836.03 380.156 836.014 380.264C835.997 380.372 836.012 380.483 836.056 380.583C836.101 380.683 836.173 380.768 836.264 380.828C836.355 380.887 836.461 380.919 836.57 380.919H840.438C840.533 380.919 840.627 380.943 840.711 380.99C840.794 381.037 840.865 381.104 840.915 381.186L841.594 382.282C841.645 382.365 841.675 382.46 841.679 382.558C841.683 382.655 841.663 382.752 841.619 382.84C841.576 382.927 841.51 383.001 841.43 383.056C841.35 383.11 841.257 383.143 841.16 383.15L832.771 383.806C832.668 383.814 832.57 383.85 832.487 383.91C832.404 383.97 832.338 384.052 832.297 384.147L830.521 388.297C830.484 388.384 830.469 388.478 830.477 388.572C830.485 388.666 830.516 388.756 830.567 388.835C830.618 388.914 830.688 388.978 830.77 389.023C830.852 389.068 830.944 389.091 831.037 389.091H859.07C859.756 389.092 860.441 389.028 861.117 388.903C866.121 387.97 869.719 383.501 869.719 378.36L860.362 378.36ZM846.151 376.228H858.251V378.36H846.151V376.228ZM863.739 380.777C863.739 381.075 863.68 381.371 863.567 381.647C863.454 381.923 863.288 382.174 863.079 382.385C862.87 382.596 862.622 382.763 862.349 382.878C862.076 382.992 861.783 383.051 861.487 383.051H843.337C843.337 382.448 843.574 381.869 843.996 381.443C844.418 381.016 844.991 380.777 845.588 380.777L863.739 380.777Z" fill="#3F3D56"/>
<path d="M860.784 381.914H845.729C845.635 381.914 845.546 381.951 845.48 382.018C845.414 382.085 845.377 382.175 845.377 382.269V383.122H861.136V382.269C861.136 382.175 861.098 382.085 861.033 382.018C860.967 381.951 860.877 381.914 860.784 381.914V381.914ZM848.683 382.056H850.344V382.98H848.683V382.056ZM848.543 382.98H846.883V382.056H848.543V382.98ZM850.484 382.056H852.145V382.98H850.484V382.056ZM852.285 382.056H853.945V382.98H852.285V382.056ZM854.086 382.056H855.746V382.98H854.086V382.056ZM855.887 382.056H857.547V382.98H855.887V382.056ZM857.688 382.056H859.348V382.98H857.688V382.056ZM845.518 382.269C845.518 382.213 845.54 382.158 845.579 382.118C845.619 382.078 845.673 382.056 845.729 382.056H846.742V382.98H845.518V382.269ZM860.995 382.98H859.489V382.056H860.784C860.84 382.056 860.894 382.078 860.933 382.118C860.973 382.158 860.995 382.213 860.995 382.269V382.98Z" fill="#3F3D56"/>
<path d="M859.799 371.893H858.884V375.731H859.799V371.893Z" fill="#3F3D56"/>
<path d="M842.985 389.305H828.211C828.155 389.305 828.101 389.282 828.062 389.242C828.022 389.202 828 389.148 828 389.091C828 389.035 828.022 388.981 828.062 388.941C828.101 388.901 828.155 388.878 828.211 388.878H842.985C843.041 388.878 843.095 388.901 843.134 388.941C843.174 388.981 843.196 389.035 843.196 389.091C843.196 389.148 843.174 389.202 843.134 389.242C843.095 389.282 843.041 389.305 842.985 389.305V389.305Z" fill="#CCCCCC"/>
<path d="M836.442 390.584H830.322C830.266 390.584 830.212 390.561 830.172 390.521C830.133 390.481 830.111 390.427 830.111 390.371C830.111 390.314 830.133 390.26 830.172 390.22C830.212 390.18 830.266 390.157 830.322 390.157H836.442C836.498 390.157 836.552 390.18 836.591 390.22C836.631 390.26 836.653 390.314 836.653 390.371C836.653 390.427 836.631 390.481 836.591 390.521C836.552 390.561 836.498 390.584 836.442 390.584V390.584Z" fill="#CCCCCC"/>
<path d="M863.457 389.305H848.683C848.627 389.305 848.574 389.282 848.534 389.242C848.495 389.202 848.472 389.148 848.472 389.091C848.472 389.035 848.495 388.981 848.534 388.941C848.574 388.901 848.627 388.878 848.683 388.878H863.457C863.513 388.878 863.567 388.901 863.607 388.941C863.646 388.981 863.668 389.035 863.668 389.091C863.668 389.148 863.646 389.202 863.607 389.242C863.567 389.282 863.513 389.305 863.457 389.305V389.305Z" fill="#CCCCCC"/>
<path d="M854.382 390.584H839.608C839.552 390.584 839.498 390.561 839.459 390.521C839.419 390.481 839.397 390.427 839.397 390.371C839.397 390.314 839.419 390.26 839.459 390.22C839.498 390.18 839.552 390.157 839.608 390.157H854.382C854.438 390.157 854.492 390.18 854.531 390.22C854.571 390.26 854.593 390.314 854.593 390.371C854.593 390.427 854.571 390.481 854.531 390.521C854.492 390.561 854.438 390.584 854.382 390.584V390.584Z" fill="#CCCCCC"/>
<path d="M842.985 391.721H828.211C828.155 391.721 828.102 391.698 828.062 391.658C828.022 391.618 828 391.564 828 391.508C828 391.451 828.022 391.397 828.062 391.357C828.102 391.317 828.155 391.295 828.211 391.294H842.985C843.041 391.295 843.094 391.317 843.134 391.357C843.173 391.397 843.196 391.451 843.196 391.508C843.196 391.564 843.173 391.618 843.134 391.658C843.094 391.698 843.041 391.721 842.985 391.721V391.721Z" fill="#CCCCCC"/>
<path d="M851.849 393H845.729C845.673 393 845.619 392.978 845.579 392.938C845.54 392.898 845.518 392.843 845.518 392.787C845.518 392.73 845.54 392.676 845.579 392.636C845.619 392.596 845.673 392.574 845.729 392.574H851.849C851.905 392.574 851.959 392.596 851.998 392.636C852.038 392.676 852.06 392.73 852.06 392.787C852.06 392.843 852.038 392.898 851.998 392.938C851.959 392.978 851.905 393 851.849 393V393Z" fill="#CCCCCC"/>
<path d="M838.623 393H832.502C832.447 393 832.393 392.978 832.353 392.938C832.314 392.898 832.291 392.843 832.291 392.787C832.291 392.73 832.314 392.676 832.353 392.636C832.393 392.596 832.447 392.574 832.502 392.574H838.623C838.679 392.574 838.733 392.596 838.772 392.636C838.812 392.676 838.834 392.73 838.834 392.787C838.834 392.843 838.812 392.898 838.772 392.938C838.733 392.978 838.679 393 838.623 393V393Z" fill="#CCCCCC"/>
<path d="M863.457 391.721H848.683C848.627 391.721 848.574 391.698 848.534 391.658C848.495 391.618 848.472 391.564 848.472 391.508C848.472 391.451 848.495 391.397 848.534 391.357C848.574 391.317 848.627 391.294 848.683 391.294H863.457C863.513 391.295 863.567 391.317 863.606 391.357C863.646 391.397 863.668 391.451 863.668 391.508C863.668 391.564 863.646 391.618 863.606 391.658C863.567 391.698 863.513 391.721 863.457 391.721V391.721Z" fill="#CCCCCC"/>
<path d="M869.789 393H855.015C854.959 393 854.905 392.978 854.866 392.938C854.826 392.898 854.804 392.843 854.804 392.787C854.804 392.73 854.826 392.676 854.866 392.636C854.905 392.596 854.959 392.574 855.015 392.574H869.789C869.845 392.574 869.899 392.596 869.938 392.636C869.978 392.676 870 392.73 870 392.787C870 392.843 869.978 392.898 869.938 392.938C869.899 392.978 869.845 393 869.789 393V393Z" fill="#CCCCCC"/>
</g>
<path d="M915.432 415.803C917.841 415.749 920.424 417.016 921.109 419.186L908.032 418.686C908.279 418.526 908.528 418.367 908.777 418.211C910.784 416.957 913.023 415.857 915.432 415.803Z" fill="#F2F2F2"/>
<path d="M934.815 422.704C933.076 423.832 931.378 425.037 929.441 425.821C924.643 427.762 919.119 426.857 914.071 425.595C909.022 424.334 903.869 422.731 898.691 423.381C895.755 423.75 892.983 424.829 890.148 425.638C887.314 426.448 884.265 426.99 881.405 426.263C878.546 425.536 875.967 423.232 875.892 420.451C897.479 416.702 917.493 416.591 934.815 422.704Z" fill="#F2F2F2"/>
<path d="M905.827 404H919.345C919.537 404 919.722 404.072 919.859 404.2C919.995 404.328 920.072 404.502 920.072 404.683V409.308C920.072 409.489 919.995 409.663 919.859 409.791C919.722 409.919 919.537 409.991 919.345 409.991H905.827C905.634 409.991 905.449 409.919 905.313 409.791C905.176 409.663 905.1 409.489 905.099 409.308V404.683C905.1 404.502 905.176 404.328 905.313 404.2C905.449 404.072 905.634 404 905.827 404V404Z" fill="#E6E6E6"/>
<path d="M918.723 404H919.095V409.991H918.723V404Z" fill="#CCCCCC"/>
<path d="M917.142 404H917.514V409.991H917.142V404Z" fill="#CCCCCC"/>
<path d="M915.561 404H915.933V409.991H915.561V404Z" fill="#CCCCCC"/>
<path d="M913.981 404H914.353V409.991H913.981V404Z" fill="#CCCCCC"/>
<path d="M912.4 404H912.772V409.991H912.4V404Z" fill="#CCCCCC"/>
<path d="M910.819 404H911.191V409.991H910.819V404Z" fill="#CCCCCC"/>
<path d="M909.238 404H909.61V409.991H909.238V404Z" fill="#CCCCCC"/>
<path d="M907.657 404H908.029V409.991H907.657V404Z" fill="#CCCCCC"/>
<path d="M906.076 404H906.448V409.991H906.076V404Z" fill="#CCCCCC"/>
<path d="M872.627 404H886.145C886.338 404 886.523 404.072 886.659 404.2C886.796 404.328 886.872 404.502 886.872 404.683V409.308C886.872 409.489 886.796 409.663 886.659 409.791C886.523 409.919 886.338 409.991 886.145 409.991H872.627C872.434 409.991 872.25 409.919 872.113 409.791C871.977 409.663 871.9 409.489 871.9 409.308V404.683C871.9 404.502 871.977 404.328 872.113 404.2C872.25 404.072 872.434 404 872.627 404V404Z" fill="#E6E6E6"/>
<path d="M885.524 404H885.896V409.991H885.524V404Z" fill="#CCCCCC"/>
<path d="M883.943 404H884.315V409.991H883.943V404Z" fill="#CCCCCC"/>
<path d="M882.362 404H882.734V409.991H882.362V404Z" fill="#CCCCCC"/>
<path d="M880.781 404H881.153V409.991H880.781V404Z" fill="#CCCCCC"/>
<path d="M879.2 404H879.572V409.991H879.2V404Z" fill="#CCCCCC"/>
<path d="M877.619 404H877.991V409.991H877.619V404Z" fill="#CCCCCC"/>
<path d="M876.038 404H876.41V409.991H876.038V404Z" fill="#CCCCCC"/>
<path d="M874.457 404H874.829V409.991H874.457V404Z" fill="#CCCCCC"/>
<path d="M872.876 404H873.248V409.991H872.876V404Z" fill="#CCCCCC"/>
<path d="M887.693 404H901.21C901.403 404 901.588 404.072 901.724 404.2C901.861 404.328 901.937 404.502 901.938 404.683V409.308C901.937 409.489 901.861 409.663 901.724 409.791C901.588 409.919 901.403 409.991 901.21 409.991H887.693C887.5 409.991 887.315 409.919 887.178 409.791C887.042 409.663 886.965 409.489 886.965 409.308V404.683C886.965 404.502 887.042 404.328 887.178 404.2C887.315 404.072 887.5 404 887.693 404V404Z" fill="#E6E6E6"/>
<path d="M900.589 404H900.961V409.991H900.589V404Z" fill="#CCCCCC"/>
<path d="M899.008 404H899.38V409.991H899.008V404Z" fill="#CCCCCC"/>
<path d="M897.427 404H897.799V409.991H897.427V404Z" fill="#CCCCCC"/>
<path d="M895.846 404H896.218V409.991H895.846V404Z" fill="#CCCCCC"/>
<path d="M894.266 404H894.638V409.991H894.266V404Z" fill="#CCCCCC"/>
<path d="M892.685 404H893.057V409.991H892.685V404Z" fill="#CCCCCC"/>
<path d="M891.104 404H891.476V409.991H891.104V404Z" fill="#CCCCCC"/>
<path d="M889.523 404H889.895V409.991H889.523V404Z" fill="#CCCCCC"/>
<path d="M887.942 404H888.314V409.991H887.942V404Z" fill="#CCCCCC"/>
<path d="M875.603 404.437H889.121C889.314 404.437 889.499 404.509 889.635 404.637C889.771 404.765 889.848 404.939 889.848 405.12V409.745C889.848 409.926 889.771 410.1 889.635 410.228C889.499 410.356 889.314 410.428 889.121 410.428H875.603C875.41 410.428 875.225 410.356 875.089 410.228C874.953 410.1 874.876 409.926 874.876 409.745V405.12C874.876 404.939 874.953 404.765 875.089 404.637C875.225 404.509 875.41 404.437 875.603 404.437Z" fill="#E84D3D"/>
<path d="M888.5 404.437H888.872V410.428H888.5V404.437Z" fill="#3F3D56"/>
<path d="M886.919 404.437H887.291V410.428H886.919V404.437Z" fill="#3F3D56"/>
<path d="M885.338 404.437H885.71V410.428H885.338V404.437Z" fill="#3F3D56"/>
<path d="M883.757 404.437H884.129V410.428H883.757V404.437Z" fill="#3F3D56"/>
<path d="M882.176 404.437H882.548V410.428H882.176V404.437Z" fill="#3F3D56"/>
<path d="M880.595 404.437H880.967V410.428H880.595V404.437Z" fill="#3F3D56"/>
<path d="M879.014 404.437H879.386V410.428H879.014V404.437Z" fill="#3F3D56"/>
<path d="M877.433 404.437H877.805V410.428H877.433V404.437Z" fill="#3F3D56"/>
<path d="M875.852 404.437H876.224V410.428H875.852V404.437Z" fill="#3F3D56"/>
<path d="M892.621 404.437H906.139C906.332 404.437 906.517 404.509 906.653 404.637C906.79 404.765 906.866 404.939 906.866 405.12V409.745C906.866 409.926 906.79 410.1 906.653 410.228C906.517 410.356 906.332 410.428 906.139 410.428H892.621C892.428 410.428 892.244 410.356 892.107 410.228C891.971 410.1 891.894 409.926 891.894 409.745V405.12C891.894 404.939 891.971 404.765 892.107 404.637C892.244 404.509 892.428 404.437 892.621 404.437Z" fill="#E84D3D"/>
<path d="M905.518 404.437H905.89V410.428H905.518V404.437Z" fill="#3F3D56"/>
<path d="M903.937 404.437H904.309V410.428H903.937V404.437Z" fill="#3F3D56"/>
<path d="M902.356 404.437H902.728V410.428H902.356V404.437Z" fill="#3F3D56"/>
<path d="M900.775 404.437H901.147V410.428H900.775V404.437Z" fill="#3F3D56"/>
<path d="M899.194 404.437H899.566V410.428H899.194V404.437Z" fill="#3F3D56"/>
<path d="M897.613 404.437H897.985V410.428H897.613V404.437Z" fill="#3F3D56"/>
<path d="M896.032 404.437H896.404V410.428H896.032V404.437Z" fill="#3F3D56"/>
<path d="M894.452 404.437H894.823V410.428H894.452V404.437Z" fill="#3F3D56"/>
<path d="M892.871 404.437H893.243V410.428H892.871V404.437Z" fill="#3F3D56"/>
<path d="M910.755 404.437H924.273C924.466 404.437 924.651 404.509 924.787 404.637C924.924 404.765 925 404.939 925.001 405.12V409.745C925 409.926 924.924 410.1 924.787 410.228C924.651 410.356 924.466 410.428 924.273 410.428H910.755C910.563 410.428 910.378 410.356 910.241 410.228C910.105 410.1 910.028 409.926 910.028 409.745V405.12C910.028 404.939 910.105 404.765 910.241 404.637C910.378 404.509 910.563 404.437 910.755 404.437V404.437Z" fill="#E84D3D"/>
<path d="M923.652 404.437H924.024V410.428H923.652V404.437Z" fill="#3F3D56"/>
<path d="M922.071 404.437H922.443V410.428H922.071V404.437Z" fill="#3F3D56"/>
<path d="M920.49 404.437H920.862V410.428H920.49V404.437Z" fill="#3F3D56"/>
<path d="M918.909 404.437H919.281V410.428H918.909V404.437Z" fill="#3F3D56"/>
<path d="M917.328 404.437H917.7V410.428H917.328V404.437Z" fill="#3F3D56"/>
<path d="M915.747 404.437H916.119V410.428H915.747V404.437Z" fill="#3F3D56"/>
<path d="M914.167 404.437H914.539V410.428H914.167V404.437Z" fill="#3F3D56"/>
<path d="M912.586 404.437H912.958V410.428H912.586V404.437Z" fill="#3F3D56"/>
<path d="M911.005 404.437H911.377V410.428H911.005V404.437Z" fill="#3F3D56"/>
<path d="M863.702 410.782C863.724 410.706 863.753 410.632 863.788 410.561L865.448 407.208C865.569 406.962 865.764 406.754 866.007 406.608C866.251 406.462 866.534 406.384 866.822 406.384H873.63C873.919 406.384 874.202 406.462 874.445 406.608C874.689 406.754 874.883 406.962 875.005 407.208L876.369 409.965H915.274L916.595 407.295C916.717 407.049 916.911 406.841 917.155 406.695C917.398 406.549 917.681 406.472 917.97 406.472H924.777C925.039 406.472 925.295 406.535 925.523 406.656L926.667 404.737C926.743 404.61 926.861 404.511 927.003 404.454C927.146 404.397 927.304 404.386 927.454 404.422C927.604 404.459 927.736 404.541 927.831 404.656C927.925 404.771 927.976 404.912 927.976 405.058V420.132C927.976 420.357 927.929 420.579 927.838 420.787C927.746 420.994 927.612 421.183 927.443 421.342C927.274 421.5 927.073 421.626 926.852 421.712C926.631 421.798 926.394 421.843 926.155 421.843H874.061C873.819 421.843 873.579 421.797 873.355 421.709C873.131 421.62 872.929 421.491 872.759 421.328L863.953 412.871C863.667 412.6 863.486 412.246 863.441 411.867C863.395 411.488 863.487 411.106 863.702 410.782V410.782Z" fill="#3F3D56"/>
<path d="M872.867 409.747H873.723C873.905 409.746 874.08 409.678 874.209 409.557C874.338 409.436 874.411 409.272 874.411 409.1V408.21C874.411 408.038 874.338 407.874 874.209 407.753C874.08 407.632 873.905 407.563 873.723 407.563H872.867C872.685 407.563 872.51 407.632 872.381 407.753C872.252 407.874 872.179 408.038 872.179 408.21V409.1C872.179 409.272 872.252 409.436 872.381 409.557C872.51 409.678 872.685 409.746 872.867 409.747Z" fill="white"/>
<path d="M869.798 409.747H870.654C870.836 409.746 871.011 409.678 871.14 409.557C871.269 409.436 871.342 409.272 871.342 409.1V408.21C871.342 408.038 871.269 407.874 871.14 407.753C871.011 407.632 870.836 407.563 870.654 407.563H869.798C869.616 407.563 869.441 407.632 869.312 407.753C869.183 407.874 869.11 408.038 869.11 408.21V409.1C869.11 409.272 869.183 409.436 869.312 409.557C869.441 409.678 869.616 409.746 869.798 409.747V409.747Z" fill="white"/>
<path d="M866.73 409.747H867.585C867.767 409.746 867.942 409.678 868.071 409.557C868.2 409.436 868.273 409.272 868.273 409.1V408.21C868.273 408.038 868.2 407.874 868.071 407.753C867.942 407.632 867.767 407.563 867.585 407.563H866.73C866.547 407.563 866.372 407.632 866.243 407.753C866.114 407.874 866.042 408.038 866.041 408.21V409.1C866.042 409.272 866.114 409.436 866.243 409.557C866.372 409.678 866.547 409.746 866.73 409.747Z" fill="white"/>
<path d="M924.015 409.834H924.87C925.053 409.834 925.228 409.766 925.357 409.644C925.486 409.523 925.558 409.359 925.559 409.188V408.297C925.558 408.126 925.486 407.961 925.357 407.84C925.228 407.719 925.053 407.651 924.87 407.651H924.015C923.832 407.651 923.657 407.719 923.528 407.84C923.399 407.961 923.327 408.126 923.327 408.297V409.188C923.327 409.359 923.399 409.523 923.528 409.644C923.657 409.766 923.832 409.834 924.015 409.834V409.834Z" fill="white"/>
<path d="M920.946 409.834H921.801C921.984 409.834 922.159 409.766 922.288 409.644C922.417 409.523 922.489 409.359 922.49 409.188V408.297C922.489 408.126 922.417 407.961 922.288 407.84C922.159 407.719 921.984 407.651 921.801 407.651H920.946C920.764 407.651 920.589 407.719 920.46 407.84C920.331 407.961 920.258 408.126 920.258 408.297V409.188C920.258 409.359 920.331 409.523 920.46 409.644C920.589 409.766 920.764 409.834 920.946 409.834V409.834Z" fill="white"/>
<path d="M917.877 409.834H918.733C918.915 409.834 919.09 409.766 919.219 409.644C919.348 409.523 919.421 409.359 919.421 409.188V408.297C919.421 408.126 919.348 407.961 919.219 407.84C919.09 407.719 918.915 407.651 918.733 407.651H917.877C917.695 407.651 917.52 407.719 917.391 407.84C917.262 407.961 917.189 408.126 917.189 408.297V409.188C917.189 409.359 917.262 409.523 917.391 409.644C917.52 409.766 917.695 409.834 917.877 409.834V409.834Z" fill="white"/>
<path d="M929.323 419.032C931.732 418.978 934.314 420.245 935 422.415L921.923 421.915C922.17 421.754 922.418 421.596 922.668 421.439C924.674 420.186 926.914 419.086 929.323 419.032Z" fill="#E84D3D"/>
<path d="M921.923 421.915C920.183 423.044 918.486 424.249 916.549 425.032C911.751 426.973 906.227 426.068 901.179 424.807C896.13 423.545 890.977 421.943 885.799 422.593C882.863 422.961 880.091 424.04 877.256 424.85C874.422 425.659 871.373 426.201 868.513 425.474C865.654 424.748 863.075 422.443 863 419.662C884.587 415.914 904.601 415.803 921.923 421.915Z" fill="#E84D3D"/>
<defs>
<clipPath id="clip0_161_88">
<rect width="42" height="28" fill="white" transform="translate(715 463)"/>
</clipPath>
<clipPath id="clip1_161_88">
<rect width="42" height="28" fill="white" transform="translate(828 365)"/>
</clipPath>
</defs>
</svg>
