<svg width="1686" height="121" viewBox="0 0 1686 121" fill="none" xmlns="http://www.w3.org/2000/svg">
<g filter="url(#filter0_dd_149_15)">
<path d="M2045.53 98.601C2045.53 98.601 1753.02 84.9595 1434.32 99.221C1434.3 99.222 1434.27 99.223 1434.25 99.2241C1274.38 106.377 1106.17 110.209 940.242 106.641C756.534 102.69 591.623 93.1623 404.671 99.3384C259.302 104.141 139.491 116.639 -14.7993 110.395C-180.299 103.697 -323.181 93.1001 -498.499 94.5935C-648.332 95.8699 -766.542 105.144 -914.463 96.7406V-16.1106H2047.15L2045.53 98.601Z" fill="url(#paint0_linear_149_15)"/>
<path opacity="0.5" d="M2178.86 93.6403C2178.86 93.6403 1886.35 79.9989 1567.65 94.2603C1567.63 94.2614 1567.61 94.2624 1567.58 94.2634C1407.71 101.416 1239.5 105.248 1073.58 101.68C889.867 97.7296 724.957 88.2017 538.005 94.3777C392.637 99.18 272.824 111.678 118.534 105.434C-46.9657 98.7363 -189.847 88.1395 -365.166 89.6329C-514.999 90.9092 -633.207 100.183 -781.129 91.7799V-21.071H2180.49L2178.86 93.6403Z" fill="url(#paint1_linear_149_15)"/>
<path opacity="0.5" d="M1912.19 88.3542C1912.19 88.3542 1619.69 75.6364 1300.99 88.9323C1300.96 88.9333 1300.94 88.9341 1300.92 88.9352C1141.05 95.6039 972.832 99.1761 806.908 95.8498C623.2 92.1668 458.29 83.2839 271.337 89.042C125.969 93.5192 6.15739 105.171 -148.133 99.3497C-313.633 93.1053 -456.514 83.226 -631.833 84.6183C-781.666 85.8083 -899.876 94.4544 -1047.8 86.6201V-18.5908L1907.17 -18.5726L1912.19 88.3542Z" fill="url(#paint2_linear_149_15)"/>
</g>
<defs>
<filter id="filter0_dd_149_15" x="-1051.8" y="-21.071" width="3236.28" height="141.177" filterUnits="userSpaceOnUse" color-interpolation-filters="sRGB">
<feFlood flood-opacity="0" result="BackgroundImageFix"/>
<feColorMatrix in="SourceAlpha" type="matrix" values="0 0 0 0 0 0 0 0 0 0 0 0 0 0 0 0 0 0 127 0" result="hardAlpha"/>
<feOffset dy="4"/>
<feGaussianBlur stdDeviation="2"/>
<feComposite in2="hardAlpha" operator="out"/>
<feColorMatrix type="matrix" values="0 0 0 0 0 0 0 0 0 0 0 0 0 0 0 0 0 0 0.25 0"/>
<feBlend mode="normal" in2="BackgroundImageFix" result="effect1_dropShadow_149_15"/>
<feColorMatrix in="SourceAlpha" type="matrix" values="0 0 0 0 0 0 0 0 0 0 0 0 0 0 0 0 0 0 127 0" result="hardAlpha"/>
<feOffset dy="4"/>
<feGaussianBlur stdDeviation="2"/>
<feComposite in2="hardAlpha" operator="out"/>
<feColorMatrix type="matrix" values="0 0 0 0 0 0 0 0 0 0 0 0 0 0 0 0 0 0 0.25 0"/>
<feBlend mode="normal" in2="effect1_dropShadow_149_15" result="effect2_dropShadow_149_15"/>
<feBlend mode="normal" in="SourceGraphic" in2="effect2_dropShadow_149_15" result="shape"/>
</filter>
<linearGradient id="paint0_linear_149_15" x1="2047.15" y1="47.9976" x2="-914.463" y2="47.9976" gradientUnits="userSpaceOnUse">
<stop stop-color="white"/>
<stop offset="1" stop-color="white" stop-opacity="0"/>
</linearGradient>
<linearGradient id="paint1_linear_149_15" x1="2180.49" y1="43.0371" x2="-781.13" y2="43.0371" gradientUnits="userSpaceOnUse">
<stop stop-color="white"/>
<stop offset="1" stop-color="white" stop-opacity="0"/>
</linearGradient>
<linearGradient id="paint2_linear_149_15" x1="1912.19" y1="41.177" x2="-1047.8" y2="41.177" gradientUnits="userSpaceOnUse">
<stop stop-color="white"/>
<stop offset="1" stop-color="white" stop-opacity="0"/>
</linearGradient>
</defs>
</svg>
