<svg width="567" height="279" viewBox="0 0 567 279" fill="none" xmlns="http://www.w3.org/2000/svg">
<path d="M0.27597 42.3616C1.18681 38.6775 4.15016 35.9211 7.24022 33.844C10.3303 31.767 13.7308 30.0976 16.3697 27.4401C19.0078 24.7828 20.7823 20.7419 19.5575 17.1557C18.0688 12.7972 13.1078 11.0555 8.77118 9.88041C48.4633 5.48328 88.3483 3.19032 128.269 3.01057C129.168 1.75392 130.43 0.822296 131.874 0.348788C133.318 -0.12472 134.87 -0.115904 136.309 0.373988C137.747 0.86388 138.999 1.80979 139.885 3.07659C140.771 4.3434 141.246 5.86629 141.241 7.42776V139.641H126.826V58.4249C92.5852 58.5104 58.3443 58.5959 24.1033 58.6813C18.5594 58.6951 12.7911 58.6588 7.8069 56.1567C2.82196 53.6547 -1.09308 47.8982 0.27597 42.3616Z" fill="#CCCCCC"/>
<path d="M184.719 187.583C167.154 187.139 148.324 197.523 143.326 215.293L238.673 211.198C236.87 209.883 235.059 208.585 233.239 207.303C218.61 197.037 202.284 188.026 184.719 187.583Z" fill="#F2F2F2"/>
<path d="M43.4008 244.104C56.0802 253.351 68.4541 263.219 82.5818 269.638C117.564 285.533 157.835 278.12 194.643 267.789C231.452 257.458 269.025 244.332 306.778 249.657C328.186 252.676 348.397 261.512 369.061 268.142C389.724 274.771 411.958 279.211 432.806 273.259C453.654 267.306 472.459 248.432 473.004 225.653C315.612 194.951 169.691 194.039 43.4008 244.104Z" fill="#F2F2F2"/>
<path d="M254.751 90.908H156.193C154.787 90.9089 153.439 91.4986 152.444 92.5474C151.45 93.5963 150.891 95.0186 150.89 96.5019V134.386C150.891 135.87 151.45 137.292 152.444 138.341C153.439 139.39 154.787 139.979 156.193 139.98H254.751C256.157 139.979 257.505 139.39 258.499 138.341C259.493 137.292 260.052 135.87 260.053 134.386V96.5019C260.052 95.0186 259.493 93.5963 258.499 92.5474C257.505 91.4986 256.157 90.9089 254.751 90.908Z" fill="#E6E6E6"/>
<path d="M160.722 90.908H158.01V139.98H160.722V90.908Z" fill="#CCCCCC"/>
<path d="M172.248 90.908H169.536V139.98H172.248V90.908Z" fill="#CCCCCC"/>
<path d="M183.775 90.908H181.063V139.98H183.775V90.908Z" fill="#CCCCCC"/>
<path d="M195.301 90.908H192.589V139.98H195.301V90.908Z" fill="#CCCCCC"/>
<path d="M206.828 90.908H204.116V139.98H206.828V90.908Z" fill="#CCCCCC"/>
<path d="M218.354 90.908H215.642V139.98H218.354V90.908Z" fill="#CCCCCC"/>
<path d="M229.881 90.908H227.169V139.98H229.881V90.908Z" fill="#CCCCCC"/>
<path d="M241.407 90.908H238.695V139.98H241.407V90.908Z" fill="#CCCCCC"/>
<path d="M252.934 90.908H250.222V139.98H252.934V90.908Z" fill="#CCCCCC"/>
<path d="M496.808 90.908H398.249C396.843 90.9089 395.495 91.4986 394.501 92.5474C393.507 93.5963 392.948 95.0186 392.947 96.5019V134.386C392.948 135.87 393.507 137.292 394.501 138.341C395.495 139.39 396.843 139.979 398.249 139.98H496.808C498.214 139.979 499.562 139.39 500.556 138.341C501.55 137.292 502.109 135.87 502.11 134.386V96.5019C502.109 95.0186 501.55 93.5963 500.556 92.5474C499.562 91.4986 498.214 90.9089 496.808 90.908Z" fill="#E6E6E6"/>
<path d="M402.779 90.908H400.066V139.98H402.779V90.908Z" fill="#CCCCCC"/>
<path d="M414.305 90.908H411.593V139.98H414.305V90.908Z" fill="#CCCCCC"/>
<path d="M425.832 90.908H423.119V139.98H425.832V90.908Z" fill="#CCCCCC"/>
<path d="M437.358 90.908H434.646V139.98H437.358V90.908Z" fill="#CCCCCC"/>
<path d="M448.885 90.908H446.172V139.98H448.885V90.908Z" fill="#CCCCCC"/>
<path d="M460.411 90.908H457.699V139.98H460.411V90.908Z" fill="#CCCCCC"/>
<path d="M471.938 90.908H469.226V139.98H471.938V90.908Z" fill="#CCCCCC"/>
<path d="M483.464 90.908H480.752V139.98H483.464V90.908Z" fill="#CCCCCC"/>
<path d="M494.991 90.908H492.279V139.98H494.991V90.908Z" fill="#CCCCCC"/>
<path d="M386.967 90.908H288.408C287.003 90.9089 285.654 91.4986 284.66 92.5474C283.666 93.5963 283.107 95.0186 283.106 96.5019V134.386C283.107 135.87 283.666 137.292 284.66 138.341C285.654 139.39 287.002 139.979 288.408 139.98H386.967C388.373 139.979 389.721 139.39 390.715 138.341C391.709 137.292 392.268 135.87 392.269 134.386V96.5019C392.268 95.0186 391.709 93.5963 390.715 92.5474C389.721 91.4986 388.373 90.9089 386.967 90.908Z" fill="#E6E6E6"/>
<path d="M292.938 90.908H290.226V139.98H292.938V90.908Z" fill="#CCCCCC"/>
<path d="M304.464 90.908H301.752V139.98H304.464V90.908Z" fill="#CCCCCC"/>
<path d="M315.991 90.908H313.279V139.98H315.991V90.908Z" fill="#CCCCCC"/>
<path d="M327.517 90.908H324.805V139.98H327.517V90.908Z" fill="#CCCCCC"/>
<path d="M339.044 90.908H336.332V139.98H339.044V90.908Z" fill="#CCCCCC"/>
<path d="M350.57 90.908H347.858V139.98H350.57V90.908Z" fill="#CCCCCC"/>
<path d="M362.097 90.908H359.385V139.98H362.097V90.908Z" fill="#CCCCCC"/>
<path d="M373.623 90.908H370.911V139.98H373.623V90.908Z" fill="#CCCCCC"/>
<path d="M385.15 90.908H382.438V139.98H385.15V90.908Z" fill="#CCCCCC"/>
<path d="M475.111 94.4847H376.552C375.146 94.4856 373.798 95.0753 372.804 96.1241C371.81 97.173 371.251 98.5953 371.25 100.079V137.963C371.251 139.446 371.81 140.869 372.804 141.917C373.798 142.966 375.146 143.556 376.552 143.557H475.111C476.517 143.556 477.865 142.966 478.859 141.917C479.853 140.869 480.412 139.446 480.413 137.963V100.079C480.412 98.5953 479.853 97.173 478.859 96.1241C477.865 95.0753 476.517 94.4856 475.111 94.4847Z" fill="#E84D3D"/>
<path d="M381.082 94.4847H378.369V143.557H381.082V94.4847Z" fill="#3F3D56"/>
<path d="M392.608 94.4847H389.896V143.557H392.608V94.4847Z" fill="#3F3D56"/>
<path d="M404.135 94.4847H401.422V143.557H404.135V94.4847Z" fill="#3F3D56"/>
<path d="M415.661 94.4847H412.949V143.557H415.661V94.4847Z" fill="#3F3D56"/>
<path d="M427.188 94.4847H424.476V143.557H427.188V94.4847Z" fill="#3F3D56"/>
<path d="M438.714 94.4847H436.002V143.557H438.714V94.4847Z" fill="#3F3D56"/>
<path d="M450.241 94.4847H447.529V143.557H450.241V94.4847Z" fill="#3F3D56"/>
<path d="M461.767 94.4847H459.055V143.557H461.767V94.4847Z" fill="#3F3D56"/>
<path d="M473.294 94.4847H470.582V143.557H473.294V94.4847Z" fill="#3F3D56"/>
<path d="M351.031 94.4847H252.473C251.067 94.4856 249.719 95.0753 248.725 96.1241C247.73 97.173 247.172 98.5953 247.171 100.079V137.963C247.172 139.446 247.73 140.869 248.725 141.917C249.719 142.966 251.067 143.556 252.473 143.557H351.031C352.437 143.556 353.785 142.966 354.779 141.917C355.774 140.869 356.333 139.446 356.333 137.963V100.079C356.333 98.5953 355.774 97.173 354.779 96.1241C353.785 95.0753 352.437 94.4856 351.031 94.4847Z" fill="#E84D3D"/>
<path d="M257.002 94.4847H254.29V143.557H257.002V94.4847Z" fill="#3F3D56"/>
<path d="M268.529 94.4847H265.817V143.557H268.529V94.4847Z" fill="#3F3D56"/>
<path d="M280.055 94.4847H277.343V143.557H280.055V94.4847Z" fill="#3F3D56"/>
<path d="M291.582 94.4847H288.87V143.557H291.582V94.4847Z" fill="#3F3D56"/>
<path d="M303.108 94.4847H300.396V143.557H303.108V94.4847Z" fill="#3F3D56"/>
<path d="M314.635 94.4847H311.923V143.557H314.635V94.4847Z" fill="#3F3D56"/>
<path d="M326.161 94.4847H323.449V143.557H326.161V94.4847Z" fill="#3F3D56"/>
<path d="M337.688 94.4847H334.976V143.557H337.688V94.4847Z" fill="#3F3D56"/>
<path d="M349.214 94.4847H346.502V143.557H349.214V94.4847Z" fill="#3F3D56"/>
<path d="M218.815 94.4847H120.257C118.851 94.4856 117.503 95.0753 116.509 96.1241C115.515 97.173 114.956 98.5953 114.955 100.079V137.963C114.956 139.446 115.515 140.869 116.509 141.917C117.503 142.966 118.851 143.556 120.257 143.557H218.815C220.221 143.556 221.569 142.966 222.564 141.917C223.558 140.869 224.117 139.446 224.118 137.963V100.079C224.117 98.5953 223.558 97.173 222.564 96.1241C221.569 95.0753 220.221 94.4856 218.815 94.4847Z" fill="#E84D3D"/>
<path d="M124.786 94.4847H122.074V143.557H124.786V94.4847Z" fill="#3F3D56"/>
<path d="M136.313 94.4847H133.601V143.557H136.313V94.4847Z" fill="#3F3D56"/>
<path d="M147.839 94.4847H145.127V143.557H147.839V94.4847Z" fill="#3F3D56"/>
<path d="M159.366 94.4847H156.654V143.557H159.366V94.4847Z" fill="#3F3D56"/>
<path d="M170.892 94.4847H168.18V143.557H170.892V94.4847Z" fill="#3F3D56"/>
<path d="M182.419 94.4847H179.707V143.557H182.419V94.4847Z" fill="#3F3D56"/>
<path d="M193.945 94.4847H191.233V143.557H193.945V94.4847Z" fill="#3F3D56"/>
<path d="M205.472 94.4847H202.76V143.557H205.472V94.4847Z" fill="#3F3D56"/>
<path d="M216.998 94.4847H214.286V143.557H216.998V94.4847Z" fill="#3F3D56"/>
<path d="M561.883 146.454C561.72 145.836 561.509 145.232 561.254 144.649L549.154 117.183C548.266 115.168 546.851 113.462 545.075 112.267C543.299 111.072 541.237 110.437 539.131 110.437H489.499C487.392 110.437 485.33 111.072 483.554 112.267C481.778 113.462 480.363 115.168 479.475 117.183L469.526 139.766H185.871L176.237 117.898C175.35 115.883 173.935 114.178 172.159 112.982C170.383 111.787 168.32 111.152 166.214 111.152H116.582C114.677 111.153 112.805 111.674 111.147 112.665L102.802 96.9433C102.251 95.9052 101.39 95.0892 100.352 94.6231C99.3142 94.1569 98.1594 94.0671 97.0681 94.3675C95.9769 94.6679 95.0109 95.3416 94.3214 96.2832C93.6319 97.2248 93.2579 98.381 93.2579 99.5709V223.044C93.2579 224.883 93.6014 226.705 94.2686 228.404C94.9359 230.104 95.9139 231.648 97.1469 232.949C98.3798 234.25 99.8435 235.282 101.454 235.986C103.065 236.69 104.792 237.052 106.536 237.052H486.353C488.121 237.052 489.872 236.679 491.502 235.956C493.132 235.232 494.609 234.172 495.846 232.838L560.054 163.568C562.14 161.349 563.456 158.452 563.787 155.346C564.119 152.241 563.448 149.108 561.883 146.454Z" fill="#3F3D56"/>
<path d="M495.058 137.977H488.822C487.491 137.976 486.216 137.417 485.275 136.425C484.334 135.432 483.805 134.087 483.803 132.683V125.388C483.805 123.985 484.334 122.639 485.275 121.646C486.216 120.654 487.491 120.095 488.822 120.094H495.058C496.388 120.095 497.664 120.654 498.604 121.646C499.545 122.639 500.074 123.985 500.076 125.388V132.683C500.074 134.087 499.545 135.432 498.604 136.425C497.664 137.417 496.388 137.976 495.058 137.977Z" fill="white"/>
<path d="M517.433 137.977H511.197C509.866 137.976 508.59 137.417 507.65 136.425C506.709 135.432 506.18 134.087 506.178 132.683V125.388C506.18 123.985 506.709 122.639 507.65 121.646C508.59 120.654 509.866 120.095 511.197 120.094H517.433C518.763 120.095 520.039 120.654 520.979 121.646C521.92 122.639 522.449 123.985 522.451 125.388V132.683C522.449 134.087 521.92 135.432 520.979 136.425C520.039 137.417 518.763 137.976 517.433 137.977Z" fill="white"/>
<path d="M539.808 137.977H533.572C532.241 137.976 530.965 137.417 530.025 136.425C529.084 135.432 528.555 134.087 528.553 132.683V125.388C528.555 123.985 529.084 122.639 530.025 121.646C530.965 120.654 532.241 120.095 533.572 120.094H539.808C541.138 120.095 542.414 120.654 543.354 121.646C544.295 122.639 544.824 123.985 544.826 125.388V132.683C544.824 134.087 544.295 135.432 543.354 136.425C542.414 137.417 541.138 137.976 539.808 137.977Z" fill="white"/>
<path d="M122.141 138.693H115.905C114.575 138.691 113.299 138.133 112.358 137.14C111.417 136.148 110.888 134.802 110.887 133.398V126.104C110.888 124.7 111.417 123.354 112.358 122.362C113.299 121.369 114.575 120.811 115.905 120.809H122.141C123.471 120.811 124.747 121.369 125.688 122.362C126.629 123.354 127.158 124.7 127.159 126.104V133.398C127.158 134.802 126.629 136.148 125.688 137.14C124.747 138.133 123.471 138.691 122.141 138.693Z" fill="white"/>
<path d="M144.516 138.693H138.28C136.949 138.691 135.674 138.133 134.733 137.14C133.792 136.148 133.263 134.802 133.262 133.398V126.104C133.263 124.7 133.792 123.354 134.733 122.362C135.674 121.369 136.949 120.811 138.28 120.809H144.516C145.846 120.811 147.122 121.369 148.063 122.362C149.004 123.354 149.533 124.7 149.534 126.104V133.398C149.533 134.802 149.004 136.148 148.063 137.14C147.122 138.133 145.846 138.691 144.516 138.693Z" fill="white"/>
<path d="M166.891 138.693H160.655C159.324 138.691 158.049 138.133 157.108 137.14C156.167 136.148 155.638 134.802 155.637 133.398V126.104C155.638 124.7 156.167 123.354 157.108 122.362C158.049 121.369 159.324 120.811 160.655 120.809H166.891C168.221 120.811 169.497 121.369 170.438 122.362C171.379 123.354 171.908 124.7 171.909 126.104V133.398C171.908 134.802 171.379 136.148 170.438 137.14C169.497 138.133 168.221 138.691 166.891 138.693Z" fill="white"/>
<path d="M83.4421 214.029C65.8773 213.585 47.0471 223.968 42.049 241.739L137.397 237.644C135.593 236.329 133.782 235.03 131.963 233.748C117.333 223.483 101.007 214.472 83.4421 214.029Z" fill="#E84D3D"/>
<path d="M137.397 237.644C150.076 246.891 162.45 256.759 176.578 263.178C211.56 279.073 251.831 271.66 288.639 261.329C325.447 250.998 363.021 237.872 400.774 243.197C422.182 246.216 442.392 255.053 463.056 261.682C483.72 268.312 505.953 272.751 526.802 266.799C547.65 260.847 566.455 241.972 567 219.193C409.607 188.491 263.687 187.579 137.397 237.644Z" fill="#E84D3D"/>
</svg>
