<svg width="242" height="122" viewBox="0 0 242 122" fill="none" xmlns="http://www.w3.org/2000/svg">
<path d="M0 7.43902C0 3.33056 3.33034 0 7.43852 0H105.131C109.239 0 112.57 3.33056 112.57 7.43902V47.6098C112.57 51.7182 109.239 55.0488 105.131 55.0488H7.43853C3.33034 55.0488 0 51.7182 0 47.6098V7.43902Z" fill="#24262B"/>
<path d="M7.67239 28.0316V25.5378L15.0179 13.9313H15.9647V17.4198L10.8845 25.318V25.4533H18.9232H21.1378V28.0316H7.67239ZM15.9308 31.2439V27.2708L15.9647 26.1549V13.9313H18.9232V31.2439H15.9308Z" fill="white"/>
<path d="M24.4725 31.2439L31.8349 16.6702V16.5518H23.2891V13.9313H35.0808V16.611L27.7268 31.2439H24.4725Z" fill="white"/>
<path d="M42.4369 22.5876H44.2078L46.3252 26.417H46.4098L48.5272 22.5876H50.2981L47.1494 28.0147V31.2439H45.5856V28.0147L42.4369 22.5876Z" fill="white"/>
<path d="M53.0062 31.3707C52.3553 31.3707 51.7932 31.2355 51.3198 30.9649C50.8493 30.6916 50.4872 30.3056 50.2336 29.8068C49.9801 29.3053 49.8533 28.7149 49.8533 28.0358C49.8533 27.368 49.9801 26.7819 50.2336 26.2775C50.49 25.7703 50.8479 25.3758 51.3072 25.094C51.7664 24.8094 52.306 24.6671 52.9259 24.6671C53.326 24.6671 53.7035 24.7319 54.0586 24.8616C54.4164 24.9884 54.732 25.1856 55.0053 25.4533C55.2814 25.721 55.4984 26.0619 55.6562 26.4762C55.8139 26.8876 55.8928 27.3779 55.8928 27.9471V28.4162H50.5718V27.3849H54.4263C54.4234 27.0919 54.36 26.8312 54.2361 26.603C54.1121 26.3719 53.9388 26.1902 53.7162 26.0577C53.4965 25.9253 53.24 25.8591 52.947 25.8591C52.6343 25.8591 52.3595 25.9351 52.1229 26.0873C51.8862 26.2367 51.7016 26.4339 51.5692 26.679C51.4396 26.9214 51.3734 27.1877 51.3706 27.4779V28.3782C51.3706 28.7558 51.4396 29.0798 51.5776 29.3503C51.7157 29.618 51.9087 29.8237 52.1567 29.9674C52.4046 30.1083 52.6948 30.1788 53.0273 30.1788C53.2499 30.1788 53.4514 30.1478 53.6317 30.0858C53.812 30.021 53.9684 29.9266 54.1008 29.8026C54.2333 29.6786 54.3333 29.525 54.4009 29.3419L55.8294 29.5025C55.7393 29.8801 55.5674 30.2098 55.3138 30.4915C55.063 30.7705 54.7418 30.9875 54.3502 31.1425C53.9585 31.2946 53.5105 31.3707 53.0062 31.3707Z" fill="white"/>
<path d="M59.0553 31.3749C58.6439 31.3749 58.2734 31.3017 57.9437 31.1551C57.6169 31.0058 57.3576 30.786 57.166 30.4958C56.9773 30.2055 56.8829 29.8477 56.8829 29.4222C56.8829 29.0559 56.9505 28.753 57.0857 28.5134C57.221 28.2739 57.4055 28.0823 57.6394 27.9386C57.8733 27.7949 58.1367 27.6864 58.4298 27.6132C58.7256 27.5371 59.0313 27.4821 59.3469 27.4483C59.7273 27.4089 60.0358 27.3736 60.2725 27.3426C60.5092 27.3088 60.681 27.2581 60.7881 27.1905C60.898 27.12 60.9529 27.0116 60.9529 26.865V26.8397C60.9529 26.5213 60.8585 26.2747 60.6698 26.1C60.481 25.9253 60.2091 25.8379 59.8541 25.8379C59.4793 25.8379 59.1821 25.9196 58.9623 26.0831C58.7453 26.2465 58.5988 26.4395 58.5227 26.6621L57.0942 26.4593C57.2069 26.0648 57.3929 25.7351 57.6521 25.4702C57.9113 25.2025 58.2283 25.0025 58.603 24.87C58.9778 24.7348 59.392 24.6671 59.8456 24.6671C60.1584 24.6671 60.4697 24.7038 60.7797 24.777C61.0896 24.8503 61.3728 24.9715 61.6292 25.1405C61.8856 25.3068 62.0913 25.5336 62.2462 25.821C62.404 26.1084 62.4829 26.4677 62.4829 26.8988V31.2439H61.0121V30.3521H60.9614C60.8684 30.5324 60.7374 30.7015 60.5683 30.8593C60.4021 31.0143 60.1922 31.1396 59.9386 31.2355C59.6878 31.3284 59.3934 31.3749 59.0553 31.3749ZM59.4526 30.2506C59.7597 30.2506 60.0259 30.19 60.2513 30.0689C60.4768 29.9449 60.65 29.7815 60.7712 29.5786C60.8952 29.3757 60.9572 29.1545 60.9572 28.915V28.1499C60.9093 28.1894 60.8276 28.226 60.712 28.2598C60.5993 28.2937 60.4725 28.3232 60.3317 28.3486C60.1908 28.374 60.0513 28.3965 59.9132 28.4162C59.7752 28.436 59.6554 28.4529 59.554 28.4669C59.3258 28.4979 59.1215 28.5487 58.9412 28.6191C58.7608 28.6896 58.6185 28.7882 58.5143 28.915C58.41 29.039 58.3579 29.1996 58.3579 29.3968C58.3579 29.6786 58.4607 29.8914 58.6664 30.0351C58.8721 30.1788 59.1342 30.2506 59.4526 30.2506Z" fill="white"/>
<path d="M64.0213 31.2439V24.7517H65.5048V25.8337H65.5724C65.6908 25.4589 65.8936 25.1701 66.181 24.9672C66.4712 24.7615 66.8023 24.6587 67.1742 24.6587C67.2588 24.6587 67.3532 24.6629 67.4574 24.6714C67.5645 24.677 67.6532 24.6869 67.7237 24.7009V26.1084C67.6589 26.0859 67.556 26.0662 67.4152 26.0493C67.2771 26.0295 67.1433 26.0197 67.0136 26.0197C66.7347 26.0197 66.4839 26.0803 66.2613 26.2014C66.0416 26.3198 65.8683 26.4846 65.7415 26.696C65.6147 26.9073 65.5513 27.151 65.5513 27.4272V31.2439H64.0213Z" fill="white"/>
<path d="M73.871 26.4677L72.4763 26.6199C72.4369 26.479 72.3678 26.3465 72.2692 26.2226C72.1734 26.0986 72.0438 25.9985 71.8804 25.9225C71.717 25.8464 71.5169 25.8083 71.2802 25.8083C70.9618 25.8083 70.6942 25.8774 70.4772 26.0155C70.2631 26.1535 70.1574 26.3325 70.1602 26.5522C70.1574 26.741 70.2264 26.8946 70.3673 27.013C70.511 27.1313 70.7477 27.2285 71.0774 27.3046L72.1847 27.5413C72.7989 27.6737 73.2554 27.8837 73.5541 28.1711C73.8555 28.4585 74.0077 28.8347 74.0105 29.2996C74.0077 29.7082 73.8879 30.0689 73.6513 30.3817C73.4174 30.6916 73.092 30.9339 72.6749 31.1086C72.2579 31.2834 71.7789 31.3707 71.238 31.3707C70.4434 31.3707 69.8038 31.2045 69.3192 30.872C68.8345 30.5366 68.5457 30.0703 68.4527 29.4729L69.9447 29.3292C70.0123 29.6223 70.156 29.8435 70.3758 29.9928C70.5956 30.1421 70.8815 30.2168 71.2337 30.2168C71.5972 30.2168 71.8888 30.1421 72.1086 29.9928C72.3312 29.8435 72.4425 29.6589 72.4425 29.4391C72.4425 29.2531 72.3706 29.0995 72.2269 28.9784C72.0861 28.8572 71.8663 28.7642 71.5676 28.6994L70.4603 28.4669C69.8376 28.3373 69.3769 28.1189 69.0783 27.8118C68.7796 27.5018 68.6317 27.1102 68.6345 26.6368C68.6317 26.2367 68.7401 25.8901 68.9599 25.597C69.1825 25.3011 69.491 25.0729 69.8855 24.9123C70.2828 24.7488 70.7407 24.6671 71.2591 24.6671C72.0199 24.6671 72.6186 24.8292 73.0553 25.1532C73.4949 25.4773 73.7668 25.9154 73.871 26.4677Z" fill="white"/>
<path d="M11.9552 45.2738H10.9014C10.8713 45.101 10.8159 44.9479 10.7351 44.8145C10.6544 44.6792 10.5539 44.5646 10.4337 44.4707C10.3134 44.3768 10.1763 44.3063 10.0223 44.2594C9.87013 44.2105 9.70577 44.1861 9.5292 44.1861C9.21551 44.1861 8.9375 44.265 8.69519 44.4228C8.45287 44.5787 8.26315 44.8079 8.12603 45.1104C7.9889 45.4109 7.92034 45.7782 7.92034 46.2121C7.92034 46.6536 7.9889 47.0255 8.12603 47.328C8.26503 47.6285 8.45475 47.8558 8.69519 48.0099C8.9375 48.162 9.21457 48.2381 9.52638 48.2381C9.6992 48.2381 9.86074 48.2156 10.011 48.1705C10.1632 48.1235 10.2994 48.055 10.4196 47.9648C10.5417 47.8746 10.644 47.7638 10.7267 47.6323C10.8112 47.5008 10.8695 47.3505 10.9014 47.1815L11.9552 47.1871C11.9157 47.4614 11.8303 47.7187 11.6988 47.9592C11.5692 48.1996 11.3992 48.4119 11.1888 48.596C10.9784 48.7782 10.7323 48.921 10.4506 49.0243C10.1688 49.1257 9.85605 49.1765 9.5123 49.1765C9.00512 49.1765 8.55243 49.0591 8.1542 48.8242C7.75598 48.5894 7.44228 48.2503 7.21312 47.807C6.98395 47.3637 6.86937 46.832 6.86937 46.2121C6.86937 45.5903 6.98489 45.0587 7.21593 44.6172C7.44698 44.1739 7.76161 43.8348 8.15984 43.6C8.55806 43.3652 9.00888 43.2478 9.5123 43.2478C9.8335 43.2478 10.1322 43.2929 10.4083 43.383C10.6844 43.4732 10.9305 43.6057 11.1465 43.7804C11.3625 43.9532 11.54 44.1655 11.679 44.4172C11.8199 44.667 11.912 44.9526 11.9552 45.2738Z" fill="white"/>
<path d="M13.8874 46.5615V49.0976H12.8674V43.3267H13.8648V45.5049H13.9155C14.017 45.2606 14.1738 45.0681 14.3861 44.9272C14.6002 44.7844 14.8726 44.713 15.2032 44.713C15.5037 44.713 15.7658 44.776 15.9893 44.9018C16.2128 45.0277 16.3857 45.2118 16.5077 45.4541C16.6317 45.6965 16.6937 45.9923 16.6937 46.3417V49.0976H15.6737V46.4995C15.6737 46.2084 15.5986 45.982 15.4483 45.8204C15.2999 45.657 15.0914 45.5753 14.8228 45.5753C14.6425 45.5753 14.4809 45.6147 14.3382 45.6936C14.1973 45.7707 14.0865 45.8824 14.0057 46.029C13.9268 46.1755 13.8874 46.353 13.8874 46.5615Z" fill="white"/>
<path d="M18.9788 49.1849C18.7046 49.1849 18.4575 49.1361 18.2378 49.0384C18.0199 48.9388 17.8471 48.7923 17.7193 48.5988C17.5935 48.4053 17.5305 48.1668 17.5305 47.8831C17.5305 47.6389 17.5756 47.4369 17.6658 47.2773C17.756 47.1176 17.879 46.9898 18.0349 46.894C18.1908 46.7982 18.3664 46.7259 18.5618 46.6771C18.759 46.6263 18.9628 46.5897 19.1732 46.5672C19.4268 46.5409 19.6325 46.5174 19.7903 46.4967C19.9481 46.4742 20.0627 46.4404 20.134 46.3953C20.2073 46.3483 20.2439 46.276 20.2439 46.1783V46.1614C20.2439 45.9491 20.181 45.7848 20.0551 45.6683C19.9293 45.5518 19.748 45.4936 19.5113 45.4936C19.2615 45.4936 19.0633 45.5481 18.9168 45.657C18.7722 45.766 18.6745 45.8947 18.6238 46.0431L17.6714 45.9078C17.7466 45.6448 17.8705 45.425 18.0434 45.2484C18.2162 45.07 18.4275 44.9366 18.6773 44.8483C18.9271 44.7581 19.2033 44.713 19.5057 44.713C19.7142 44.713 19.9218 44.7375 20.1284 44.7863C20.335 44.8352 20.5238 44.9159 20.6947 45.0286C20.8657 45.1395 21.0028 45.2907 21.1061 45.4823C21.2113 45.6739 21.2639 45.9134 21.2639 46.2009V49.0976H20.2834V48.503H20.2496C20.1876 48.6232 20.1002 48.7359 19.9875 48.8411C19.8767 48.9445 19.7367 49.0281 19.5677 49.0919C19.4005 49.1539 19.2042 49.1849 18.9788 49.1849ZM19.2437 48.4354C19.4484 48.4354 19.6259 48.395 19.7762 48.3142C19.9265 48.2316 20.042 48.1226 20.1228 47.9873C20.2054 47.8521 20.2467 47.7046 20.2467 47.5449V47.0349C20.2148 47.0612 20.1603 47.0856 20.0833 47.1082C20.0082 47.1307 19.9236 47.1505 19.8297 47.1674C19.7358 47.1843 19.6428 47.1993 19.5508 47.2124C19.4587 47.2256 19.3789 47.2369 19.3113 47.2463C19.1591 47.2669 19.0229 47.3007 18.9027 47.3477C18.7825 47.3947 18.6876 47.4604 18.6181 47.5449C18.5486 47.6276 18.5139 47.7347 18.5139 47.8662C18.5139 48.054 18.5825 48.1959 18.7196 48.2917C18.8567 48.3875 19.0314 48.4354 19.2437 48.4354Z" fill="white"/>
<path d="M22.2895 49.0976V44.7694H23.2785V45.4908H23.3236C23.4025 45.2409 23.5377 45.0484 23.7293 44.9131C23.9228 44.776 24.1435 44.7074 24.3915 44.7074C24.4478 44.7074 24.5107 44.7102 24.5802 44.7159C24.6516 44.7196 24.7108 44.7262 24.7577 44.7356V45.6739C24.7145 45.6589 24.646 45.6457 24.5521 45.6345C24.46 45.6213 24.3708 45.6147 24.2844 45.6147C24.0984 45.6147 23.9312 45.6551 23.7829 45.7359C23.6363 45.8148 23.5208 45.9247 23.4363 46.0656C23.3518 46.2065 23.3095 46.369 23.3095 46.5531V49.0976H22.2895Z" fill="white"/>
<path d="M27.829 44.7694V45.5584H25.341V44.7694H27.829ZM25.9552 43.7324H26.9752V47.7957C26.9752 47.9329 26.9959 48.0381 27.0372 48.1113C27.0804 48.1827 27.1368 48.2316 27.2063 48.2579C27.2758 48.2842 27.3528 48.2973 27.4373 48.2973C27.5012 48.2973 27.5594 48.2926 27.612 48.2832C27.6665 48.2738 27.7078 48.2654 27.736 48.2579L27.9079 49.0553C27.8534 49.0741 27.7754 49.0947 27.674 49.1173C27.5744 49.1398 27.4523 49.153 27.3077 49.1567C27.0522 49.1643 26.8221 49.1257 26.6174 49.0412C26.4126 48.9548 26.2502 48.8214 26.1299 48.6411C26.0116 48.4607 25.9534 48.2353 25.9552 47.9648V43.7324Z" fill="white"/>
<path d="M30.5515 49.1821C30.1176 49.1821 29.7428 49.0919 29.4273 48.9116C29.1136 48.7294 28.8722 48.472 28.7031 48.1395C28.5341 47.8051 28.4495 47.4116 28.4495 46.9588C28.4495 46.5136 28.5341 46.1229 28.7031 45.7866C28.8741 45.4485 29.1126 45.1855 29.4188 44.9976C29.725 44.8079 30.0847 44.713 30.498 44.713C30.7647 44.713 31.0164 44.7563 31.2531 44.8427C31.4916 44.9272 31.702 45.0587 31.8842 45.2372C32.0683 45.4156 32.2129 45.6429 32.3181 45.9191C32.4233 46.1933 32.4759 46.5202 32.4759 46.8997V47.2124H28.9285V46.5249H31.4982C31.4963 46.3295 31.4541 46.1558 31.3714 46.0036C31.2888 45.8496 31.1732 45.7284 31.0248 45.6401C30.8783 45.5518 30.7074 45.5077 30.512 45.5077C30.3035 45.5077 30.1204 45.5584 29.9626 45.6598C29.8048 45.7594 29.6818 45.8909 29.5935 46.0543C29.5071 46.2159 29.4629 46.3934 29.4611 46.5869V47.1871C29.4611 47.4388 29.5071 47.6548 29.5991 47.8352C29.6912 48.0136 29.8198 48.1508 29.9851 48.2466C30.1504 48.3405 30.3439 48.3875 30.5656 48.3875C30.714 48.3875 30.8483 48.3668 30.9685 48.3255C31.0887 48.2823 31.193 48.2193 31.2812 48.1367C31.3695 48.054 31.4362 47.9517 31.4813 47.8296L32.4337 47.9366C32.3736 48.1883 32.259 48.4081 32.0899 48.596C31.9227 48.782 31.7086 48.9266 31.4475 49.0299C31.1864 49.1314 30.8877 49.1821 30.5515 49.1821Z" fill="white"/>
<path d="M33.3388 49.0976V44.7694H34.3278V45.4908H34.3729C34.4518 45.2409 34.587 45.0484 34.7786 44.9131C34.9721 44.776 35.1928 44.7074 35.4408 44.7074C35.4971 44.7074 35.56 44.7102 35.6296 44.7159C35.7009 44.7196 35.7601 44.7262 35.8071 44.7356V45.6739C35.7639 45.6589 35.6953 45.6457 35.6014 45.6345C35.5093 45.6213 35.4201 45.6147 35.3337 45.6147C35.1477 45.6147 34.9806 45.6551 34.8322 45.7359C34.6856 45.8148 34.5701 45.9247 34.4856 46.0656C34.4011 46.2065 34.3588 46.369 34.3588 46.5531V49.0976H33.3388Z" fill="white"/>
<path d="M36.4847 49.0976V44.7694H37.5047V49.0976H36.4847ZM36.9975 44.1551C36.836 44.1551 36.697 44.1016 36.5805 43.9945C36.464 43.8856 36.4058 43.755 36.4058 43.6028C36.4058 43.4488 36.464 43.3182 36.5805 43.2112C36.697 43.1022 36.836 43.0477 36.9975 43.0477C37.1609 43.0477 37.2999 43.1022 37.4145 43.2112C37.531 43.3182 37.5892 43.4488 37.5892 43.6028C37.5892 43.755 37.531 43.8856 37.4145 43.9945C37.2999 44.1016 37.1609 44.1551 36.9975 44.1551Z" fill="white"/>
<path d="M39.5735 46.5615V49.0976H38.5535V44.7694H39.5284V45.5049H39.5792C39.6787 45.2625 39.8374 45.07 40.0553 44.9272C40.2751 44.7844 40.5465 44.713 40.8696 44.713C41.1683 44.713 41.4285 44.7769 41.6501 44.9047C41.8736 45.0324 42.0464 45.2174 42.1685 45.4598C42.2925 45.7021 42.3536 45.9961 42.3517 46.3417V49.0976H41.3317V46.4995C41.3317 46.2102 41.2566 45.9839 41.1063 45.8204C40.9579 45.657 40.7522 45.5753 40.4892 45.5753C40.3108 45.5753 40.1521 45.6147 40.0131 45.6936C39.8759 45.7707 39.7679 45.8824 39.689 46.029C39.612 46.1755 39.5735 46.353 39.5735 46.5615Z" fill="white"/>
<path d="M45.2708 50.8108C44.9045 50.8108 44.5898 50.761 44.3268 50.6615C44.0639 50.5638 43.8525 50.4323 43.6929 50.267C43.5332 50.1016 43.4224 49.9185 43.3604 49.7175L44.2789 49.4949C44.3203 49.5794 44.3804 49.663 44.4593 49.7457C44.5382 49.8302 44.6443 49.8997 44.7777 49.9542C44.9129 50.0105 45.0829 50.0387 45.2877 50.0387C45.5769 50.0387 45.8164 49.9683 46.0061 49.8274C46.1959 49.6884 46.2907 49.4592 46.2907 49.1398V48.3198H46.24C46.1874 48.425 46.1104 48.5331 46.009 48.6439C45.9094 48.7547 45.777 48.8477 45.6117 48.9229C45.4483 48.998 45.2426 49.0356 44.9946 49.0356C44.6621 49.0356 44.3607 48.9576 44.0902 48.8017C43.8216 48.6439 43.6074 48.4091 43.4477 48.0972C43.29 47.7835 43.2111 47.3909 43.2111 46.9194C43.2111 46.4441 43.29 46.0431 43.4477 45.7162C43.6074 45.3874 43.8225 45.1385 44.093 44.9695C44.3635 44.7985 44.665 44.713 44.9974 44.713C45.251 44.713 45.4595 44.7563 45.623 44.8427C45.7883 44.9272 45.9197 45.0296 46.0174 45.1498C46.1151 45.2682 46.1893 45.3799 46.24 45.4851H46.2964V44.7694H47.3023V49.168C47.3023 49.5381 47.214 49.8443 47.0374 50.0866C46.8608 50.3289 46.6195 50.5102 46.3133 50.6305C46.0071 50.7507 45.6596 50.8108 45.2708 50.8108ZM45.2792 48.2353C45.4952 48.2353 45.6793 48.1827 45.8315 48.0775C45.9836 47.9723 46.0991 47.8211 46.178 47.6238C46.2569 47.4266 46.2964 47.1899 46.2964 46.9138C46.2964 46.6414 46.2569 46.4028 46.178 46.198C46.101 45.9933 45.9864 45.8345 45.8343 45.7218C45.684 45.6072 45.499 45.5499 45.2792 45.5499C45.0519 45.5499 44.8622 45.6091 44.71 45.7275C44.5579 45.8458 44.4433 46.0083 44.3663 46.2149C44.2893 46.4197 44.2508 46.6526 44.2508 46.9138C44.2508 47.1786 44.2893 47.4106 44.3663 47.6098C44.4452 47.807 44.5607 47.961 44.7129 48.0719C44.8669 48.1808 45.0557 48.2353 45.2792 48.2353Z" fill="white"/>
<path d="M50.3608 49.0976V43.3267H54.1139V44.203H51.4061V45.7697H53.9194V46.6461H51.4061V48.2212H54.1364V49.0976H50.3608Z" fill="white"/>
<path d="M55.9693 44.7694L56.8427 46.3671L57.7303 44.7694H58.8094L57.5049 46.9335L58.832 49.0976H57.7585L56.8427 47.5393L55.9355 49.0976H54.8535L56.1721 46.9335L54.8873 44.7694H55.9693Z" fill="white"/>
<path d="M59.5984 50.7206V44.7694H60.6014V45.4851H60.6606C60.7132 45.3799 60.7874 45.2682 60.8832 45.1498C60.979 45.0296 61.1086 44.9272 61.272 44.8427C61.4355 44.7563 61.644 44.713 61.8975 44.713C62.2319 44.713 62.5334 44.7985 62.802 44.9695C63.0725 45.1385 63.2866 45.3893 63.4444 45.7218C63.6041 46.0524 63.6839 46.4582 63.6839 46.9391C63.6839 47.4144 63.606 47.8183 63.4501 48.1508C63.2942 48.4833 63.0819 48.7369 62.8133 48.9116C62.5447 49.0863 62.2404 49.1736 61.9004 49.1736C61.6524 49.1736 61.4467 49.1323 61.2833 49.0497C61.1199 48.967 60.9884 48.8674 60.8888 48.751C60.7912 48.6326 60.7151 48.5209 60.6606 48.4157H60.6183V50.7206H59.5984ZM60.5986 46.9335C60.5986 47.2134 60.6381 47.4585 60.717 47.6689C60.7977 47.8793 60.9133 48.0437 61.0635 48.1621C61.2157 48.2785 61.3998 48.3368 61.6158 48.3368C61.8412 48.3368 62.03 48.2766 62.1821 48.1564C62.3343 48.0343 62.4489 47.8681 62.5259 47.6577C62.6048 47.4454 62.6442 47.204 62.6442 46.9335C62.6442 46.6649 62.6057 46.4263 62.5287 46.2178C62.4517 46.0092 62.3371 45.8458 62.1849 45.7275C62.0328 45.6091 61.8431 45.5499 61.6158 45.5499C61.3979 45.5499 61.2129 45.6072 61.0607 45.7218C60.9086 45.8364 60.793 45.997 60.7141 46.2037C60.6371 46.4103 60.5986 46.6536 60.5986 46.9335Z" fill="white"/>
<path d="M66.4734 49.1821C66.0395 49.1821 65.6647 49.0919 65.3491 48.9116C65.0354 48.7294 64.7941 48.472 64.625 48.1395C64.4559 47.8051 64.3714 47.4116 64.3714 46.9588C64.3714 46.5136 64.4559 46.1229 64.625 45.7866C64.7959 45.4485 65.0345 45.1855 65.3407 44.9976C65.6469 44.8079 66.0066 44.713 66.4198 44.713C66.6866 44.713 66.9383 44.7563 67.1749 44.8427C67.4135 44.9272 67.6239 45.0587 67.8061 45.2372C67.9902 45.4156 68.1348 45.6429 68.24 45.9191C68.3452 46.1933 68.3978 46.5202 68.3978 46.8997V47.2124H64.8504V46.5249H67.4201C67.4182 46.3295 67.3759 46.1558 67.2933 46.0036C67.2106 45.8496 67.0951 45.7284 66.9467 45.6401C66.8002 45.5518 66.6293 45.5077 66.4339 45.5077C66.2254 45.5077 66.0423 45.5584 65.8845 45.6598C65.7267 45.7594 65.6037 45.8909 65.5154 46.0543C65.429 46.2159 65.3848 46.3934 65.3829 46.5869V47.1871C65.3829 47.4388 65.429 47.6548 65.521 47.8352C65.613 48.0136 65.7417 48.1508 65.907 48.2466C66.0723 48.3405 66.2658 48.3875 66.4875 48.3875C66.6358 48.3875 66.7702 48.3668 66.8904 48.3255C67.0106 48.2823 67.1148 48.2193 67.2031 48.1367C67.2914 48.054 67.3581 47.9517 67.4032 47.8296L68.3555 47.9366C68.2954 48.1883 68.1808 48.4081 68.0118 48.596C67.8446 48.782 67.6305 48.9266 67.3694 49.0299C67.1083 49.1314 66.8096 49.1821 66.4734 49.1821Z" fill="white"/>
<path d="M69.2607 49.0976V44.7694H70.2497V45.4908H70.2948C70.3737 45.2409 70.5089 45.0484 70.7005 44.9131C70.894 44.776 71.1147 44.7074 71.3626 44.7074C71.419 44.7074 71.4819 44.7102 71.5514 44.7159C71.6228 44.7196 71.682 44.7262 71.7289 44.7356V45.6739C71.6857 45.6589 71.6172 45.6457 71.5233 45.6345C71.4312 45.6213 71.342 45.6147 71.2556 45.6147C71.0696 45.6147 70.9024 45.6551 70.754 45.7359C70.6075 45.8148 70.492 45.9247 70.4075 46.0656C70.3229 46.2065 70.2807 46.369 70.2807 46.5531V49.0976H69.2607Z" fill="white"/>
<path d="M72.4066 49.0976V44.7694H73.4266V49.0976H72.4066ZM72.9194 44.1551C72.7578 44.1551 72.6188 44.1016 72.5024 43.9945C72.3859 43.8856 72.3277 43.755 72.3277 43.6028C72.3277 43.4488 72.3859 43.3182 72.5024 43.2112C72.6188 43.1022 72.7578 43.0477 72.9194 43.0477C73.0828 43.0477 73.2218 43.1022 73.3364 43.2112C73.4529 43.3182 73.5111 43.4488 73.5111 43.6028C73.5111 43.755 73.4529 43.8856 73.3364 43.9945C73.2218 44.1016 73.0828 44.1551 72.9194 44.1551Z" fill="white"/>
<path d="M76.3914 49.1821C75.9575 49.1821 75.5827 49.0919 75.2672 48.9116C74.9535 48.7294 74.7121 48.472 74.543 48.1395C74.374 47.8051 74.2895 47.4116 74.2895 46.9588C74.2895 46.5136 74.374 46.1229 74.543 45.7866C74.714 45.4485 74.9525 45.1855 75.2587 44.9976C75.5649 44.8079 75.9246 44.713 76.3379 44.713C76.6046 44.713 76.8563 44.7563 77.093 44.8427C77.3315 44.9272 77.5419 45.0587 77.7241 45.2372C77.9082 45.4156 78.0529 45.6429 78.158 45.9191C78.2632 46.1933 78.3158 46.5202 78.3158 46.8997V47.2124H74.7684V46.5249H77.3381C77.3362 46.3295 77.294 46.1558 77.2113 46.0036C77.1287 45.8496 77.0132 45.7284 76.8648 45.6401C76.7182 45.5518 76.5473 45.5077 76.352 45.5077C76.1434 45.5077 75.9603 45.5584 75.8025 45.6598C75.6447 45.7594 75.5217 45.8909 75.4334 46.0543C75.347 46.2159 75.3029 46.3934 75.301 46.5869V47.1871C75.301 47.4388 75.347 47.6548 75.439 47.8352C75.5311 48.0136 75.6598 48.1508 75.8251 48.2466C75.9904 48.3405 76.1838 48.3875 76.4055 48.3875C76.5539 48.3875 76.6882 48.3668 76.8084 48.3255C76.9286 48.2823 77.0329 48.2193 77.1212 48.1367C77.2094 48.054 77.2761 47.9517 77.3212 47.8296L78.2736 47.9366C78.2135 48.1883 78.0989 48.4081 77.9298 48.596C77.7626 48.782 77.5485 48.9266 77.2874 49.0299C77.0263 49.1314 76.7276 49.1821 76.3914 49.1821Z" fill="white"/>
<path d="M80.1987 46.5615V49.0976H79.1787V44.7694H80.1536V45.5049H80.2043C80.3039 45.2625 80.4626 45.07 80.6805 44.9272C80.9003 44.7844 81.1717 44.713 81.4948 44.713C81.7935 44.713 82.0536 44.7769 82.2753 44.9047C82.4988 45.0324 82.6716 45.2174 82.7937 45.4598C82.9177 45.7021 82.9788 45.9961 82.9769 46.3417V49.0976H81.9569V46.4995C81.9569 46.2102 81.8818 45.9839 81.7315 45.8204C81.5831 45.657 81.3774 45.5753 81.1144 45.5753C80.936 45.5753 80.7773 45.6147 80.6383 45.6936C80.5011 45.7707 80.3931 45.8824 80.3142 46.029C80.2372 46.1755 80.1987 46.353 80.1987 46.5615Z" fill="white"/>
<path d="M85.9016 49.1821C85.4695 49.1821 85.0986 49.0872 84.7886 48.8975C84.4806 48.7078 84.2429 48.4457 84.0758 48.1113C83.9105 47.7751 83.8278 47.3881 83.8278 46.9504C83.8278 46.5108 83.9123 46.1229 84.0814 45.7866C84.2505 45.4485 84.489 45.1855 84.7971 44.9976C85.107 44.8079 85.4733 44.713 85.8959 44.713C86.2472 44.713 86.5581 44.7779 86.8286 44.9075C87.1009 45.0352 87.3179 45.2165 87.4794 45.4513C87.641 45.6843 87.733 45.9566 87.7556 46.2685H86.7807C86.7412 46.06 86.6473 45.8862 86.4989 45.7472C86.3524 45.6063 86.1561 45.5359 85.91 45.5359C85.7015 45.5359 85.5184 45.5922 85.3606 45.7049C85.2028 45.8158 85.0798 45.9754 84.9915 46.1839C84.9051 46.3925 84.8619 46.6423 84.8619 46.9335C84.8619 47.2284 84.9051 47.482 84.9915 47.6943C85.0779 47.9047 85.1991 48.0672 85.355 48.1818C85.5128 48.2945 85.6978 48.3508 85.91 48.3508C86.0603 48.3508 86.1946 48.3227 86.3129 48.2663C86.4332 48.2081 86.5337 48.1245 86.6144 48.0155C86.6952 47.9066 86.7506 47.7741 86.7807 47.6182H87.7556C87.7312 47.9244 87.641 48.1959 87.4851 48.4326C87.3292 48.6674 87.1169 48.8515 86.8483 48.9849C86.5797 49.1163 86.2641 49.1821 85.9016 49.1821Z" fill="white"/>
<path d="M90.5091 49.1821C90.0752 49.1821 89.7004 49.0919 89.3849 48.9116C89.0712 48.7294 88.8298 48.472 88.6607 48.1395C88.4917 47.8051 88.4072 47.4116 88.4072 46.9588C88.4072 46.5136 88.4917 46.1229 88.6607 45.7866C88.8317 45.4485 89.0702 45.1855 89.3764 44.9976C89.6826 44.8079 90.0423 44.713 90.4556 44.713C90.7223 44.713 90.974 44.7563 91.2107 44.8427C91.4492 44.9272 91.6596 45.0587 91.8418 45.2372C92.0259 45.4156 92.1706 45.6429 92.2757 45.9191C92.3809 46.1933 92.4335 46.5202 92.4335 46.8997V47.2124H88.8861V46.5249H91.4558C91.4539 46.3295 91.4117 46.1558 91.329 46.0036C91.2464 45.8496 91.1309 45.7284 90.9825 45.6401C90.8359 45.5518 90.665 45.5077 90.4696 45.5077C90.2611 45.5077 90.078 45.5584 89.9202 45.6598C89.7624 45.7594 89.6394 45.8909 89.5511 46.0543C89.4647 46.2159 89.4206 46.3934 89.4187 46.5869V47.1871C89.4187 47.4388 89.4647 47.6548 89.5567 47.8352C89.6488 48.0136 89.7775 48.1508 89.9428 48.2466C90.1081 48.3405 90.3015 48.3875 90.5232 48.3875C90.6716 48.3875 90.8059 48.3668 90.9261 48.3255C91.0463 48.2823 91.1506 48.2193 91.2389 48.1367C91.3271 48.054 91.3938 47.9517 91.4389 47.8296L92.3913 47.9366C92.3312 48.1883 92.2166 48.4081 92.0475 48.596C91.8803 48.782 91.6662 48.9266 91.4051 49.0299C91.144 49.1314 90.8453 49.1821 90.5091 49.1821Z" fill="white"/>
<path d="M0 74.3903C0 70.2818 3.33034 66.9512 7.43852 66.9512H105.131C109.239 66.9512 112.57 70.2818 112.57 74.3903V114.561C112.57 118.669 109.239 122 105.131 122H7.43853C3.33034 122 0 118.669 0 114.561V74.3903Z" fill="#24262B"/>
<path d="M8.61911 97.2033L15.9816 82.6295V82.5112H7.43571V79.8906H19.2275V82.5704L11.8735 97.2033H8.61911Z" fill="white"/>
<path d="M7.01588 112.577V106.806H10.7126V107.683H8.06122V109.249H10.459V110.126H8.06122V112.577H7.01588Z" fill="white"/>
<path d="M12.6399 106.806V112.577H11.6199V106.806H12.6399Z" fill="white"/>
<path d="M15.6047 112.662C15.1708 112.662 14.796 112.572 14.4805 112.391C14.1668 112.209 13.9254 111.952 13.7563 111.619C13.5873 111.285 13.5028 110.891 13.5028 110.439C13.5028 109.993 13.5873 109.603 13.7563 109.266C13.9273 108.928 14.1658 108.665 14.472 108.477C14.7782 108.288 15.1379 108.193 15.5512 108.193C15.8179 108.193 16.0696 108.236 16.3063 108.322C16.5448 108.407 16.7552 108.538 16.9374 108.717C17.1215 108.895 17.2662 109.123 17.3714 109.399C17.4765 109.673 17.5291 110 17.5291 110.379V110.692H13.9818V110.005H16.5514C16.5495 109.809 16.5073 109.635 16.4246 109.483C16.342 109.329 16.2265 109.208 16.0781 109.12C15.9315 109.031 15.7606 108.987 15.5653 108.987C15.3567 108.987 15.1736 109.038 15.0158 109.14C14.858 109.239 14.735 109.371 14.6467 109.534C14.5603 109.696 14.5162 109.873 14.5143 110.067V110.667C14.5143 110.918 14.5603 111.135 14.6523 111.315C14.7444 111.493 14.8731 111.63 15.0384 111.726C15.2037 111.82 15.3971 111.867 15.6188 111.867C15.7672 111.867 15.9015 111.846 16.0217 111.805C16.1419 111.762 16.2462 111.699 16.3345 111.616C16.4228 111.534 16.4894 111.431 16.5345 111.309L17.4869 111.416C17.4268 111.668 17.3122 111.888 17.1431 112.076C16.9759 112.262 16.7618 112.406 16.5007 112.51C16.2396 112.611 15.9409 112.662 15.6047 112.662Z" fill="white"/>
<path d="M20.308 112.662C19.8741 112.662 19.4994 112.572 19.1838 112.391C18.8701 112.209 18.6287 111.952 18.4597 111.619C18.2906 111.285 18.2061 110.891 18.2061 110.439C18.2061 109.993 18.2906 109.603 18.4597 109.266C18.6306 108.928 18.8692 108.665 19.1753 108.477C19.4815 108.288 19.8412 108.193 20.2545 108.193C20.5212 108.193 20.7729 108.236 21.0096 108.322C21.2482 108.407 21.4585 108.538 21.6408 108.717C21.8248 108.895 21.9695 109.123 22.0747 109.399C22.1799 109.673 22.2325 110 22.2325 110.379V110.692H18.6851V110.005H21.2547C21.2529 109.809 21.2106 109.635 21.1279 109.483C21.0453 109.329 20.9298 109.208 20.7814 109.12C20.6349 109.031 20.4639 108.987 20.2686 108.987C20.0601 108.987 19.8769 109.038 19.7191 109.14C19.5613 109.239 19.4383 109.371 19.35 109.534C19.2636 109.696 19.2195 109.873 19.2176 110.067V110.667C19.2176 110.918 19.2636 111.135 19.3557 111.315C19.4477 111.493 19.5764 111.63 19.7417 111.726C19.907 111.82 20.1005 111.867 20.3221 111.867C20.4705 111.867 20.6048 111.846 20.725 111.805C20.8452 111.762 20.9495 111.699 21.0378 111.616C21.1261 111.534 21.1928 111.431 21.2378 111.309L22.1902 111.416C22.1301 111.668 22.0155 111.888 21.8464 112.076C21.6793 112.262 21.4651 112.406 21.204 112.51C20.9429 112.611 20.6443 112.662 20.308 112.662Z" fill="white"/>
<path d="M25.2565 108.249V109.038H22.7685V108.249H25.2565ZM23.3827 107.212H24.4027V111.275C24.4027 111.413 24.4234 111.518 24.4647 111.591C24.5079 111.662 24.5643 111.711 24.6338 111.738C24.7033 111.764 24.7803 111.777 24.8648 111.777C24.9287 111.777 24.9869 111.772 25.0395 111.763C25.094 111.754 25.1353 111.745 25.1635 111.738L25.3354 112.535C25.2809 112.554 25.2029 112.574 25.1015 112.597C25.0019 112.62 24.8798 112.633 24.7352 112.636C24.4797 112.644 24.2496 112.605 24.0449 112.521C23.8401 112.434 23.6777 112.301 23.5574 112.121C23.4391 111.94 23.3809 111.715 23.3827 111.444V107.212Z" fill="white"/>
<path d="M29.4681 109.393L28.5383 109.495C28.512 109.401 28.466 109.312 28.4002 109.23C28.3364 109.147 28.25 109.08 28.141 109.03C28.0321 108.979 27.8987 108.954 27.7409 108.954C27.5286 108.954 27.3502 109 27.2056 109.092C27.0628 109.184 26.9924 109.303 26.9942 109.449C26.9924 109.575 27.0384 109.678 27.1323 109.757C27.2281 109.836 27.3859 109.9 27.6057 109.951L28.3439 110.109C28.7534 110.197 29.0577 110.337 29.2568 110.529C29.4578 110.72 29.5592 110.971 29.5611 111.281C29.5592 111.553 29.4794 111.794 29.3216 112.002C29.1657 112.209 28.9487 112.371 28.6707 112.487C28.3927 112.604 28.0734 112.662 27.7127 112.662C27.183 112.662 26.7566 112.551 26.4335 112.329C26.1104 112.106 25.9179 111.795 25.8559 111.397L26.8505 111.301C26.8956 111.496 26.9914 111.644 27.1379 111.743C27.2845 111.843 27.4751 111.893 27.7099 111.893C27.9522 111.893 28.1466 111.843 28.2932 111.743C28.4416 111.644 28.5158 111.521 28.5158 111.374C28.5158 111.25 28.4679 111.148 28.3721 111.067C28.2781 110.986 28.1316 110.924 27.9325 110.881L27.1943 110.726C26.7792 110.64 26.472 110.494 26.2729 110.289C26.0738 110.083 25.9752 109.821 25.9771 109.506C25.9752 109.239 26.0475 109.008 26.194 108.813C26.3424 108.615 26.5481 108.463 26.8111 108.356C27.0759 108.247 27.3812 108.193 27.7268 108.193C28.234 108.193 28.6332 108.301 28.9243 108.517C29.2173 108.733 29.3986 109.025 29.4681 109.393Z" fill="white"/>
<path d="M37.5716 109.692C37.5716 110.314 37.4551 110.846 37.2222 111.29C36.9912 111.731 36.6756 112.069 36.2755 112.304C35.8773 112.539 35.4255 112.656 34.9202 112.656C34.4149 112.656 33.9622 112.539 33.5621 112.304C33.1639 112.067 32.8483 111.728 32.6154 111.287C32.3844 110.843 32.2688 110.312 32.2688 109.692C32.2688 109.07 32.3844 108.538 32.6154 108.097C32.8483 107.654 33.1639 107.315 33.5621 107.08C33.9622 106.845 34.4149 106.727 34.9202 106.727C35.4255 106.727 35.8773 106.845 36.2755 107.08C36.6756 107.315 36.9912 107.654 37.2222 108.097C37.4551 108.538 37.5716 109.07 37.5716 109.692ZM36.5206 109.692C36.5206 109.254 36.4521 108.885 36.3149 108.584C36.1797 108.282 35.9918 108.054 35.7514 107.9C35.511 107.744 35.2339 107.666 34.9202 107.666C34.6065 107.666 34.3294 107.744 34.089 107.9C33.8486 108.054 33.6598 108.282 33.5227 108.584C33.3874 108.885 33.3198 109.254 33.3198 109.692C33.3198 110.13 33.3874 110.5 33.5227 110.802C33.6598 111.103 33.8486 111.331 34.089 111.487C34.3294 111.641 34.6065 111.718 34.9202 111.718C35.2339 111.718 35.511 111.641 35.7514 111.487C35.9918 111.331 36.1797 111.103 36.3149 110.802C36.4521 110.5 36.5206 110.13 36.5206 109.692Z" fill="white"/>
<path d="M39.408 112.577L38.1851 108.249H39.2248L39.9856 111.292H40.025L40.8027 108.249H41.8311L42.6088 111.275H42.6511L43.4006 108.249H44.4431L43.2174 112.577H42.1552L41.3437 109.652H41.2845L40.473 112.577H39.408Z" fill="white"/>
<path d="M46.1752 110.041V112.577H45.1552V108.249H46.1301V108.985H46.1808C46.2804 108.742 46.4391 108.55 46.657 108.407C46.8768 108.264 47.1482 108.193 47.4713 108.193C47.77 108.193 48.0301 108.257 48.2518 108.384C48.4753 108.512 48.6481 108.697 48.7702 108.939C48.8942 109.182 48.9553 109.476 48.9534 109.821V112.577H47.9334V109.979C47.9334 109.69 47.8583 109.464 47.708 109.3C47.5596 109.137 47.3539 109.055 47.0909 109.055C46.9125 109.055 46.7538 109.094 46.6148 109.173C46.4776 109.25 46.3696 109.362 46.2907 109.509C46.2137 109.655 46.1752 109.833 46.1752 110.041Z" fill="white"/>
<path d="M51.9063 112.662C51.4723 112.662 51.0976 112.572 50.782 112.391C50.4683 112.209 50.2269 111.952 50.0579 111.619C49.8888 111.285 49.8043 110.891 49.8043 110.439C49.8043 109.993 49.8888 109.603 50.0579 109.266C50.2288 108.928 50.4674 108.665 50.7736 108.477C51.0797 108.288 51.4395 108.193 51.8527 108.193C52.1195 108.193 52.3712 108.236 52.6078 108.322C52.8464 108.407 53.0568 108.538 53.239 108.717C53.4231 108.895 53.5677 109.123 53.6729 109.399C53.7781 109.673 53.8307 110 53.8307 110.379V110.692H50.2833V110.005H52.853C52.8511 109.809 52.8088 109.635 52.7262 109.483C52.6435 109.329 52.528 109.208 52.3796 109.12C52.2331 109.031 52.0622 108.987 51.8668 108.987C51.6583 108.987 51.4752 109.038 51.3174 109.14C51.1596 109.239 51.0365 109.371 50.9483 109.534C50.8619 109.696 50.8177 109.873 50.8158 110.067V110.667C50.8158 110.918 50.8619 111.135 50.9539 111.315C51.0459 111.493 51.1746 111.63 51.3399 111.726C51.5052 111.82 51.6987 111.867 51.9203 111.867C52.0687 111.867 52.203 111.846 52.3233 111.805C52.4435 111.762 52.5477 111.699 52.636 111.616C52.7243 111.534 52.791 111.431 52.8361 111.309L53.7884 111.416C53.7283 111.668 53.6137 111.888 53.4447 112.076C53.2775 112.262 53.0634 112.406 52.8023 112.51C52.5412 112.611 52.2425 112.662 51.9063 112.662Z" fill="white"/>
<path d="M56.2996 112.653C55.9596 112.653 55.6553 112.566 55.3867 112.391C55.1181 112.217 54.9058 111.963 54.7499 111.63C54.594 111.298 54.5161 110.894 54.5161 110.419C54.5161 109.938 54.595 109.532 54.7528 109.201C54.9124 108.869 55.1275 108.618 55.398 108.449C55.6685 108.278 55.97 108.193 56.3025 108.193C56.556 108.193 56.7645 108.236 56.928 108.322C57.0914 108.407 57.221 108.509 57.3168 108.629C57.4126 108.748 57.4868 108.86 57.5394 108.965H57.5817V106.806H58.6044V112.577H57.6014V111.895H57.5394C57.4868 112.001 57.4107 112.112 57.3112 112.231C57.2116 112.347 57.0801 112.447 56.9167 112.529C56.7533 112.612 56.5476 112.653 56.2996 112.653ZM56.5842 111.816C56.8002 111.816 56.9843 111.758 57.1365 111.642C57.2886 111.523 57.4041 111.359 57.483 111.149C57.5619 110.938 57.6014 110.693 57.6014 110.413C57.6014 110.133 57.5619 109.89 57.483 109.683C57.406 109.477 57.2914 109.316 57.1393 109.201C56.989 109.087 56.804 109.03 56.5842 109.03C56.3569 109.03 56.1672 109.089 56.0151 109.207C55.8629 109.325 55.7483 109.489 55.6713 109.697C55.5943 109.906 55.5558 110.145 55.5558 110.413C55.5558 110.684 55.5943 110.925 55.6713 111.137C55.7502 111.348 55.8657 111.514 56.0179 111.636C56.1719 111.756 56.3607 111.816 56.5842 111.816Z" fill="white"/>
<path d="M129.43 8.92683C129.43 4.81837 132.761 1.4878 136.869 1.4878H234.561C238.67 1.4878 242 4.81837 242 8.92683V49.0976C242 53.206 238.67 56.5366 234.561 56.5366H136.869C132.761 56.5366 129.43 53.206 129.43 49.0976V8.92683Z" fill="#24262B"/>
<path d="M140.385 49.0976H138.43V43.3267H140.425C140.998 43.3267 141.49 43.4422 141.901 43.6733C142.314 43.9025 142.632 44.2321 142.853 44.6623C143.075 45.0925 143.186 45.6072 143.186 46.2065C143.186 46.8076 143.074 47.3242 142.851 47.7563C142.629 48.1883 142.309 48.5199 141.89 48.751C141.473 48.982 140.971 49.0976 140.385 49.0976ZM139.475 48.193H140.335C140.737 48.193 141.072 48.1198 141.34 47.9733C141.609 47.8249 141.811 47.6041 141.946 47.3111C142.081 47.0161 142.149 46.6479 142.149 46.2065C142.149 45.765 142.081 45.3987 141.946 45.1075C141.811 44.8145 141.611 44.5956 141.346 44.451C141.083 44.3045 140.756 44.2312 140.366 44.2312H139.475V48.193Z" fill="white"/>
<path d="M144.134 49.0976V44.7694H145.154V49.0976H144.134ZM144.647 44.1551C144.485 44.1551 144.346 44.1016 144.23 43.9945C144.113 43.8856 144.055 43.755 144.055 43.6028C144.055 43.4488 144.113 43.3182 144.23 43.2112C144.346 43.1022 144.485 43.0477 144.647 43.0477C144.81 43.0477 144.949 43.1022 145.064 43.2112C145.18 43.3182 145.239 43.4488 145.239 43.6028C145.239 43.755 145.18 43.8856 145.064 43.9945C144.949 44.1016 144.81 44.1551 144.647 44.1551Z" fill="white"/>
<path d="M148.395 44.7694V45.5584H145.837V44.7694H148.395ZM146.476 49.0976V44.3608C146.476 44.0696 146.536 43.8273 146.657 43.6338C146.779 43.4403 146.942 43.2957 147.147 43.1999C147.352 43.1041 147.579 43.0562 147.829 43.0562C148.005 43.0562 148.162 43.0703 148.299 43.0984C148.436 43.1266 148.538 43.152 148.604 43.1745L148.401 43.9635C148.357 43.9504 148.303 43.9372 148.237 43.9241C148.172 43.909 148.098 43.9015 148.017 43.9015C147.828 43.9015 147.693 43.9475 147.615 44.0396C147.538 44.1298 147.499 44.2594 147.499 44.4284V49.0976H146.476Z" fill="white"/>
<path d="M151.386 44.7694V45.5584H148.828V44.7694H151.386ZM149.467 49.0976V44.3608C149.467 44.0696 149.527 43.8273 149.647 43.6338C149.77 43.4403 149.933 43.2957 150.138 43.1999C150.342 43.1041 150.57 43.0562 150.82 43.0562C150.996 43.0562 151.153 43.0703 151.29 43.0984C151.427 43.1266 151.529 43.152 151.594 43.1745L151.392 43.9635C151.348 43.9504 151.294 43.9372 151.228 43.9241C151.162 43.909 151.089 43.9015 151.008 43.9015C150.819 43.9015 150.684 43.9475 150.605 44.0396C150.528 44.1298 150.49 44.2594 150.49 44.4284V49.0976H149.467Z" fill="white"/>
<path d="M153.938 49.1821C153.504 49.1821 153.129 49.0919 152.814 48.9116C152.5 48.7294 152.259 48.472 152.09 48.1395C151.921 47.8051 151.836 47.4116 151.836 46.9588C151.836 46.5136 151.921 46.1229 152.09 45.7866C152.261 45.4485 152.499 45.1855 152.805 44.9976C153.112 44.8079 153.471 44.713 153.884 44.713C154.151 44.713 154.403 44.7563 154.64 44.8427C154.878 44.9272 155.089 45.0587 155.271 45.2372C155.455 45.4156 155.599 45.6429 155.705 45.9191C155.81 46.1933 155.862 46.5202 155.862 46.8997V47.2124H152.315V46.5249H154.885C154.883 46.3295 154.841 46.1558 154.758 46.0036C154.675 45.8496 154.56 45.7284 154.411 45.6401C154.265 45.5518 154.094 45.5077 153.899 45.5077C153.69 45.5077 153.507 45.5584 153.349 45.6598C153.191 45.7594 153.068 45.8909 152.98 46.0543C152.894 46.2159 152.849 46.3934 152.848 46.5869V47.1871C152.848 47.4388 152.894 47.6548 152.986 47.8352C153.078 48.0136 153.206 48.1508 153.372 48.2466C153.537 48.3405 153.73 48.3875 153.952 48.3875C154.1 48.3875 154.235 48.3668 154.355 48.3255C154.475 48.2823 154.58 48.2193 154.668 48.1367C154.756 48.054 154.823 47.9517 154.868 47.8296L155.82 47.9366C155.76 48.1883 155.646 48.4081 155.476 48.596C155.309 48.782 155.095 48.9266 154.834 49.0299C154.573 49.1314 154.274 49.1821 153.938 49.1821Z" fill="white"/>
<path d="M156.725 49.0976V44.7694H157.714V45.4908H157.759C157.838 45.2409 157.974 45.0484 158.165 44.9131C158.359 44.776 158.579 44.7074 158.827 44.7074C158.884 44.7074 158.947 44.7102 159.016 44.7159C159.087 44.7196 159.147 44.7262 159.194 44.7356V45.6739C159.15 45.6589 159.082 45.6457 158.988 45.6345C158.896 45.6213 158.807 45.6147 158.72 45.6147C158.534 45.6147 158.367 45.6551 158.219 45.7359C158.072 45.8148 157.957 45.9247 157.872 46.0656C157.788 46.2065 157.745 46.369 157.745 46.5531V49.0976H156.725Z" fill="white"/>
<path d="M161.609 49.1821C161.175 49.1821 160.8 49.0919 160.485 48.9116C160.171 48.7294 159.93 48.472 159.761 48.1395C159.592 47.8051 159.507 47.4116 159.507 46.9588C159.507 46.5136 159.592 46.1229 159.761 45.7866C159.932 45.4485 160.17 45.1855 160.476 44.9976C160.782 44.8079 161.142 44.713 161.555 44.713C161.822 44.713 162.074 44.7563 162.311 44.8427C162.549 44.9272 162.76 45.0587 162.942 45.2372C163.126 45.4156 163.27 45.6429 163.376 45.9191C163.481 46.1933 163.533 46.5202 163.533 46.8997V47.2124H159.986V46.5249H162.556C162.554 46.3295 162.512 46.1558 162.429 46.0036C162.346 45.8496 162.231 45.7284 162.082 45.6401C161.936 45.5518 161.765 45.5077 161.57 45.5077C161.361 45.5077 161.178 45.5584 161.02 45.6598C160.862 45.7594 160.739 45.8909 160.651 46.0543C160.565 46.2159 160.52 46.3934 160.519 46.5869V47.1871C160.519 47.4388 160.565 47.6548 160.657 47.8352C160.749 48.0136 160.877 48.1508 161.043 48.2466C161.208 48.3405 161.401 48.3875 161.623 48.3875C161.771 48.3875 161.906 48.3668 162.026 48.3255C162.146 48.2823 162.25 48.2193 162.339 48.1367C162.427 48.054 162.494 47.9517 162.539 47.8296L163.491 47.9366C163.431 48.1883 163.316 48.4081 163.147 48.596C162.98 48.782 162.766 48.9266 162.505 49.0299C162.244 49.1314 161.945 49.1821 161.609 49.1821Z" fill="white"/>
<path d="M165.416 46.5615V49.0976H164.396V44.7694H165.371V45.5049H165.422C165.522 45.2625 165.68 45.07 165.898 44.9272C166.118 44.7844 166.389 44.713 166.712 44.713C167.011 44.713 167.271 44.7769 167.493 44.9047C167.716 45.0324 167.889 45.2174 168.011 45.4598C168.135 45.7021 168.196 45.9961 168.194 46.3417V49.0976H167.175V46.4995C167.175 46.2102 167.099 45.9839 166.949 45.8204C166.801 45.657 166.595 45.5753 166.332 45.5753C166.154 45.5753 165.995 45.6147 165.856 45.6936C165.719 45.7707 165.611 45.8824 165.532 46.029C165.455 46.1755 165.416 46.353 165.416 46.5615Z" fill="white"/>
<path d="M171.392 44.7694V45.5584H168.905V44.7694H171.392ZM169.519 43.7324H170.539V47.7957C170.539 47.9329 170.559 48.0381 170.601 48.1113C170.644 48.1827 170.7 48.2316 170.77 48.2579C170.839 48.2842 170.916 48.2973 171.001 48.2973C171.065 48.2973 171.123 48.2926 171.176 48.2832C171.23 48.2738 171.271 48.2654 171.3 48.2579L171.471 49.0553C171.417 49.0741 171.339 49.0947 171.238 49.1173C171.138 49.1398 171.016 49.153 170.871 49.1567C170.616 49.1643 170.386 49.1257 170.181 49.0412C169.976 48.9548 169.814 48.8214 169.693 48.6411C169.575 48.4607 169.517 48.2353 169.519 47.9648V43.7324Z" fill="white"/>
<path d="M181.166 45.2738H180.112C180.082 45.101 180.027 44.9479 179.946 44.8145C179.865 44.6792 179.765 44.5646 179.645 44.4707C179.524 44.3768 179.387 44.3063 179.233 44.2594C179.081 44.2105 178.917 44.1861 178.74 44.1861C178.426 44.1861 178.148 44.265 177.906 44.4228C177.664 44.5787 177.474 44.8079 177.337 45.1104C177.2 45.4109 177.131 45.7782 177.131 46.2121C177.131 46.6536 177.2 47.0255 177.337 47.328C177.476 47.6285 177.666 47.8558 177.906 48.0099C178.148 48.162 178.426 48.2381 178.737 48.2381C178.91 48.2381 179.072 48.2156 179.222 48.1705C179.374 48.1235 179.51 48.055 179.631 47.9648C179.753 47.8746 179.855 47.7638 179.938 47.6323C180.022 47.5008 180.08 47.3505 180.112 47.1815L181.166 47.1871C181.127 47.4614 181.041 47.7187 180.91 47.9592C180.78 48.1996 180.61 48.4119 180.4 48.596C180.189 48.7782 179.943 48.921 179.661 49.0243C179.38 49.1257 179.067 49.1765 178.723 49.1765C178.216 49.1765 177.763 49.0591 177.365 48.8242C176.967 48.5894 176.653 48.2503 176.424 47.807C176.195 47.3637 176.08 46.832 176.08 46.2121C176.08 45.5903 176.196 45.0587 176.427 44.6172C176.658 44.1739 176.973 43.8348 177.371 43.6C177.769 43.3652 178.22 43.2478 178.723 43.2478C179.044 43.2478 179.343 43.2929 179.619 43.383C179.895 43.4732 180.141 43.6057 180.357 43.7804C180.573 43.9532 180.751 44.1655 180.89 44.4172C181.031 44.667 181.123 44.9526 181.166 45.2738Z" fill="white"/>
<path d="M183.966 49.1821C183.543 49.1821 183.177 49.0891 182.867 48.9031C182.557 48.7172 182.317 48.457 182.146 48.1226C181.977 47.7882 181.892 47.3975 181.892 46.9504C181.892 46.5033 181.977 46.1116 182.146 45.7754C182.317 45.4391 182.557 45.178 182.867 44.992C183.177 44.806 183.543 44.713 183.966 44.713C184.389 44.713 184.755 44.806 185.065 44.992C185.375 45.178 185.614 45.4391 185.783 45.7754C185.954 46.1116 186.04 46.5033 186.04 46.9504C186.04 47.3975 185.954 47.7882 185.783 48.1226C185.614 48.457 185.375 48.7172 185.065 48.9031C184.755 49.0891 184.389 49.1821 183.966 49.1821ZM183.972 48.3649C184.201 48.3649 184.393 48.302 184.547 48.1761C184.701 48.0484 184.815 47.8775 184.89 47.6633C184.967 47.4491 185.006 47.2106 185.006 46.9476C185.006 46.6827 184.967 46.4432 184.89 46.229C184.815 46.013 184.701 45.8411 184.547 45.7134C184.393 45.5856 184.201 45.5218 183.972 45.5218C183.737 45.5218 183.542 45.5856 183.386 45.7134C183.232 45.8411 183.116 46.013 183.039 46.229C182.964 46.4432 182.926 46.6827 182.926 46.9476C182.926 47.2106 182.964 47.4491 183.039 47.6633C183.116 47.8775 183.232 48.0484 183.386 48.1761C183.542 48.302 183.737 48.3649 183.972 48.3649Z" fill="white"/>
<path d="M186.906 49.0976V44.7694H187.881V45.5049H187.931C188.021 45.2569 188.171 45.0634 188.379 44.9244C188.588 44.7835 188.837 44.713 189.126 44.713C189.419 44.713 189.666 44.7844 189.867 44.9272C190.07 45.0681 190.213 45.2606 190.295 45.5049H190.34C190.436 45.2644 190.598 45.0728 190.825 44.93C191.054 44.7854 191.326 44.713 191.639 44.713C192.037 44.713 192.362 44.8389 192.614 45.0906C192.866 45.3424 192.992 45.7096 192.992 46.1924V49.0976H191.969V46.3502C191.969 46.0816 191.898 45.8853 191.755 45.7613C191.612 45.6354 191.437 45.5725 191.231 45.5725C190.985 45.5725 190.792 45.6495 190.653 45.8035C190.516 45.9557 190.447 46.1539 190.447 46.3981V49.0976H189.447V46.3079C189.447 46.0844 189.379 45.9059 189.244 45.7725C189.111 45.6392 188.936 45.5725 188.72 45.5725C188.574 45.5725 188.44 45.6101 188.32 45.6852C188.2 45.7585 188.104 45.8627 188.033 45.998C187.961 46.1313 187.926 46.2873 187.926 46.4657V49.0976H186.906Z" fill="white"/>
<path d="M194.026 50.7206V44.7694H195.03V45.4851H195.089C195.141 45.3799 195.216 45.2682 195.311 45.1498C195.407 45.0296 195.537 44.9272 195.7 44.8427C195.864 44.7563 196.072 44.713 196.326 44.713C196.66 44.713 196.961 44.7985 197.23 44.9695C197.501 45.1385 197.715 45.3893 197.873 45.7218C198.032 46.0524 198.112 46.4582 198.112 46.9391C198.112 47.4144 198.034 47.8183 197.878 48.1508C197.722 48.4833 197.51 48.7369 197.241 48.9116C196.973 49.0863 196.668 49.1736 196.328 49.1736C196.08 49.1736 195.875 49.1323 195.711 49.0497C195.548 48.967 195.416 48.8674 195.317 48.751C195.219 48.6326 195.143 48.5209 195.089 48.4157H195.046V50.7206H194.026ZM195.027 46.9335C195.027 47.2134 195.066 47.4585 195.145 47.6689C195.226 47.8793 195.341 48.0437 195.492 48.1621C195.644 48.2785 195.828 48.3368 196.044 48.3368C196.269 48.3368 196.458 48.2766 196.61 48.1564C196.762 48.0343 196.877 47.8681 196.954 47.6577C197.033 47.4454 197.072 47.204 197.072 46.9335C197.072 46.6649 197.034 46.4263 196.957 46.2178C196.88 46.0092 196.765 45.8458 196.613 45.7275C196.461 45.6091 196.271 45.5499 196.044 45.5499C195.826 45.5499 195.641 45.6072 195.489 45.7218C195.337 45.8364 195.221 45.997 195.142 46.2037C195.065 46.4103 195.027 46.6536 195.027 46.9335Z" fill="white"/>
<path d="M200.231 49.1849C199.957 49.1849 199.71 49.1361 199.49 49.0384C199.272 48.9388 199.099 48.7923 198.971 48.5988C198.846 48.4053 198.783 48.1668 198.783 47.8831C198.783 47.6389 198.828 47.4369 198.918 47.2773C199.008 47.1176 199.131 46.9898 199.287 46.894C199.443 46.7982 199.618 46.7259 199.814 46.6771C200.011 46.6263 200.215 46.5897 200.425 46.5672C200.679 46.5409 200.885 46.5174 201.042 46.4967C201.2 46.4742 201.315 46.4404 201.386 46.3953C201.459 46.3483 201.496 46.276 201.496 46.1783V46.1614C201.496 45.9491 201.433 45.7848 201.307 45.6683C201.181 45.5518 201 45.4936 200.763 45.4936C200.514 45.4936 200.315 45.5481 200.169 45.657C200.024 45.766 199.927 45.8947 199.876 46.0431L198.923 45.9078C198.999 45.6448 199.123 45.425 199.295 45.2484C199.468 45.07 199.68 44.9366 199.929 44.8483C200.179 44.7581 200.455 44.713 200.758 44.713C200.966 44.713 201.174 44.7375 201.38 44.7863C201.587 44.8352 201.776 44.9159 201.947 45.0286C202.118 45.1395 202.255 45.2907 202.358 45.4823C202.463 45.6739 202.516 45.9134 202.516 46.2009V49.0976H201.535V48.503H201.502C201.44 48.6232 201.352 48.7359 201.24 48.8411C201.129 48.9445 200.989 49.0281 200.82 49.0919C200.653 49.1539 200.456 49.1849 200.231 49.1849ZM200.496 48.4354C200.7 48.4354 200.878 48.395 201.028 48.3142C201.179 48.2316 201.294 48.1226 201.375 47.9873C201.457 47.8521 201.499 47.7046 201.499 47.5449V47.0349C201.467 47.0612 201.412 47.0856 201.335 47.1082C201.26 47.1307 201.176 47.1505 201.082 47.1674C200.988 47.1843 200.895 47.1993 200.803 47.2124C200.711 47.2256 200.631 47.2369 200.563 47.2463C200.411 47.2669 200.275 47.3007 200.155 47.3477C200.035 47.3947 199.94 47.4604 199.87 47.5449C199.801 47.6276 199.766 47.7347 199.766 47.8662C199.766 48.054 199.835 48.1959 199.972 48.2917C200.109 48.3875 200.283 48.4354 200.496 48.4354Z" fill="white"/>
<path d="M204.562 46.5615V49.0976H203.542V44.7694H204.516V45.5049H204.567C204.667 45.2625 204.825 45.07 205.043 44.9272C205.263 44.7844 205.535 44.713 205.858 44.713C206.156 44.713 206.416 44.7769 206.638 44.9047C206.862 45.0324 207.034 45.2174 207.157 45.4598C207.281 45.7021 207.342 45.9961 207.34 46.3417V49.0976H206.32V46.4995C206.32 46.2102 206.245 45.9839 206.094 45.8204C205.946 45.657 205.74 45.5753 205.477 45.5753C205.299 45.5753 205.14 45.6147 205.001 45.6936C204.864 45.7707 204.756 45.8824 204.677 46.029C204.6 46.1755 204.562 46.353 204.562 46.5615Z" fill="white"/>
<path d="M208.377 49.0976V44.7694H209.397V49.0976H208.377ZM208.889 44.1551C208.728 44.1551 208.589 44.1016 208.472 43.9945C208.356 43.8856 208.298 43.755 208.298 43.6028C208.298 43.4488 208.356 43.3182 208.472 43.2112C208.589 43.1022 208.728 43.0477 208.889 43.0477C209.053 43.0477 209.192 43.1022 209.306 43.2112C209.423 43.3182 209.481 43.4488 209.481 43.6028C209.481 43.755 209.423 43.8856 209.306 43.9945C209.192 44.1016 209.053 44.1551 208.889 44.1551Z" fill="white"/>
<path d="M212.361 49.1821C211.928 49.1821 211.553 49.0919 211.237 48.9116C210.924 48.7294 210.682 48.472 210.513 48.1395C210.344 47.8051 210.259 47.4116 210.259 46.9588C210.259 46.5136 210.344 46.1229 210.513 45.7866C210.684 45.4485 210.923 45.1855 211.229 44.9976C211.535 44.8079 211.895 44.713 212.308 44.713C212.575 44.713 212.826 44.7563 213.063 44.8427C213.302 44.9272 213.512 45.0587 213.694 45.2372C213.878 45.4156 214.023 45.6429 214.128 45.9191C214.233 46.1933 214.286 46.5202 214.286 46.8997V47.2124H210.738V46.5249H213.308C213.306 46.3295 213.264 46.1558 213.181 46.0036C213.099 45.8496 212.983 45.7284 212.835 45.6401C212.688 45.5518 212.517 45.5077 212.322 45.5077C212.113 45.5077 211.93 45.5584 211.773 45.6598C211.615 45.7594 211.492 45.8909 211.403 46.0543C211.317 46.2159 211.273 46.3934 211.271 46.5869V47.1871C211.271 47.4388 211.317 47.6548 211.409 47.8352C211.501 48.0136 211.63 48.1508 211.795 48.2466C211.96 48.3405 212.154 48.3875 212.376 48.3875C212.524 48.3875 212.658 48.3668 212.778 48.3255C212.899 48.2823 213.003 48.2193 213.091 48.1367C213.179 48.054 213.246 47.9517 213.291 47.8296L214.244 47.9366C214.183 48.1883 214.069 48.4081 213.9 48.596C213.733 48.782 213.519 48.9266 213.257 49.0299C212.996 49.1314 212.698 49.1821 212.361 49.1821Z" fill="white"/>
<path d="M218.569 45.9134L217.64 46.0149C217.613 45.9209 217.567 45.8327 217.501 45.75C217.438 45.6673 217.351 45.6007 217.242 45.5499C217.133 45.4992 217 45.4739 216.842 45.4739C216.63 45.4739 216.451 45.5199 216.307 45.6119C216.164 45.704 216.094 45.8233 216.095 45.9698C216.094 46.0957 216.14 46.198 216.234 46.2769C216.329 46.3558 216.487 46.4206 216.707 46.4714L217.445 46.6292C217.855 46.7175 218.159 46.8574 218.358 47.049C218.559 47.2406 218.66 47.4914 218.662 47.8014C218.66 48.0738 218.581 48.3142 218.423 48.5227C218.267 48.7294 218.05 48.8909 217.772 49.0074C217.494 49.1239 217.175 49.1821 216.814 49.1821C216.284 49.1821 215.858 49.0713 215.535 48.8496C215.212 48.6261 215.019 48.3152 214.957 47.9169L215.952 47.8211C215.997 48.0165 216.093 48.1639 216.239 48.2635C216.386 48.3631 216.576 48.4128 216.811 48.4128C217.053 48.4128 217.248 48.3631 217.394 48.2635C217.543 48.1639 217.617 48.0409 217.617 47.8944C217.617 47.7704 217.569 47.668 217.473 47.5872C217.379 47.5064 217.233 47.4444 217.034 47.4012L216.296 47.2463C215.88 47.1598 215.573 47.0143 215.374 46.8095C215.175 46.6029 215.076 46.3417 215.078 46.0261C215.076 45.7594 215.149 45.5283 215.295 45.333C215.444 45.1357 215.649 44.9836 215.912 44.8765C216.177 44.7675 216.482 44.713 216.828 44.713C217.335 44.713 217.734 44.8211 218.026 45.0371C218.319 45.2531 218.5 45.5452 218.569 45.9134Z" fill="white"/>
<path d="M143.369 9.07054H142.315C142.285 8.89771 142.23 8.74461 142.149 8.61124C142.068 8.47598 141.968 8.36139 141.848 8.26746C141.727 8.17353 141.59 8.10309 141.436 8.05613C141.284 8.00728 141.12 7.98286 140.943 7.98286C140.629 7.98286 140.351 8.06176 140.109 8.21956C139.867 8.37548 139.677 8.60466 139.54 8.90711C139.403 9.20767 139.334 9.57493 139.334 10.0089C139.334 10.4503 139.403 10.8223 139.54 11.1247C139.679 11.4253 139.869 11.6526 140.109 11.8066C140.351 11.9588 140.629 12.0349 140.94 12.0349C141.113 12.0349 141.275 12.0123 141.425 11.9672C141.577 11.9203 141.713 11.8517 141.834 11.7615C141.956 11.6714 142.058 11.5605 142.141 11.429C142.225 11.2975 142.283 11.1473 142.315 10.9782L143.369 10.9838C143.33 11.2581 143.244 11.5155 143.113 11.7559C142.983 11.9964 142.813 12.2086 142.603 12.3927C142.392 12.575 142.146 12.7177 141.864 12.821C141.583 12.9225 141.27 12.9732 140.926 12.9732C140.419 12.9732 139.966 12.8558 139.568 12.621C139.17 12.3862 138.856 12.0471 138.627 11.6038C138.398 11.1604 138.283 10.6288 138.283 10.0089C138.283 9.38707 138.399 8.85544 138.63 8.41399C138.861 7.97065 139.176 7.63158 139.574 7.39676C139.972 7.16194 140.423 7.04453 140.926 7.04453C141.247 7.04453 141.546 7.08962 141.822 7.17979C142.098 7.26996 142.344 7.40239 142.56 7.5771C142.776 7.74992 142.954 7.9622 143.093 8.21392C143.234 8.46377 143.326 8.74931 143.369 9.07054Z" fill="white"/>
<path d="M145.301 10.3583V12.8943H144.281V7.12343H145.279V9.3016H145.329C145.431 9.05739 145.588 8.86484 145.8 8.72395C146.014 8.58118 146.287 8.50979 146.617 8.50979C146.918 8.50979 147.18 8.57272 147.403 8.69859C147.627 8.82445 147.8 9.00855 147.922 9.25088C148.046 9.49321 148.108 9.78908 148.108 10.1385V12.8943H147.088V10.2963C147.088 10.0051 147.013 9.77875 146.862 9.61719C146.714 9.45376 146.505 9.37204 146.237 9.37204C146.056 9.37204 145.895 9.41149 145.752 9.49039C145.611 9.56741 145.5 9.67919 145.42 9.82571C145.341 9.97224 145.301 10.1498 145.301 10.3583Z" fill="white"/>
<path d="M150.393 12.9817C150.118 12.9817 149.871 12.9328 149.652 12.8351C149.434 12.7356 149.261 12.589 149.133 12.3956C149.007 12.2021 148.944 11.9635 148.944 11.6798C148.944 11.4356 148.99 11.2337 149.08 11.074C149.17 10.9143 149.293 10.7866 149.449 10.6908C149.605 10.595 149.78 10.5227 149.976 10.4738C150.173 10.4231 150.377 10.3865 150.587 10.3639C150.841 10.3376 151.046 10.3141 151.204 10.2935C151.362 10.2709 151.477 10.2371 151.548 10.192C151.621 10.1451 151.658 10.0727 151.658 9.97506V9.95815C151.658 9.74587 151.595 9.5815 151.469 9.46503C151.343 9.34856 151.162 9.29033 150.925 9.29033C150.675 9.29033 150.477 9.34481 150.331 9.45376C150.186 9.56272 150.088 9.6914 150.038 9.8398L149.085 9.70455C149.161 9.44155 149.284 9.22176 149.457 9.04518C149.63 8.86672 149.841 8.73334 150.091 8.64505C150.341 8.55488 150.617 8.50979 150.92 8.50979C151.128 8.50979 151.336 8.53421 151.542 8.58306C151.749 8.6319 151.938 8.71268 152.109 8.82539C152.28 8.93622 152.417 9.08745 152.52 9.27906C152.625 9.47067 152.678 9.71018 152.678 9.9976V12.8943H151.697V12.2998H151.663C151.602 12.42 151.514 12.5327 151.401 12.6379C151.291 12.7412 151.151 12.8248 150.982 12.8887C150.814 12.9507 150.618 12.9817 150.393 12.9817ZM150.658 12.2321C150.862 12.2321 151.04 12.1917 151.19 12.111C151.34 12.0283 151.456 11.9193 151.537 11.7841C151.619 11.6488 151.661 11.5014 151.661 11.3417V10.8317C151.629 10.858 151.574 10.8824 151.497 10.9049C151.422 10.9275 151.338 10.9472 151.244 10.9641C151.15 10.981 151.057 10.996 150.965 11.0092C150.873 11.0223 150.793 11.0336 150.725 11.043C150.573 11.0637 150.437 11.0975 150.317 11.1444C150.196 11.1914 150.102 11.2572 150.032 11.3417C149.963 11.4244 149.928 11.5314 149.928 11.6629C149.928 11.8508 149.996 11.9926 150.134 12.0884C150.271 12.1842 150.445 12.2321 150.658 12.2321Z" fill="white"/>
<path d="M153.703 12.8943V8.56615H154.692V9.28751H154.738C154.816 9.03766 154.952 8.84511 155.143 8.70986C155.337 8.57272 155.557 8.50416 155.805 8.50416C155.862 8.50416 155.925 8.50698 155.994 8.51261C156.066 8.51637 156.125 8.52294 156.172 8.53234V9.47067C156.128 9.45564 156.06 9.44249 155.966 9.43122C155.874 9.41807 155.785 9.41149 155.698 9.41149C155.512 9.41149 155.345 9.45188 155.197 9.53266C155.05 9.61156 154.935 9.72145 154.85 9.86234C154.766 10.0032 154.723 10.1657 154.723 10.3498V12.8943H153.703Z" fill="white"/>
<path d="M159.243 8.56615V9.35514H156.755V8.56615H159.243ZM157.369 7.52919H158.389V11.5925C158.389 11.7296 158.41 11.8348 158.451 11.9081C158.494 11.9795 158.551 12.0283 158.62 12.0546C158.69 12.0809 158.767 12.0941 158.851 12.0941C158.915 12.0941 158.973 12.0894 159.026 12.08C159.08 12.0706 159.122 12.0621 159.15 12.0546L159.322 12.852C159.267 12.8708 159.189 12.8915 159.088 12.914C158.988 12.9366 158.866 12.9497 158.722 12.9535C158.466 12.961 158.236 12.9225 158.031 12.838C157.827 12.7515 157.664 12.6182 157.544 12.4378C157.426 12.2575 157.367 12.0321 157.369 11.7615V7.52919Z" fill="white"/>
<path d="M161.965 12.9788C161.532 12.9788 161.157 12.8887 160.841 12.7083C160.527 12.5261 160.286 12.2688 160.117 11.9363C159.948 11.6019 159.863 11.2083 159.863 10.7556C159.863 10.3104 159.948 9.91964 160.117 9.58338C160.288 9.24524 160.527 8.98225 160.833 8.79439C161.139 8.60466 161.499 8.50979 161.912 8.50979C162.179 8.50979 162.43 8.553 162.667 8.63941C162.906 8.72395 163.116 8.85544 163.298 9.03391C163.482 9.21237 163.627 9.43967 163.732 9.71582C163.837 9.99008 163.89 10.317 163.89 10.6964V11.0092H160.342V10.3216H162.912C162.91 10.1263 162.868 9.95251 162.785 9.80035C162.703 9.64631 162.587 9.52515 162.439 9.43685C162.292 9.34856 162.121 9.30442 161.926 9.30442C161.717 9.30442 161.534 9.35514 161.377 9.45658C161.219 9.55614 161.096 9.68764 161.007 9.85107C160.921 10.0126 160.877 10.1901 160.875 10.3836V10.9838C160.875 11.2356 160.921 11.4516 161.013 11.6319C161.105 11.8104 161.234 11.9475 161.399 12.0433C161.564 12.1373 161.758 12.1842 161.98 12.1842C162.128 12.1842 162.262 12.1636 162.382 12.1222C162.503 12.079 162.607 12.0161 162.695 11.9334C162.783 11.8508 162.85 11.7484 162.895 11.6263L163.848 11.7334C163.787 11.9851 163.673 12.2049 163.504 12.3927C163.337 12.5787 163.123 12.7234 162.861 12.8267C162.6 12.9281 162.302 12.9788 161.965 12.9788Z" fill="white"/>
<path d="M164.753 12.8943V8.56615H165.742V9.28751H165.787C165.866 9.03766 166.001 8.84511 166.193 8.70986C166.386 8.57272 166.607 8.50416 166.855 8.50416C166.911 8.50416 166.974 8.50698 167.043 8.51261C167.115 8.51637 167.174 8.52294 167.221 8.53234V9.47067C167.178 9.45564 167.109 9.44249 167.015 9.43122C166.923 9.41807 166.834 9.41149 166.748 9.41149C166.562 9.41149 166.394 9.45188 166.246 9.53266C166.1 9.61156 165.984 9.72145 165.9 9.86234C165.815 10.0032 165.773 10.1657 165.773 10.3498V12.8943H164.753Z" fill="white"/>
<path d="M169.636 12.9788C169.202 12.9788 168.828 12.8887 168.512 12.7083C168.198 12.5261 167.957 12.2688 167.788 11.9363C167.619 11.6019 167.534 11.2083 167.534 10.7556C167.534 10.3104 167.619 9.91964 167.788 9.58338C167.959 9.24524 168.198 8.98225 168.504 8.79439C168.81 8.60466 169.17 8.50979 169.583 8.50979C169.85 8.50979 170.101 8.553 170.338 8.63941C170.577 8.72395 170.787 8.85544 170.969 9.03391C171.153 9.21237 171.298 9.43967 171.403 9.71582C171.508 9.99008 171.561 10.317 171.561 10.6964V11.0092H168.013V10.3216H170.583C170.581 10.1263 170.539 9.95251 170.456 9.80035C170.374 9.64631 170.258 9.52515 170.11 9.43685C169.963 9.34856 169.792 9.30442 169.597 9.30442C169.388 9.30442 169.205 9.35514 169.048 9.45658C168.89 9.55614 168.767 9.68764 168.678 9.85107C168.592 10.0126 168.548 10.1901 168.546 10.3836V10.9838C168.546 11.2356 168.592 11.4516 168.684 11.6319C168.776 11.8104 168.905 11.9475 169.07 12.0433C169.235 12.1373 169.429 12.1842 169.65 12.1842C169.799 12.1842 169.933 12.1636 170.053 12.1222C170.174 12.079 170.278 12.0161 170.366 11.9334C170.454 11.8508 170.521 11.7484 170.566 11.6263L171.519 11.7334C171.458 11.9851 171.344 12.2049 171.175 12.3927C171.008 12.5787 170.794 12.7234 170.532 12.8267C170.271 12.9281 169.973 12.9788 169.636 12.9788Z" fill="white"/>
<path d="M174.03 12.9704C173.69 12.9704 173.385 12.883 173.117 12.7083C172.848 12.5336 172.636 12.28 172.48 11.9475C172.324 11.615 172.246 11.2111 172.246 10.7359C172.246 10.255 172.325 9.84919 172.483 9.51857C172.643 9.18607 172.858 8.93528 173.128 8.76621C173.399 8.59527 173.7 8.50979 174.033 8.50979C174.286 8.50979 174.495 8.553 174.658 8.63941C174.822 8.72395 174.951 8.82633 175.047 8.94655C175.143 9.0649 175.217 9.17668 175.27 9.28187H175.312V7.12343H176.335V12.8943H175.332V12.2124H175.27C175.217 12.3176 175.141 12.4294 175.041 12.5477C174.942 12.6642 174.81 12.7638 174.647 12.8464C174.483 12.9291 174.278 12.9704 174.03 12.9704ZM174.314 12.1335C174.53 12.1335 174.714 12.0753 174.867 11.9588C175.019 11.8404 175.134 11.6761 175.213 11.4657C175.292 11.2553 175.332 11.0101 175.332 10.7302C175.332 10.4503 175.292 10.2071 175.213 10.0004C175.136 9.79378 175.022 9.63316 174.869 9.51857C174.719 9.40398 174.534 9.34668 174.314 9.34668C174.087 9.34668 173.897 9.40586 173.745 9.52421C173.593 9.64255 173.478 9.80599 173.401 10.0145C173.324 10.223 173.286 10.4616 173.286 10.7302C173.286 11.0007 173.324 11.2421 173.401 11.4544C173.48 11.6648 173.596 11.8311 173.748 11.9532C173.902 12.0734 174.091 12.1335 174.314 12.1335Z" fill="white"/>
<path d="M180.649 12.8943L179.021 7.12343H180.145L181.184 11.3642H181.238L182.348 7.12343H183.371L184.484 11.3671H184.535L185.574 7.12343H186.699L185.07 12.8943H184.039L182.883 8.84511H182.838L181.68 12.8943H180.649Z" fill="white"/>
<path d="M187.378 12.8943V8.56615H188.398V12.8943H187.378ZM187.891 7.95187C187.73 7.95187 187.591 7.89833 187.474 7.79125C187.358 7.6823 187.299 7.55174 187.299 7.39958C187.299 7.24554 187.358 7.11498 187.474 7.0079C187.591 6.89894 187.73 6.84447 187.891 6.84447C188.055 6.84447 188.194 6.89894 188.308 7.0079C188.425 7.11498 188.483 7.24554 188.483 7.39958C188.483 7.55174 188.425 7.6823 188.308 7.79125C188.194 7.89833 188.055 7.95187 187.891 7.95187Z" fill="white"/>
<path d="M191.608 8.56615V9.35514H189.12V8.56615H191.608ZM189.735 7.52919H190.754V11.5925C190.754 11.7296 190.775 11.8348 190.816 11.9081C190.86 11.9795 190.916 12.0283 190.986 12.0546C191.055 12.0809 191.132 12.0941 191.217 12.0941C191.28 12.0941 191.339 12.0894 191.391 12.08C191.446 12.0706 191.487 12.0621 191.515 12.0546L191.687 12.852C191.633 12.8708 191.555 12.8915 191.453 12.914C191.354 12.9366 191.232 12.9497 191.087 12.9535C190.832 12.961 190.601 12.9225 190.397 12.838C190.192 12.7515 190.029 12.6182 189.909 12.4378C189.791 12.2575 189.733 12.0321 189.735 11.7615V7.52919Z" fill="white"/>
<path d="M193.574 10.3583V12.8943H192.554V7.12343H193.552V9.3016H193.602C193.704 9.05739 193.861 8.86484 194.073 8.72395C194.287 8.58118 194.559 8.50979 194.89 8.50979C195.191 8.50979 195.453 8.57272 195.676 8.69859C195.9 8.82445 196.073 9.00855 196.195 9.25088C196.319 9.49321 196.381 9.78908 196.381 10.1385V12.8943H195.361V10.2963C195.361 10.0051 195.285 9.77875 195.135 9.61719C194.987 9.45376 194.778 9.37204 194.51 9.37204C194.329 9.37204 194.168 9.41149 194.025 9.49039C193.884 9.56741 193.773 9.67919 193.693 9.82571C193.614 9.97224 193.574 10.1498 193.574 10.3583Z" fill="white"/>
<path d="M144.62 35.944C143.403 35.944 142.321 35.7355 141.374 35.3185C140.433 34.9014 139.689 34.321 139.143 33.5771C138.596 32.8332 138.306 31.9737 138.272 30.9988H141.45C141.478 31.4665 141.633 31.8751 141.915 32.2245C142.197 32.5683 142.572 32.836 143.039 33.0276C143.507 33.2192 144.031 33.315 144.612 33.315C145.232 33.315 145.781 33.2079 146.26 32.9938C146.739 32.774 147.114 32.4697 147.384 32.0808C147.655 31.6919 147.787 31.2439 147.782 30.7367C147.787 30.2126 147.652 29.7505 147.376 29.3503C147.1 28.9502 146.7 28.6374 146.175 28.412C145.657 28.1866 145.032 28.0739 144.299 28.0739H142.769V25.6562H144.299C144.902 25.6562 145.429 25.5519 145.88 25.3434C146.336 25.1349 146.694 24.8418 146.953 24.4642C147.212 24.081 147.339 23.6386 147.334 23.1371C147.339 22.6468 147.229 22.2213 147.004 21.8606C146.784 21.4943 146.471 21.2097 146.066 21.0068C145.665 20.8039 145.195 20.7025 144.654 20.7025C144.124 20.7025 143.634 20.7983 143.183 20.9899C142.732 21.1815 142.369 21.4548 142.093 21.8099C141.817 22.1593 141.67 22.5763 141.653 23.061H138.636C138.658 22.0916 138.937 21.2407 139.472 20.508C140.013 19.7698 140.735 19.1949 141.636 18.7835C142.538 18.3665 143.549 18.158 144.671 18.158C145.826 18.158 146.829 18.375 147.68 18.8089C148.537 19.2372 149.199 19.8149 149.667 20.5419C150.134 21.2688 150.368 22.0719 150.368 22.9511C150.374 23.926 150.086 24.7432 149.506 25.4026C148.931 26.0619 148.176 26.4931 147.241 26.696V26.8312C148.458 27.0003 149.39 27.4511 150.038 28.1838C150.692 28.9108 151.016 29.8153 151.011 30.8973C151.011 31.8666 150.734 32.7345 150.182 33.501C149.636 34.2618 148.88 34.8592 147.917 35.2931C146.959 35.727 145.86 35.944 144.62 35.944Z" fill="white"/>
<path d="M160.311 36.037C158.919 36.037 157.724 35.6848 156.727 34.9803C155.735 34.2702 154.971 33.2474 154.436 31.9117C153.906 30.5704 153.641 28.9558 153.641 27.0679C153.647 25.18 153.915 23.5738 154.444 22.2494C154.98 20.9194 155.743 19.905 156.735 19.2062C157.733 18.5074 158.925 18.158 160.311 18.158C161.697 18.158 162.889 18.5074 163.886 19.2062C164.884 19.905 165.647 20.9194 166.177 22.2494C166.712 23.5795 166.98 25.1856 166.98 27.0679C166.98 28.9615 166.712 30.5789 166.177 31.9202C165.647 33.2558 164.884 34.2759 163.886 34.9803C162.895 35.6848 161.703 36.037 160.311 36.037ZM160.311 33.3911C161.393 33.3911 162.246 32.8585 162.872 31.7934C163.503 30.7226 163.819 29.1475 163.819 27.0679C163.819 25.6928 163.675 24.5375 163.388 23.602C163.1 22.6665 162.694 21.962 162.17 21.4886C161.646 21.0096 161.026 20.7701 160.311 20.7701C159.234 20.7701 158.384 21.3055 157.758 22.3762C157.132 23.4414 156.817 25.0053 156.811 27.0679C156.806 28.4486 156.944 29.6096 157.225 30.5507C157.513 31.4919 157.919 32.202 158.443 32.681C158.967 33.1544 159.589 33.3911 160.311 33.3911Z" fill="white"/>
<path d="M174.928 32.9346V21.235H177.582V32.9346H174.928ZM170.406 28.412V25.7576H182.104V28.412H170.406Z" fill="white"/>
<path d="M129.43 74.3903C129.43 70.2818 132.761 66.9512 136.869 66.9512H234.561C238.67 66.9512 242 70.2818 242 74.3903V114.561C242 118.669 238.67 122 234.561 122H136.869C132.761 122 129.43 118.669 129.43 114.561V74.3903Z" fill="#24262B"/>
<path d="M137.438 81.8293V76.0584H139.647C140.064 76.0584 140.411 76.1241 140.687 76.2556C140.965 76.3853 141.172 76.5628 141.309 76.7882C141.448 77.0136 141.518 77.2691 141.518 77.5546C141.518 77.7895 141.473 77.9905 141.383 78.1577C141.293 78.323 141.171 78.4573 141.019 78.5606C140.867 78.6639 140.697 78.7381 140.509 78.7832V78.8396C140.714 78.8508 140.91 78.9138 141.098 79.0284C141.288 79.1411 141.443 79.3008 141.563 79.5074C141.683 79.714 141.743 79.9639 141.743 80.2569C141.743 80.5556 141.671 80.8243 141.526 81.0628C141.382 81.2995 141.164 81.4864 140.873 81.6236C140.582 81.7607 140.215 81.8293 139.774 81.8293H137.438ZM138.483 80.9558H139.608C139.987 80.9558 140.26 80.8834 140.428 80.7388C140.597 80.5923 140.681 80.4044 140.681 80.1752C140.681 80.0043 140.639 79.8502 140.554 79.7131C140.47 79.5741 140.35 79.4651 140.194 79.3862C140.038 79.3055 139.852 79.2651 139.636 79.2651H138.483V80.9558ZM138.483 78.5127H139.517C139.698 78.5127 139.86 78.4798 140.005 78.4141C140.15 78.3465 140.263 78.2516 140.346 78.1295C140.43 78.0055 140.473 77.859 140.473 77.6899C140.473 77.4664 140.394 77.2823 140.236 77.1376C140.08 76.993 139.848 76.9206 139.54 76.9206H138.483V78.5127Z" fill="white"/>
<path d="M143.853 81.9166C143.579 81.9166 143.332 81.8678 143.112 81.7701C142.894 81.6705 142.721 81.524 142.594 81.3305C142.468 81.137 142.405 80.8985 142.405 80.6148C142.405 80.3706 142.45 80.1686 142.54 80.009C142.63 79.8493 142.753 79.7216 142.909 79.6257C143.065 79.5299 143.241 79.4576 143.436 79.4088C143.633 79.3581 143.837 79.3214 144.047 79.2989C144.301 79.2726 144.507 79.2491 144.665 79.2284C144.822 79.2059 144.937 79.1721 145.008 79.127C145.082 79.08 145.118 79.0077 145.118 78.91V78.8931C145.118 78.6808 145.055 78.5165 144.929 78.4C144.804 78.2835 144.622 78.2253 144.386 78.2253C144.136 78.2253 143.938 78.2798 143.791 78.3887C143.646 78.4977 143.549 78.6264 143.498 78.7748L142.546 78.6395C142.621 78.3765 142.745 78.1567 142.918 77.9801C143.09 77.8017 143.302 77.6683 143.552 77.58C143.801 77.4898 144.078 77.4448 144.38 77.4448C144.588 77.4448 144.796 77.4692 145.003 77.518C145.209 77.5669 145.398 77.6476 145.569 77.7604C145.74 77.8712 145.877 78.0224 145.98 78.214C146.086 78.4056 146.138 78.6451 146.138 78.9326V81.8293H145.158V81.2347H145.124C145.062 81.3549 144.974 81.4677 144.862 81.5729C144.751 81.6762 144.611 81.7598 144.442 81.8236C144.275 81.8856 144.078 81.9166 143.853 81.9166ZM144.118 81.1671C144.323 81.1671 144.5 81.1267 144.65 81.0459C144.801 80.9633 144.916 80.8543 144.997 80.7191C145.08 80.5838 145.121 80.4363 145.121 80.2767V79.7666C145.089 79.7929 145.035 79.8174 144.958 79.8399C144.882 79.8624 144.798 79.8822 144.704 79.8991C144.61 79.916 144.517 79.931 144.425 79.9442C144.333 79.9573 144.253 79.9686 144.186 79.978C144.033 79.9986 143.897 80.0324 143.777 80.0794C143.657 80.1264 143.562 80.1921 143.492 80.2767C143.423 80.3593 143.388 80.4664 143.388 80.5979C143.388 80.7857 143.457 80.9276 143.594 81.0234C143.731 81.1192 143.906 81.1671 144.118 81.1671Z" fill="white"/>
<path d="M147.164 81.8293V77.5011H148.153V78.2225H148.198C148.277 77.9726 148.412 77.7801 148.604 77.6448C148.797 77.5077 149.018 77.4391 149.266 77.4391C149.322 77.4391 149.385 77.4419 149.454 77.4476C149.526 77.4513 149.585 77.4579 149.632 77.4673V78.4056C149.589 78.3906 149.52 78.3775 149.426 78.3662C149.334 78.353 149.245 78.3465 149.159 78.3465C148.973 78.3465 148.805 78.3868 148.657 78.4676C148.511 78.5465 148.395 78.6564 148.311 78.7973C148.226 78.9382 148.184 79.1007 148.184 79.2848V81.8293H147.164Z" fill="white"/>
<path d="M152.014 83.5425C151.647 83.5425 151.333 83.4927 151.07 83.3932C150.807 83.2955 150.595 83.164 150.436 82.9987C150.276 82.8334 150.165 82.6502 150.103 82.4492L151.022 82.2266C151.063 82.3111 151.123 82.3947 151.202 82.4774C151.281 82.5619 151.387 82.6314 151.52 82.6859C151.656 82.7423 151.826 82.7704 152.03 82.7704C152.32 82.7704 152.559 82.7 152.749 82.5591C152.939 82.4201 153.034 82.1909 153.034 81.8715V81.0516H152.983C152.93 81.1568 152.853 81.2648 152.752 81.3756C152.652 81.4864 152.52 81.5794 152.355 81.6546C152.191 81.7297 151.985 81.7673 151.737 81.7673C151.405 81.7673 151.103 81.6893 150.833 81.5334C150.564 81.3756 150.35 81.1408 150.191 80.829C150.033 80.5152 149.954 80.1226 149.954 79.6511C149.954 79.1758 150.033 78.7748 150.191 78.4479C150.35 78.1192 150.565 77.8702 150.836 77.7012C151.106 77.5302 151.408 77.4448 151.74 77.4448C151.994 77.4448 152.202 77.488 152.366 77.5744C152.531 77.6589 152.663 77.7613 152.76 77.8815C152.858 77.9999 152.932 78.1116 152.983 78.2168H153.039V77.5011H154.045V81.8997C154.045 82.2698 153.957 82.576 153.78 82.8183C153.604 83.0607 153.362 83.2419 153.056 83.3622C152.75 83.4824 152.402 83.5425 152.014 83.5425ZM152.022 80.967C152.238 80.967 152.422 80.9144 152.574 80.8092C152.726 80.704 152.842 80.5528 152.921 80.3556C153 80.1583 153.039 79.9216 153.039 79.6455C153.039 79.3731 153 79.1345 152.921 78.9297C152.844 78.725 152.729 78.5662 152.577 78.4535C152.427 78.3389 152.242 78.2816 152.022 78.2816C151.795 78.2816 151.605 78.3408 151.453 78.4592C151.301 78.5775 151.186 78.74 151.109 78.9467C151.032 79.1514 150.994 79.3844 150.994 79.6455C150.994 79.9103 151.032 80.1423 151.109 80.3415C151.188 80.5387 151.304 80.6928 151.456 80.8036C151.61 80.9125 151.799 80.967 152.022 80.967Z" fill="white"/>
<path d="M157.006 81.9138C156.572 81.9138 156.198 81.8236 155.882 81.6433C155.568 81.4611 155.327 81.2037 155.158 80.8712C154.989 80.5368 154.904 80.1433 154.904 79.6906C154.904 79.2453 154.989 78.8546 155.158 78.5183C155.329 78.1802 155.568 77.9172 155.874 77.7294C156.18 77.5396 156.54 77.4448 156.953 77.4448C157.22 77.4448 157.471 77.488 157.708 77.5744C157.947 77.6589 158.157 77.7904 158.339 77.9689C158.523 78.1473 158.668 78.3746 158.773 78.6508C158.878 78.925 158.931 79.2519 158.931 79.6314V79.9442H155.383V79.2566H157.953C157.951 79.0612 157.909 78.8875 157.826 78.7353C157.744 78.5813 157.628 78.4601 157.48 78.3718C157.333 78.2835 157.162 78.2394 156.967 78.2394C156.758 78.2394 156.575 78.2901 156.418 78.3915C156.26 78.4911 156.137 78.6226 156.048 78.786C155.962 78.9476 155.918 79.1251 155.916 79.3186V79.9188C155.916 80.1705 155.962 80.3866 156.054 80.5669C156.146 80.7454 156.275 80.8825 156.44 80.9783C156.605 81.0722 156.799 81.1192 157.02 81.1192C157.169 81.1192 157.303 81.0985 157.423 81.0572C157.544 81.014 157.648 80.9511 157.736 80.8684C157.824 80.7857 157.891 80.6834 157.936 80.5613L158.889 80.6683C158.828 80.9201 158.714 81.1398 158.545 81.3277C158.378 81.5137 158.164 81.6583 157.902 81.7616C157.641 81.8631 157.343 81.9138 157.006 81.9138Z" fill="white"/>
<path d="M163.214 78.6451L162.285 78.7466C162.258 78.6527 162.212 78.5644 162.146 78.4817C162.083 78.3991 161.996 78.3324 161.887 78.2816C161.778 78.2309 161.645 78.2056 161.487 78.2056C161.275 78.2056 161.096 78.2516 160.952 78.3436C160.809 78.4357 160.739 78.555 160.74 78.7015C160.739 78.8274 160.785 78.9297 160.879 79.0086C160.974 79.0875 161.132 79.1524 161.352 79.2031L162.09 79.3609C162.5 79.4492 162.804 79.5891 163.003 79.7807C163.204 79.9723 163.305 80.2231 163.307 80.5331C163.305 80.8055 163.226 81.0459 163.068 81.2544C162.912 81.4611 162.695 81.6226 162.417 81.7391C162.139 81.8556 161.82 81.9138 161.459 81.9138C160.929 81.9138 160.503 81.803 160.18 81.5813C159.857 81.3578 159.664 81.0469 159.602 80.6486L160.597 80.5528C160.642 80.7482 160.738 80.8956 160.884 80.9952C161.031 81.0948 161.221 81.1445 161.456 81.1445C161.698 81.1445 161.893 81.0948 162.039 80.9952C162.188 80.8956 162.262 80.7726 162.262 80.6261C162.262 80.5021 162.214 80.3997 162.118 80.3189C162.024 80.2382 161.878 80.1762 161.679 80.1329L160.941 79.978C160.525 79.8916 160.218 79.746 160.019 79.5412C159.82 79.3346 159.721 79.0735 159.723 78.7579C159.721 78.4911 159.794 78.26 159.94 78.0647C160.089 77.8674 160.294 77.7153 160.557 77.6082C160.822 77.4992 161.127 77.4448 161.473 77.4448C161.98 77.4448 162.379 77.5528 162.671 77.7688C162.964 77.9848 163.145 78.277 163.214 78.6451Z" fill="white"/>
<path d="M166.162 81.8293V76.0584H168.326C168.769 76.0584 169.141 76.1354 169.441 76.2895C169.744 76.4435 169.972 76.6595 170.126 76.9376C170.282 77.2137 170.36 77.5359 170.36 77.9041C170.36 78.2741 170.281 78.5954 170.123 78.8678C169.967 79.1383 169.737 79.3477 169.433 79.4961C169.129 79.6427 168.755 79.7159 168.311 79.7159H166.77V78.848H168.171C168.43 78.848 168.642 78.8123 168.807 78.7409C168.973 78.6677 169.095 78.5616 169.174 78.4225C169.254 78.2816 169.295 78.1088 169.295 77.9041C169.295 77.6993 169.254 77.5246 169.174 77.3799C169.093 77.2334 168.97 77.1226 168.804 77.0474C168.639 76.9704 168.426 76.9319 168.165 76.9319H167.207V81.8293H166.162ZM169.143 79.2143L170.571 81.8293H169.405L168.001 79.2143H169.143Z" fill="white"/>
<path d="M172.522 81.9166C172.248 81.9166 172.001 81.8678 171.781 81.7701C171.563 81.6705 171.391 81.524 171.263 81.3305C171.137 81.137 171.074 80.8985 171.074 80.6148C171.074 80.3706 171.119 80.1686 171.209 80.009C171.3 79.8493 171.423 79.7216 171.578 79.6257C171.734 79.5299 171.91 79.4576 172.105 79.4088C172.303 79.3581 172.506 79.3214 172.717 79.2989C172.97 79.2726 173.176 79.2491 173.334 79.2284C173.492 79.2059 173.606 79.1721 173.678 79.127C173.751 79.08 173.787 79.0077 173.787 78.91V78.8931C173.787 78.6808 173.725 78.5165 173.599 78.4C173.473 78.2835 173.292 78.2253 173.055 78.2253C172.805 78.2253 172.607 78.2798 172.46 78.3887C172.316 78.4977 172.218 78.6264 172.167 78.7748L171.215 78.6395C171.29 78.3765 171.414 78.1567 171.587 77.9801C171.76 77.8017 171.971 77.6683 172.221 77.58C172.471 77.4898 172.747 77.4448 173.049 77.4448C173.258 77.4448 173.465 77.4692 173.672 77.518C173.879 77.5669 174.067 77.6476 174.238 77.7604C174.409 77.8712 174.546 78.0224 174.65 78.214C174.755 78.4056 174.807 78.6451 174.807 78.9326V81.8293H173.827V81.2347H173.793C173.731 81.3549 173.644 81.4677 173.531 81.5729C173.42 81.6762 173.28 81.7598 173.111 81.8236C172.944 81.8856 172.748 81.9166 172.522 81.9166ZM172.787 81.1671C172.992 81.1671 173.169 81.1267 173.32 81.0459C173.47 80.9633 173.586 80.8543 173.666 80.7191C173.749 80.5838 173.79 80.4363 173.79 80.2767V79.7666C173.758 79.7929 173.704 79.8174 173.627 79.8399C173.552 79.8624 173.467 79.8822 173.373 79.8991C173.279 79.916 173.186 79.931 173.094 79.9442C173.002 79.9573 172.922 79.9686 172.855 79.978C172.703 79.9986 172.566 80.0324 172.446 80.0794C172.326 80.1264 172.231 80.1921 172.162 80.2767C172.092 80.3593 172.057 80.4664 172.057 80.5979C172.057 80.7857 172.126 80.9276 172.263 81.0234C172.4 81.1192 172.575 81.1671 172.787 81.1671Z" fill="white"/>
<path d="M176.853 79.2932V81.8293H175.833V77.5011H176.808V78.2366H176.859C176.958 77.9942 177.117 77.8017 177.335 77.6589C177.555 77.5161 177.826 77.4448 178.149 77.4448C178.448 77.4448 178.708 77.5086 178.93 77.6364C179.153 77.7641 179.326 77.9492 179.448 78.1915C179.572 78.4338 179.633 78.7278 179.631 79.0735V81.8293H178.611V79.2313C178.611 78.942 178.536 78.7156 178.386 78.5522C178.237 78.3887 178.032 78.307 177.769 78.307C177.59 78.307 177.432 78.3465 177.293 78.4254C177.155 78.5024 177.047 78.6142 176.969 78.7607C176.892 78.9072 176.853 79.0847 176.853 79.2932Z" fill="white"/>
<path d="M182.55 83.5425C182.184 83.5425 181.869 83.4927 181.606 83.3932C181.343 83.2955 181.132 83.164 180.972 82.9987C180.813 82.8334 180.702 82.6502 180.64 82.4492L181.558 82.2266C181.6 82.3111 181.66 82.3947 181.739 82.4774C181.818 82.5619 181.924 82.6314 182.057 82.6859C182.192 82.7423 182.362 82.7704 182.567 82.7704C182.856 82.7704 183.096 82.7 183.286 82.5591C183.475 82.4201 183.57 82.1909 183.57 81.8715V81.0516H183.52C183.467 81.1568 183.39 81.2648 183.288 81.3756C183.189 81.4864 183.057 81.5794 182.891 81.6546C182.728 81.7297 182.522 81.7673 182.274 81.7673C181.942 81.7673 181.64 81.6893 181.37 81.5334C181.101 81.3756 180.887 81.1408 180.727 80.829C180.569 80.5152 180.491 80.1226 180.491 79.6511C180.491 79.1758 180.569 78.7748 180.727 78.4479C180.887 78.1192 181.102 77.8702 181.373 77.7012C181.643 77.5302 181.944 77.4448 182.277 77.4448C182.531 77.4448 182.739 77.488 182.902 77.5744C183.068 77.6589 183.199 77.7613 183.297 77.8815C183.395 77.9999 183.469 78.1116 183.52 78.2168H183.576V77.5011H184.582V81.8997C184.582 82.2698 184.493 82.576 184.317 82.8183C184.14 83.0607 183.899 83.2419 183.593 83.3622C183.287 83.4824 182.939 83.5425 182.55 83.5425ZM182.559 80.967C182.775 80.967 182.959 80.9144 183.111 80.8092C183.263 80.704 183.379 80.5528 183.458 80.3556C183.536 80.1583 183.576 79.9216 183.576 79.6455C183.576 79.3731 183.536 79.1345 183.458 78.9297C183.381 78.725 183.266 78.5662 183.114 78.4535C182.964 78.3389 182.779 78.2816 182.559 78.2816C182.331 78.2816 182.142 78.3408 181.99 78.4592C181.837 78.5775 181.723 78.74 181.646 78.9467C181.569 79.1514 181.53 79.3844 181.53 79.6455C181.53 79.9103 181.569 80.1423 181.646 80.3415C181.725 80.5387 181.84 80.6928 181.992 80.8036C182.146 80.9125 182.335 80.967 182.559 80.967Z" fill="white"/>
<path d="M187.543 81.9138C187.109 81.9138 186.734 81.8236 186.419 81.6433C186.105 81.4611 185.864 81.2037 185.695 80.8712C185.526 80.5368 185.441 80.1433 185.441 79.6906C185.441 79.2453 185.526 78.8546 185.695 78.5183C185.866 78.1802 186.104 77.9172 186.41 77.7294C186.717 77.5396 187.076 77.4448 187.49 77.4448C187.756 77.4448 188.008 77.488 188.245 77.5744C188.483 77.6589 188.694 77.7904 188.876 77.9689C189.06 78.1473 189.205 78.3746 189.31 78.6508C189.415 78.925 189.468 79.2519 189.468 79.6314V79.9442H185.92V79.2566H188.49C188.488 79.0612 188.446 78.8875 188.363 78.7353C188.28 78.5813 188.165 78.4601 188.016 78.3718C187.87 78.2835 187.699 78.2394 187.504 78.2394C187.295 78.2394 187.112 78.2901 186.954 78.3915C186.796 78.4911 186.673 78.6226 186.585 78.786C186.499 78.9476 186.455 79.1251 186.453 79.3186V79.9188C186.453 80.1705 186.499 80.3866 186.591 80.5669C186.683 80.7454 186.811 80.8825 186.977 80.9783C187.142 81.0722 187.336 81.1192 187.557 81.1192C187.706 81.1192 187.84 81.0985 187.96 81.0572C188.08 81.014 188.185 80.9511 188.273 80.8684C188.361 80.7857 188.428 80.6834 188.473 80.5613L189.425 80.6683C189.365 80.9201 189.251 81.1398 189.082 81.3277C188.914 81.5137 188.7 81.6583 188.439 81.7616C188.178 81.8631 187.879 81.9138 187.543 81.9138Z" fill="white"/>
<path d="M193.751 78.6451L192.821 78.7466C192.795 78.6527 192.749 78.5644 192.683 78.4817C192.619 78.3991 192.533 78.3324 192.424 78.2816C192.315 78.2309 192.182 78.2056 192.024 78.2056C191.812 78.2056 191.633 78.2516 191.488 78.3436C191.346 78.4357 191.275 78.555 191.277 78.7015C191.275 78.8274 191.321 78.9297 191.415 79.0086C191.511 79.0875 191.669 79.1524 191.889 79.2031L192.627 79.3609C193.036 79.4492 193.341 79.5891 193.54 79.7807C193.741 79.9723 193.842 80.2231 193.844 80.5331C193.842 80.8055 193.762 81.0459 193.605 81.2544C193.449 81.4611 193.232 81.6226 192.954 81.7391C192.676 81.8556 192.356 81.9138 191.996 81.9138C191.466 81.9138 191.04 81.803 190.716 81.5813C190.393 81.3578 190.201 81.0469 190.139 80.6486L191.133 80.5528C191.179 80.7482 191.274 80.8956 191.421 80.9952C191.567 81.0948 191.758 81.1445 191.993 81.1445C192.235 81.1445 192.43 81.0948 192.576 80.9952C192.724 80.8956 192.799 80.7726 192.799 80.6261C192.799 80.5021 192.751 80.3997 192.655 80.3189C192.561 80.2382 192.415 80.1762 192.215 80.1329L191.477 79.978C191.062 79.8916 190.755 79.746 190.556 79.5412C190.357 79.3346 190.258 79.0735 190.26 78.7579C190.258 78.4911 190.33 78.26 190.477 78.0647C190.625 77.8674 190.831 77.7153 191.094 77.6082C191.359 77.4992 191.664 77.4448 192.01 77.4448C192.517 77.4448 192.916 77.5528 193.207 77.7688C193.5 77.9848 193.682 78.277 193.751 78.6451Z" fill="white"/>
<path d="M139.393 112.577H137.438V106.806H139.433C140.006 106.806 140.498 106.922 140.909 107.153C141.323 107.382 141.64 107.712 141.862 108.142C142.083 108.572 142.194 109.087 142.194 109.686C142.194 110.287 142.082 110.804 141.859 111.236C141.637 111.668 141.317 112 140.898 112.231C140.481 112.462 139.98 112.577 139.393 112.577ZM138.483 111.673H139.343C139.745 111.673 140.08 111.599 140.349 111.453C140.617 111.305 140.819 111.084 140.954 110.791C141.09 110.496 141.157 110.128 141.157 109.686C141.157 109.245 141.09 108.878 140.954 108.587C140.819 108.294 140.619 108.075 140.354 107.931C140.091 107.784 139.764 107.711 139.374 107.711H138.483V111.673Z" fill="white"/>
<path d="M144.255 112.577L142.626 106.806H143.75L144.79 111.047H144.843L145.954 106.806H146.976L148.089 111.05H148.14L149.18 106.806H150.304L148.675 112.577H147.644L146.489 108.528H146.444L145.286 112.577H144.255Z" fill="white"/>
<path d="M150.775 107.683V106.806H155.379V107.683H153.596V112.577H152.559V107.683H150.775Z" fill="white"/>
<path d="M142.589 87.6452V99.187H140.498V89.6797H140.43L137.731 91.4042V89.4881L140.599 87.6452H142.589Z" fill="white"/>
<path d="M149.661 99.3448C148.849 99.3448 148.128 99.2058 147.497 98.9278C146.87 98.6497 146.374 98.2628 146.009 97.7668C145.645 97.2709 145.451 96.6979 145.429 96.048H147.548C147.566 96.3598 147.67 96.6322 147.858 96.8651C148.045 97.0943 148.295 97.2728 148.607 97.4005C148.919 97.5282 149.268 97.5921 149.655 97.5921C150.068 97.5921 150.435 97.5207 150.754 97.378C151.073 97.2314 151.323 97.0286 151.504 96.7693C151.684 96.5101 151.772 96.2114 151.768 95.8733C151.772 95.5238 151.682 95.2158 151.498 94.949C151.314 94.6823 151.047 94.4737 150.698 94.3235C150.352 94.1732 149.935 94.098 149.447 94.098H148.427V92.4862H149.447C149.849 92.4862 150.2 92.4167 150.501 92.2777C150.805 92.1387 151.043 91.9433 151.216 91.6916C151.389 91.4361 151.474 91.1412 151.47 90.8068C151.474 90.48 151.4 90.1963 151.25 89.9558C151.103 89.7116 150.895 89.5219 150.624 89.3866C150.358 89.2514 150.044 89.1838 149.683 89.1838C149.33 89.1838 149.003 89.2476 148.703 89.3754C148.402 89.5031 148.16 89.6853 147.976 89.922C147.792 90.155 147.694 90.433 147.683 90.7561H145.671C145.686 90.1099 145.872 89.5426 146.229 89.0541C146.59 88.562 147.071 88.1787 147.672 87.9045C148.273 87.6265 148.947 87.4874 149.695 87.4874C150.465 87.4874 151.134 87.6321 151.701 87.9214C152.272 88.2069 152.713 88.592 153.025 89.0767C153.337 89.5613 153.493 90.0967 153.493 90.6828C153.497 91.3328 153.305 91.8776 152.918 92.3172C152.535 92.7567 152.031 93.0442 151.408 93.1794V93.2696C152.219 93.3823 152.841 93.6829 153.273 94.1713C153.709 94.656 153.925 95.259 153.921 95.9803C153.921 96.6265 153.737 97.2051 153.369 97.7161C153.004 98.2233 152.501 98.6216 151.859 98.9109C151.22 99.2001 150.487 99.3448 149.661 99.3448Z" fill="white"/>
<path d="M160.121 99.4068C159.193 99.4068 158.397 99.172 157.732 98.7023C157.071 98.2289 156.562 97.547 156.205 96.6566C155.852 95.7624 155.675 94.686 155.675 93.4274C155.679 92.1688 155.857 91.098 156.21 90.2151C156.567 89.3284 157.076 88.6521 157.738 88.1863C158.403 87.7204 159.197 87.4874 160.121 87.4874C161.045 87.4874 161.84 87.7204 162.505 88.1863C163.17 88.6521 163.679 89.3284 164.032 90.2151C164.389 91.1018 164.568 92.1725 164.568 93.4274C164.568 94.6898 164.389 95.768 164.032 96.6622C163.679 97.5527 163.17 98.2327 162.505 98.7023C161.844 99.172 161.049 99.4068 160.121 99.4068ZM160.121 97.6428C160.843 97.6428 161.412 97.2878 161.829 96.5777C162.25 95.8639 162.46 94.8138 162.46 93.4274C162.46 92.5107 162.364 91.7405 162.173 91.1168C161.981 90.4931 161.71 90.0235 161.361 89.7079C161.012 89.3885 160.598 89.2289 160.121 89.2289C159.404 89.2289 158.836 89.5858 158.419 90.2996C158.002 91.0097 157.792 92.0523 157.788 93.4274C157.785 94.3479 157.877 95.1218 158.064 95.7493C158.256 96.3767 158.527 96.8501 158.876 97.1694C159.225 97.485 159.64 97.6428 160.121 97.6428Z" fill="white"/>
<path d="M170.706 99.4068C169.778 99.4068 168.981 99.172 168.316 98.7023C167.655 98.2289 167.146 97.547 166.789 96.6566C166.436 95.7624 166.259 94.686 166.259 93.4274C166.263 92.1688 166.442 91.098 166.795 90.2151C167.152 89.3284 167.661 88.6521 168.322 88.1863C168.987 87.7204 169.782 87.4874 170.706 87.4874C171.63 87.4874 172.424 87.7204 173.089 88.1863C173.754 88.6521 174.263 89.3284 174.617 90.2151C174.973 91.1018 175.152 92.1725 175.152 93.4274C175.152 94.6898 174.973 95.768 174.617 96.6622C174.263 97.5527 173.754 98.2327 173.089 98.7023C172.428 99.172 171.634 99.4068 170.706 99.4068ZM170.706 97.6428C171.427 97.6428 171.996 97.2878 172.413 96.5777C172.834 95.8639 173.044 94.8138 173.044 93.4274C173.044 92.5107 172.949 91.7405 172.757 91.1168C172.565 90.4931 172.295 90.0235 171.945 89.7079C171.596 89.3885 171.183 89.2289 170.706 89.2289C169.988 89.2289 169.421 89.5858 169.004 90.2996C168.587 91.0097 168.376 92.0523 168.373 93.4274C168.369 94.3479 168.461 95.1218 168.649 95.7493C168.84 96.3767 169.111 96.8501 169.46 97.1694C169.81 97.485 170.225 97.6428 170.706 97.6428Z" fill="white"/>
<path d="M182.293 92.5764V94.2558H177.097V92.5764H182.293Z" fill="white"/>
<path d="M188.45 99.3448C187.638 99.3448 186.917 99.2058 186.286 98.9278C185.658 98.6497 185.162 98.2628 184.798 97.7668C184.434 97.2709 184.24 96.6979 184.218 96.048H186.336C186.355 96.3598 186.459 96.6322 186.646 96.8651C186.834 97.0943 187.084 97.2728 187.396 97.4005C187.708 97.5282 188.057 97.5921 188.444 97.5921C188.857 97.5921 189.224 97.5207 189.543 97.378C189.862 97.2314 190.112 97.0286 190.292 96.7693C190.473 96.5101 190.561 96.2114 190.557 95.8733C190.561 95.5238 190.471 95.2158 190.287 94.949C190.103 94.6823 189.836 94.4737 189.487 94.3235C189.141 94.1732 188.724 94.098 188.236 94.098H187.216V92.4862H188.236C188.638 92.4862 188.989 92.4167 189.289 92.2777C189.594 92.1387 189.832 91.9433 190.005 91.6916C190.178 91.4361 190.262 91.1412 190.259 90.8068C190.262 90.48 190.189 90.1963 190.039 89.9558C189.892 89.7116 189.684 89.5219 189.413 89.3866C189.147 89.2514 188.833 89.1838 188.472 89.1838C188.119 89.1838 187.792 89.2476 187.492 89.3754C187.191 89.5031 186.949 89.6853 186.765 89.922C186.581 90.155 186.483 90.433 186.472 90.7561H184.46C184.475 90.1099 184.661 89.5426 185.018 89.0541C185.378 88.562 185.859 88.1787 186.46 87.9045C187.062 87.6265 187.736 87.4874 188.483 87.4874C189.254 87.4874 189.922 87.6321 190.49 87.9214C191.061 88.2069 191.502 88.592 191.814 89.0767C192.126 89.5613 192.282 90.0967 192.282 90.6828C192.285 91.3328 192.094 91.8776 191.707 92.3172C191.324 92.7567 190.82 93.0442 190.197 93.1794V93.2696C191.008 93.3823 191.63 93.6829 192.062 94.1713C192.498 94.656 192.714 95.259 192.71 95.9803C192.71 96.6265 192.526 97.2051 192.158 97.7161C191.793 98.2233 191.29 98.6216 190.647 98.9109C190.009 99.2001 189.276 99.3448 188.45 99.3448Z" fill="white"/>
<path d="M198.91 99.4068C197.982 99.4068 197.186 99.172 196.521 98.7023C195.86 98.2289 195.35 97.547 194.994 96.6566C194.64 95.7624 194.464 94.686 194.464 93.4274C194.468 92.1688 194.646 91.098 194.999 90.2151C195.356 89.3284 195.865 88.6521 196.526 88.1863C197.191 87.7204 197.986 87.4874 198.91 87.4874C199.834 87.4874 200.629 87.7204 201.294 88.1863C201.959 88.6521 202.468 89.3284 202.821 90.2151C203.178 91.1018 203.356 92.1725 203.356 93.4274C203.356 94.6898 203.178 95.768 202.821 96.6622C202.468 97.5527 201.959 98.2327 201.294 98.7023C200.633 99.172 199.838 99.4068 198.91 99.4068ZM198.91 97.6428C199.631 97.6428 200.201 97.2878 200.618 96.5777C201.038 95.8639 201.249 94.8138 201.249 93.4274C201.249 92.5107 201.153 91.7405 200.961 91.1168C200.77 90.4931 200.499 90.0235 200.15 89.7079C199.8 89.3885 199.387 89.2289 198.91 89.2289C198.193 89.2289 197.625 89.5858 197.208 90.2996C196.791 91.0097 196.581 92.0523 196.577 93.4274C196.573 94.3479 196.665 95.1218 196.853 95.7493C197.045 96.3767 197.315 96.8501 197.665 97.1694C198.014 97.485 198.429 97.6428 198.91 97.6428Z" fill="white"/>
<path d="M209.494 99.4068C208.567 99.4068 207.77 99.172 207.105 98.7023C206.444 98.2289 205.935 97.547 205.578 96.6566C205.225 95.7624 205.048 94.686 205.048 93.4274C205.052 92.1688 205.23 91.098 205.584 90.2151C205.941 89.3284 206.45 88.6521 207.111 88.1863C207.776 87.7204 208.57 87.4874 209.494 87.4874C210.419 87.4874 211.213 87.7204 211.878 88.1863C212.543 88.6521 213.052 89.3284 213.405 90.2151C213.762 91.1018 213.941 92.1725 213.941 93.4274C213.941 94.6898 213.762 95.768 213.405 96.6622C213.052 97.5527 212.543 98.2327 211.878 98.7023C211.217 99.172 210.422 99.4068 209.494 99.4068ZM209.494 97.6428C210.216 97.6428 210.785 97.2878 211.202 96.5777C211.623 95.8639 211.833 94.8138 211.833 93.4274C211.833 92.5107 211.737 91.7405 211.546 91.1168C211.354 90.4931 211.084 90.0235 210.734 89.7079C210.385 89.3885 209.972 89.2289 209.494 89.2289C208.777 89.2289 208.21 89.5858 207.793 90.2996C207.376 91.0097 207.165 92.0523 207.162 93.4274C207.158 94.3479 207.25 95.1218 207.438 95.7493C207.629 96.3767 207.9 96.8501 208.249 97.1694C208.599 97.485 209.014 97.6428 209.494 97.6428Z" fill="white"/>
<path d="M220.079 99.4068C219.151 99.4068 218.355 99.172 217.69 98.7023C217.028 98.2289 216.519 97.547 216.162 96.6566C215.809 95.7624 215.633 94.686 215.633 93.4274C215.636 92.1688 215.815 91.098 216.168 90.2151C216.525 89.3284 217.034 88.6521 217.695 88.1863C218.36 87.7204 219.155 87.4874 220.079 87.4874C221.003 87.4874 221.798 87.7204 222.463 88.1863C223.128 88.6521 223.637 89.3284 223.99 90.2151C224.347 91.1018 224.525 92.1725 224.525 93.4274C224.525 94.6898 224.347 95.768 223.99 96.6622C223.637 97.5527 223.128 98.2327 222.463 98.7023C221.801 99.172 221.007 99.4068 220.079 99.4068ZM220.079 97.6428C220.8 97.6428 221.369 97.2878 221.786 96.5777C222.207 95.8639 222.418 94.8138 222.418 93.4274C222.418 92.5107 222.322 91.7405 222.13 91.1168C221.939 90.4931 221.668 90.0235 221.319 89.7079C220.969 89.3885 220.556 89.2289 220.079 89.2289C219.361 89.2289 218.794 89.5858 218.377 90.2996C217.96 91.0097 217.75 92.0523 217.746 93.4274C217.742 94.3479 217.834 95.1218 218.022 95.7493C218.214 96.3767 218.484 96.8501 218.834 97.1694C219.183 97.485 219.598 97.6428 220.079 97.6428Z" fill="white"/>
</svg>
