<svg width="488" height="246" viewBox="0 0 488 246" fill="none" xmlns="http://www.w3.org/2000/svg">
<path d="M0 15C0 6.71573 6.71573 0 15 0H212C220.284 0 227 6.71573 227 15V96C227 104.284 220.284 111 212 111H15C6.71573 111 0 104.284 0 96V15Z" fill="#24262B"/>
<path d="M15.4716 56.5227V51.4943L30.2841 28.0909H34.4773V35.25H31.9205L21.9489 51.0511V51.3239H42.625V56.5227H15.4716ZM32.125 63V54.9886L32.1932 52.7386V28.0909H38.1591V63H32.125ZM49.3494 63L64.196 33.6136V33.375H46.9631V28.0909H70.7415V33.4943L55.9119 63H49.3494ZM85.5753 45.5455H89.1463L93.4162 53.267H93.5866L97.8565 45.5455H101.428L95.0781 56.4886V63H91.9247V56.4886L85.5753 45.5455ZM106.888 63.2557C105.576 63.2557 104.442 62.983 103.488 62.4375C102.539 61.8864 101.809 61.108 101.298 60.1023C100.786 59.0909 100.531 57.9006 100.531 56.5312C100.531 55.1847 100.786 54.0028 101.298 52.9858C101.815 51.9631 102.536 51.1676 103.462 50.5994C104.388 50.0256 105.477 49.7386 106.727 49.7386C107.533 49.7386 108.295 49.8693 109.011 50.1307C109.732 50.3864 110.369 50.7841 110.92 51.3239C111.477 51.8636 111.914 52.5511 112.232 53.3864C112.55 54.2159 112.71 55.2045 112.71 56.3523V57.2983H101.979V55.2188H109.752C109.746 54.6278 109.619 54.1023 109.369 53.642C109.119 53.1761 108.769 52.8097 108.32 52.5426C107.877 52.2756 107.36 52.142 106.769 52.142C106.138 52.142 105.585 52.2955 105.107 52.6023C104.63 52.9034 104.258 53.3011 103.991 53.7955C103.729 54.2841 103.596 54.821 103.59 55.4062V57.2216C103.59 57.983 103.729 58.6364 104.008 59.1818C104.286 59.7216 104.675 60.1364 105.175 60.4261C105.675 60.7102 106.261 60.8523 106.931 60.8523C107.38 60.8523 107.786 60.7898 108.15 60.6648C108.513 60.5341 108.829 60.3438 109.096 60.0938C109.363 59.8438 109.565 59.5341 109.701 59.1648L112.582 59.4886C112.4 60.25 112.053 60.9148 111.542 61.483C111.036 62.0455 110.388 62.483 109.599 62.7955C108.809 63.1023 107.906 63.2557 106.888 63.2557ZM119.087 63.2642C118.257 63.2642 117.51 63.1165 116.845 62.821C116.186 62.5199 115.663 62.0767 115.277 61.4915C114.896 60.9062 114.706 60.1847 114.706 59.3267C114.706 58.5881 114.842 57.9773 115.115 57.4943C115.388 57.0114 115.76 56.625 116.232 56.3352C116.703 56.0455 117.234 55.8267 117.825 55.679C118.422 55.5256 119.038 55.4148 119.675 55.3466C120.442 55.267 121.064 55.196 121.541 55.1335C122.018 55.0653 122.365 54.9631 122.581 54.8267C122.803 54.6847 122.913 54.4659 122.913 54.1705V54.1193C122.913 53.4773 122.723 52.9801 122.342 52.6278C121.962 52.2756 121.413 52.0994 120.697 52.0994C119.942 52.0994 119.342 52.2642 118.899 52.5938C118.462 52.9233 118.166 53.3125 118.013 53.7614L115.132 53.3523C115.359 52.5568 115.734 51.892 116.257 51.358C116.78 50.8182 117.419 50.4148 118.175 50.1477C118.93 49.875 119.766 49.7386 120.68 49.7386C121.311 49.7386 121.939 49.8125 122.564 49.9602C123.189 50.108 123.76 50.3523 124.277 50.6932C124.794 51.0284 125.209 51.4858 125.521 52.0653C125.839 52.6449 125.999 53.3693 125.999 54.2386V63H123.033V61.2017H122.93C122.743 61.5653 122.479 61.9062 122.138 62.2244C121.803 62.5369 121.379 62.7898 120.868 62.983C120.362 63.1705 119.768 63.2642 119.087 63.2642ZM119.888 60.9972C120.507 60.9972 121.044 60.875 121.499 60.6307C121.953 60.3807 122.303 60.0511 122.547 59.642C122.797 59.233 122.922 58.7869 122.922 58.304V56.7614C122.825 56.8409 122.661 56.9148 122.428 56.983C122.2 57.0511 121.945 57.1108 121.661 57.1619C121.376 57.2131 121.095 57.2585 120.817 57.2983C120.538 57.3381 120.297 57.3722 120.092 57.4006C119.632 57.4631 119.22 57.5653 118.857 57.7074C118.493 57.8494 118.206 58.0483 117.996 58.304C117.786 58.554 117.68 58.8778 117.68 59.2756C117.68 59.8438 117.888 60.2727 118.303 60.5625C118.717 60.8523 119.246 60.9972 119.888 60.9972ZM129.101 63V49.9091H132.092V52.0909H132.229C132.467 51.3352 132.876 50.7528 133.456 50.3438C134.041 49.929 134.709 49.7216 135.459 49.7216C135.629 49.7216 135.82 49.7301 136.03 49.7472C136.246 49.7585 136.425 49.7784 136.567 49.8068V52.6449C136.436 52.5994 136.229 52.5597 135.945 52.5256C135.666 52.4858 135.396 52.4659 135.135 52.4659C134.572 52.4659 134.067 52.5881 133.618 52.8324C133.175 53.071 132.825 53.4034 132.57 53.8295C132.314 54.2557 132.186 54.7472 132.186 55.304V63H129.101ZM148.963 53.3693L146.151 53.6761C146.071 53.392 145.932 53.125 145.733 52.875C145.54 52.625 145.278 52.4233 144.949 52.2699C144.619 52.1165 144.216 52.0398 143.739 52.0398C143.097 52.0398 142.557 52.179 142.119 52.4574C141.688 52.7358 141.474 53.0966 141.48 53.5398C141.474 53.9205 141.614 54.2301 141.898 54.4688C142.188 54.7074 142.665 54.9034 143.33 55.0568L145.562 55.5341C146.801 55.8011 147.722 56.2244 148.324 56.804C148.932 57.3835 149.239 58.142 149.244 59.0795C149.239 59.9034 148.997 60.6307 148.52 61.2614C148.048 61.8864 147.392 62.375 146.551 62.7273C145.71 63.0795 144.744 63.2557 143.653 63.2557C142.051 63.2557 140.761 62.9205 139.784 62.25C138.807 61.5739 138.224 60.6335 138.037 59.429L141.045 59.1392C141.182 59.7301 141.472 60.1761 141.915 60.4773C142.358 60.7784 142.935 60.929 143.645 60.929C144.378 60.929 144.966 60.7784 145.409 60.4773C145.858 60.1761 146.082 59.804 146.082 59.3608C146.082 58.9858 145.938 58.6761 145.648 58.4318C145.364 58.1875 144.92 58 144.318 57.8693L142.085 57.4006C140.83 57.1392 139.901 56.6989 139.298 56.0795C138.696 55.4545 138.398 54.6648 138.403 53.7102C138.398 52.9034 138.616 52.2045 139.06 51.6136C139.509 51.017 140.131 50.5568 140.926 50.233C141.727 49.9034 142.651 49.7386 143.696 49.7386C145.23 49.7386 146.438 50.0653 147.318 50.7188C148.205 51.3722 148.753 52.2557 148.963 53.3693Z" fill="white"/>
<path d="M24.108 91.2898H21.983C21.9223 90.9413 21.8106 90.6326 21.6477 90.3636C21.4848 90.0909 21.2822 89.8598 21.0398 89.6705C20.7973 89.4811 20.5208 89.339 20.2102 89.2443C19.9034 89.1458 19.572 89.0966 19.2159 89.0966C18.5833 89.0966 18.0227 89.2557 17.5341 89.5739C17.0455 89.8883 16.6629 90.3504 16.3864 90.9602C16.1098 91.5663 15.9716 92.3068 15.9716 93.1818C15.9716 94.072 16.1098 94.822 16.3864 95.4318C16.6667 96.0379 17.0492 96.4962 17.5341 96.8068C18.0227 97.1136 18.5814 97.267 19.2102 97.267C19.5587 97.267 19.8845 97.2216 20.1875 97.1307C20.4943 97.036 20.7689 96.8977 21.0114 96.7159C21.2576 96.5341 21.464 96.3106 21.6307 96.0455C21.8011 95.7803 21.9186 95.4773 21.983 95.1364L24.108 95.1477C24.0284 95.7008 23.8561 96.2197 23.5909 96.7045C23.3295 97.1894 22.9867 97.6174 22.5625 97.9886C22.1383 98.3561 21.642 98.6439 21.0739 98.8523C20.5057 99.0568 19.875 99.1591 19.1818 99.1591C18.1591 99.1591 17.2462 98.9223 16.4432 98.4489C15.6402 97.9754 15.0076 97.2917 14.5455 96.3977C14.0833 95.5038 13.8523 94.4318 13.8523 93.1818C13.8523 91.928 14.0852 90.8561 14.5511 89.9659C15.017 89.072 15.6515 88.3883 16.4545 87.9148C17.2576 87.4413 18.1667 87.2045 19.1818 87.2045C19.8295 87.2045 20.4318 87.2955 20.9886 87.4773C21.5455 87.6591 22.0417 87.9261 22.4773 88.2784C22.9129 88.6269 23.2708 89.0549 23.5511 89.5625C23.8352 90.0663 24.0208 90.642 24.108 91.2898ZM28.0043 93.8864V99H25.9474V87.3636H27.9588V91.7557H28.0611C28.2656 91.2633 28.5819 90.875 29.0099 90.5909C29.4418 90.303 29.991 90.1591 30.6577 90.1591C31.2637 90.1591 31.7921 90.286 32.2429 90.5398C32.6937 90.7936 33.0421 91.1648 33.2884 91.6534C33.5384 92.142 33.6634 92.7386 33.6634 93.4432V99H31.6065V93.7614C31.6065 93.1742 31.455 92.7178 31.152 92.392C30.8527 92.0625 30.4323 91.8977 29.8906 91.8977C29.527 91.8977 29.2012 91.9773 28.9134 92.1364C28.6293 92.2917 28.4058 92.517 28.2429 92.8125C28.0838 93.108 28.0043 93.4659 28.0043 93.8864ZM38.2713 99.1761C37.7183 99.1761 37.2202 99.0777 36.777 98.8807C36.3376 98.6799 35.9891 98.3845 35.7315 97.9943C35.4777 97.6042 35.3509 97.1231 35.3509 96.5511C35.3509 96.0587 35.4418 95.6515 35.6236 95.3295C35.8054 95.0076 36.0535 94.75 36.3679 94.5568C36.6823 94.3636 37.0365 94.2178 37.4304 94.1193C37.8281 94.017 38.2391 93.9432 38.6634 93.8977C39.1747 93.8447 39.5895 93.7973 39.9077 93.7557C40.2259 93.7102 40.4569 93.642 40.6009 93.5511C40.7486 93.4564 40.8224 93.3106 40.8224 93.1136V93.0795C40.8224 92.6515 40.6955 92.3201 40.4418 92.0852C40.188 91.8504 39.8224 91.733 39.3452 91.733C38.8414 91.733 38.4418 91.8428 38.1463 92.0625C37.8546 92.2822 37.6577 92.5417 37.5554 92.8409L35.6349 92.5682C35.7865 92.0379 36.0365 91.5947 36.3849 91.2386C36.7334 90.8788 37.1596 90.6098 37.6634 90.4318C38.1671 90.25 38.724 90.1591 39.3338 90.1591C39.7543 90.1591 40.1728 90.2083 40.5895 90.3068C41.0062 90.4053 41.3868 90.5682 41.7315 90.7955C42.0762 91.0189 42.3527 91.3239 42.5611 91.7102C42.7732 92.0966 42.8793 92.5795 42.8793 93.1591V99H40.902V97.8011H40.8338C40.7088 98.0436 40.5327 98.2708 40.3054 98.483C40.0819 98.6913 39.7997 98.8598 39.4588 98.9886C39.1217 99.1136 38.7259 99.1761 38.2713 99.1761ZM38.8054 97.6648C39.2183 97.6648 39.5762 97.5833 39.8793 97.4205C40.1823 97.2538 40.4152 97.0341 40.5781 96.7614C40.7448 96.4886 40.8281 96.1913 40.8281 95.8693V94.8409C40.7637 94.8939 40.6539 94.9432 40.4986 94.9886C40.3471 95.0341 40.1766 95.0739 39.9872 95.108C39.7978 95.142 39.6103 95.1723 39.4247 95.1989C39.2391 95.2254 39.0781 95.2481 38.9418 95.267C38.6349 95.3087 38.3603 95.3769 38.1179 95.4716C37.8755 95.5663 37.6842 95.6989 37.544 95.8693C37.4039 96.036 37.3338 96.2519 37.3338 96.517C37.3338 96.8958 37.4721 97.1818 37.7486 97.375C38.0251 97.5682 38.3774 97.6648 38.8054 97.6648ZM44.9474 99V90.2727H46.9418V91.7273H47.0327C47.1918 91.2235 47.4645 90.8352 47.8509 90.5625C48.241 90.286 48.6861 90.1477 49.1861 90.1477C49.2997 90.1477 49.4266 90.1534 49.5668 90.1648C49.7107 90.1723 49.83 90.1856 49.9247 90.2045V92.0966C49.8376 92.0663 49.6993 92.0398 49.5099 92.017C49.3243 91.9905 49.1444 91.9773 48.9702 91.9773C48.5952 91.9773 48.258 92.0587 47.9588 92.2216C47.6634 92.3807 47.4304 92.6023 47.2599 92.8864C47.0895 93.1705 47.0043 93.4981 47.0043 93.8693V99H44.9474ZM56.1179 90.2727V91.8636H51.1009V90.2727H56.1179ZM52.3395 88.1818H54.3963V96.375C54.3963 96.6515 54.438 96.8636 54.5213 97.0114C54.6084 97.1553 54.7221 97.2538 54.8622 97.3068C55.0024 97.3598 55.1577 97.3864 55.3281 97.3864C55.4569 97.3864 55.5743 97.3769 55.6804 97.358C55.7902 97.339 55.8736 97.322 55.9304 97.3068L56.277 98.9148C56.1671 98.9527 56.0099 98.9943 55.8054 99.0398C55.6046 99.0852 55.3584 99.1117 55.0668 99.1193C54.5516 99.1345 54.0876 99.0568 53.6747 98.8864C53.2618 98.7121 52.9342 98.4432 52.6918 98.0795C52.4531 97.7159 52.3357 97.2614 52.3395 96.7159V88.1818ZM61.608 99.1705C60.733 99.1705 59.9773 98.9886 59.3409 98.625C58.7083 98.2576 58.2216 97.7386 57.8807 97.0682C57.5398 96.3939 57.3693 95.6004 57.3693 94.6875C57.3693 93.7898 57.5398 93.0019 57.8807 92.3239C58.2254 91.642 58.7064 91.1117 59.3239 90.733C59.9413 90.3504 60.6667 90.1591 61.5 90.1591C62.0379 90.1591 62.5455 90.2462 63.0227 90.4205C63.5038 90.5909 63.928 90.8561 64.2955 91.2159C64.6667 91.5758 64.9583 92.0341 65.1705 92.5909C65.3826 93.1439 65.4886 93.803 65.4886 94.5682V95.1989H58.3352V93.8125H63.517C63.5133 93.4186 63.428 93.0682 63.2614 92.7614C63.0947 92.4508 62.8617 92.2064 62.5625 92.0284C62.267 91.8504 61.9223 91.7614 61.5284 91.7614C61.108 91.7614 60.7386 91.8636 60.4205 92.0682C60.1023 92.2689 59.8542 92.5341 59.6761 92.8636C59.5019 93.1894 59.4129 93.5473 59.4091 93.9375V95.1477C59.4091 95.6553 59.5019 96.0909 59.6875 96.4545C59.8731 96.8144 60.1326 97.0909 60.4659 97.2841C60.7992 97.4735 61.1894 97.5682 61.6364 97.5682C61.9356 97.5682 62.2064 97.5265 62.4489 97.4432C62.6913 97.3561 62.9015 97.2292 63.0795 97.0625C63.2576 96.8958 63.392 96.6894 63.483 96.4432L65.4034 96.6591C65.2822 97.1667 65.0511 97.6098 64.7102 97.9886C64.3731 98.3636 63.9413 98.6553 63.4148 98.8636C62.8883 99.0682 62.286 99.1705 61.608 99.1705ZM67.2287 99V90.2727H69.223V91.7273H69.3139C69.473 91.2235 69.7457 90.8352 70.1321 90.5625C70.5223 90.286 70.9673 90.1477 71.4673 90.1477C71.581 90.1477 71.7079 90.1534 71.848 90.1648C71.992 90.1723 72.1113 90.1856 72.206 90.2045V92.0966C72.1188 92.0663 71.9806 92.0398 71.7912 92.017C71.6056 91.9905 71.4257 91.9773 71.2514 91.9773C70.8764 91.9773 70.5393 92.0587 70.2401 92.2216C69.9446 92.3807 69.7116 92.6023 69.5412 92.8864C69.3707 93.1705 69.2855 93.4981 69.2855 93.8693V99H67.2287ZM73.5724 99V90.2727H75.6293V99H73.5724ZM74.6065 89.0341C74.2808 89.0341 74.0005 88.9261 73.7656 88.7102C73.5308 88.4905 73.4134 88.2273 73.4134 87.9205C73.4134 87.6098 73.5308 87.3466 73.7656 87.1307C74.0005 86.911 74.2808 86.8011 74.6065 86.8011C74.9361 86.8011 75.2164 86.911 75.4474 87.1307C75.6823 87.3466 75.7997 87.6098 75.7997 87.9205C75.7997 88.2273 75.6823 88.4905 75.4474 88.7102C75.2164 88.9261 74.9361 89.0341 74.6065 89.0341ZM79.8011 93.8864V99H77.7443V90.2727H79.7102V91.7557H79.8125C80.0133 91.267 80.3333 90.8788 80.7727 90.5909C81.2159 90.303 81.7633 90.1591 82.4148 90.1591C83.017 90.1591 83.5417 90.2879 83.9886 90.5455C84.4394 90.803 84.7879 91.1761 85.0341 91.6648C85.2841 92.1534 85.4072 92.7462 85.4034 93.4432V99H83.3466V93.7614C83.3466 93.178 83.1951 92.7216 82.892 92.392C82.5928 92.0625 82.178 91.8977 81.6477 91.8977C81.2879 91.8977 80.9678 91.9773 80.6875 92.1364C80.411 92.2917 80.1932 92.517 80.0341 92.8125C79.8788 93.108 79.8011 93.4659 79.8011 93.8864ZM91.2898 102.455C90.5511 102.455 89.9167 102.354 89.3864 102.153C88.8561 101.956 88.4299 101.691 88.108 101.358C87.786 101.025 87.5625 100.655 87.4375 100.25L89.2898 99.8011C89.3731 99.9716 89.4943 100.14 89.6534 100.307C89.8125 100.477 90.0265 100.617 90.2955 100.727C90.5682 100.841 90.911 100.898 91.3239 100.898C91.9072 100.898 92.3902 100.756 92.7727 100.472C93.1553 100.191 93.3466 99.7292 93.3466 99.0852V97.4318H93.2443C93.1383 97.6439 92.983 97.8617 92.7784 98.0852C92.5777 98.3087 92.3106 98.4962 91.9773 98.6477C91.6477 98.7992 91.233 98.875 90.733 98.875C90.0625 98.875 89.4545 98.7178 88.9091 98.4034C88.3674 98.0852 87.9356 97.6117 87.6136 96.983C87.2955 96.3504 87.1364 95.5587 87.1364 94.608C87.1364 93.6496 87.2955 92.8409 87.6136 92.1818C87.9356 91.5189 88.3693 91.017 88.9148 90.6761C89.4602 90.3314 90.0682 90.1591 90.7386 90.1591C91.25 90.1591 91.6705 90.2462 92 90.4205C92.3333 90.5909 92.5985 90.7973 92.7955 91.0398C92.9924 91.2784 93.142 91.5038 93.2443 91.7159H93.358V90.2727H95.3864V99.142C95.3864 99.8883 95.2083 100.506 94.8523 100.994C94.4962 101.483 94.0095 101.848 93.392 102.091C92.7746 102.333 92.0739 102.455 91.2898 102.455ZM91.3068 97.2614C91.7424 97.2614 92.1136 97.1553 92.4205 96.9432C92.7273 96.7311 92.9602 96.4261 93.1193 96.0284C93.2784 95.6307 93.358 95.1534 93.358 94.5966C93.358 94.0473 93.2784 93.5663 93.1193 93.1534C92.964 92.7405 92.733 92.4205 92.4261 92.1932C92.1231 91.9621 91.75 91.8466 91.3068 91.8466C90.8485 91.8466 90.4659 91.9659 90.1591 92.2045C89.8523 92.4432 89.6212 92.7708 89.4659 93.1875C89.3106 93.6004 89.233 94.0701 89.233 94.5966C89.233 95.1307 89.3106 95.5985 89.4659 96C89.625 96.3977 89.858 96.7083 90.1648 96.9318C90.4754 97.1515 90.8561 97.2614 91.3068 97.2614ZM101.554 99V87.3636H109.122V89.1307H103.662V92.2898H108.73V94.0568H103.662V97.233H109.168V99H101.554ZM112.864 90.2727L114.625 93.4943L116.415 90.2727H118.591L115.96 94.6364L118.636 99H116.472L114.625 95.858L112.795 99H110.614L113.273 94.6364L110.682 90.2727H112.864ZM120.182 102.273V90.2727H122.205V91.7159H122.324C122.43 91.5038 122.58 91.2784 122.773 91.0398C122.966 90.7973 123.227 90.5909 123.557 90.4205C123.886 90.2462 124.307 90.1591 124.818 90.1591C125.492 90.1591 126.1 90.3314 126.642 90.6761C127.188 91.017 127.619 91.5227 127.938 92.1932C128.259 92.8598 128.42 93.678 128.42 94.6477C128.42 95.6061 128.263 96.4205 127.949 97.0909C127.634 97.7614 127.206 98.2727 126.665 98.625C126.123 98.9773 125.509 99.1534 124.824 99.1534C124.324 99.1534 123.909 99.0701 123.58 98.9034C123.25 98.7367 122.985 98.536 122.784 98.3011C122.587 98.0625 122.434 97.8371 122.324 97.625H122.239V102.273H120.182ZM122.199 94.6364C122.199 95.2008 122.278 95.6951 122.438 96.1193C122.6 96.5436 122.833 96.875 123.136 97.1136C123.443 97.3485 123.814 97.4659 124.25 97.4659C124.705 97.4659 125.085 97.3447 125.392 97.1023C125.699 96.8561 125.93 96.5208 126.085 96.0966C126.244 95.6686 126.324 95.1818 126.324 94.6364C126.324 94.0947 126.246 93.6136 126.091 93.1932C125.936 92.7727 125.705 92.4432 125.398 92.2045C125.091 91.9659 124.708 91.8466 124.25 91.8466C123.811 91.8466 123.438 91.9621 123.131 92.1932C122.824 92.4242 122.591 92.7481 122.432 93.1648C122.277 93.5814 122.199 94.072 122.199 94.6364ZM134.045 99.1705C133.17 99.1705 132.415 98.9886 131.778 98.625C131.146 98.2576 130.659 97.7386 130.318 97.0682C129.977 96.3939 129.807 95.6004 129.807 94.6875C129.807 93.7898 129.977 93.0019 130.318 92.3239C130.663 91.642 131.144 91.1117 131.761 90.733C132.379 90.3504 133.104 90.1591 133.938 90.1591C134.475 90.1591 134.983 90.2462 135.46 90.4205C135.941 90.5909 136.366 90.8561 136.733 91.2159C137.104 91.5758 137.396 92.0341 137.608 92.5909C137.82 93.1439 137.926 93.803 137.926 94.5682V95.1989H130.773V93.8125H135.955C135.951 93.4186 135.866 93.0682 135.699 92.7614C135.532 92.4508 135.299 92.2064 135 92.0284C134.705 91.8504 134.36 91.7614 133.966 91.7614C133.545 91.7614 133.176 91.8636 132.858 92.0682C132.54 92.2689 132.292 92.5341 132.114 92.8636C131.939 93.1894 131.85 93.5473 131.847 93.9375V95.1477C131.847 95.6553 131.939 96.0909 132.125 96.4545C132.311 96.8144 132.57 97.0909 132.903 97.2841C133.237 97.4735 133.627 97.5682 134.074 97.5682C134.373 97.5682 134.644 97.5265 134.886 97.4432C135.129 97.3561 135.339 97.2292 135.517 97.0625C135.695 96.8958 135.83 96.6894 135.92 96.4432L137.841 96.6591C137.72 97.1667 137.489 97.6098 137.148 97.9886C136.811 98.3636 136.379 98.6553 135.852 98.8636C135.326 99.0682 134.723 99.1705 134.045 99.1705ZM139.666 99V90.2727H141.661V91.7273H141.751C141.911 91.2235 142.183 90.8352 142.57 90.5625C142.96 90.286 143.405 90.1477 143.905 90.1477C144.018 90.1477 144.145 90.1534 144.286 90.1648C144.429 90.1723 144.549 90.1856 144.643 90.2045V92.0966C144.556 92.0663 144.418 92.0398 144.229 92.017C144.043 91.9905 143.863 91.9773 143.689 91.9773C143.314 91.9773 142.977 92.0587 142.678 92.2216C142.382 92.3807 142.149 92.6023 141.979 92.8864C141.808 93.1705 141.723 93.4981 141.723 93.8693V99H139.666ZM146.01 99V90.2727H148.067V99H146.01ZM147.044 89.0341C146.718 89.0341 146.438 88.9261 146.203 88.7102C145.968 88.4905 145.851 88.2273 145.851 87.9205C145.851 87.6098 145.968 87.3466 146.203 87.1307C146.438 86.911 146.718 86.8011 147.044 86.8011C147.374 86.8011 147.654 86.911 147.885 87.1307C148.12 87.3466 148.237 87.6098 148.237 87.9205C148.237 88.2273 148.12 88.4905 147.885 88.7102C147.654 88.9261 147.374 89.0341 147.044 89.0341ZM154.045 99.1705C153.17 99.1705 152.415 98.9886 151.778 98.625C151.146 98.2576 150.659 97.7386 150.318 97.0682C149.977 96.3939 149.807 95.6004 149.807 94.6875C149.807 93.7898 149.977 93.0019 150.318 92.3239C150.663 91.642 151.144 91.1117 151.761 90.733C152.379 90.3504 153.104 90.1591 153.938 90.1591C154.475 90.1591 154.983 90.2462 155.46 90.4205C155.941 90.5909 156.366 90.8561 156.733 91.2159C157.104 91.5758 157.396 92.0341 157.608 92.5909C157.82 93.1439 157.926 93.803 157.926 94.5682V95.1989H150.773V93.8125H155.955C155.951 93.4186 155.866 93.0682 155.699 92.7614C155.532 92.4508 155.299 92.2064 155 92.0284C154.705 91.8504 154.36 91.7614 153.966 91.7614C153.545 91.7614 153.176 91.8636 152.858 92.0682C152.54 92.2689 152.292 92.5341 152.114 92.8636C151.939 93.1894 151.85 93.5473 151.847 93.9375V95.1477C151.847 95.6553 151.939 96.0909 152.125 96.4545C152.311 96.8144 152.57 97.0909 152.903 97.2841C153.237 97.4735 153.627 97.5682 154.074 97.5682C154.373 97.5682 154.644 97.5265 154.886 97.4432C155.129 97.3561 155.339 97.2292 155.517 97.0625C155.695 96.8958 155.83 96.6894 155.92 96.4432L157.841 96.6591C157.72 97.1667 157.489 97.6098 157.148 97.9886C156.811 98.3636 156.379 98.6553 155.852 98.8636C155.326 99.0682 154.723 99.1705 154.045 99.1705ZM161.723 93.8864V99H159.666V90.2727H161.632V91.7557H161.734C161.935 91.267 162.255 90.8788 162.695 90.5909C163.138 90.303 163.685 90.1591 164.337 90.1591C164.939 90.1591 165.464 90.2879 165.911 90.5455C166.361 90.803 166.71 91.1761 166.956 91.6648C167.206 92.1534 167.329 92.7462 167.325 93.4432V99H165.268V93.7614C165.268 93.178 165.117 92.7216 164.814 92.392C164.515 92.0625 164.1 91.8977 163.57 91.8977C163.21 91.8977 162.89 91.9773 162.609 92.1364C162.333 92.2917 162.115 92.517 161.956 92.8125C161.801 93.108 161.723 93.4659 161.723 93.8864ZM173.223 99.1705C172.352 99.1705 171.604 98.9792 170.979 98.5966C170.357 98.214 169.878 97.6856 169.541 97.0114C169.208 96.3333 169.041 95.553 169.041 94.6705C169.041 93.7841 169.212 93.0019 169.553 92.3239C169.893 91.642 170.375 91.1117 170.996 90.733C171.621 90.3504 172.359 90.1591 173.212 90.1591C173.92 90.1591 174.547 90.2898 175.092 90.5511C175.642 90.8087 176.079 91.1742 176.405 91.6477C176.731 92.1174 176.916 92.6667 176.962 93.2955H174.996C174.916 92.875 174.727 92.5246 174.428 92.2443C174.132 91.9602 173.736 91.8182 173.24 91.8182C172.82 91.8182 172.45 91.9318 172.132 92.1591C171.814 92.3826 171.566 92.7045 171.388 93.125C171.214 93.5455 171.126 94.0492 171.126 94.6364C171.126 95.2311 171.214 95.7424 171.388 96.1705C171.562 96.5947 171.806 96.9223 172.121 97.1534C172.439 97.3807 172.812 97.4943 173.24 97.4943C173.543 97.4943 173.814 97.4375 174.053 97.3239C174.295 97.2064 174.498 97.0379 174.661 96.8182C174.823 96.5985 174.935 96.3314 174.996 96.017H176.962C176.912 96.6345 176.731 97.1818 176.416 97.6591C176.102 98.1326 175.674 98.5038 175.132 98.7727C174.59 99.0379 173.954 99.1705 173.223 99.1705ZM182.514 99.1705C181.639 99.1705 180.884 98.9886 180.247 98.625C179.615 98.2576 179.128 97.7386 178.787 97.0682C178.446 96.3939 178.276 95.6004 178.276 94.6875C178.276 93.7898 178.446 93.0019 178.787 92.3239C179.132 91.642 179.613 91.1117 180.23 90.733C180.848 90.3504 181.573 90.1591 182.406 90.1591C182.944 90.1591 183.452 90.2462 183.929 90.4205C184.41 90.5909 184.834 90.8561 185.202 91.2159C185.573 91.5758 185.865 92.0341 186.077 92.5909C186.289 93.1439 186.395 93.803 186.395 94.5682V95.1989H179.241V93.8125H184.423C184.42 93.4186 184.334 93.0682 184.168 92.7614C184.001 92.4508 183.768 92.2064 183.469 92.0284C183.173 91.8504 182.829 91.7614 182.435 91.7614C182.014 91.7614 181.645 91.8636 181.327 92.0682C181.009 92.2689 180.76 92.5341 180.582 92.8636C180.408 93.1894 180.319 93.5473 180.315 93.9375V95.1477C180.315 95.6553 180.408 96.0909 180.594 96.4545C180.779 96.8144 181.039 97.0909 181.372 97.2841C181.705 97.4735 182.096 97.5682 182.543 97.5682C182.842 97.5682 183.113 97.5265 183.355 97.4432C183.598 97.3561 183.808 97.2292 183.986 97.0625C184.164 96.8958 184.298 96.6894 184.389 96.4432L186.31 96.6591C186.188 97.1667 185.957 97.6098 185.616 97.9886C185.279 98.3636 184.848 98.6553 184.321 98.8636C183.795 99.0682 183.192 99.1705 182.514 99.1705Z" fill="white"/>
<path d="M0 150C0 141.716 6.71573 135 15 135H212C220.284 135 227 141.716 227 150V231C227 239.284 220.284 246 212 246H15C6.71573 246 0 239.284 0 231V150Z" fill="#24262B"/>
<path d="M17.3807 196L32.2273 166.614V166.375H14.9943V161.091H38.7727V166.494L23.9432 196H17.3807Z" fill="white"/>
<path d="M14.1477 227V215.364H21.6023V217.131H16.2557V220.29H21.0909V222.057H16.2557V227H14.1477ZM25.4886 215.364V227H23.4318V215.364H25.4886ZM31.4673 227.17C30.5923 227.17 29.8366 226.989 29.2003 226.625C28.5677 226.258 28.081 225.739 27.7401 225.068C27.3991 224.394 27.2287 223.6 27.2287 222.688C27.2287 221.79 27.3991 221.002 27.7401 220.324C28.0848 219.642 28.5658 219.112 29.1832 218.733C29.8007 218.35 30.526 218.159 31.3594 218.159C31.8973 218.159 32.4048 218.246 32.8821 218.42C33.3632 218.591 33.7874 218.856 34.1548 219.216C34.526 219.576 34.8177 220.034 35.0298 220.591C35.242 221.144 35.348 221.803 35.348 222.568V223.199H28.1946V221.812H33.3764C33.3726 221.419 33.2874 221.068 33.1207 220.761C32.9541 220.451 32.7211 220.206 32.4219 220.028C32.1264 219.85 31.7817 219.761 31.3878 219.761C30.9673 219.761 30.598 219.864 30.2798 220.068C29.9616 220.269 29.7135 220.534 29.5355 220.864C29.3613 221.189 29.2723 221.547 29.2685 221.938V223.148C29.2685 223.655 29.3613 224.091 29.5469 224.455C29.7325 224.814 29.992 225.091 30.3253 225.284C30.6586 225.473 31.0488 225.568 31.4957 225.568C31.795 225.568 32.0658 225.527 32.3082 225.443C32.5507 225.356 32.7609 225.229 32.9389 225.062C33.117 224.896 33.2514 224.689 33.3423 224.443L35.2628 224.659C35.1416 225.167 34.9105 225.61 34.5696 225.989C34.2325 226.364 33.8007 226.655 33.2741 226.864C32.7476 227.068 32.1454 227.17 31.4673 227.17ZM40.9517 227.17C40.0767 227.17 39.321 226.989 38.6847 226.625C38.0521 226.258 37.5653 225.739 37.2244 225.068C36.8835 224.394 36.7131 223.6 36.7131 222.688C36.7131 221.79 36.8835 221.002 37.2244 220.324C37.5691 219.642 38.0502 219.112 38.6676 218.733C39.285 218.35 40.0104 218.159 40.8438 218.159C41.3816 218.159 41.8892 218.246 42.3665 218.42C42.8475 218.591 43.2718 218.856 43.6392 219.216C44.0104 219.576 44.3021 220.034 44.5142 220.591C44.7263 221.144 44.8324 221.803 44.8324 222.568V223.199H37.679V221.812H42.8608C42.857 221.419 42.7718 221.068 42.6051 220.761C42.4384 220.451 42.2055 220.206 41.9062 220.028C41.6108 219.85 41.2661 219.761 40.8722 219.761C40.4517 219.761 40.0824 219.864 39.7642 220.068C39.446 220.269 39.1979 220.534 39.0199 220.864C38.8456 221.189 38.7566 221.547 38.7528 221.938V223.148C38.7528 223.655 38.8456 224.091 39.0312 224.455C39.2169 224.814 39.4763 225.091 39.8097 225.284C40.143 225.473 40.5331 225.568 40.9801 225.568C41.2794 225.568 41.5502 225.527 41.7926 225.443C42.035 225.356 42.2453 225.229 42.4233 225.062C42.6013 224.896 42.7358 224.689 42.8267 224.443L44.7472 224.659C44.6259 225.167 44.3949 225.61 44.054 225.989C43.7169 226.364 43.285 226.655 42.7585 226.864C42.232 227.068 41.6297 227.17 40.9517 227.17ZM50.9304 218.273V219.864H45.9134V218.273H50.9304ZM47.152 216.182H49.2088V224.375C49.2088 224.652 49.2505 224.864 49.3338 225.011C49.4209 225.155 49.5346 225.254 49.6747 225.307C49.8149 225.36 49.9702 225.386 50.1406 225.386C50.2694 225.386 50.3868 225.377 50.4929 225.358C50.6027 225.339 50.6861 225.322 50.7429 225.307L51.0895 226.915C50.9796 226.953 50.8224 226.994 50.6179 227.04C50.4171 227.085 50.1709 227.112 49.8793 227.119C49.3641 227.134 48.9001 227.057 48.4872 226.886C48.0743 226.712 47.7467 226.443 47.5043 226.08C47.2656 225.716 47.1482 225.261 47.152 224.716V216.182ZM59.4233 220.58L57.5483 220.784C57.4953 220.595 57.4025 220.417 57.2699 220.25C57.1411 220.083 56.9669 219.949 56.7472 219.847C56.5275 219.744 56.2585 219.693 55.9403 219.693C55.5123 219.693 55.1525 219.786 54.8608 219.972C54.5729 220.157 54.4309 220.398 54.4347 220.693C54.4309 220.947 54.5237 221.153 54.7131 221.312C54.9063 221.472 55.2244 221.602 55.6676 221.705L57.1562 222.023C57.982 222.201 58.5956 222.483 58.9972 222.869C59.4025 223.256 59.607 223.761 59.6108 224.386C59.607 224.936 59.446 225.42 59.1278 225.841C58.8134 226.258 58.3759 226.583 57.8153 226.818C57.2547 227.053 56.6108 227.17 55.8835 227.17C54.8153 227.17 53.9555 226.947 53.304 226.5C52.6525 226.049 52.2642 225.422 52.1392 224.619L54.1449 224.426C54.2358 224.82 54.429 225.117 54.7244 225.318C55.0199 225.519 55.4044 225.619 55.8778 225.619C56.3665 225.619 56.7585 225.519 57.054 225.318C57.3532 225.117 57.5028 224.869 57.5028 224.574C57.5028 224.324 57.4063 224.117 57.2131 223.955C57.0237 223.792 56.7282 223.667 56.3267 223.58L54.8381 223.267C54.0009 223.093 53.3816 222.799 52.9801 222.386C52.5786 221.97 52.3797 221.443 52.3835 220.807C52.3797 220.269 52.5256 219.803 52.821 219.409C53.1203 219.011 53.535 218.705 54.0653 218.489C54.5994 218.269 55.215 218.159 55.9119 218.159C56.9347 218.159 57.7396 218.377 58.3267 218.812C58.9176 219.248 59.2831 219.837 59.4233 220.58ZM75.7642 221.182C75.7642 222.436 75.5294 223.509 75.0597 224.403C74.5938 225.294 73.9574 225.975 73.1506 226.449C72.3475 226.922 71.4366 227.159 70.4176 227.159C69.3987 227.159 68.4858 226.922 67.679 226.449C66.8759 225.972 66.2396 225.288 65.7699 224.398C65.304 223.504 65.071 222.432 65.071 221.182C65.071 219.928 65.304 218.856 65.7699 217.966C66.2396 217.072 66.8759 216.388 67.679 215.915C68.4858 215.441 69.3987 215.205 70.4176 215.205C71.4366 215.205 72.3475 215.441 73.1506 215.915C73.9574 216.388 74.5938 217.072 75.0597 217.966C75.5294 218.856 75.7642 219.928 75.7642 221.182ZM73.6449 221.182C73.6449 220.299 73.5066 219.555 73.2301 218.949C72.9574 218.339 72.5786 217.879 72.0938 217.568C71.6089 217.254 71.0502 217.097 70.4176 217.097C69.785 217.097 69.2263 217.254 68.7415 217.568C68.2566 217.879 67.8759 218.339 67.5994 218.949C67.3267 219.555 67.1903 220.299 67.1903 221.182C67.1903 222.064 67.3267 222.811 67.5994 223.42C67.8759 224.027 68.2566 224.487 68.7415 224.801C69.2263 225.112 69.785 225.267 70.4176 225.267C71.0502 225.267 71.6089 225.112 72.0938 224.801C72.5786 224.487 72.9574 224.027 73.2301 223.42C73.5066 222.811 73.6449 222.064 73.6449 221.182ZM79.4673 227L77.0014 218.273H79.098L80.6321 224.409H80.7116L82.2798 218.273H84.3537L85.9219 224.375H86.0071L87.5185 218.273H89.6207L87.1491 227H85.0071L83.3707 221.102H83.2514L81.6151 227H79.4673ZM93.1136 221.886V227H91.0568V218.273H93.0227V219.756H93.125C93.3258 219.267 93.6458 218.879 94.0852 218.591C94.5284 218.303 95.0758 218.159 95.7273 218.159C96.3295 218.159 96.8542 218.288 97.3011 218.545C97.7519 218.803 98.1004 219.176 98.3466 219.665C98.5966 220.153 98.7197 220.746 98.7159 221.443V227H96.6591V221.761C96.6591 221.178 96.5076 220.722 96.2045 220.392C95.9053 220.062 95.4905 219.898 94.9602 219.898C94.6004 219.898 94.2803 219.977 94 220.136C93.7235 220.292 93.5057 220.517 93.3466 220.812C93.1913 221.108 93.1136 221.466 93.1136 221.886ZM104.67 227.17C103.795 227.17 103.04 226.989 102.403 226.625C101.771 226.258 101.284 225.739 100.943 225.068C100.602 224.394 100.432 223.6 100.432 222.688C100.432 221.79 100.602 221.002 100.943 220.324C101.288 219.642 101.769 219.112 102.386 218.733C103.004 218.35 103.729 218.159 104.562 218.159C105.1 218.159 105.608 218.246 106.085 218.42C106.566 218.591 106.991 218.856 107.358 219.216C107.729 219.576 108.021 220.034 108.233 220.591C108.445 221.144 108.551 221.803 108.551 222.568V223.199H101.398V221.812H106.58C106.576 221.419 106.491 221.068 106.324 220.761C106.157 220.451 105.924 220.206 105.625 220.028C105.33 219.85 104.985 219.761 104.591 219.761C104.17 219.761 103.801 219.864 103.483 220.068C103.165 220.269 102.917 220.534 102.739 220.864C102.564 221.189 102.475 221.547 102.472 221.938V223.148C102.472 223.655 102.564 224.091 102.75 224.455C102.936 224.814 103.195 225.091 103.528 225.284C103.862 225.473 104.252 225.568 104.699 225.568C104.998 225.568 105.269 225.527 105.511 225.443C105.754 225.356 105.964 225.229 106.142 225.062C106.32 224.896 106.455 224.689 106.545 224.443L108.466 224.659C108.345 225.167 108.114 225.61 107.773 225.989C107.436 226.364 107.004 226.655 106.477 226.864C105.951 227.068 105.348 227.17 104.67 227.17ZM113.53 227.153C112.844 227.153 112.231 226.977 111.689 226.625C111.147 226.273 110.719 225.761 110.405 225.091C110.09 224.42 109.933 223.606 109.933 222.648C109.933 221.678 110.092 220.86 110.411 220.193C110.732 219.523 111.166 219.017 111.712 218.676C112.257 218.331 112.865 218.159 113.536 218.159C114.047 218.159 114.467 218.246 114.797 218.42C115.126 218.591 115.388 218.797 115.581 219.04C115.774 219.278 115.924 219.504 116.03 219.716H116.115V215.364H118.178V227H116.155V225.625H116.03C115.924 225.837 115.77 226.062 115.57 226.301C115.369 226.536 115.104 226.737 114.774 226.903C114.445 227.07 114.03 227.153 113.53 227.153ZM114.104 225.466C114.539 225.466 114.911 225.348 115.217 225.114C115.524 224.875 115.757 224.544 115.916 224.119C116.075 223.695 116.155 223.201 116.155 222.636C116.155 222.072 116.075 221.581 115.916 221.165C115.761 220.748 115.53 220.424 115.223 220.193C114.92 219.962 114.547 219.847 114.104 219.847C113.645 219.847 113.263 219.966 112.956 220.205C112.649 220.443 112.418 220.773 112.263 221.193C112.107 221.614 112.03 222.095 112.03 222.636C112.03 223.182 112.107 223.669 112.263 224.097C112.422 224.521 112.655 224.856 112.962 225.102C113.272 225.345 113.653 225.466 114.104 225.466Z" fill="white"/>
<path d="M261 18C261 9.71573 267.716 3 276 3H473C481.284 3 488 9.71573 488 18V99C488 107.284 481.284 114 473 114H276C267.716 114 261 107.284 261 99V18Z" fill="#24262B"/>
<path d="M283.091 99H279.148V87.3636H283.17C284.326 87.3636 285.318 87.5966 286.148 88.0625C286.981 88.5246 287.621 89.1894 288.068 90.0568C288.515 90.9242 288.739 91.9621 288.739 93.1705C288.739 94.3826 288.513 95.4242 288.062 96.2955C287.616 97.1667 286.97 97.8352 286.125 98.3011C285.284 98.767 284.273 99 283.091 99ZM281.256 97.1761H282.989C283.799 97.1761 284.475 97.0284 285.017 96.733C285.559 96.4337 285.966 95.9886 286.239 95.3977C286.511 94.803 286.648 94.0606 286.648 93.1705C286.648 92.2803 286.511 91.5417 286.239 90.9545C285.966 90.3636 285.563 89.9223 285.028 89.6307C284.498 89.3352 283.839 89.1875 283.051 89.1875H281.256V97.1761ZM290.651 99V90.2727H292.707V99H290.651ZM291.685 89.0341C291.359 89.0341 291.079 88.9261 290.844 88.7102C290.609 88.4905 290.491 88.2273 290.491 87.9205C290.491 87.6098 290.609 87.3466 290.844 87.1307C291.079 86.911 291.359 86.8011 291.685 86.8011C292.014 86.8011 292.295 86.911 292.526 87.1307C292.76 87.3466 292.878 87.6098 292.878 87.9205C292.878 88.2273 292.76 88.4905 292.526 88.7102C292.295 88.9261 292.014 89.0341 291.685 89.0341ZM299.243 90.2727V91.8636H294.084V90.2727H299.243ZM295.374 99V89.4489C295.374 88.8617 295.495 88.3731 295.737 87.983C295.983 87.5928 296.313 87.3011 296.726 87.108C297.139 86.9148 297.597 86.8182 298.101 86.8182C298.457 86.8182 298.773 86.8466 299.05 86.9034C299.326 86.9602 299.531 87.0114 299.663 87.0568L299.254 88.6477C299.167 88.6212 299.057 88.5947 298.925 88.5682C298.792 88.5379 298.644 88.5227 298.482 88.5227C298.099 88.5227 297.828 88.6155 297.669 88.8011C297.514 88.983 297.436 89.2443 297.436 89.5852V99H295.374ZM305.274 90.2727V91.8636H300.115V90.2727H305.274ZM301.405 99V89.4489C301.405 88.8617 301.526 88.3731 301.768 87.983C302.015 87.5928 302.344 87.3011 302.757 87.108C303.17 86.9148 303.628 86.8182 304.132 86.8182C304.488 86.8182 304.804 86.8466 305.081 86.9034C305.357 86.9602 305.562 87.0114 305.695 87.0568L305.286 88.6477C305.198 88.6212 305.089 88.5947 304.956 88.5682C304.823 88.5379 304.676 88.5227 304.513 88.5227C304.13 88.5227 303.859 88.6155 303.7 88.8011C303.545 88.983 303.467 89.2443 303.467 89.5852V99H301.405ZM310.42 99.1705C309.545 99.1705 308.79 98.9886 308.153 98.625C307.521 98.2576 307.034 97.7386 306.693 97.0682C306.352 96.3939 306.182 95.6004 306.182 94.6875C306.182 93.7898 306.352 93.0019 306.693 92.3239C307.038 91.642 307.519 91.1117 308.136 90.733C308.754 90.3504 309.479 90.1591 310.312 90.1591C310.85 90.1591 311.358 90.2462 311.835 90.4205C312.316 90.5909 312.741 90.8561 313.108 91.2159C313.479 91.5758 313.771 92.0341 313.983 92.5909C314.195 93.1439 314.301 93.803 314.301 94.5682V95.1989H307.148V93.8125H312.33C312.326 93.4186 312.241 93.0682 312.074 92.7614C311.907 92.4508 311.674 92.2064 311.375 92.0284C311.08 91.8504 310.735 91.7614 310.341 91.7614C309.92 91.7614 309.551 91.8636 309.233 92.0682C308.915 92.2689 308.667 92.5341 308.489 92.8636C308.314 93.1894 308.225 93.5473 308.222 93.9375V95.1477C308.222 95.6553 308.314 96.0909 308.5 96.4545C308.686 96.8144 308.945 97.0909 309.278 97.2841C309.612 97.4735 310.002 97.5682 310.449 97.5682C310.748 97.5682 311.019 97.5265 311.261 97.4432C311.504 97.3561 311.714 97.2292 311.892 97.0625C312.07 96.8958 312.205 96.6894 312.295 96.4432L314.216 96.6591C314.095 97.1667 313.864 97.6098 313.523 97.9886C313.186 98.3636 312.754 98.6553 312.227 98.8636C311.701 99.0682 311.098 99.1705 310.42 99.1705ZM316.041 99V90.2727H318.036V91.7273H318.126C318.286 91.2235 318.558 90.8352 318.945 90.5625C319.335 90.286 319.78 90.1477 320.28 90.1477C320.393 90.1477 320.52 90.1534 320.661 90.1648C320.804 90.1723 320.924 90.1856 321.018 90.2045V92.0966C320.931 92.0663 320.793 92.0398 320.604 92.017C320.418 91.9905 320.238 91.9773 320.064 91.9773C319.689 91.9773 319.352 92.0587 319.053 92.2216C318.757 92.3807 318.524 92.6023 318.354 92.8864C318.183 93.1705 318.098 93.4981 318.098 93.8693V99H316.041ZM325.889 99.1705C325.014 99.1705 324.259 98.9886 323.622 98.625C322.99 98.2576 322.503 97.7386 322.162 97.0682C321.821 96.3939 321.651 95.6004 321.651 94.6875C321.651 93.7898 321.821 93.0019 322.162 92.3239C322.507 91.642 322.988 91.1117 323.605 90.733C324.223 90.3504 324.948 90.1591 325.781 90.1591C326.319 90.1591 326.827 90.2462 327.304 90.4205C327.785 90.5909 328.209 90.8561 328.577 91.2159C328.948 91.5758 329.24 92.0341 329.452 92.5909C329.664 93.1439 329.77 93.803 329.77 94.5682V95.1989H322.616V93.8125H327.798C327.795 93.4186 327.709 93.0682 327.543 92.7614C327.376 92.4508 327.143 92.2064 326.844 92.0284C326.548 91.8504 326.204 91.7614 325.81 91.7614C325.389 91.7614 325.02 91.8636 324.702 92.0682C324.384 92.2689 324.135 92.5341 323.957 92.8636C323.783 93.1894 323.694 93.5473 323.69 93.9375V95.1477C323.69 95.6553 323.783 96.0909 323.969 96.4545C324.154 96.8144 324.414 97.0909 324.747 97.2841C325.08 97.4735 325.471 97.5682 325.918 97.5682C326.217 97.5682 326.488 97.5265 326.73 97.4432C326.973 97.3561 327.183 97.2292 327.361 97.0625C327.539 96.8958 327.673 96.6894 327.764 96.4432L329.685 96.6591C329.563 97.1667 329.332 97.6098 328.991 97.9886C328.654 98.3636 328.223 98.6553 327.696 98.8636C327.17 99.0682 326.567 99.1705 325.889 99.1705ZM333.567 93.8864V99H331.51V90.2727H333.476V91.7557H333.578C333.779 91.267 334.099 90.8788 334.538 90.5909C334.982 90.303 335.529 90.1591 336.18 90.1591C336.783 90.1591 337.307 90.2879 337.754 90.5455C338.205 90.803 338.554 91.1761 338.8 91.6648C339.05 92.1534 339.173 92.7462 339.169 93.4432V99H337.112V93.7614C337.112 93.178 336.961 92.7216 336.658 92.392C336.358 92.0625 335.944 91.8977 335.413 91.8977C335.054 91.8977 334.733 91.9773 334.453 92.1364C334.177 92.2917 333.959 92.517 333.8 92.8125C333.644 93.108 333.567 93.4659 333.567 93.8864ZM345.618 90.2727V91.8636H340.601V90.2727H345.618ZM341.839 88.1818H343.896V96.375C343.896 96.6515 343.938 96.8636 344.021 97.0114C344.108 97.1553 344.222 97.2538 344.362 97.3068C344.502 97.3598 344.658 97.3864 344.828 97.3864C344.957 97.3864 345.074 97.3769 345.18 97.358C345.29 97.339 345.374 97.322 345.43 97.3068L345.777 98.9148C345.667 98.9527 345.51 98.9943 345.305 99.0398C345.105 99.0852 344.858 99.1117 344.567 99.1193C344.052 99.1345 343.588 99.0568 343.175 98.8864C342.762 98.7121 342.434 98.4432 342.192 98.0795C341.953 97.7159 341.836 97.2614 341.839 96.7159V88.1818ZM365.327 91.2898H363.202C363.141 90.9413 363.029 90.6326 362.866 90.3636C362.704 90.0909 362.501 89.8598 362.259 89.6705C362.016 89.4811 361.74 89.339 361.429 89.2443C361.122 89.1458 360.791 89.0966 360.435 89.0966C359.802 89.0966 359.241 89.2557 358.753 89.5739C358.264 89.8883 357.882 90.3504 357.605 90.9602C357.329 91.5663 357.19 92.3068 357.19 93.1818C357.19 94.072 357.329 94.822 357.605 95.4318C357.885 96.0379 358.268 96.4962 358.753 96.8068C359.241 97.1136 359.8 97.267 360.429 97.267C360.777 97.267 361.103 97.2216 361.406 97.1307C361.713 97.036 361.988 96.8977 362.23 96.7159C362.476 96.5341 362.683 96.3106 362.849 96.0455C363.02 95.7803 363.137 95.4773 363.202 95.1364L365.327 95.1477C365.247 95.7008 365.075 96.2197 364.81 96.7045C364.548 97.1894 364.205 97.6174 363.781 97.9886C363.357 98.3561 362.861 98.6439 362.293 98.8523C361.724 99.0568 361.094 99.1591 360.401 99.1591C359.378 99.1591 358.465 98.9223 357.662 98.4489C356.859 97.9754 356.226 97.2917 355.764 96.3977C355.302 95.5038 355.071 94.4318 355.071 93.1818C355.071 91.928 355.304 90.8561 355.77 89.9659C356.236 89.072 356.87 88.3883 357.673 87.9148C358.476 87.4413 359.385 87.2045 360.401 87.2045C361.048 87.2045 361.651 87.2955 362.207 87.4773C362.764 87.6591 363.26 87.9261 363.696 88.2784C364.132 88.6269 364.49 89.0549 364.77 89.5625C365.054 90.0663 365.24 90.642 365.327 91.2898ZM370.973 99.1705C370.121 99.1705 369.382 98.983 368.757 98.608C368.132 98.233 367.647 97.7083 367.303 97.0341C366.962 96.3598 366.791 95.572 366.791 94.6705C366.791 93.7689 366.962 92.9792 367.303 92.3011C367.647 91.6231 368.132 91.0966 368.757 90.7216C369.382 90.3466 370.121 90.1591 370.973 90.1591C371.825 90.1591 372.564 90.3466 373.189 90.7216C373.814 91.0966 374.297 91.6231 374.638 92.3011C374.982 92.9792 375.155 93.7689 375.155 94.6705C375.155 95.572 374.982 96.3598 374.638 97.0341C374.297 97.7083 373.814 98.233 373.189 98.608C372.564 98.983 371.825 99.1705 370.973 99.1705ZM370.984 97.5227C371.446 97.5227 371.833 97.3958 372.143 97.142C372.454 96.8845 372.685 96.5398 372.837 96.108C372.992 95.6761 373.07 95.1951 373.07 94.6648C373.07 94.1307 372.992 93.6477 372.837 93.2159C372.685 92.7803 372.454 92.4337 372.143 92.1761C371.833 91.9186 371.446 91.7898 370.984 91.7898C370.511 91.7898 370.117 91.9186 369.803 92.1761C369.492 92.4337 369.259 92.7803 369.104 93.2159C368.952 93.6477 368.876 94.1307 368.876 94.6648C368.876 95.1951 368.952 95.6761 369.104 96.108C369.259 96.5398 369.492 96.8845 369.803 97.142C370.117 97.3958 370.511 97.5227 370.984 97.5227ZM376.901 99V90.2727H378.866V91.7557H378.969C379.151 91.2557 379.452 90.8655 379.872 90.5852C380.293 90.3011 380.795 90.1591 381.378 90.1591C381.969 90.1591 382.467 90.303 382.872 90.5909C383.281 90.875 383.569 91.2633 383.736 91.7557H383.827C384.02 91.2708 384.346 90.8845 384.804 90.5966C385.266 90.3049 385.813 90.1591 386.446 90.1591C387.249 90.1591 387.904 90.4129 388.412 90.9205C388.92 91.428 389.173 92.1686 389.173 93.142V99H387.111V93.4602C387.111 92.9186 386.967 92.5227 386.679 92.2727C386.391 92.0189 386.039 91.892 385.622 91.892C385.126 91.892 384.738 92.0473 384.457 92.358C384.181 92.6648 384.043 93.0644 384.043 93.5568V99H382.026V93.375C382.026 92.9242 381.889 92.5644 381.616 92.2955C381.348 92.0265 380.995 91.892 380.56 91.892C380.264 91.892 379.995 91.9678 379.753 92.1193C379.51 92.267 379.317 92.4773 379.173 92.75C379.029 93.0189 378.957 93.3333 378.957 93.6932V99H376.901ZM391.26 102.273V90.2727H393.283V91.7159H393.402C393.508 91.5038 393.658 91.2784 393.851 91.0398C394.044 90.7973 394.305 90.5909 394.635 90.4205C394.964 90.2462 395.385 90.1591 395.896 90.1591C396.571 90.1591 397.179 90.3314 397.72 90.6761C398.266 91.017 398.697 91.5227 399.016 92.1932C399.338 92.8598 399.499 93.678 399.499 94.6477C399.499 95.6061 399.341 96.4205 399.027 97.0909C398.713 97.7614 398.285 98.2727 397.743 98.625C397.201 98.9773 396.588 99.1534 395.902 99.1534C395.402 99.1534 394.987 99.0701 394.658 98.9034C394.328 98.7367 394.063 98.536 393.862 98.3011C393.665 98.0625 393.512 97.8371 393.402 97.625H393.317V102.273H391.26ZM393.277 94.6364C393.277 95.2008 393.357 95.6951 393.516 96.1193C393.679 96.5436 393.911 96.875 394.214 97.1136C394.521 97.3485 394.893 97.4659 395.328 97.4659C395.783 97.4659 396.163 97.3447 396.47 97.1023C396.777 96.8561 397.008 96.5208 397.163 96.0966C397.322 95.6686 397.402 95.1818 397.402 94.6364C397.402 94.0947 397.324 93.6136 397.169 93.1932C397.014 92.7727 396.783 92.4432 396.476 92.2045C396.169 91.9659 395.786 91.8466 395.328 91.8466C394.889 91.8466 394.516 91.9621 394.209 92.1932C393.902 92.4242 393.669 92.7481 393.51 93.1648C393.355 93.5814 393.277 94.072 393.277 94.6364ZM403.771 99.1761C403.218 99.1761 402.72 99.0777 402.277 98.8807C401.838 98.6799 401.489 98.3845 401.232 97.9943C400.978 97.6042 400.851 97.1231 400.851 96.5511C400.851 96.0587 400.942 95.6515 401.124 95.3295C401.305 95.0076 401.554 94.75 401.868 94.5568C402.182 94.3636 402.536 94.2178 402.93 94.1193C403.328 94.017 403.739 93.9432 404.163 93.8977C404.675 93.8447 405.089 93.7973 405.408 93.7557C405.726 93.7102 405.957 93.642 406.101 93.5511C406.249 93.4564 406.322 93.3106 406.322 93.1136V93.0795C406.322 92.6515 406.196 92.3201 405.942 92.0852C405.688 91.8504 405.322 91.733 404.845 91.733C404.341 91.733 403.942 91.8428 403.646 92.0625C403.355 92.2822 403.158 92.5417 403.055 92.8409L401.135 92.5682C401.286 92.0379 401.536 91.5947 401.885 91.2386C402.233 90.8788 402.66 90.6098 403.163 90.4318C403.667 90.25 404.224 90.1591 404.834 90.1591C405.254 90.1591 405.673 90.2083 406.089 90.3068C406.506 90.4053 406.887 90.5682 407.232 90.7955C407.576 91.0189 407.853 91.3239 408.061 91.7102C408.273 92.0966 408.379 92.5795 408.379 93.1591V99H406.402V97.8011H406.334C406.209 98.0436 406.033 98.2708 405.805 98.483C405.582 98.6913 405.3 98.8598 404.959 98.9886C404.622 99.1136 404.226 99.1761 403.771 99.1761ZM404.305 97.6648C404.718 97.6648 405.076 97.5833 405.379 97.4205C405.682 97.2538 405.915 97.0341 406.078 96.7614C406.245 96.4886 406.328 96.1913 406.328 95.8693V94.8409C406.264 94.8939 406.154 94.9432 405.999 94.9886C405.847 95.0341 405.677 95.0739 405.487 95.108C405.298 95.142 405.11 95.1723 404.925 95.1989C404.739 95.2254 404.578 95.2481 404.442 95.267C404.135 95.3087 403.86 95.3769 403.618 95.4716C403.375 95.5663 403.184 95.6989 403.044 95.8693C402.904 96.036 402.834 96.2519 402.834 96.517C402.834 96.8958 402.972 97.1818 403.249 97.375C403.525 97.5682 403.877 97.6648 404.305 97.6648ZM412.504 93.8864V99H410.447V90.2727H412.413V91.7557H412.516C412.716 91.267 413.036 90.8788 413.476 90.5909C413.919 90.303 414.466 90.1591 415.118 90.1591C415.72 90.1591 416.245 90.2879 416.692 90.5455C417.143 90.803 417.491 91.1761 417.737 91.6648C417.987 92.1534 418.11 92.7462 418.107 93.4432V99H416.05V93.7614C416.05 93.178 415.898 92.7216 415.595 92.392C415.296 92.0625 414.881 91.8977 414.351 91.8977C413.991 91.8977 413.671 91.9773 413.391 92.1364C413.114 92.2917 412.896 92.517 412.737 92.8125C412.582 93.108 412.504 93.4659 412.504 93.8864ZM420.197 99V90.2727H422.254V99H420.197ZM421.232 89.0341C420.906 89.0341 420.625 88.9261 420.391 88.7102C420.156 88.4905 420.038 88.2273 420.038 87.9205C420.038 87.6098 420.156 87.3466 420.391 87.1307C420.625 86.911 420.906 86.8011 421.232 86.8011C421.561 86.8011 421.841 86.911 422.072 87.1307C422.307 87.3466 422.425 87.6098 422.425 87.9205C422.425 88.2273 422.307 88.4905 422.072 88.7102C421.841 88.9261 421.561 89.0341 421.232 89.0341ZM428.233 99.1705C427.358 99.1705 426.602 98.9886 425.966 98.625C425.333 98.2576 424.847 97.7386 424.506 97.0682C424.165 96.3939 423.994 95.6004 423.994 94.6875C423.994 93.7898 424.165 93.0019 424.506 92.3239C424.85 91.642 425.331 91.1117 425.949 90.733C426.566 90.3504 427.292 90.1591 428.125 90.1591C428.663 90.1591 429.17 90.2462 429.648 90.4205C430.129 90.5909 430.553 90.8561 430.92 91.2159C431.292 91.5758 431.583 92.0341 431.795 92.5909C432.008 93.1439 432.114 93.803 432.114 94.5682V95.1989H424.96V93.8125H430.142C430.138 93.4186 430.053 93.0682 429.886 92.7614C429.72 92.4508 429.487 92.2064 429.188 92.0284C428.892 91.8504 428.547 91.7614 428.153 91.7614C427.733 91.7614 427.364 91.8636 427.045 92.0682C426.727 92.2689 426.479 92.5341 426.301 92.8636C426.127 93.1894 426.038 93.5473 426.034 93.9375V95.1477C426.034 95.6553 426.127 96.0909 426.312 96.4545C426.498 96.8144 426.758 97.0909 427.091 97.2841C427.424 97.4735 427.814 97.5682 428.261 97.5682C428.561 97.5682 428.831 97.5265 429.074 97.4432C429.316 97.3561 429.527 97.2292 429.705 97.0625C429.883 96.8958 430.017 96.6894 430.108 96.4432L432.028 96.6591C431.907 97.1667 431.676 97.6098 431.335 97.9886C430.998 98.3636 430.566 98.6553 430.04 98.8636C429.513 99.0682 428.911 99.1705 428.233 99.1705ZM440.751 92.5795L438.876 92.7841C438.823 92.5947 438.731 92.4167 438.598 92.25C438.469 92.0833 438.295 91.9489 438.075 91.8466C437.856 91.7443 437.587 91.6932 437.268 91.6932C436.84 91.6932 436.481 91.786 436.189 91.9716C435.901 92.1572 435.759 92.3977 435.763 92.6932C435.759 92.947 435.852 93.1534 436.041 93.3125C436.234 93.4716 436.553 93.6023 436.996 93.7045L438.484 94.0227C439.31 94.2008 439.924 94.483 440.325 94.8693C440.731 95.2557 440.935 95.7614 440.939 96.3864C440.935 96.9356 440.774 97.4205 440.456 97.8409C440.142 98.2576 439.704 98.5833 439.143 98.8182C438.583 99.053 437.939 99.1705 437.212 99.1705C436.143 99.1705 435.284 98.947 434.632 98.5C433.981 98.0492 433.592 97.4223 433.467 96.6193L435.473 96.4261C435.564 96.8201 435.757 97.1174 436.053 97.3182C436.348 97.5189 436.732 97.6193 437.206 97.6193C437.695 97.6193 438.087 97.5189 438.382 97.3182C438.681 97.1174 438.831 96.8693 438.831 96.5739C438.831 96.3239 438.734 96.1174 438.541 95.9545C438.352 95.7917 438.056 95.6667 437.655 95.5795L436.166 95.267C435.329 95.0928 434.71 94.7992 434.308 94.3864C433.907 93.9697 433.708 93.4432 433.712 92.8068C433.708 92.2689 433.854 91.803 434.149 91.4091C434.448 91.0114 434.863 90.7045 435.393 90.4886C435.928 90.2689 436.543 90.1591 437.24 90.1591C438.263 90.1591 439.068 90.3769 439.655 90.8125C440.246 91.2481 440.611 91.8371 440.751 92.5795Z" fill="white"/>
<path d="M279.148 26V14.3636H283.511C284.405 14.3636 285.155 14.5303 285.761 14.8636C286.371 15.197 286.831 15.6553 287.142 16.2386C287.456 16.8182 287.614 17.4773 287.614 18.2159C287.614 18.9621 287.456 19.625 287.142 20.2045C286.828 20.7841 286.364 21.2405 285.75 21.5739C285.136 21.9034 284.381 22.0682 283.483 22.0682H280.591V20.3352H283.199C283.722 20.3352 284.15 20.2443 284.483 20.0625C284.816 19.8807 285.063 19.6307 285.222 19.3125C285.384 18.9943 285.466 18.6288 285.466 18.2159C285.466 17.803 285.384 17.4394 285.222 17.125C285.063 16.8106 284.814 16.5663 284.477 16.392C284.144 16.214 283.714 16.125 283.188 16.125H281.256V26H279.148ZM289.354 26V17.2727H291.348V18.7273H291.439C291.598 18.2235 291.871 17.8352 292.257 17.5625C292.647 17.286 293.092 17.1477 293.592 17.1477C293.706 17.1477 293.833 17.1534 293.973 17.1648C294.117 17.1723 294.236 17.1856 294.331 17.2045V19.0966C294.244 19.0663 294.106 19.0398 293.916 19.017C293.731 18.9905 293.551 18.9773 293.376 18.9773C293.001 18.9773 292.664 19.0587 292.365 19.2216C292.07 19.3807 291.837 19.6023 291.666 19.8864C291.496 20.1705 291.411 20.4981 291.411 20.8693V26H289.354ZM299.145 26.1705C298.293 26.1705 297.554 25.983 296.929 25.608C296.304 25.233 295.819 24.7083 295.474 24.0341C295.134 23.3598 294.963 22.572 294.963 21.6705C294.963 20.7689 295.134 19.9792 295.474 19.3011C295.819 18.6231 296.304 18.0966 296.929 17.7216C297.554 17.3466 298.293 17.1591 299.145 17.1591C299.997 17.1591 300.736 17.3466 301.361 17.7216C301.986 18.0966 302.469 18.6231 302.81 19.3011C303.154 19.9792 303.327 20.7689 303.327 21.6705C303.327 22.572 303.154 23.3598 302.81 24.0341C302.469 24.7083 301.986 25.233 301.361 25.608C300.736 25.983 299.997 26.1705 299.145 26.1705ZM299.156 24.5227C299.618 24.5227 300.005 24.3958 300.315 24.142C300.626 23.8845 300.857 23.5398 301.009 23.108C301.164 22.6761 301.241 22.1951 301.241 21.6648C301.241 21.1307 301.164 20.6477 301.009 20.2159C300.857 19.7803 300.626 19.4337 300.315 19.1761C300.005 18.9186 299.618 18.7898 299.156 18.7898C298.683 18.7898 298.289 18.9186 297.974 19.1761C297.664 19.4337 297.431 19.7803 297.276 20.2159C297.124 20.6477 297.048 21.1307 297.048 21.6648C297.048 22.1951 297.124 22.6761 297.276 23.108C297.431 23.5398 297.664 23.8845 297.974 24.142C298.289 24.3958 298.683 24.5227 299.156 24.5227ZM312.571 17.2727L309.463 26H307.19L304.082 17.2727H306.276L308.281 23.7557H308.372L310.384 17.2727H312.571ZM313.994 26V17.2727H316.051V26H313.994ZM315.028 16.0341C314.703 16.0341 314.422 15.9261 314.188 15.7102C313.953 15.4905 313.835 15.2273 313.835 14.9205C313.835 14.6098 313.953 14.3466 314.188 14.1307C314.422 13.911 314.703 13.8011 315.028 13.8011C315.358 13.8011 315.638 13.911 315.869 14.1307C316.104 14.3466 316.222 14.6098 316.222 14.9205C316.222 15.2273 316.104 15.4905 315.869 15.7102C315.638 15.9261 315.358 16.0341 315.028 16.0341ZM321.405 26.1534C320.719 26.1534 320.106 25.9773 319.564 25.625C319.022 25.2727 318.594 24.7614 318.28 24.0909C317.965 23.4205 317.808 22.6061 317.808 21.6477C317.808 20.678 317.967 19.8598 318.286 19.1932C318.607 18.5227 319.041 18.017 319.587 17.6761C320.132 17.3314 320.74 17.1591 321.411 17.1591C321.922 17.1591 322.342 17.2462 322.672 17.4205C323.001 17.5909 323.263 17.7973 323.456 18.0398C323.649 18.2784 323.799 18.5038 323.905 18.7159H323.99V14.3636H326.053V26H324.03V24.625H323.905C323.799 24.8371 323.645 25.0625 323.445 25.3011C323.244 25.536 322.979 25.7367 322.649 25.9034C322.32 26.0701 321.905 26.1534 321.405 26.1534ZM321.979 24.4659C322.414 24.4659 322.786 24.3485 323.092 24.1136C323.399 23.875 323.632 23.5436 323.791 23.1193C323.95 22.6951 324.03 22.2008 324.03 21.6364C324.03 21.072 323.95 20.5814 323.791 20.1648C323.636 19.7481 323.405 19.4242 323.098 19.1932C322.795 18.9621 322.422 18.8466 321.979 18.8466C321.52 18.8466 321.138 18.9659 320.831 19.2045C320.524 19.4432 320.293 19.7727 320.138 20.1932C319.982 20.6136 319.905 21.0947 319.905 21.6364C319.905 22.1818 319.982 22.6686 320.138 23.0966C320.297 23.5208 320.53 23.8561 320.837 24.1023C321.147 24.3447 321.528 24.4659 321.979 24.4659ZM332.108 26.1705C331.233 26.1705 330.477 25.9886 329.841 25.625C329.208 25.2576 328.722 24.7386 328.381 24.0682C328.04 23.3939 327.869 22.6004 327.869 21.6875C327.869 20.7898 328.04 20.0019 328.381 19.3239C328.725 18.642 329.206 18.1117 329.824 17.733C330.441 17.3504 331.167 17.1591 332 17.1591C332.538 17.1591 333.045 17.2462 333.523 17.4205C334.004 17.5909 334.428 17.8561 334.795 18.2159C335.167 18.5758 335.458 19.0341 335.67 19.5909C335.883 20.1439 335.989 20.803 335.989 21.5682V22.1989H328.835V20.8125H334.017C334.013 20.4186 333.928 20.0682 333.761 19.7614C333.595 19.4508 333.362 19.2064 333.062 19.0284C332.767 18.8504 332.422 18.7614 332.028 18.7614C331.608 18.7614 331.239 18.8636 330.92 19.0682C330.602 19.2689 330.354 19.5341 330.176 19.8636C330.002 20.1894 329.913 20.5473 329.909 20.9375V22.1477C329.909 22.6553 330.002 23.0909 330.188 23.4545C330.373 23.8144 330.633 24.0909 330.966 24.2841C331.299 24.4735 331.689 24.5682 332.136 24.5682C332.436 24.5682 332.706 24.5265 332.949 24.4432C333.191 24.3561 333.402 24.2292 333.58 24.0625C333.758 23.8958 333.892 23.6894 333.983 23.4432L335.903 23.6591C335.782 24.1667 335.551 24.6098 335.21 24.9886C334.873 25.3636 334.441 25.6553 333.915 25.8636C333.388 26.0682 332.786 26.1705 332.108 26.1705ZM351.749 18.2898H349.624C349.563 17.9413 349.451 17.6326 349.288 17.3636C349.125 17.0909 348.923 16.8598 348.68 16.6705C348.438 16.4811 348.161 16.339 347.851 16.2443C347.544 16.1458 347.213 16.0966 346.857 16.0966C346.224 16.0966 345.663 16.2557 345.175 16.5739C344.686 16.8883 344.304 17.3504 344.027 17.9602C343.75 18.5663 343.612 19.3068 343.612 20.1818C343.612 21.072 343.75 21.822 344.027 22.4318C344.307 23.0379 344.69 23.4962 345.175 23.8068C345.663 24.1136 346.222 24.267 346.851 24.267C347.199 24.267 347.525 24.2216 347.828 24.1307C348.135 24.036 348.41 23.8977 348.652 23.7159C348.898 23.5341 349.105 23.3106 349.271 23.0455C349.442 22.7803 349.559 22.4773 349.624 22.1364L351.749 22.1477C351.669 22.7008 351.497 23.2197 351.232 23.7045C350.97 24.1894 350.627 24.6174 350.203 24.9886C349.779 25.3561 349.283 25.6439 348.714 25.8523C348.146 26.0568 347.516 26.1591 346.822 26.1591C345.8 26.1591 344.887 25.9223 344.084 25.4489C343.281 24.9754 342.648 24.2917 342.186 23.3977C341.724 22.5038 341.493 21.4318 341.493 20.1818C341.493 18.928 341.726 17.8561 342.192 16.9659C342.658 16.072 343.292 15.3883 344.095 14.9148C344.898 14.4413 345.807 14.2045 346.822 14.2045C347.47 14.2045 348.072 14.2955 348.629 14.4773C349.186 14.6591 349.682 14.9261 350.118 15.2784C350.554 15.6269 350.911 16.0549 351.192 16.5625C351.476 17.0663 351.661 17.642 351.749 18.2898ZM355.645 20.8864V26H353.588V14.3636H355.599V18.7557H355.702C355.906 18.2633 356.223 17.875 356.651 17.5909C357.082 17.303 357.632 17.1591 358.298 17.1591C358.904 17.1591 359.433 17.286 359.884 17.5398C360.334 17.7936 360.683 18.1648 360.929 18.6534C361.179 19.142 361.304 19.7386 361.304 20.4432V26H359.247V20.7614C359.247 20.1742 359.096 19.7178 358.793 19.392C358.493 19.0625 358.073 18.8977 357.531 18.8977C357.168 18.8977 356.842 18.9773 356.554 19.1364C356.27 19.2917 356.046 19.517 355.884 19.8125C355.724 20.108 355.645 20.4659 355.645 20.8864ZM365.912 26.1761C365.359 26.1761 364.861 26.0777 364.418 25.8807C363.978 25.6799 363.63 25.3845 363.372 24.9943C363.118 24.6042 362.991 24.1231 362.991 23.5511C362.991 23.0587 363.082 22.6515 363.264 22.3295C363.446 22.0076 363.694 21.75 364.009 21.5568C364.323 21.3636 364.677 21.2178 365.071 21.1193C365.469 21.017 365.88 20.9432 366.304 20.8977C366.815 20.8447 367.23 20.7973 367.548 20.7557C367.866 20.7102 368.098 20.642 368.241 20.5511C368.389 20.4564 368.463 20.3106 368.463 20.1136V20.0795C368.463 19.6515 368.336 19.3201 368.082 19.0852C367.829 18.8504 367.463 18.733 366.986 18.733C366.482 18.733 366.082 18.8428 365.787 19.0625C365.495 19.2822 365.298 19.5417 365.196 19.8409L363.276 19.5682C363.427 19.0379 363.677 18.5947 364.026 18.2386C364.374 17.8788 364.8 17.6098 365.304 17.4318C365.808 17.25 366.365 17.1591 366.974 17.1591C367.395 17.1591 367.813 17.2083 368.23 17.3068C368.647 17.4053 369.027 17.5682 369.372 17.7955C369.717 18.0189 369.993 18.3239 370.202 18.7102C370.414 19.0966 370.52 19.5795 370.52 20.1591V26H368.543V24.8011H368.474C368.349 25.0436 368.173 25.2708 367.946 25.483C367.723 25.6913 367.44 25.8598 367.099 25.9886C366.762 26.1136 366.366 26.1761 365.912 26.1761ZM366.446 24.6648C366.859 24.6648 367.217 24.5833 367.52 24.4205C367.823 24.2538 368.056 24.0341 368.219 23.7614C368.385 23.4886 368.469 23.1913 368.469 22.8693V21.8409C368.404 21.8939 368.295 21.9432 368.139 21.9886C367.988 22.0341 367.817 22.0739 367.628 22.108C367.438 22.142 367.251 22.1723 367.065 22.1989C366.88 22.2254 366.719 22.2481 366.582 22.267C366.276 22.3087 366.001 22.3769 365.759 22.4716C365.516 22.5663 365.325 22.6989 365.185 22.8693C365.045 23.036 364.974 23.2519 364.974 23.517C364.974 23.8958 365.113 24.1818 365.389 24.375C365.666 24.5682 366.018 24.6648 366.446 24.6648ZM372.588 26V17.2727H374.582V18.7273H374.673C374.832 18.2235 375.105 17.8352 375.491 17.5625C375.882 17.286 376.327 17.1477 376.827 17.1477C376.94 17.1477 377.067 17.1534 377.207 17.1648C377.351 17.1723 377.471 17.1856 377.565 17.2045V19.0966C377.478 19.0663 377.34 19.0398 377.151 19.017C376.965 18.9905 376.785 18.9773 376.611 18.9773C376.236 18.9773 375.899 19.0587 375.599 19.2216C375.304 19.3807 375.071 19.6023 374.901 19.8864C374.73 20.1705 374.645 20.4981 374.645 20.8693V26H372.588ZM383.759 17.2727V18.8636H378.741V17.2727H383.759ZM379.98 15.1818H382.037V23.375C382.037 23.6515 382.079 23.8636 382.162 24.0114C382.249 24.1553 382.363 24.2538 382.503 24.3068C382.643 24.3598 382.798 24.3864 382.969 24.3864C383.098 24.3864 383.215 24.3769 383.321 24.358C383.431 24.339 383.514 24.322 383.571 24.3068L383.918 25.9148C383.808 25.9527 383.651 25.9943 383.446 26.0398C383.245 26.0852 382.999 26.1117 382.707 26.1193C382.192 26.1345 381.728 26.0568 381.315 25.8864C380.902 25.7121 380.575 25.4432 380.332 25.0795C380.094 24.7159 379.976 24.2614 379.98 23.7159V15.1818ZM389.249 26.1705C388.374 26.1705 387.618 25.9886 386.982 25.625C386.349 25.2576 385.862 24.7386 385.521 24.0682C385.18 23.3939 385.01 22.6004 385.01 21.6875C385.01 20.7898 385.18 20.0019 385.521 19.3239C385.866 18.642 386.347 18.1117 386.964 17.733C387.582 17.3504 388.307 17.1591 389.141 17.1591C389.679 17.1591 390.186 17.2462 390.663 17.4205C391.144 17.5909 391.569 17.8561 391.936 18.2159C392.307 18.5758 392.599 19.0341 392.811 19.5909C393.023 20.1439 393.129 20.803 393.129 21.5682V22.1989H385.976V20.8125H391.158C391.154 20.4186 391.069 20.0682 390.902 19.7614C390.735 19.4508 390.502 19.2064 390.203 19.0284C389.908 18.8504 389.563 18.7614 389.169 18.7614C388.749 18.7614 388.379 18.8636 388.061 19.0682C387.743 19.2689 387.495 19.5341 387.317 19.8636C387.143 20.1894 387.054 20.5473 387.05 20.9375V22.1477C387.05 22.6553 387.143 23.0909 387.328 23.4545C387.514 23.8144 387.773 24.0909 388.107 24.2841C388.44 24.4735 388.83 24.5682 389.277 24.5682C389.576 24.5682 389.847 24.5265 390.089 24.4432C390.332 24.3561 390.542 24.2292 390.72 24.0625C390.898 23.8958 391.033 23.6894 391.124 23.4432L393.044 23.6591C392.923 24.1667 392.692 24.6098 392.351 24.9886C392.014 25.3636 391.582 25.6553 391.055 25.8636C390.529 26.0682 389.927 26.1705 389.249 26.1705ZM394.869 26V17.2727H396.864V18.7273H396.955C397.114 18.2235 397.386 17.8352 397.773 17.5625C398.163 17.286 398.608 17.1477 399.108 17.1477C399.222 17.1477 399.348 17.1534 399.489 17.1648C399.633 17.1723 399.752 17.1856 399.847 17.2045V19.0966C399.759 19.0663 399.621 19.0398 399.432 19.017C399.246 18.9905 399.066 18.9773 398.892 18.9773C398.517 18.9773 398.18 19.0587 397.881 19.2216C397.585 19.3807 397.352 19.6023 397.182 19.8864C397.011 20.1705 396.926 20.4981 396.926 20.8693V26H394.869ZM401.213 26V17.2727H403.27V26H401.213ZM402.247 16.0341C401.921 16.0341 401.641 15.9261 401.406 15.7102C401.171 15.4905 401.054 15.2273 401.054 14.9205C401.054 14.6098 401.171 14.3466 401.406 14.1307C401.641 13.911 401.921 13.8011 402.247 13.8011C402.577 13.8011 402.857 13.911 403.088 14.1307C403.323 14.3466 403.44 14.6098 403.44 14.9205C403.44 15.2273 403.323 15.4905 403.088 15.7102C402.857 15.9261 402.577 16.0341 402.247 16.0341ZM407.442 20.8864V26H405.385V17.2727H407.351V18.7557H407.453C407.654 18.267 407.974 17.8788 408.413 17.5909C408.857 17.303 409.404 17.1591 410.055 17.1591C410.658 17.1591 411.182 17.2879 411.629 17.5455C412.08 17.803 412.429 18.1761 412.675 18.6648C412.925 19.1534 413.048 19.7462 413.044 20.4432V26H410.987V20.7614C410.987 20.178 410.836 19.7216 410.533 19.392C410.233 19.0625 409.819 18.8977 409.288 18.8977C408.929 18.8977 408.608 18.9773 408.328 19.1364C408.052 19.2917 407.834 19.517 407.675 19.8125C407.519 20.108 407.442 20.4659 407.442 20.8864ZM418.93 29.4545C418.192 29.4545 417.557 29.3542 417.027 29.1534C416.497 28.9564 416.071 28.6913 415.749 28.358C415.427 28.0246 415.203 27.6553 415.078 27.25L416.93 26.8011C417.014 26.9716 417.135 27.1402 417.294 27.3068C417.453 27.4773 417.667 27.6174 417.936 27.7273C418.209 27.8409 418.552 27.8977 418.964 27.8977C419.548 27.8977 420.031 27.7557 420.413 27.4716C420.796 27.1913 420.987 26.7292 420.987 26.0852V24.4318H420.885C420.779 24.6439 420.624 24.8617 420.419 25.0852C420.218 25.3087 419.951 25.4962 419.618 25.6477C419.288 25.7992 418.874 25.875 418.374 25.875C417.703 25.875 417.095 25.7178 416.55 25.4034C416.008 25.0852 415.576 24.6117 415.254 23.983C414.936 23.3504 414.777 22.5587 414.777 21.608C414.777 20.6496 414.936 19.8409 415.254 19.1818C415.576 18.5189 416.01 18.017 416.555 17.6761C417.101 17.3314 417.709 17.1591 418.379 17.1591C418.891 17.1591 419.311 17.2462 419.641 17.4205C419.974 17.5909 420.239 17.7973 420.436 18.0398C420.633 18.2784 420.783 18.5038 420.885 18.7159H420.999V17.2727H423.027V26.142C423.027 26.8883 422.849 27.5057 422.493 27.9943C422.137 28.483 421.65 28.8485 421.033 29.0909C420.415 29.3333 419.714 29.4545 418.93 29.4545ZM418.947 24.2614C419.383 24.2614 419.754 24.1553 420.061 23.9432C420.368 23.7311 420.601 23.4261 420.76 23.0284C420.919 22.6307 420.999 22.1534 420.999 21.5966C420.999 21.0473 420.919 20.5663 420.76 20.1534C420.605 19.7405 420.374 19.4205 420.067 19.1932C419.764 18.9621 419.391 18.8466 418.947 18.8466C418.489 18.8466 418.107 18.9659 417.8 19.2045C417.493 19.4432 417.262 19.7708 417.107 20.1875C416.951 20.6004 416.874 21.0701 416.874 21.5966C416.874 22.1307 416.951 22.5985 417.107 23C417.266 23.3977 417.499 23.7083 417.805 23.9318C418.116 24.1515 418.497 24.2614 418.947 24.2614ZM428.683 16.1307V14.3636H437.967V16.1307H434.371V26H432.28V16.1307H428.683ZM442.207 26.1705C441.355 26.1705 440.616 25.983 439.991 25.608C439.366 25.233 438.882 24.7083 438.537 24.0341C438.196 23.3598 438.026 22.572 438.026 21.6705C438.026 20.7689 438.196 19.9792 438.537 19.3011C438.882 18.6231 439.366 18.0966 439.991 17.7216C440.616 17.3466 441.355 17.1591 442.207 17.1591C443.06 17.1591 443.798 17.3466 444.423 17.7216C445.048 18.0966 445.531 18.6231 445.872 19.3011C446.217 19.9792 446.389 20.7689 446.389 21.6705C446.389 22.572 446.217 23.3598 445.872 24.0341C445.531 24.7083 445.048 25.233 444.423 25.608C443.798 25.983 443.06 26.1705 442.207 26.1705ZM442.219 24.5227C442.681 24.5227 443.067 24.3958 443.378 24.142C443.688 23.8845 443.92 23.5398 444.071 23.108C444.226 22.6761 444.304 22.1951 444.304 21.6648C444.304 21.1307 444.226 20.6477 444.071 20.2159C443.92 19.7803 443.688 19.4337 443.378 19.1761C443.067 18.9186 442.681 18.7898 442.219 18.7898C441.745 18.7898 441.351 18.9186 441.037 19.1761C440.726 19.4337 440.493 19.7803 440.338 20.2159C440.187 20.6477 440.111 21.1307 440.111 21.6648C440.111 22.1951 440.187 22.6761 440.338 23.108C440.493 23.5398 440.726 23.8845 441.037 24.142C441.351 24.3958 441.745 24.5227 442.219 24.5227Z" fill="white"/>
<path d="M291.631 72.4773C289.176 72.4773 286.994 72.0568 285.085 71.2159C283.188 70.375 281.688 69.2045 280.585 67.7045C279.483 66.2045 278.898 64.4716 278.83 62.5057H285.239C285.295 63.4489 285.608 64.2727 286.176 64.9773C286.744 65.6705 287.5 66.2102 288.443 66.5966C289.386 66.983 290.443 67.1761 291.614 67.1761C292.864 67.1761 293.972 66.9602 294.938 66.5284C295.903 66.0852 296.659 65.4716 297.205 64.6875C297.75 63.9034 298.017 63 298.006 61.9773C298.017 60.9205 297.744 59.9886 297.188 59.1818C296.631 58.375 295.824 57.7443 294.767 57.2898C293.722 56.8352 292.46 56.608 290.983 56.608H287.898V51.733H290.983C292.199 51.733 293.261 51.5227 294.17 51.1023C295.091 50.6818 295.813 50.0909 296.335 49.3295C296.858 48.5568 297.114 47.6648 297.102 46.6534C297.114 45.6648 296.892 44.8068 296.438 44.0795C295.994 43.3409 295.364 42.767 294.545 42.358C293.739 41.9489 292.79 41.7443 291.699 41.7443C290.631 41.7443 289.642 41.9375 288.733 42.3239C287.824 42.7102 287.091 43.2614 286.534 43.9773C285.977 44.6818 285.682 45.5227 285.648 46.5H279.562C279.608 44.5455 280.17 42.8295 281.25 41.3523C282.341 39.8636 283.795 38.7045 285.614 37.875C287.432 37.0341 289.472 36.6136 291.733 36.6136C294.063 36.6136 296.085 37.0511 297.801 37.9261C299.528 38.7898 300.864 39.9545 301.807 41.4205C302.75 42.8864 303.222 44.5057 303.222 46.2784C303.233 48.2443 302.653 49.892 301.483 51.2216C300.324 52.5511 298.801 53.4205 296.915 53.8295V54.1023C299.369 54.4432 301.25 55.3523 302.557 56.8295C303.875 58.2955 304.528 60.1193 304.517 62.3011C304.517 64.2557 303.96 66.0057 302.847 67.5511C301.744 69.0852 300.222 70.2898 298.278 71.1648C296.347 72.0398 294.131 72.4773 291.631 72.4773ZM323.271 72.6648C320.464 72.6648 318.055 71.9545 316.044 70.5341C314.044 69.1023 312.504 67.0398 311.425 64.3466C310.357 61.642 309.822 58.3864 309.822 54.5795C309.834 50.7727 310.374 47.5341 311.442 44.8636C312.521 42.1818 314.061 40.1364 316.061 38.7273C318.072 37.3182 320.476 36.6136 323.271 36.6136C326.067 36.6136 328.47 37.3182 330.482 38.7273C332.493 40.1364 334.033 42.1818 335.101 44.8636C336.18 47.5455 336.72 50.7841 336.72 54.5795C336.72 58.3977 336.18 61.6591 335.101 64.3636C334.033 67.0568 332.493 69.1136 330.482 70.5341C328.482 71.9545 326.078 72.6648 323.271 72.6648ZM323.271 67.3295C325.453 67.3295 327.175 66.2557 328.436 64.108C329.709 61.9489 330.345 58.7727 330.345 54.5795C330.345 51.8068 330.055 49.4773 329.476 47.5909C328.896 45.7045 328.078 44.2841 327.021 43.3295C325.964 42.3636 324.714 41.8807 323.271 41.8807C321.101 41.8807 319.385 42.9602 318.124 45.1193C316.862 47.267 316.226 50.4205 316.214 54.5795C316.203 57.3636 316.482 59.7045 317.05 61.6023C317.629 63.5 318.447 64.9318 319.504 65.8977C320.561 66.8523 321.817 67.3295 323.271 67.3295ZM352.747 66.4091V42.8182H358.099V66.4091H352.747ZM343.628 57.2898V51.9375H367.219V57.2898H343.628Z" fill="white"/>
<path d="M261 150C261 141.716 267.716 135 276 135H473C481.284 135 488 141.716 488 150V231C488 239.284 481.284 246 473 246H276C267.716 246 261 239.284 261 231V150Z" fill="#24262B"/>
<path d="M277.148 165V153.364H281.602C282.443 153.364 283.142 153.496 283.699 153.761C284.259 154.023 284.678 154.381 284.955 154.835C285.235 155.29 285.375 155.805 285.375 156.381C285.375 156.854 285.284 157.259 285.102 157.597C284.92 157.93 284.676 158.201 284.369 158.409C284.062 158.617 283.72 158.767 283.341 158.858V158.972C283.754 158.994 284.15 159.121 284.528 159.352C284.911 159.58 285.223 159.902 285.466 160.318C285.708 160.735 285.83 161.239 285.83 161.83C285.83 162.432 285.684 162.973 285.392 163.455C285.1 163.932 284.661 164.309 284.074 164.585C283.487 164.862 282.748 165 281.858 165H277.148ZM279.256 163.239H281.523C282.288 163.239 282.839 163.093 283.176 162.801C283.517 162.506 283.688 162.127 283.688 161.665C283.688 161.32 283.602 161.009 283.432 160.733C283.261 160.453 283.019 160.233 282.705 160.074C282.39 159.911 282.015 159.83 281.58 159.83H279.256V163.239ZM279.256 158.312H281.341C281.705 158.312 282.032 158.246 282.324 158.114C282.616 157.977 282.845 157.786 283.011 157.54C283.182 157.29 283.267 156.994 283.267 156.653C283.267 156.203 283.108 155.831 282.79 155.54C282.475 155.248 282.008 155.102 281.386 155.102H279.256V158.312ZM290.084 165.176C289.531 165.176 289.033 165.078 288.589 164.881C288.15 164.68 287.802 164.384 287.544 163.994C287.29 163.604 287.163 163.123 287.163 162.551C287.163 162.059 287.254 161.652 287.436 161.33C287.618 161.008 287.866 160.75 288.18 160.557C288.495 160.364 288.849 160.218 289.243 160.119C289.641 160.017 290.052 159.943 290.476 159.898C290.987 159.845 291.402 159.797 291.72 159.756C292.038 159.71 292.269 159.642 292.413 159.551C292.561 159.456 292.635 159.311 292.635 159.114V159.08C292.635 158.652 292.508 158.32 292.254 158.085C292 157.85 291.635 157.733 291.158 157.733C290.654 157.733 290.254 157.843 289.959 158.062C289.667 158.282 289.47 158.542 289.368 158.841L287.447 158.568C287.599 158.038 287.849 157.595 288.197 157.239C288.546 156.879 288.972 156.61 289.476 156.432C289.98 156.25 290.536 156.159 291.146 156.159C291.567 156.159 291.985 156.208 292.402 156.307C292.819 156.405 293.199 156.568 293.544 156.795C293.889 157.019 294.165 157.324 294.374 157.71C294.586 158.097 294.692 158.58 294.692 159.159V165H292.714V163.801H292.646C292.521 164.044 292.345 164.271 292.118 164.483C291.894 164.691 291.612 164.86 291.271 164.989C290.934 165.114 290.538 165.176 290.084 165.176ZM290.618 163.665C291.031 163.665 291.389 163.583 291.692 163.42C291.995 163.254 292.228 163.034 292.391 162.761C292.557 162.489 292.641 162.191 292.641 161.869V160.841C292.576 160.894 292.466 160.943 292.311 160.989C292.16 161.034 291.989 161.074 291.8 161.108C291.61 161.142 291.423 161.172 291.237 161.199C291.052 161.225 290.891 161.248 290.754 161.267C290.447 161.309 290.173 161.377 289.93 161.472C289.688 161.566 289.497 161.699 289.357 161.869C289.216 162.036 289.146 162.252 289.146 162.517C289.146 162.896 289.285 163.182 289.561 163.375C289.838 163.568 290.19 163.665 290.618 163.665ZM296.76 165V156.273H298.754V157.727H298.845C299.004 157.223 299.277 156.835 299.663 156.562C300.054 156.286 300.499 156.148 300.999 156.148C301.112 156.148 301.239 156.153 301.379 156.165C301.523 156.172 301.643 156.186 301.737 156.205V158.097C301.65 158.066 301.512 158.04 301.322 158.017C301.137 157.991 300.957 157.977 300.783 157.977C300.408 157.977 300.071 158.059 299.771 158.222C299.476 158.381 299.243 158.602 299.072 158.886C298.902 159.17 298.817 159.498 298.817 159.869V165H296.76ZM306.54 168.455C305.801 168.455 305.167 168.354 304.636 168.153C304.106 167.956 303.68 167.691 303.358 167.358C303.036 167.025 302.812 166.655 302.688 166.25L304.54 165.801C304.623 165.972 304.744 166.14 304.903 166.307C305.063 166.477 305.277 166.617 305.545 166.727C305.818 166.841 306.161 166.898 306.574 166.898C307.157 166.898 307.64 166.756 308.023 166.472C308.405 166.191 308.597 165.729 308.597 165.085V163.432H308.494C308.388 163.644 308.233 163.862 308.028 164.085C307.828 164.309 307.561 164.496 307.227 164.648C306.898 164.799 306.483 164.875 305.983 164.875C305.312 164.875 304.705 164.718 304.159 164.403C303.617 164.085 303.186 163.612 302.864 162.983C302.545 162.35 302.386 161.559 302.386 160.608C302.386 159.65 302.545 158.841 302.864 158.182C303.186 157.519 303.619 157.017 304.165 156.676C304.71 156.331 305.318 156.159 305.989 156.159C306.5 156.159 306.92 156.246 307.25 156.42C307.583 156.591 307.848 156.797 308.045 157.04C308.242 157.278 308.392 157.504 308.494 157.716H308.608V156.273H310.636V165.142C310.636 165.888 310.458 166.506 310.102 166.994C309.746 167.483 309.259 167.848 308.642 168.091C308.025 168.333 307.324 168.455 306.54 168.455ZM306.557 163.261C306.992 163.261 307.364 163.155 307.67 162.943C307.977 162.731 308.21 162.426 308.369 162.028C308.528 161.631 308.608 161.153 308.608 160.597C308.608 160.047 308.528 159.566 308.369 159.153C308.214 158.741 307.983 158.42 307.676 158.193C307.373 157.962 307 157.847 306.557 157.847C306.098 157.847 305.716 157.966 305.409 158.205C305.102 158.443 304.871 158.771 304.716 159.188C304.561 159.6 304.483 160.07 304.483 160.597C304.483 161.131 304.561 161.598 304.716 162C304.875 162.398 305.108 162.708 305.415 162.932C305.725 163.152 306.106 163.261 306.557 163.261ZM316.608 165.17C315.733 165.17 314.977 164.989 314.341 164.625C313.708 164.258 313.222 163.739 312.881 163.068C312.54 162.394 312.369 161.6 312.369 160.688C312.369 159.79 312.54 159.002 312.881 158.324C313.225 157.642 313.706 157.112 314.324 156.733C314.941 156.35 315.667 156.159 316.5 156.159C317.038 156.159 317.545 156.246 318.023 156.42C318.504 156.591 318.928 156.856 319.295 157.216C319.667 157.576 319.958 158.034 320.17 158.591C320.383 159.144 320.489 159.803 320.489 160.568V161.199H313.335V159.812H318.517C318.513 159.419 318.428 159.068 318.261 158.761C318.095 158.451 317.862 158.206 317.562 158.028C317.267 157.85 316.922 157.761 316.528 157.761C316.108 157.761 315.739 157.864 315.42 158.068C315.102 158.269 314.854 158.534 314.676 158.864C314.502 159.189 314.413 159.547 314.409 159.938V161.148C314.409 161.655 314.502 162.091 314.688 162.455C314.873 162.814 315.133 163.091 315.466 163.284C315.799 163.473 316.189 163.568 316.636 163.568C316.936 163.568 317.206 163.527 317.449 163.443C317.691 163.356 317.902 163.229 318.08 163.062C318.258 162.896 318.392 162.689 318.483 162.443L320.403 162.659C320.282 163.167 320.051 163.61 319.71 163.989C319.373 164.364 318.941 164.655 318.415 164.864C317.888 165.068 317.286 165.17 316.608 165.17ZM329.126 158.58L327.251 158.784C327.198 158.595 327.106 158.417 326.973 158.25C326.844 158.083 326.67 157.949 326.45 157.847C326.231 157.744 325.962 157.693 325.643 157.693C325.215 157.693 324.856 157.786 324.564 157.972C324.276 158.157 324.134 158.398 324.138 158.693C324.134 158.947 324.227 159.153 324.416 159.312C324.609 159.472 324.928 159.602 325.371 159.705L326.859 160.023C327.685 160.201 328.299 160.483 328.7 160.869C329.106 161.256 329.31 161.761 329.314 162.386C329.31 162.936 329.149 163.42 328.831 163.841C328.517 164.258 328.079 164.583 327.518 164.818C326.958 165.053 326.314 165.17 325.587 165.17C324.518 165.17 323.659 164.947 323.007 164.5C322.356 164.049 321.967 163.422 321.842 162.619L323.848 162.426C323.939 162.82 324.132 163.117 324.428 163.318C324.723 163.519 325.107 163.619 325.581 163.619C326.07 163.619 326.462 163.519 326.757 163.318C327.056 163.117 327.206 162.869 327.206 162.574C327.206 162.324 327.109 162.117 326.916 161.955C326.727 161.792 326.431 161.667 326.03 161.58L324.541 161.267C323.704 161.093 323.085 160.799 322.683 160.386C322.282 159.97 322.083 159.443 322.087 158.807C322.083 158.269 322.229 157.803 322.524 157.409C322.823 157.011 323.238 156.705 323.768 156.489C324.303 156.269 324.918 156.159 325.615 156.159C326.638 156.159 327.443 156.377 328.03 156.812C328.621 157.248 328.986 157.837 329.126 158.58ZM335.07 165V153.364H339.433C340.327 153.364 341.077 153.519 341.683 153.83C342.293 154.14 342.753 154.576 343.064 155.136C343.378 155.693 343.536 156.343 343.536 157.085C343.536 157.831 343.376 158.479 343.058 159.028C342.744 159.574 342.28 159.996 341.666 160.295C341.053 160.591 340.299 160.739 339.405 160.739H336.297V158.989H339.121C339.643 158.989 340.071 158.917 340.405 158.773C340.738 158.625 340.984 158.411 341.143 158.131C341.306 157.847 341.388 157.498 341.388 157.085C341.388 156.672 341.306 156.32 341.143 156.028C340.981 155.733 340.732 155.509 340.399 155.358C340.066 155.203 339.636 155.125 339.109 155.125H337.178V165H335.07ZM341.081 159.727L343.962 165H341.609L338.78 159.727H341.081ZM347.896 165.176C347.343 165.176 346.845 165.078 346.402 164.881C345.963 164.68 345.614 164.384 345.357 163.994C345.103 163.604 344.976 163.123 344.976 162.551C344.976 162.059 345.067 161.652 345.249 161.33C345.43 161.008 345.679 160.75 345.993 160.557C346.307 160.364 346.661 160.218 347.055 160.119C347.453 160.017 347.864 159.943 348.288 159.898C348.8 159.845 349.214 159.797 349.533 159.756C349.851 159.71 350.082 159.642 350.226 159.551C350.374 159.456 350.447 159.311 350.447 159.114V159.08C350.447 158.652 350.321 158.32 350.067 158.085C349.813 157.85 349.447 157.733 348.97 157.733C348.466 157.733 348.067 157.843 347.771 158.062C347.48 158.282 347.283 158.542 347.18 158.841L345.26 158.568C345.411 158.038 345.661 157.595 346.01 157.239C346.358 156.879 346.785 156.61 347.288 156.432C347.792 156.25 348.349 156.159 348.959 156.159C349.379 156.159 349.798 156.208 350.214 156.307C350.631 156.405 351.012 156.568 351.357 156.795C351.701 157.019 351.978 157.324 352.186 157.71C352.398 158.097 352.504 158.58 352.504 159.159V165H350.527V163.801H350.459C350.334 164.044 350.158 164.271 349.93 164.483C349.707 164.691 349.425 164.86 349.084 164.989C348.747 165.114 348.351 165.176 347.896 165.176ZM348.43 163.665C348.843 163.665 349.201 163.583 349.504 163.42C349.807 163.254 350.04 163.034 350.203 162.761C350.37 162.489 350.453 162.191 350.453 161.869V160.841C350.389 160.894 350.279 160.943 350.124 160.989C349.972 161.034 349.802 161.074 349.612 161.108C349.423 161.142 349.235 161.172 349.05 161.199C348.864 161.225 348.703 161.248 348.567 161.267C348.26 161.309 347.985 161.377 347.743 161.472C347.5 161.566 347.309 161.699 347.169 161.869C347.029 162.036 346.959 162.252 346.959 162.517C346.959 162.896 347.097 163.182 347.374 163.375C347.65 163.568 348.002 163.665 348.43 163.665ZM356.629 159.886V165H354.572V156.273H356.538V157.756H356.641C356.841 157.267 357.161 156.879 357.601 156.591C358.044 156.303 358.591 156.159 359.243 156.159C359.845 156.159 360.37 156.288 360.817 156.545C361.268 156.803 361.616 157.176 361.862 157.665C362.112 158.153 362.235 158.746 362.232 159.443V165H360.175V159.761C360.175 159.178 360.023 158.722 359.72 158.392C359.421 158.062 359.006 157.898 358.476 157.898C358.116 157.898 357.796 157.977 357.516 158.136C357.239 158.292 357.021 158.517 356.862 158.812C356.707 159.108 356.629 159.466 356.629 159.886ZM368.118 168.455C367.379 168.455 366.745 168.354 366.214 168.153C365.684 167.956 365.258 167.691 364.936 167.358C364.614 167.025 364.391 166.655 364.266 166.25L366.118 165.801C366.201 165.972 366.322 166.14 366.482 166.307C366.641 166.477 366.855 166.617 367.124 166.727C367.396 166.841 367.739 166.898 368.152 166.898C368.735 166.898 369.218 166.756 369.601 166.472C369.983 166.191 370.175 165.729 370.175 165.085V163.432H370.072C369.966 163.644 369.811 163.862 369.607 164.085C369.406 164.309 369.139 164.496 368.805 164.648C368.476 164.799 368.061 164.875 367.561 164.875C366.891 164.875 366.283 164.718 365.737 164.403C365.196 164.085 364.764 163.612 364.442 162.983C364.124 162.35 363.964 161.559 363.964 160.608C363.964 159.65 364.124 158.841 364.442 158.182C364.764 157.519 365.197 157.017 365.743 156.676C366.288 156.331 366.896 156.159 367.567 156.159C368.078 156.159 368.499 156.246 368.828 156.42C369.161 156.591 369.427 156.797 369.624 157.04C369.821 157.278 369.97 157.504 370.072 157.716H370.186V156.273H372.214V165.142C372.214 165.888 372.036 166.506 371.68 166.994C371.324 167.483 370.838 167.848 370.22 168.091C369.603 168.333 368.902 168.455 368.118 168.455ZM368.135 163.261C368.571 163.261 368.942 163.155 369.249 162.943C369.555 162.731 369.788 162.426 369.947 162.028C370.107 161.631 370.186 161.153 370.186 160.597C370.186 160.047 370.107 159.566 369.947 159.153C369.792 158.741 369.561 158.42 369.254 158.193C368.951 157.962 368.578 157.847 368.135 157.847C367.677 157.847 367.294 157.966 366.987 158.205C366.68 158.443 366.449 158.771 366.294 159.188C366.139 159.6 366.061 160.07 366.061 160.597C366.061 161.131 366.139 161.598 366.294 162C366.453 162.398 366.686 162.708 366.993 162.932C367.304 163.152 367.684 163.261 368.135 163.261ZM378.186 165.17C377.311 165.17 376.555 164.989 375.919 164.625C375.286 164.258 374.8 163.739 374.459 163.068C374.118 162.394 373.947 161.6 373.947 160.688C373.947 159.79 374.118 159.002 374.459 158.324C374.804 157.642 375.285 157.112 375.902 156.733C376.519 156.35 377.245 156.159 378.078 156.159C378.616 156.159 379.124 156.246 379.601 156.42C380.082 156.591 380.506 156.856 380.874 157.216C381.245 157.576 381.536 158.034 381.749 158.591C381.961 159.144 382.067 159.803 382.067 160.568V161.199H374.913V159.812H380.095C380.091 159.419 380.006 159.068 379.839 158.761C379.673 158.451 379.44 158.206 379.141 158.028C378.845 157.85 378.5 157.761 378.107 157.761C377.686 157.761 377.317 157.864 376.999 158.068C376.68 158.269 376.432 158.534 376.254 158.864C376.08 159.189 375.991 159.547 375.987 159.938V161.148C375.987 161.655 376.08 162.091 376.266 162.455C376.451 162.814 376.711 163.091 377.044 163.284C377.377 163.473 377.768 163.568 378.214 163.568C378.514 163.568 378.785 163.527 379.027 163.443C379.269 163.356 379.48 163.229 379.658 163.062C379.836 162.896 379.97 162.689 380.061 162.443L381.982 162.659C381.86 163.167 381.629 163.61 381.288 163.989C380.951 164.364 380.519 164.655 379.993 164.864C379.466 165.068 378.864 165.17 378.186 165.17ZM390.705 158.58L388.83 158.784C388.777 158.595 388.684 158.417 388.551 158.25C388.422 158.083 388.248 157.949 388.028 157.847C387.809 157.744 387.54 157.693 387.222 157.693C386.794 157.693 386.434 157.786 386.142 157.972C385.854 158.157 385.712 158.398 385.716 158.693C385.712 158.947 385.805 159.153 385.994 159.312C386.188 159.472 386.506 159.602 386.949 159.705L388.438 160.023C389.263 160.201 389.877 160.483 390.278 160.869C390.684 161.256 390.888 161.761 390.892 162.386C390.888 162.936 390.727 163.42 390.409 163.841C390.095 164.258 389.657 164.583 389.097 164.818C388.536 165.053 387.892 165.17 387.165 165.17C386.097 165.17 385.237 164.947 384.585 164.5C383.934 164.049 383.545 163.422 383.42 162.619L385.426 162.426C385.517 162.82 385.71 163.117 386.006 163.318C386.301 163.519 386.686 163.619 387.159 163.619C387.648 163.619 388.04 163.519 388.335 163.318C388.634 163.117 388.784 162.869 388.784 162.574C388.784 162.324 388.688 162.117 388.494 161.955C388.305 161.792 388.009 161.667 387.608 161.58L386.119 161.267C385.282 161.093 384.663 160.799 384.261 160.386C383.86 159.97 383.661 159.443 383.665 158.807C383.661 158.269 383.807 157.803 384.102 157.409C384.402 157.011 384.816 156.705 385.347 156.489C385.881 156.269 386.496 156.159 387.193 156.159C388.216 156.159 389.021 156.377 389.608 156.812C390.199 157.248 390.564 157.837 390.705 158.58Z" fill="white"/>
<path d="M281.091 227H277.148V215.364H281.17C282.326 215.364 283.318 215.597 284.148 216.062C284.981 216.525 285.621 217.189 286.068 218.057C286.515 218.924 286.739 219.962 286.739 221.17C286.739 222.383 286.513 223.424 286.062 224.295C285.616 225.167 284.97 225.835 284.125 226.301C283.284 226.767 282.273 227 281.091 227ZM279.256 225.176H280.989C281.799 225.176 282.475 225.028 283.017 224.733C283.559 224.434 283.966 223.989 284.239 223.398C284.511 222.803 284.648 222.061 284.648 221.17C284.648 220.28 284.511 219.542 284.239 218.955C283.966 218.364 283.563 217.922 283.028 217.631C282.498 217.335 281.839 217.188 281.051 217.188H279.256V225.176ZM290.893 227L287.609 215.364H289.876L291.973 223.915H292.081L294.32 215.364H296.382L298.626 223.92H298.729L300.825 215.364H303.092L299.808 227H297.729L295.399 218.835H295.308L292.973 227H290.893ZM304.043 217.131V215.364H313.327V217.131H309.73V227H307.639V217.131H304.043Z" fill="white"/>
<path d="M287.534 176.727V200H283.318V180.83H283.182L277.739 184.307V180.443L283.523 176.727H287.534ZM301.795 200.318C300.159 200.318 298.705 200.038 297.432 199.477C296.167 198.917 295.167 198.136 294.432 197.136C293.697 196.136 293.307 194.981 293.261 193.67H297.534C297.572 194.299 297.78 194.848 298.159 195.318C298.538 195.78 299.042 196.14 299.67 196.398C300.299 196.655 301.004 196.784 301.784 196.784C302.617 196.784 303.356 196.64 304 196.352C304.644 196.057 305.148 195.648 305.511 195.125C305.875 194.602 306.053 194 306.045 193.318C306.053 192.614 305.871 191.992 305.5 191.455C305.129 190.917 304.591 190.496 303.886 190.193C303.189 189.89 302.348 189.739 301.364 189.739H299.307V186.489H301.364C302.174 186.489 302.883 186.348 303.489 186.068C304.102 185.788 304.583 185.394 304.932 184.886C305.28 184.371 305.451 183.777 305.443 183.102C305.451 182.443 305.303 181.871 305 181.386C304.705 180.894 304.284 180.511 303.739 180.239C303.201 179.966 302.568 179.83 301.841 179.83C301.129 179.83 300.47 179.958 299.864 180.216C299.258 180.473 298.769 180.841 298.398 181.318C298.027 181.788 297.83 182.348 297.807 183H293.75C293.78 181.697 294.155 180.553 294.875 179.568C295.602 178.576 296.572 177.803 297.784 177.25C298.996 176.689 300.356 176.409 301.864 176.409C303.417 176.409 304.765 176.701 305.909 177.284C307.061 177.86 307.951 178.636 308.58 179.614C309.208 180.591 309.523 181.67 309.523 182.852C309.53 184.163 309.144 185.261 308.364 186.148C307.591 187.034 306.576 187.614 305.318 187.886V188.068C306.955 188.295 308.208 188.902 309.08 189.886C309.958 190.864 310.394 192.08 310.386 193.534C310.386 194.837 310.015 196.004 309.273 197.034C308.538 198.057 307.523 198.86 306.227 199.443C304.939 200.027 303.462 200.318 301.795 200.318ZM322.889 200.443C321.018 200.443 319.412 199.97 318.071 199.023C316.738 198.068 315.711 196.693 314.991 194.898C314.279 193.095 313.923 190.924 313.923 188.386C313.931 185.848 314.291 183.689 315.003 181.909C315.723 180.121 316.749 178.758 318.082 177.818C319.423 176.879 321.026 176.409 322.889 176.409C324.753 176.409 326.355 176.879 327.696 177.818C329.037 178.758 330.063 180.121 330.776 181.909C331.495 183.697 331.855 185.856 331.855 188.386C331.855 190.932 331.495 193.106 330.776 194.909C330.063 196.705 329.037 198.076 327.696 199.023C326.363 199.97 324.76 200.443 322.889 200.443ZM322.889 196.886C324.344 196.886 325.491 196.17 326.332 194.739C327.181 193.299 327.605 191.182 327.605 188.386C327.605 186.538 327.412 184.985 327.026 183.727C326.639 182.47 326.094 181.523 325.389 180.886C324.685 180.242 323.851 179.92 322.889 179.92C321.442 179.92 320.298 180.64 319.457 182.08C318.616 183.511 318.192 185.614 318.185 188.386C318.177 190.242 318.363 191.803 318.741 193.068C319.128 194.333 319.673 195.288 320.378 195.932C321.082 196.568 321.92 196.886 322.889 196.886ZM344.233 200.443C342.362 200.443 340.756 199.97 339.415 199.023C338.081 198.068 337.055 196.693 336.335 194.898C335.623 193.095 335.267 190.924 335.267 188.386C335.275 185.848 335.634 183.689 336.347 181.909C337.066 180.121 338.093 178.758 339.426 177.818C340.767 176.879 342.369 176.409 344.233 176.409C346.097 176.409 347.699 176.879 349.04 177.818C350.381 178.758 351.407 180.121 352.119 181.909C352.839 183.697 353.199 185.856 353.199 188.386C353.199 190.932 352.839 193.106 352.119 194.909C351.407 196.705 350.381 198.076 349.04 199.023C347.706 199.97 346.104 200.443 344.233 200.443ZM344.233 196.886C345.688 196.886 346.835 196.17 347.676 194.739C348.525 193.299 348.949 191.182 348.949 188.386C348.949 186.538 348.756 184.985 348.369 183.727C347.983 182.47 347.438 181.523 346.733 180.886C346.028 180.242 345.195 179.92 344.233 179.92C342.786 179.92 341.642 180.64 340.801 182.08C339.96 183.511 339.536 185.614 339.528 188.386C339.521 190.242 339.706 191.803 340.085 193.068C340.472 194.333 341.017 195.288 341.722 195.932C342.426 196.568 343.263 196.886 344.233 196.886ZM367.599 186.67V190.057H357.122V186.67H367.599ZM380.014 200.318C378.378 200.318 376.923 200.038 375.651 199.477C374.385 198.917 373.385 198.136 372.651 197.136C371.916 196.136 371.526 194.981 371.48 193.67H375.753C375.791 194.299 375.999 194.848 376.378 195.318C376.757 195.78 377.26 196.14 377.889 196.398C378.518 196.655 379.223 196.784 380.003 196.784C380.836 196.784 381.575 196.64 382.219 196.352C382.863 196.057 383.366 195.648 383.73 195.125C384.094 194.602 384.272 194 384.264 193.318C384.272 192.614 384.09 191.992 383.719 191.455C383.348 190.917 382.81 190.496 382.105 190.193C381.408 189.89 380.567 189.739 379.582 189.739H377.526V186.489H379.582C380.393 186.489 381.101 186.348 381.707 186.068C382.321 185.788 382.802 185.394 383.151 184.886C383.499 184.371 383.67 183.777 383.662 183.102C383.67 182.443 383.522 181.871 383.219 181.386C382.923 180.894 382.503 180.511 381.957 180.239C381.42 179.966 380.787 179.83 380.06 179.83C379.348 179.83 378.688 179.958 378.082 180.216C377.476 180.473 376.988 180.841 376.616 181.318C376.245 181.788 376.048 182.348 376.026 183H371.969C371.999 181.697 372.374 180.553 373.094 179.568C373.821 178.576 374.791 177.803 376.003 177.25C377.215 176.689 378.575 176.409 380.082 176.409C381.635 176.409 382.984 176.701 384.128 177.284C385.279 177.86 386.17 178.636 386.798 179.614C387.427 180.591 387.741 181.67 387.741 182.852C387.749 184.163 387.363 185.261 386.582 186.148C385.81 187.034 384.795 187.614 383.537 187.886V188.068C385.173 188.295 386.427 188.902 387.298 189.886C388.177 190.864 388.613 192.08 388.605 193.534C388.605 194.837 388.234 196.004 387.491 197.034C386.757 198.057 385.741 198.86 384.446 199.443C383.158 200.027 381.681 200.318 380.014 200.318ZM401.108 200.443C399.237 200.443 397.631 199.97 396.29 199.023C394.956 198.068 393.93 196.693 393.21 194.898C392.498 193.095 392.142 190.924 392.142 188.386C392.15 185.848 392.509 183.689 393.222 181.909C393.941 180.121 394.968 178.758 396.301 177.818C397.642 176.879 399.244 176.409 401.108 176.409C402.972 176.409 404.574 176.879 405.915 177.818C407.256 178.758 408.282 180.121 408.994 181.909C409.714 183.697 410.074 185.856 410.074 188.386C410.074 190.932 409.714 193.106 408.994 194.909C408.282 196.705 407.256 198.076 405.915 199.023C404.581 199.97 402.979 200.443 401.108 200.443ZM401.108 196.886C402.563 196.886 403.71 196.17 404.551 194.739C405.4 193.299 405.824 191.182 405.824 188.386C405.824 186.538 405.631 184.985 405.244 183.727C404.858 182.47 404.313 181.523 403.608 180.886C402.903 180.242 402.07 179.92 401.108 179.92C399.661 179.92 398.517 180.64 397.676 182.08C396.835 183.511 396.411 185.614 396.403 188.386C396.396 190.242 396.581 191.803 396.96 193.068C397.347 194.333 397.892 195.288 398.597 195.932C399.301 196.568 400.138 196.886 401.108 196.886ZM422.452 200.443C420.58 200.443 418.974 199.97 417.634 199.023C416.3 198.068 415.274 196.693 414.554 194.898C413.842 193.095 413.486 190.924 413.486 188.386C413.493 185.848 413.853 183.689 414.565 181.909C415.285 180.121 416.312 178.758 417.645 177.818C418.986 176.879 420.588 176.409 422.452 176.409C424.315 176.409 425.918 176.879 427.259 177.818C428.599 178.758 429.626 180.121 430.338 181.909C431.058 183.697 431.418 185.856 431.418 188.386C431.418 190.932 431.058 193.106 430.338 194.909C429.626 196.705 428.599 198.076 427.259 199.023C425.925 199.97 424.323 200.443 422.452 200.443ZM422.452 196.886C423.906 196.886 425.054 196.17 425.895 194.739C426.743 193.299 427.168 191.182 427.168 188.386C427.168 186.538 426.974 184.985 426.588 183.727C426.202 182.47 425.656 181.523 424.952 180.886C424.247 180.242 423.414 179.92 422.452 179.92C421.005 179.92 419.861 180.64 419.02 182.08C418.179 183.511 417.755 185.614 417.747 188.386C417.74 190.242 417.925 191.803 418.304 193.068C418.69 194.333 419.236 195.288 419.94 195.932C420.645 196.568 421.482 196.886 422.452 196.886ZM443.795 200.443C441.924 200.443 440.318 199.97 438.977 199.023C437.644 198.068 436.617 196.693 435.898 194.898C435.186 193.095 434.83 190.924 434.83 188.386C434.837 185.848 435.197 183.689 435.909 181.909C436.629 180.121 437.655 178.758 438.989 177.818C440.33 176.879 441.932 176.409 443.795 176.409C445.659 176.409 447.261 176.879 448.602 177.818C449.943 178.758 450.97 180.121 451.682 181.909C452.402 183.697 452.761 185.856 452.761 188.386C452.761 190.932 452.402 193.106 451.682 194.909C450.97 196.705 449.943 198.076 448.602 199.023C447.269 199.97 445.667 200.443 443.795 200.443ZM443.795 196.886C445.25 196.886 446.398 196.17 447.239 194.739C448.087 193.299 448.511 191.182 448.511 188.386C448.511 186.538 448.318 184.985 447.932 183.727C447.545 182.47 447 181.523 446.295 180.886C445.591 180.242 444.758 179.92 443.795 179.92C442.348 179.92 441.205 180.64 440.364 182.08C439.523 183.511 439.098 185.614 439.091 188.386C439.083 190.242 439.269 191.803 439.648 193.068C440.034 194.333 440.58 195.288 441.284 195.932C441.989 196.568 442.826 196.886 443.795 196.886Z" fill="white"/>
</svg>
