<svg width="538" height="270" viewBox="0 0 538 270" fill="none" xmlns="http://www.w3.org/2000/svg">
<circle cx="135.5" cy="132.5" r="132.5" fill="url(#paint0_linear_174_2229)"/>
<g clip-path="url(#clip0_174_2229)">
<path d="M457.509 106.244C457.244 105.205 456.383 104.428 455.486 103.843C454.588 103.257 453.6 102.787 452.834 102.037C452.067 101.288 451.552 100.149 451.908 99.1381C452.34 97.9095 453.781 97.4185 455.041 97.0872C443.511 95.8476 431.925 95.2012 420.328 95.1506C420.067 94.7963 419.7 94.5337 419.281 94.4002C418.861 94.2667 418.41 94.2692 417.993 94.4073C417.575 94.5454 417.211 94.8121 416.954 95.1692C416.696 95.5263 416.558 95.9556 416.56 96.3958V133.667H420.747V110.772C430.694 110.796 440.64 110.82 450.587 110.844C452.198 110.848 453.873 110.838 455.321 110.133C456.769 109.427 457.906 107.805 457.509 106.244Z" fill="#CCCCCC"/>
<path d="M480.63 173.033V160.469H490.261C491.966 160.469 493.654 160.134 495.229 159.481C496.804 158.829 498.235 157.873 499.441 156.667C500.646 155.461 501.602 154.03 502.255 152.455C502.907 150.88 503.243 149.192 503.243 147.487L429.96 147.487C429.96 145.932 430.577 144.441 431.677 143.341C432.776 142.242 434.267 141.624 435.822 141.624H486.911V140.167C486.911 135.189 483.466 131.155 479.216 131.155H415.544C405.737 131.155 396.778 137.471 392.156 147.487H381.903C381.033 147.487 380.197 147.826 379.572 148.431L373.088 154.713C372.608 155.177 372.279 155.774 372.141 156.426C372.003 157.079 372.063 157.758 372.313 158.377C372.564 158.995 372.993 159.525 373.546 159.897C374.1 160.27 374.752 160.469 375.419 160.469H383.477V173.033H346.456C345.983 173.033 345.515 173.133 345.083 173.327C344.652 173.521 344.266 173.804 343.952 174.157L336.507 182.533C336.078 183.016 335.798 183.612 335.7 184.25C335.602 184.889 335.691 185.542 335.955 186.131C336.22 186.72 336.649 187.22 337.191 187.571C337.733 187.922 338.365 188.109 339.011 188.109H362.035C362.603 188.109 363.162 188.253 363.659 188.529C364.156 188.804 364.574 189.201 364.876 189.683L368.916 196.143C369.221 196.632 369.396 197.191 369.422 197.766C369.449 198.342 369.326 198.914 369.067 199.429C368.807 199.943 368.419 200.382 367.94 200.703C367.462 201.024 366.909 201.215 366.334 201.26L316.396 205.123C315.788 205.17 315.205 205.382 314.708 205.737C314.212 206.091 313.822 206.574 313.58 207.134L303.005 231.589C302.785 232.099 302.695 232.655 302.743 233.208C302.791 233.762 302.975 234.294 303.28 234.758C303.585 235.222 304.001 235.603 304.489 235.867C304.978 236.131 305.525 236.269 306.08 236.269H472.937C477.025 236.27 481.103 235.898 485.123 235.158C514.913 229.661 536.325 203.327 536.325 173.033L480.63 173.033ZM396.04 160.469H468.067V173.033H396.04V160.469ZM500.73 187.271C500.73 189.031 500.384 190.774 499.71 192.4C499.037 194.026 498.05 195.503 496.805 196.747C495.561 197.992 494.084 198.979 492.458 199.652C490.832 200.326 489.09 200.672 487.33 200.672H379.29C379.29 197.118 380.702 193.71 383.215 191.196C385.728 188.683 389.136 187.271 392.69 187.271L500.73 187.271Z" fill="#3F3D56"/>
<path d="M483.142 193.972H393.528C392.973 193.973 392.44 194.193 392.048 194.586C391.655 194.978 391.434 195.511 391.434 196.066V201.091H485.236V196.066C485.236 195.511 485.015 194.978 484.622 194.586C484.23 194.193 483.697 193.973 483.142 193.972ZM411.116 194.809H420.998V200.254H411.116V194.809ZM410.278 200.254H400.396V194.809H410.278V200.254ZM421.835 194.809H431.717V200.254H421.835V194.809ZM432.555 194.809H442.437V200.254H432.555V194.809ZM443.274 194.809H453.156V200.254H443.274V194.809ZM453.994 194.809H463.876V200.254H453.994V194.809ZM464.714 194.809H474.596V200.254H464.714V194.809ZM392.271 196.066C392.272 195.733 392.404 195.413 392.64 195.178C392.875 194.942 393.195 194.81 393.528 194.809H399.558V200.254H392.271V196.066ZM484.399 200.254H475.433V194.809H483.142C483.475 194.81 483.795 194.942 484.03 195.178C484.266 195.413 484.398 195.733 484.399 196.066V200.254Z" fill="#3F3D56"/>
<path d="M477.28 134.924H471.836V157.538H477.28V134.924Z" fill="#3F3D56"/>
<path d="M377.196 237.525H289.256C288.923 237.525 288.604 237.393 288.368 237.157C288.132 236.922 288 236.602 288 236.269C288 235.936 288.132 235.616 288.368 235.381C288.604 235.145 288.923 235.013 289.256 235.013H377.196C377.529 235.013 377.849 235.145 378.084 235.381C378.32 235.616 378.452 235.936 378.452 236.269C378.452 236.602 378.32 236.922 378.084 237.157C377.849 237.393 377.529 237.525 377.196 237.525Z" fill="#CCCCCC"/>
<path d="M338.251 245.063H301.819C301.486 245.063 301.166 244.931 300.931 244.695C300.695 244.46 300.563 244.14 300.563 243.807C300.563 243.474 300.695 243.154 300.931 242.919C301.166 242.683 301.486 242.551 301.819 242.551H338.251C338.584 242.551 338.904 242.683 339.14 242.919C339.375 243.154 339.507 243.474 339.507 243.807C339.507 244.14 339.375 244.46 339.14 244.695C338.904 244.931 338.584 245.063 338.251 245.063Z" fill="#CCCCCC"/>
<path d="M499.055 237.525H411.116C410.782 237.525 410.463 237.393 410.227 237.157C409.992 236.922 409.859 236.602 409.859 236.269C409.859 235.936 409.992 235.616 410.227 235.381C410.463 235.145 410.782 235.013 411.116 235.013H499.055C499.389 235.013 499.708 235.145 499.944 235.381C500.179 235.616 500.312 235.936 500.312 236.269C500.312 236.602 500.179 236.922 499.944 237.157C499.708 237.393 499.389 237.525 499.055 237.525Z" fill="#CCCCCC"/>
<path d="M445.035 245.063H357.095C356.762 245.063 356.443 244.931 356.207 244.695C355.971 244.46 355.839 244.14 355.839 243.807C355.839 243.474 355.971 243.154 356.207 242.919C356.443 242.683 356.762 242.551 357.095 242.551H445.035C445.368 242.551 445.688 242.683 445.923 242.919C446.159 243.154 446.291 243.474 446.291 243.807C446.291 244.14 446.159 244.46 445.923 244.695C445.688 244.931 445.368 245.063 445.035 245.063Z" fill="#CCCCCC"/>
<path d="M377.196 251.764H289.256C288.923 251.763 288.604 251.631 288.369 251.395C288.134 251.16 288.002 250.84 288.002 250.507C288.002 250.175 288.134 249.855 288.369 249.62C288.604 249.384 288.923 249.252 289.256 249.251H377.196C377.529 249.252 377.848 249.384 378.083 249.62C378.318 249.855 378.45 250.175 378.45 250.507C378.45 250.84 378.318 251.16 378.083 251.395C377.848 251.631 377.529 251.763 377.196 251.764Z" fill="#CCCCCC"/>
<path d="M429.96 259.302H393.528C393.195 259.302 392.875 259.17 392.639 258.934C392.404 258.698 392.271 258.379 392.271 258.046C392.271 257.712 392.404 257.393 392.639 257.157C392.875 256.922 393.195 256.789 393.528 256.789H429.96C430.293 256.789 430.613 256.922 430.848 257.157C431.084 257.393 431.216 257.712 431.216 258.046C431.216 258.379 431.084 258.698 430.848 258.934C430.613 259.17 430.293 259.302 429.96 259.302Z" fill="#CCCCCC"/>
<path d="M351.233 259.302H314.801C314.468 259.302 314.148 259.17 313.912 258.934C313.677 258.698 313.544 258.379 313.544 258.046C313.544 257.712 313.677 257.393 313.912 257.157C314.148 256.922 314.468 256.789 314.801 256.789H351.233C351.566 256.789 351.886 256.922 352.121 257.157C352.357 257.393 352.489 257.712 352.489 258.046C352.489 258.379 352.357 258.698 352.121 258.934C351.886 259.17 351.566 259.302 351.233 259.302Z" fill="#CCCCCC"/>
<path d="M499.055 251.764H411.116C410.782 251.764 410.463 251.631 410.227 251.396C409.992 251.16 409.859 250.841 409.859 250.507C409.859 250.174 409.992 249.855 410.227 249.619C410.463 249.383 410.782 249.251 411.116 249.251H499.055C499.388 249.252 499.707 249.384 499.942 249.62C500.178 249.855 500.31 250.175 500.31 250.507C500.31 250.84 500.178 251.16 499.942 251.395C499.707 251.631 499.388 251.763 499.055 251.764Z" fill="#CCCCCC"/>
<path d="M536.744 259.302H448.804C448.471 259.302 448.151 259.17 447.916 258.934C447.68 258.698 447.548 258.379 447.548 258.046C447.548 257.712 447.68 257.393 447.916 257.157C448.151 256.922 448.471 256.789 448.804 256.789H536.744C537.077 256.789 537.397 256.922 537.632 257.157C537.868 257.393 538 257.712 538 258.046C538 258.379 537.868 258.698 537.632 258.934C537.397 259.17 537.077 259.302 536.744 259.302Z" fill="#CCCCCC"/>
</g>
<path d="M220.854 269.302C342.828 269.302 441.708 265.293 441.708 260.348C441.708 255.404 342.828 251.395 220.854 251.395C98.8797 251.395 0 255.404 0 260.348C0 265.293 98.8797 269.302 220.854 269.302Z" fill="#E6E6E6"/>
<path d="M56.208 148.142C87.2507 148.142 112.416 122.977 112.416 91.9343C112.416 60.8919 87.2507 35.7271 56.208 35.7271C25.1652 35.7271 0 60.8919 0 91.9343C0 122.977 25.1652 148.142 56.208 148.142Z" fill="#E84D3D"/>
<path d="M61.6257 261.233H50.113L55.3613 83.4692L61.6257 261.233Z" fill="#3F3D56"/>
<path d="M56.3771 117.16L68.7364 100.061L56.208 121.392L54.8535 119.022L56.3771 117.16Z" fill="#3F3D56"/>
<path d="M55.0226 134.428L42.6638 117.329L55.1922 138.661L56.5467 136.291L55.0226 134.428Z" fill="#3F3D56"/>
<path d="M228.341 261.39C286.17 261.39 333.049 214.512 333.049 156.684C333.049 98.8562 286.17 51.9775 228.341 51.9775C170.513 51.9775 123.634 98.8562 123.634 156.684C123.634 214.512 170.513 261.39 228.341 261.39Z" fill="#3F3D56"/>
<path d="M228.341 252.723C281.383 252.723 324.381 209.725 324.381 156.684C324.381 103.643 281.383 60.6454 228.341 60.6454C175.3 60.6454 132.302 103.643 132.302 156.684C132.302 209.725 175.3 252.723 228.341 252.723Z" fill="white"/>
<path d="M227.995 169.859C235.08 169.859 240.823 164.116 240.823 157.031C240.823 149.946 235.08 144.203 227.995 144.203C220.91 144.203 215.166 149.946 215.166 157.031C215.166 164.116 220.91 169.859 227.995 169.859Z" fill="#3F3D56"/>
<path d="M230.768 65.4993H225.221V75.9006H230.768V65.4993Z" fill="#3F3D56"/>
<path d="M230.768 238.161H225.221V248.562H230.768V238.161Z" fill="#3F3D56"/>
<path d="M146.864 159.804V154.257H136.462V159.804H146.864Z" fill="#3F3D56"/>
<path d="M319.527 159.804V154.257H309.126V159.804H319.527Z" fill="#3F3D56"/>
<path d="M224.297 162.6L229.037 151.76L288.441 184.659L224.297 162.6Z" fill="#3F3D56"/>
<path d="M241.863 26.6677H214.82V57.8716H241.863V26.6677Z" fill="#3F3D56"/>
<path d="M228.341 35.3355C245.575 35.3355 259.546 31.4548 259.546 26.6678C259.546 21.8807 245.575 18 228.341 18C211.108 18 197.137 21.8807 197.137 26.6678C197.137 31.4548 211.108 35.3355 228.341 35.3355Z" fill="#3F3D56"/>
<path d="M286.763 175.233L285.029 177.66C285.029 177.66 277.055 187.021 276.708 182.514C276.361 178.007 282.602 174.886 282.602 174.886L286.069 172.806L286.763 175.233Z" fill="#FFB8B8"/>
<path d="M336.116 183.421L337.568 186.027C337.568 186.027 342.616 197.24 338.394 195.625C334.172 194.009 334.022 187.033 334.022 187.033L333.626 183.009L336.116 183.421Z" fill="#FFB8B8"/>
<path d="M328.311 137.222C334.142 137.222 338.868 132.495 338.868 126.665C338.868 120.834 334.142 116.108 328.311 116.108C322.48 116.108 317.754 120.834 317.754 126.665C317.754 132.495 322.48 137.222 328.311 137.222Z" fill="#2F2E41"/>
<path d="M327.328 213.371L328.715 222.386V225.159H336.69V221.692C336.69 221.692 337.036 215.451 335.65 213.718C334.263 211.984 327.328 213.371 327.328 213.371Z" fill="#FFB8B8"/>
<path d="M313.113 213.371L314.5 222.386V225.159H322.474V221.692C322.474 221.692 322.821 215.451 321.434 213.718C320.047 211.984 313.113 213.371 313.113 213.371Z" fill="#FFB8B8"/>
<path d="M318.479 140.962C318.479 140.962 315.412 142.578 317.507 146.256C319.602 149.933 331.893 187.977 331.893 187.977L338.985 185.964L332.731 161.904L329.15 146.782L318.479 140.962Z" fill="#E84D3D"/>
<path d="M327.155 137.615C331.559 137.615 335.13 134.045 335.13 129.641C335.13 125.237 331.559 121.666 327.155 121.666C322.751 121.666 319.181 125.237 319.181 129.641C319.181 134.045 322.751 137.615 327.155 137.615Z" fill="#FFB8B8"/>
<path d="M330.796 130.854L329.755 147.15L322.474 141.949C322.474 141.949 324.901 132.241 324.208 131.548L330.796 130.854Z" fill="#FFB8B8"/>
<path d="M330.795 145.763L322.952 139.954C322.952 139.954 319.354 138.482 318.314 140.215C317.274 141.949 312.073 167.605 314.847 172.459C314.847 172.459 329.755 175.58 332.876 173.846L334.263 164.832C334.263 164.832 335.996 159.284 333.222 155.817L330.795 145.763Z" fill="#E84D3D"/>
<path d="M320.394 140.562C320.394 140.562 317.62 138.482 315.193 141.949C312.766 145.416 283.642 172.806 283.642 172.806L288.496 178.353L307.566 162.405L319.701 152.697L320.394 140.562Z" fill="#E84D3D"/>
<path d="M333.049 173.673C333.049 173.673 315.887 170.379 314.153 172.806L313.807 176.62C313.807 176.62 309.993 183.901 312.073 195.689C314.153 207.477 312.766 214.758 312.766 214.758C312.766 214.758 322.128 213.718 329.062 214.758C335.996 215.798 337.036 214.758 337.036 214.758L333.049 173.673Z" fill="#2F2E41"/>
<path d="M337.383 223.772L327.328 224.119L330.796 250.122C330.796 250.122 328.022 261.217 331.142 261.911C333.311 262.348 335.517 262.581 337.73 262.604C337.73 262.604 340.85 265.724 344.317 265.378C346.62 265.084 348.851 264.379 350.905 263.297C350.905 263.297 351.598 261.217 349.171 260.524C346.744 259.83 340.157 257.75 338.77 250.469L337.383 223.772Z" fill="#2F2E41"/>
<path d="M323.168 223.772L313.113 224.119L316.58 250.122C316.58 250.122 313.806 261.217 316.927 261.911C319.096 262.348 321.302 262.581 323.514 262.604C323.514 262.604 326.635 265.724 330.102 265.378C332.405 265.084 334.636 264.379 336.69 263.297C336.69 263.297 337.383 261.217 334.956 260.524C332.529 259.83 325.941 257.75 324.555 250.469L323.168 223.772Z" fill="#2F2E41"/>
<path d="M332.004 119.922C334.417 119.922 336.373 117.966 336.373 115.554C336.373 113.141 334.417 111.185 332.004 111.185C329.591 111.185 327.635 113.141 327.635 115.554C327.635 117.966 329.591 119.922 332.004 119.922Z" fill="#2F2E41"/>
<path d="M337.829 113.187C337.829 112.108 337.429 111.066 336.706 110.264C335.983 109.461 334.989 108.955 333.915 108.843C334.066 108.827 334.218 108.819 334.37 108.819C335.529 108.819 336.64 109.279 337.459 110.098C338.279 110.918 338.739 112.029 338.739 113.187C338.739 114.346 338.279 115.457 337.459 116.276C336.64 117.096 335.529 117.556 334.37 117.556C334.218 117.556 334.066 117.548 333.915 117.532C334.989 117.42 335.983 116.913 336.706 116.111C337.429 115.309 337.829 114.267 337.829 113.187Z" fill="#2F2E41"/>
<path d="M327.083 128.795C331.104 128.795 334.364 126.839 334.364 124.427C334.364 122.014 331.104 120.058 327.083 120.058C323.062 120.058 319.802 122.014 319.802 124.427C319.802 126.839 323.062 128.795 327.083 128.795Z" fill="#2F2E41"/>
<path d="M416.632 251.775C416.634 251.711 416.642 251.647 416.642 251.582C416.644 250.582 416.393 249.597 415.914 248.719C415.436 247.841 414.743 247.098 413.902 246.558C413.06 246.017 412.096 245.698 411.098 245.628C410.1 245.558 409.101 245.74 408.192 246.158C407.34 245.174 406.188 244.496 404.913 244.23C403.638 243.963 402.311 244.121 401.135 244.681C399.959 245.241 398.999 246.17 398.402 247.328C397.805 248.485 397.605 249.807 397.831 251.089C397.8 251.089 397.771 251.085 397.74 251.085C396.79 251.083 395.853 251.309 395.008 251.742C394.162 252.176 393.432 252.805 392.879 253.577C392.325 254.35 391.964 255.243 391.826 256.183C391.687 257.123 391.775 258.083 392.082 258.982C392.389 259.881 392.906 260.694 393.591 261.353C394.275 262.012 395.107 262.499 396.018 262.771C396.928 263.044 397.89 263.096 398.824 262.922C399.758 262.747 400.638 262.353 401.389 261.771C401.862 262.694 402.569 263.477 403.438 264.044C404.307 264.61 405.309 264.941 406.344 265.002C407.38 265.063 408.414 264.853 409.344 264.392C410.273 263.932 411.067 263.237 411.646 262.376C412.356 262.893 413.172 263.246 414.035 263.411C414.897 263.576 415.786 263.549 416.637 263.33C417.487 263.112 418.279 262.709 418.956 262.149C419.633 261.589 420.178 260.887 420.552 260.092C420.926 259.297 421.119 258.429 421.119 257.551C421.119 256.673 420.924 255.805 420.55 255.011C420.175 254.216 419.63 253.514 418.953 252.955C418.276 252.396 417.483 251.993 416.632 251.775Z" fill="#E6E6E6"/>
<path d="M388.289 162.546C389.663 162.546 390.776 161.432 390.776 160.059C390.776 158.685 389.663 157.572 388.289 157.572C386.916 157.572 385.802 158.685 385.802 160.059C385.802 161.432 386.916 162.546 388.289 162.546Z" fill="#E6E6E6"/>
<defs>
<linearGradient id="paint0_linear_174_2229" x1="191.98" y1="9.4362" x2="-126.786" y2="243.355" gradientUnits="userSpaceOnUse">
<stop stop-color="#E84D3D"/>
<stop offset="1" stop-color="#5944D7"/>
</linearGradient>
<clipPath id="clip0_174_2229">
<rect width="250" height="165" fill="white" transform="translate(288 94.3019)"/>
</clipPath>
</defs>
</svg>
