<svg width="635" height="320" viewBox="0 0 635 320" fill="none" xmlns="http://www.w3.org/2000/svg">
<ellipse cx="159.93" cy="157.444" rx="156.389" ry="157.444" fill="url(#paint0_linear_174_2229)"/>
<g clip-path="url(#clip0_174_2229)">
<path d="M539.996 126.245C539.684 125.011 538.668 124.088 537.608 123.392C536.549 122.696 535.383 122.137 534.478 121.247C533.574 120.357 532.965 119.003 533.385 117.802C533.896 116.342 535.597 115.758 537.084 115.365C523.475 113.892 509.799 113.124 496.112 113.063C495.804 112.643 495.371 112.33 494.876 112.172C494.381 112.013 493.849 112.016 493.355 112.18C492.862 112.344 492.433 112.661 492.129 113.086C491.825 113.51 491.663 114.02 491.664 114.543V158.831H496.607V131.626C508.347 131.654 520.087 131.683 531.827 131.712C533.728 131.716 535.705 131.704 537.414 130.866C539.123 130.028 540.466 128.1 539.996 126.245Z" fill="#CCCCCC"/>
<path d="M567.286 205.608V190.679H578.654C580.666 190.679 582.659 190.28 584.518 189.505C586.377 188.73 588.066 187.593 589.489 186.161C590.911 184.728 592.04 183.028 592.81 181.156C593.58 179.285 593.976 177.279 593.976 175.253L507.48 175.253C507.48 173.405 508.209 171.633 509.507 170.327C510.805 169.02 512.565 168.286 514.4 168.286H574.7V166.554C574.7 160.64 570.634 155.846 565.617 155.846H490.466C478.891 155.846 468.316 163.352 462.861 175.253H450.759C449.732 175.253 448.745 175.655 448.008 176.374L440.354 183.839C439.789 184.39 439.4 185.099 439.237 185.875C439.074 186.651 439.145 187.458 439.441 188.192C439.736 188.927 440.243 189.556 440.896 189.999C441.549 190.442 442.318 190.679 443.106 190.679H452.617V205.608H408.921C408.363 205.608 407.811 205.727 407.301 205.957C406.792 206.187 406.337 206.524 405.966 206.944L397.179 216.896C396.672 217.47 396.341 218.179 396.226 218.937C396.11 219.696 396.215 220.472 396.527 221.172C396.839 221.872 397.346 222.466 397.986 222.883C398.626 223.3 399.372 223.522 400.134 223.522H427.31C427.98 223.522 428.639 223.694 429.226 224.021C429.812 224.348 430.306 224.82 430.662 225.392L435.431 233.069C435.791 233.649 435.997 234.313 436.028 234.997C436.059 235.681 435.915 236.362 435.608 236.973C435.302 237.584 434.844 238.106 434.279 238.487C433.714 238.868 433.061 239.096 432.383 239.149L373.442 243.739C372.724 243.795 372.035 244.047 371.45 244.468C370.864 244.889 370.403 245.463 370.118 246.128L357.636 275.187C357.376 275.793 357.27 276.454 357.326 277.112C357.383 277.769 357.601 278.402 357.961 278.953C358.321 279.505 358.811 279.958 359.388 280.271C359.965 280.584 360.61 280.748 361.266 280.748H558.207C563.031 280.75 567.845 280.308 572.59 279.428C607.75 272.896 633.023 241.605 633.023 205.608L567.286 205.608ZM467.445 190.679H552.458V205.608H467.445V190.679ZM591.011 222.527C591.011 224.618 590.602 226.689 589.807 228.621C589.012 230.553 587.847 232.308 586.378 233.787C584.91 235.265 583.166 236.438 581.247 237.239C579.328 238.039 577.271 238.451 575.194 238.451H447.675C447.675 234.227 449.341 230.177 452.307 227.191C455.273 224.204 459.296 222.527 463.491 222.527L591.011 222.527Z" fill="#3F3D56"/>
<path d="M570.252 230.489H464.48C463.825 230.489 463.197 230.752 462.733 231.218C462.27 231.685 462.009 232.317 462.009 232.977V238.948H572.723V232.977C572.722 232.317 572.462 231.685 571.999 231.218C571.535 230.752 570.907 230.489 570.252 230.489V230.489ZM485.239 231.484H496.903V237.953H485.239V231.484ZM484.25 237.953H472.586V231.484H484.25V237.953ZM497.891 231.484H509.555V237.953H497.891V231.484ZM510.543 231.484H522.207V237.953H510.543V231.484ZM523.196 231.484H534.86V237.953H523.196V231.484ZM535.848 231.484H547.512V237.953H535.848V231.484ZM548.501 231.484H560.164V237.953H548.501V231.484ZM462.997 232.977C462.998 232.581 463.154 232.202 463.432 231.922C463.71 231.642 464.087 231.484 464.48 231.484H471.598V237.953H462.997V232.977ZM571.735 237.953H561.153V231.484H570.252C570.645 231.484 571.022 231.642 571.3 231.922C571.578 232.202 571.734 232.581 571.735 232.977V237.953Z" fill="#3F3D56"/>
<path d="M563.332 160.324H556.907V187.196H563.332V160.324Z" fill="#3F3D56"/>
<path d="M445.204 282.241H341.409C341.015 282.241 340.638 282.084 340.36 281.804C340.082 281.524 339.926 281.144 339.926 280.748C339.926 280.352 340.082 279.973 340.36 279.693C340.638 279.413 341.015 279.255 341.409 279.255H445.204C445.597 279.255 445.974 279.413 446.252 279.693C446.53 279.973 446.686 280.352 446.686 280.748C446.686 281.144 446.53 281.524 446.252 281.804C445.974 282.084 445.597 282.241 445.204 282.241V282.241Z" fill="#CCCCCC"/>
<path d="M399.237 291.198H356.236C355.843 291.198 355.466 291.041 355.188 290.761C354.91 290.481 354.754 290.101 354.754 289.706C354.754 289.31 354.91 288.93 355.188 288.65C355.466 288.37 355.843 288.213 356.236 288.213H399.237C399.631 288.213 400.008 288.37 400.286 288.65C400.564 288.93 400.72 289.31 400.72 289.706C400.72 290.101 400.564 290.481 400.286 290.761C400.008 291.041 399.631 291.198 399.237 291.198V291.198Z" fill="#CCCCCC"/>
<path d="M589.034 282.241H485.239C484.845 282.241 484.468 282.084 484.19 281.804C483.912 281.524 483.756 281.144 483.756 280.748C483.756 280.352 483.912 279.973 484.19 279.693C484.468 279.413 484.845 279.255 485.239 279.255H589.034C589.427 279.255 589.804 279.413 590.082 279.693C590.36 279.973 590.516 280.352 590.516 280.748C590.516 281.144 590.36 281.524 590.082 281.804C589.804 282.084 589.427 282.241 589.034 282.241V282.241Z" fill="#CCCCCC"/>
<path d="M525.274 291.198H421.479C421.086 291.198 420.708 291.041 420.43 290.761C420.152 290.481 419.996 290.101 419.996 289.706C419.996 289.31 420.152 288.93 420.43 288.65C420.708 288.37 421.086 288.213 421.479 288.213H525.274C525.667 288.213 526.044 288.37 526.322 288.65C526.6 288.93 526.757 289.31 526.757 289.706C526.757 290.101 526.6 290.481 526.322 290.761C526.044 291.041 525.667 291.198 525.274 291.198V291.198Z" fill="#CCCCCC"/>
<path d="M445.203 299.16H341.408C341.015 299.16 340.639 299.002 340.361 298.722C340.084 298.442 339.928 298.063 339.928 297.667C339.928 297.272 340.084 296.893 340.361 296.613C340.639 296.333 341.015 296.175 341.408 296.175H445.203C445.596 296.175 445.973 296.333 446.25 296.613C446.528 296.893 446.684 297.272 446.684 297.667C446.684 298.063 446.528 298.442 446.25 298.722C445.973 299.002 445.596 299.16 445.203 299.16V299.16Z" fill="#CCCCCC"/>
<path d="M507.481 308.117H464.48C464.087 308.117 463.709 307.96 463.431 307.68C463.153 307.4 462.997 307.021 462.997 306.625C462.997 306.229 463.153 305.849 463.431 305.569C463.709 305.289 464.087 305.132 464.48 305.132H507.481C507.874 305.132 508.251 305.289 508.529 305.569C508.807 305.849 508.963 306.229 508.963 306.625C508.963 307.021 508.807 307.4 508.529 307.68C508.251 307.96 507.874 308.117 507.481 308.117V308.117Z" fill="#CCCCCC"/>
<path d="M414.559 308.117H371.558C371.165 308.117 370.788 307.96 370.51 307.68C370.232 307.4 370.076 307.021 370.076 306.625C370.076 306.229 370.232 305.849 370.51 305.569C370.788 305.289 371.165 305.132 371.558 305.132H414.559C414.953 305.132 415.33 305.289 415.608 305.569C415.886 305.849 416.042 306.229 416.042 306.625C416.042 307.021 415.886 307.4 415.608 307.68C415.33 307.96 414.953 308.117 414.559 308.117V308.117Z" fill="#CCCCCC"/>
<path d="M589.034 299.16H485.239C484.845 299.16 484.468 299.003 484.19 298.723C483.912 298.443 483.756 298.063 483.756 297.667C483.756 297.272 483.912 296.892 484.19 296.612C484.468 296.332 484.845 296.175 485.239 296.175H589.034C589.427 296.175 589.803 296.333 590.081 296.613C590.358 296.893 590.514 297.272 590.514 297.667C590.514 298.063 590.358 298.442 590.081 298.722C589.803 299.002 589.427 299.16 589.034 299.16V299.16Z" fill="#CCCCCC"/>
<path d="M633.517 308.117H529.722C529.329 308.117 528.952 307.96 528.674 307.68C528.396 307.4 528.24 307.021 528.24 306.625C528.24 306.229 528.396 305.849 528.674 305.569C528.952 305.289 529.329 305.132 529.722 305.132H633.517C633.911 305.132 634.288 305.289 634.566 305.569C634.844 305.849 635 306.229 635 306.625C635 307.021 634.844 307.4 634.566 307.68C634.288 307.96 633.911 308.117 633.517 308.117V308.117Z" fill="#CCCCCC"/>
</g>
<path d="M260.673 320C404.639 320 521.347 315.237 521.347 309.361C521.347 303.485 404.639 298.722 260.673 298.722C116.707 298.722 0 303.485 0 309.361C0 315.237 116.707 320 260.673 320Z" fill="#E6E6E6"/>
<path d="M66.3421 176.03C102.982 176.03 132.684 146.128 132.684 109.242C132.684 72.3553 102.982 42.453 66.3421 42.453C29.7024 42.453 0 72.3553 0 109.242C0 146.128 29.7024 176.03 66.3421 176.03Z" fill="#E84D3D"/>
<path d="M72.7366 310.413H59.1482L65.3427 99.183L72.7366 310.413Z" fill="#3F3D56"/>
<path d="M66.5417 139.216L81.1293 118.898L66.3421 144.245L64.7434 141.429L66.5417 139.216Z" fill="#3F3D56"/>
<path d="M64.943 159.735L50.356 139.417L65.1432 164.765L66.7419 161.948L64.943 159.735Z" fill="#3F3D56"/>
<path d="M269.511 310.599C337.766 310.599 393.097 254.895 393.097 186.181C393.097 117.467 337.766 61.7627 269.511 61.7627C201.256 61.7627 145.925 117.467 145.925 186.181C145.925 254.895 201.256 310.599 269.511 310.599Z" fill="#3F3D56"/>
<path d="M269.511 300.3C332.115 300.3 382.867 249.207 382.867 186.181C382.867 123.155 332.115 72.0624 269.511 72.0624C206.906 72.0624 156.155 123.155 156.155 186.181C156.155 249.207 206.906 300.3 269.511 300.3Z" fill="white"/>
<path d="M269.101 201.836C277.464 201.836 284.243 195.012 284.243 186.593C284.243 178.174 277.464 171.35 269.101 171.35C260.739 171.35 253.96 178.174 253.96 186.593C253.96 195.012 260.739 201.836 269.101 201.836Z" fill="#3F3D56"/>
<path d="M272.376 77.83H265.828V90.1894H272.376V77.83Z" fill="#3F3D56"/>
<path d="M272.376 282.996H265.828V295.356H272.376V282.996Z" fill="#3F3D56"/>
<path d="M173.343 189.889V183.297H161.066V189.889H173.343Z" fill="#3F3D56"/>
<path d="M377.137 189.889V183.297H364.86V189.889H377.137Z" fill="#3F3D56"/>
<path d="M264.737 193.21L270.332 180.329L340.447 219.423L264.737 193.21Z" fill="#3F3D56"/>
<path d="M285.471 31.6881H253.551V68.7664H285.471V31.6881Z" fill="#3F3D56"/>
<path d="M269.511 41.9877C289.852 41.9877 306.341 37.3764 306.341 31.6881C306.341 25.9999 289.852 21.3886 269.511 21.3886C249.17 21.3886 232.68 25.9999 232.68 31.6881C232.68 37.3764 249.17 41.9877 269.511 41.9877Z" fill="#3F3D56"/>
<path d="M338.465 208.222L336.419 211.106C336.419 211.106 327.007 222.229 326.598 216.874C326.189 211.518 333.555 207.81 333.555 207.81L337.647 205.338L338.465 208.222Z" fill="#FFB8B8"/>
<path d="M396.717 217.952L398.43 221.048C398.43 221.048 404.388 234.372 399.405 232.452C394.422 230.533 394.245 222.244 394.245 222.244L393.777 217.462L396.717 217.952Z" fill="#FFB8B8"/>
<path d="M387.505 163.055C394.387 163.055 399.965 157.439 399.965 150.511C399.965 143.582 394.387 137.966 387.505 137.966C380.623 137.966 375.044 143.582 375.044 150.511C375.044 157.439 380.623 163.055 387.505 163.055Z" fill="#2F2E41"/>
<path d="M386.345 253.54L387.982 264.251V267.547H397.394V263.427C397.394 263.427 397.803 256.012 396.166 253.952C394.53 251.892 386.345 253.54 386.345 253.54Z" fill="#FFB8B8"/>
<path d="M369.567 253.54L371.204 264.251V267.547H380.616V263.427C380.616 263.427 381.025 256.012 379.388 253.952C377.751 251.892 369.567 253.54 369.567 253.54Z" fill="#FFB8B8"/>
<path d="M375.9 167.499C375.9 167.499 372.28 169.42 374.753 173.789C377.225 178.159 391.733 223.365 391.733 223.365L400.102 220.973L392.721 192.383L388.495 174.414L375.9 167.499Z" fill="#E84D3D"/>
<path d="M386.14 163.522C391.339 163.522 395.553 159.28 395.553 154.047C395.553 148.813 391.339 144.571 386.14 144.571C380.942 144.571 376.728 148.813 376.728 154.047C376.728 159.28 380.942 163.522 386.14 163.522Z" fill="#FFB8B8"/>
<path d="M390.437 155.488L389.209 174.852L380.615 168.672C380.615 168.672 383.48 157.136 382.662 156.312L390.437 155.488Z" fill="#FFB8B8"/>
<path d="M390.437 173.204L381.179 166.302C381.179 166.302 376.932 164.552 375.705 166.612C374.477 168.672 368.338 199.158 371.612 204.926C371.612 204.926 389.209 208.634 392.892 206.574L394.529 195.863C394.529 195.863 396.575 189.271 393.301 185.151L390.437 173.204Z" fill="#E84D3D"/>
<path d="M378.16 167.024C378.16 167.024 374.887 164.552 372.022 168.672C369.157 172.792 334.782 205.338 334.782 205.338L340.512 211.93L363.019 192.979L377.342 181.443L378.16 167.024Z" fill="#E84D3D"/>
<path d="M393.097 206.368C393.097 206.368 372.841 202.454 370.794 205.338L370.385 209.87C370.385 209.87 365.884 218.522 368.339 232.529C370.794 246.536 369.157 255.188 369.157 255.188C369.157 255.188 380.207 253.952 388.391 255.188C396.576 256.424 397.803 255.188 397.803 255.188L393.097 206.368Z" fill="#2F2E41"/>
<path d="M398.213 265.899L386.345 266.311L390.437 297.21C390.437 297.21 387.163 310.393 390.846 311.217C393.407 311.737 396.01 312.013 398.622 312.041C398.622 312.041 402.305 315.749 406.397 315.337C409.115 314.988 411.748 314.15 414.172 312.865C414.172 312.865 414.991 310.393 412.126 309.569C409.262 308.745 401.486 306.273 399.849 297.622L398.213 265.899Z" fill="#2F2E41"/>
<path d="M381.434 265.899L369.567 266.311L373.659 297.21C373.659 297.21 370.385 310.393 374.068 311.217C376.628 311.737 379.232 312.013 381.843 312.041C381.843 312.041 385.526 315.749 389.619 315.337C392.336 314.988 394.97 314.15 397.394 312.865C397.394 312.865 398.212 310.393 395.348 309.569C392.483 308.745 384.708 306.273 383.071 297.622L381.434 265.899Z" fill="#2F2E41"/>
<path d="M391.863 142.498C394.711 142.498 397.02 140.174 397.02 137.308C397.02 134.441 394.711 132.117 391.863 132.117C389.016 132.117 386.707 134.441 386.707 137.308C386.707 140.174 389.016 142.498 391.863 142.498Z" fill="#2F2E41"/>
<path d="M398.738 134.496C398.738 133.213 398.266 131.975 397.413 131.022C396.56 130.068 395.387 129.467 394.119 129.333C394.298 129.314 394.477 129.305 394.656 129.305C396.024 129.305 397.335 129.852 398.302 130.825C399.269 131.799 399.813 133.119 399.813 134.496C399.813 135.873 399.269 137.193 398.302 138.166C397.335 139.14 396.024 139.687 394.656 139.687C394.477 139.687 394.298 139.677 394.119 139.659C395.387 139.525 396.56 138.923 397.413 137.97C398.266 137.016 398.738 135.779 398.738 134.496V134.496Z" fill="#2F2E41"/>
<path d="M386.055 153.042C390.801 153.042 394.649 150.718 394.649 147.851C394.649 144.984 390.801 142.66 386.055 142.66C381.309 142.66 377.461 144.984 377.461 147.851C377.461 150.718 381.309 153.042 386.055 153.042Z" fill="#2F2E41"/>
<path d="M491.75 299.174C491.752 299.097 491.761 299.022 491.761 298.944C491.763 297.756 491.468 296.586 490.902 295.543C490.337 294.499 489.52 293.616 488.527 292.974C487.533 292.332 486.395 291.952 485.218 291.869C484.04 291.786 482.861 292.003 481.788 292.499C480.782 291.33 479.422 290.525 477.917 290.208C476.413 289.891 474.846 290.079 473.458 290.744C472.07 291.409 470.937 292.514 470.233 293.889C469.528 295.265 469.291 296.835 469.558 298.359C469.522 298.358 469.487 298.353 469.452 298.353C468.33 298.352 467.224 298.619 466.226 299.134C465.228 299.65 464.367 300.397 463.713 301.315C463.06 302.233 462.634 303.295 462.471 304.412C462.307 305.529 462.411 306.669 462.773 307.737C463.135 308.806 463.746 309.772 464.554 310.555C465.362 311.338 466.344 311.916 467.418 312.24C468.493 312.564 469.628 312.625 470.731 312.418C471.833 312.212 472.871 311.743 473.757 311.051C474.317 312.148 475.15 313.079 476.176 313.752C477.202 314.425 478.384 314.818 479.607 314.89C480.829 314.963 482.05 314.713 483.147 314.166C484.244 313.619 485.181 312.793 485.864 311.77C486.703 312.384 487.665 312.804 488.684 313C489.702 313.196 490.751 313.164 491.755 312.904C492.759 312.645 493.694 312.166 494.493 311.5C495.291 310.835 495.934 310 496.376 309.056C496.817 308.112 497.046 307.081 497.045 306.037C497.045 304.993 496.815 303.963 496.373 303.019C495.932 302.075 495.288 301.24 494.489 300.576C493.689 299.911 492.754 299.432 491.75 299.174V299.174Z" fill="#E6E6E6"/>
<path d="M458.297 193.146C459.918 193.146 461.232 191.823 461.232 190.191C461.232 188.559 459.918 187.236 458.297 187.236C456.676 187.236 455.361 188.559 455.361 190.191C455.361 191.823 456.676 193.146 458.297 193.146Z" fill="#E6E6E6"/>
<defs>
<linearGradient id="paint0_linear_174_2229" x1="226.593" y1="11.2126" x2="-151.412" y2="286.744" gradientUnits="userSpaceOnUse">
<stop stop-color="#E84D3D"/>
<stop offset="1" stop-color="#5944D7"/>
</linearGradient>
<clipPath id="clip0_174_2229">
<rect width="295.074" height="196.062" fill="white" transform="translate(339.926 112.055)"/>
</clipPath>
</defs>
</svg>
