<svg width="604" height="320" viewBox="0 0 604 320" fill="none" xmlns="http://www.w3.org/2000/svg">
<ellipse cx="255.857" cy="146.676" rx="144.567" ry="146.676" fill="url(#paint0_linear_174_2282)"/>
<path d="M576.279 203.016H569.969C568.622 203.014 567.331 202.395 566.379 201.294C565.427 200.193 564.892 198.7 564.89 197.143V189.051C564.892 187.493 565.427 186.001 566.379 184.899C567.331 183.798 568.622 183.179 569.969 183.177H576.279C577.626 183.179 578.916 183.798 579.868 184.899C580.82 186.001 581.356 187.493 581.357 189.051V197.143C581.356 198.7 580.82 200.193 579.868 201.294C578.916 202.395 577.625 203.014 576.279 203.016Z" fill="white"/>
<path d="M598.922 203.016H592.611C591.265 203.014 589.974 202.395 589.022 201.294C588.07 200.193 587.534 198.7 587.533 197.143V189.051C587.534 187.493 588.07 186.001 589.022 184.899C589.974 183.798 591.265 183.179 592.611 183.177H598.922C600.268 183.179 601.559 183.798 602.511 184.899C603.463 186.001 603.999 187.493 604 189.051V197.143C603.999 198.7 603.463 200.193 602.511 201.294C601.559 202.395 600.268 203.014 598.922 203.016Z" fill="white"/>
<g clip-path="url(#clip0_174_2282)">
<path d="M450.077 109.528C449.789 108.378 448.849 107.518 447.87 106.87C446.891 106.222 445.813 105.701 444.976 104.871C444.14 104.042 443.578 102.781 443.966 101.662C444.438 100.302 446.01 99.7583 447.385 99.3916C434.804 98.0194 422.163 97.3038 409.51 97.2477C409.225 96.8556 408.825 96.5648 408.368 96.4171C407.91 96.2693 407.418 96.2721 406.962 96.4249C406.506 96.5778 406.109 96.873 405.829 97.2683C405.548 97.6637 405.397 98.1389 405.399 98.6262V139.885H409.968V114.541C420.82 114.567 431.673 114.594 442.525 114.621C444.282 114.625 446.111 114.614 447.69 113.833C449.27 113.052 450.511 111.256 450.077 109.528Z" fill="#CCCCCC"/>
<path d="M475.304 183.463V169.555H485.813C487.673 169.555 489.515 169.183 491.233 168.461C492.952 167.739 494.513 166.68 495.828 165.346C497.143 164.011 498.187 162.427 498.899 160.684C499.61 158.94 499.977 157.071 499.977 155.184L420.019 155.184C420.019 153.463 420.693 151.812 421.893 150.595C423.093 149.377 424.72 148.694 426.416 148.694H482.158V147.08C482.158 141.57 478.399 137.104 473.761 137.104H404.291C393.591 137.104 383.816 144.097 378.773 155.184H367.586C366.636 155.184 365.724 155.559 365.042 156.229L357.968 163.183C357.445 163.696 357.085 164.357 356.935 165.08C356.784 165.802 356.85 166.554 357.123 167.238C357.396 167.923 357.865 168.509 358.468 168.922C359.072 169.335 359.783 169.555 360.511 169.555H369.304V183.463H328.911C328.394 183.463 327.884 183.574 327.413 183.788C326.942 184.003 326.521 184.316 326.179 184.707L318.056 193.979C317.588 194.514 317.282 195.174 317.175 195.881C317.068 196.587 317.165 197.31 317.453 197.962C317.742 198.615 318.21 199.168 318.802 199.557C319.394 199.945 320.083 200.152 320.788 200.152H345.909C346.529 200.152 347.138 200.312 347.68 200.616C348.222 200.921 348.679 201.361 349.008 201.894L353.416 209.045C353.75 209.586 353.94 210.205 353.969 210.842C353.997 211.479 353.864 212.113 353.58 212.683C353.297 213.252 352.874 213.738 352.352 214.093C351.83 214.448 351.226 214.661 350.599 214.71L296.113 218.986C295.45 219.039 294.813 219.273 294.272 219.666C293.73 220.058 293.305 220.592 293.04 221.212L281.503 248.284C281.262 248.848 281.164 249.464 281.216 250.076C281.268 250.689 281.47 251.279 281.803 251.792C282.135 252.306 282.589 252.728 283.122 253.02C283.655 253.312 284.252 253.464 284.858 253.464H466.911C471.371 253.466 475.821 253.054 480.207 252.234C512.71 246.149 536.072 216.998 536.072 183.463L475.304 183.463ZM383.011 169.555H461.597V183.463H383.011V169.555ZM497.235 199.225C497.235 201.173 496.857 203.102 496.122 204.902C495.388 206.702 494.311 208.337 492.953 209.715C491.595 211.092 489.984 212.185 488.21 212.93C486.436 213.676 484.535 214.059 482.615 214.059H364.735C364.735 210.125 366.275 206.352 369.017 203.57C371.759 200.788 375.478 199.225 379.355 199.225L497.235 199.225Z" fill="#3F3D56"/>
<path d="M478.046 206.642H380.269C379.664 206.643 379.083 206.887 378.655 207.322C378.227 207.756 377.986 208.345 377.985 208.96V214.523H480.33V208.96C480.329 208.345 480.089 207.756 479.66 207.322C479.232 206.887 478.651 206.643 478.046 206.642V206.642ZM399.459 207.569H410.241V213.596H399.459V207.569ZM398.545 213.596H387.763V207.569H398.545V213.596ZM411.155 207.569H421.937V213.596H411.155V207.569ZM422.851 207.569H433.633V213.596H422.851V207.569ZM434.547 207.569H445.329V213.596H434.547V207.569ZM446.243 207.569H457.025V213.596H446.243V207.569ZM457.939 207.569H468.721V213.596H457.939V207.569ZM378.899 208.96C378.899 208.591 379.044 208.238 379.301 207.977C379.558 207.716 379.906 207.57 380.269 207.569H386.849V213.596H378.899V208.96ZM479.416 213.596H469.635V207.569H478.046C478.409 207.57 478.757 207.716 479.014 207.977C479.271 208.238 479.416 208.591 479.416 208.96V213.596Z" fill="#3F3D56"/>
<path d="M471.649 141.276H465.709V166.31H471.649V141.276Z" fill="#3F3D56"/>
<path d="M362.45 254.855H266.502C266.138 254.855 265.789 254.709 265.532 254.448C265.275 254.187 265.131 253.833 265.131 253.464C265.131 253.096 265.275 252.742 265.532 252.481C265.789 252.22 266.138 252.074 266.502 252.074H362.45C362.814 252.074 363.162 252.22 363.419 252.481C363.677 252.742 363.821 253.096 363.821 253.464C363.821 253.833 363.677 254.187 363.419 254.448C363.162 254.709 362.814 254.855 362.45 254.855V254.855Z" fill="#CCCCCC"/>
<path d="M319.959 263.2H280.209C279.845 263.2 279.496 263.053 279.239 262.792C278.982 262.532 278.838 262.178 278.838 261.809C278.838 261.44 278.982 261.086 279.239 260.826C279.496 260.565 279.845 260.418 280.209 260.418H319.959C320.322 260.418 320.671 260.565 320.928 260.826C321.185 261.086 321.329 261.44 321.329 261.809C321.329 262.178 321.185 262.532 320.928 262.792C320.671 263.053 320.322 263.2 319.959 263.2V263.2Z" fill="#CCCCCC"/>
<path d="M495.408 254.855H399.459C399.096 254.855 398.747 254.709 398.49 254.448C398.233 254.187 398.088 253.833 398.088 253.464C398.088 253.096 398.233 252.742 398.49 252.481C398.747 252.22 399.096 252.074 399.459 252.074H495.408C495.771 252.074 496.12 252.22 496.377 252.481C496.634 252.742 496.778 253.096 496.778 253.464C496.778 253.833 496.634 254.187 496.377 254.448C496.12 254.709 495.771 254.855 495.408 254.855V254.855Z" fill="#CCCCCC"/>
<path d="M436.468 263.2H340.519C340.156 263.2 339.807 263.053 339.55 262.792C339.293 262.532 339.148 262.178 339.148 261.809C339.148 261.44 339.293 261.086 339.55 260.826C339.807 260.565 340.156 260.418 340.519 260.418H436.468C436.831 260.418 437.18 260.565 437.437 260.826C437.694 261.086 437.839 261.44 437.839 261.809C437.839 262.178 437.694 262.532 437.437 262.792C437.18 263.053 436.831 263.2 436.468 263.2V263.2Z" fill="#CCCCCC"/>
<path d="M362.45 270.617H266.502C266.138 270.617 265.79 270.47 265.534 270.209C265.277 269.948 265.133 269.595 265.133 269.226C265.133 268.858 265.277 268.505 265.534 268.244C265.79 267.983 266.138 267.836 266.502 267.836H362.45C362.813 267.836 363.162 267.983 363.418 268.244C363.675 268.505 363.819 268.858 363.819 269.226C363.819 269.595 363.675 269.948 363.418 270.209C363.162 270.47 362.813 270.617 362.45 270.617V270.617Z" fill="#CCCCCC"/>
<path d="M420.02 278.962H380.269C379.906 278.962 379.557 278.815 379.3 278.554C379.043 278.294 378.899 277.94 378.899 277.571C378.899 277.202 379.043 276.848 379.3 276.588C379.557 276.327 379.906 276.18 380.269 276.18H420.02C420.383 276.18 420.732 276.327 420.989 276.588C421.246 276.848 421.39 277.202 421.39 277.571C421.39 277.94 421.246 278.294 420.989 278.554C420.732 278.815 420.383 278.962 420.02 278.962V278.962Z" fill="#CCCCCC"/>
<path d="M334.123 278.962H294.372C294.009 278.962 293.66 278.815 293.403 278.554C293.146 278.294 293.002 277.94 293.002 277.571C293.002 277.202 293.146 276.848 293.403 276.588C293.66 276.327 294.009 276.18 294.372 276.18H334.123C334.486 276.18 334.835 276.327 335.092 276.588C335.349 276.848 335.493 277.202 335.493 277.571C335.493 277.94 335.349 278.294 335.092 278.554C334.835 278.815 334.486 278.962 334.123 278.962V278.962Z" fill="#CCCCCC"/>
<path d="M495.408 270.617H399.459C399.096 270.617 398.747 270.471 398.49 270.21C398.233 269.949 398.088 269.595 398.088 269.226C398.088 268.858 398.233 268.504 398.49 268.243C398.747 267.982 399.096 267.836 399.459 267.836H495.408C495.771 267.836 496.119 267.983 496.376 268.244C496.632 268.505 496.776 268.858 496.776 269.226C496.776 269.595 496.632 269.948 496.376 270.209C496.119 270.47 495.771 270.617 495.408 270.617V270.617Z" fill="#CCCCCC"/>
<path d="M536.529 278.962H440.58C440.216 278.962 439.868 278.815 439.611 278.554C439.354 278.294 439.209 277.94 439.209 277.571C439.209 277.202 439.354 276.848 439.611 276.588C439.868 276.327 440.216 276.18 440.58 276.18H536.529C536.892 276.18 537.241 276.327 537.498 276.588C537.755 276.848 537.899 277.202 537.899 277.571C537.899 277.94 537.755 278.294 537.498 278.554C537.241 278.815 536.892 278.962 536.529 278.962V278.962Z" fill="#CCCCCC"/>
</g>
<path d="M1.47485 281.545C15.309 291.781 28.8098 302.705 44.2242 309.811C82.3926 327.407 126.331 319.201 166.492 307.764C206.652 296.328 247.648 281.797 288.839 287.692C312.196 291.034 334.248 300.816 356.794 308.155C379.34 315.493 403.598 320.408 426.345 313.819C449.092 307.23 469.609 286.336 470.204 261.12C298.477 227.133 139.267 226.124 1.47485 281.545Z" fill="#F2F2F2"/>
<path d="M45.1629 248.252C25.9985 247.761 5.45335 259.255 0 278.927L104.031 274.394C102.064 272.938 100.087 271.501 98.1023 270.081C82.1406 258.717 64.3273 248.743 45.1629 248.252Z" fill="#E84D3D"/>
<path d="M104.031 274.394C117.866 284.63 131.366 295.554 146.781 302.66C184.949 320.256 228.888 312.05 269.048 300.613C309.209 289.177 350.205 274.646 391.396 280.541C414.753 283.883 436.805 293.665 459.35 301.004C481.896 308.343 506.154 313.257 528.901 306.668C551.648 300.079 572.166 279.185 572.761 253.969C401.034 219.982 241.823 218.973 104.031 274.394Z" fill="#E84D3D"/>
<defs>
<linearGradient id="paint0_linear_174_2282" x1="317.481" y1="10.4458" x2="-33.8269" y2="264.538" gradientUnits="userSpaceOnUse">
<stop stop-color="#E84D3D"/>
<stop offset="1" stop-color="#5944D7"/>
</linearGradient>
<clipPath id="clip0_174_2282">
<rect width="272.768" height="182.654" fill="white" transform="translate(265.131 96.3082)"/>
</clipPath>
</defs>
</svg>
