<svg width="554" height="290" viewBox="0 0 554 290" fill="none" xmlns="http://www.w3.org/2000/svg">
<circle cx="234.5" cy="132.5" r="132.5" fill="url(#paint0_linear_174_2282)"/>
<path d="M528.176 183.395H522.392C521.158 183.393 519.975 182.833 519.102 181.839C518.23 180.844 517.739 179.495 517.738 178.089V170.779C517.739 169.372 518.23 168.023 519.102 167.029C519.975 166.034 521.158 165.475 522.392 165.473H528.176C529.41 165.475 530.593 166.034 531.466 167.029C532.338 168.023 532.829 169.372 532.83 170.779V178.089C532.829 179.495 532.338 180.844 531.465 181.839C530.593 182.833 529.41 183.393 528.176 183.395Z" fill="white"/>
<path d="M548.929 183.395H543.145C541.911 183.393 540.728 182.833 539.855 181.839C538.982 180.844 538.492 179.495 538.49 178.089V170.779C538.492 169.372 538.982 168.023 539.855 167.029C540.728 166.034 541.911 165.475 543.145 165.473H548.929C550.163 165.475 551.346 166.034 552.218 167.029C553.091 168.023 553.582 169.372 553.583 170.779V178.089C553.582 179.495 553.091 180.844 552.218 181.839C551.346 182.833 550.163 183.393 548.929 183.395Z" fill="white"/>
<g clip-path="url(#clip0_174_2282)">
<path d="M412.509 98.9419C412.244 97.9033 411.383 97.1263 410.486 96.5408C409.588 95.9552 408.6 95.4846 407.834 94.7355C407.067 93.9864 406.552 92.8472 406.908 91.8363C407.34 90.6076 408.781 90.1166 410.041 89.7853C398.511 88.5458 386.925 87.8994 375.328 87.8487C375.067 87.4944 374.7 87.2318 374.281 87.0983C373.861 86.9648 373.41 86.9673 372.993 87.1054C372.575 87.2435 372.211 87.5102 371.954 87.8673C371.696 88.2244 371.558 88.6537 371.56 89.0939V126.365H375.747V103.47C385.694 103.494 395.64 103.518 405.587 103.543C407.198 103.546 408.873 103.536 410.321 102.831C411.769 102.125 412.906 100.503 412.509 98.9419Z" fill="#CCCCCC"/>
<path d="M435.63 165.731V153.168H445.261C446.966 153.168 448.654 152.832 450.229 152.179C451.804 151.527 453.235 150.571 454.441 149.365C455.646 148.16 456.602 146.728 457.255 145.153C457.907 143.578 458.243 141.89 458.243 140.185L384.96 140.185C384.96 138.63 385.577 137.139 386.677 136.04C387.776 134.94 389.267 134.322 390.822 134.322H441.911V132.865C441.911 127.888 438.466 123.853 434.216 123.853H370.544C360.737 123.853 351.778 130.17 347.156 140.185H336.903C336.033 140.185 335.197 140.524 334.572 141.129L328.088 147.411C327.608 147.875 327.279 148.472 327.141 149.125C327.003 149.777 327.063 150.456 327.313 151.075C327.564 151.693 327.993 152.223 328.546 152.595C329.1 152.968 329.752 153.168 330.419 153.168H338.477V165.731H301.456C300.983 165.731 300.515 165.831 300.083 166.025C299.652 166.219 299.266 166.502 298.952 166.855L291.507 175.231C291.078 175.714 290.798 176.31 290.7 176.949C290.602 177.587 290.691 178.24 290.955 178.829C291.22 179.418 291.649 179.919 292.191 180.27C292.733 180.62 293.365 180.807 294.011 180.807H317.035C317.603 180.807 318.162 180.952 318.659 181.227C319.156 181.502 319.574 181.899 319.876 182.381L323.916 188.841C324.221 189.33 324.396 189.889 324.422 190.464C324.449 191.04 324.326 191.613 324.067 192.127C323.807 192.641 323.419 193.08 322.94 193.401C322.462 193.722 321.909 193.914 321.334 193.958L271.396 197.821C270.788 197.868 270.205 198.08 269.708 198.435C269.212 198.789 268.822 199.272 268.58 199.832L258.005 224.287C257.785 224.797 257.695 225.353 257.743 225.906C257.791 226.46 257.975 226.992 258.28 227.456C258.585 227.921 259.001 228.302 259.489 228.565C259.978 228.829 260.525 228.967 261.08 228.967H427.937C432.025 228.968 436.103 228.596 440.123 227.856C469.913 222.359 491.325 196.025 491.325 165.731L435.63 165.731ZM351.04 153.168H423.067V165.731H351.04V153.168ZM455.73 179.97C455.73 181.729 455.384 183.472 454.71 185.098C454.037 186.724 453.05 188.201 451.805 189.446C450.561 190.69 449.084 191.677 447.458 192.35C445.832 193.024 444.09 193.371 442.33 193.371H334.29C334.29 189.816 335.702 186.408 338.215 183.895C340.728 181.381 344.136 179.97 347.69 179.97L455.73 179.97Z" fill="#3F3D56"/>
<path d="M438.142 186.67H348.528C347.973 186.671 347.44 186.892 347.048 187.284C346.655 187.677 346.434 188.209 346.434 188.764V193.789H440.236V188.764C440.236 188.209 440.015 187.677 439.622 187.284C439.23 186.892 438.697 186.671 438.142 186.67ZM366.116 187.508H375.998V192.952H366.116V187.508ZM365.278 192.952H355.396V187.508H365.278V192.952ZM376.835 187.508H386.717V192.952H376.835V187.508ZM387.555 187.508H397.437V192.952H387.555V187.508ZM398.274 187.508H408.156V192.952H398.274V187.508ZM408.994 187.508H418.876V192.952H408.994V187.508ZM419.714 187.508H429.596V192.952H419.714V187.508ZM347.271 188.764C347.272 188.431 347.404 188.112 347.64 187.876C347.875 187.64 348.195 187.508 348.528 187.508H354.558V192.952H347.271V188.764ZM439.399 192.952H430.433V187.508H438.142C438.475 187.508 438.795 187.64 439.03 187.876C439.266 188.112 439.398 188.431 439.399 188.764V192.952Z" fill="#3F3D56"/>
<path d="M432.28 127.622H426.836V150.236H432.28V127.622Z" fill="#3F3D56"/>
<path d="M332.196 230.223H244.256C243.923 230.223 243.604 230.091 243.368 229.855C243.132 229.62 243 229.3 243 228.967C243 228.634 243.132 228.314 243.368 228.079C243.604 227.843 243.923 227.711 244.256 227.711H332.196C332.529 227.711 332.849 227.843 333.084 228.079C333.32 228.314 333.452 228.634 333.452 228.967C333.452 229.3 333.32 229.62 333.084 229.855C332.849 230.091 332.529 230.223 332.196 230.223Z" fill="#CCCCCC"/>
<path d="M293.251 237.761H256.819C256.486 237.761 256.166 237.629 255.931 237.393C255.695 237.158 255.563 236.838 255.563 236.505C255.563 236.172 255.695 235.852 255.931 235.617C256.166 235.381 256.486 235.249 256.819 235.249H293.251C293.584 235.249 293.904 235.381 294.14 235.617C294.375 235.852 294.507 236.172 294.507 236.505C294.507 236.838 294.375 237.158 294.14 237.393C293.904 237.629 293.584 237.761 293.251 237.761Z" fill="#CCCCCC"/>
<path d="M454.055 230.223H366.116C365.782 230.223 365.463 230.091 365.227 229.855C364.992 229.62 364.859 229.3 364.859 228.967C364.859 228.634 364.992 228.314 365.227 228.079C365.463 227.843 365.782 227.711 366.116 227.711H454.055C454.389 227.711 454.708 227.843 454.944 228.079C455.179 228.314 455.312 228.634 455.312 228.967C455.312 229.3 455.179 229.62 454.944 229.855C454.708 230.091 454.389 230.223 454.055 230.223Z" fill="#CCCCCC"/>
<path d="M400.035 237.761H312.095C311.762 237.761 311.443 237.629 311.207 237.393C310.971 237.158 310.839 236.838 310.839 236.505C310.839 236.172 310.971 235.852 311.207 235.617C311.443 235.381 311.762 235.249 312.095 235.249H400.035C400.368 235.249 400.688 235.381 400.923 235.617C401.159 235.852 401.291 236.172 401.291 236.505C401.291 236.838 401.159 237.158 400.923 237.393C400.688 237.629 400.368 237.761 400.035 237.761Z" fill="#CCCCCC"/>
<path d="M332.196 244.462H244.256C243.923 244.461 243.604 244.329 243.369 244.093C243.134 243.858 243.002 243.538 243.002 243.206C243.002 242.873 243.134 242.553 243.369 242.318C243.604 242.082 243.923 241.95 244.256 241.949H332.196C332.529 241.95 332.848 242.082 333.083 242.318C333.318 242.553 333.45 242.873 333.45 243.206C333.45 243.538 333.318 243.858 333.083 244.093C332.848 244.329 332.529 244.461 332.196 244.462Z" fill="#CCCCCC"/>
<path d="M384.96 252H348.528C348.195 252 347.875 251.868 347.639 251.632C347.404 251.396 347.271 251.077 347.271 250.744C347.271 250.41 347.404 250.091 347.639 249.855C347.875 249.62 348.195 249.487 348.528 249.487H384.96C385.293 249.487 385.613 249.62 385.848 249.855C386.084 250.091 386.216 250.41 386.216 250.744C386.216 251.077 386.084 251.396 385.848 251.632C385.613 251.868 385.293 252 384.96 252Z" fill="#CCCCCC"/>
<path d="M306.233 252H269.801C269.468 252 269.148 251.868 268.912 251.632C268.677 251.396 268.544 251.077 268.544 250.744C268.544 250.41 268.677 250.091 268.912 249.855C269.148 249.62 269.468 249.487 269.801 249.487H306.233C306.566 249.487 306.886 249.62 307.121 249.855C307.357 250.091 307.489 250.41 307.489 250.744C307.489 251.077 307.357 251.396 307.121 251.632C306.886 251.868 306.566 252 306.233 252Z" fill="#CCCCCC"/>
<path d="M454.055 244.462H366.116C365.782 244.462 365.463 244.33 365.227 244.094C364.992 243.858 364.859 243.539 364.859 243.206C364.859 242.872 364.992 242.553 365.227 242.317C365.463 242.082 365.782 241.949 366.116 241.949H454.055C454.388 241.95 454.707 242.082 454.942 242.318C455.178 242.553 455.31 242.873 455.31 243.206C455.31 243.538 455.178 243.858 454.942 244.093C454.707 244.329 454.388 244.461 454.055 244.462Z" fill="#CCCCCC"/>
<path d="M491.744 252H403.804C403.471 252 403.151 251.868 402.916 251.632C402.68 251.396 402.548 251.077 402.548 250.744C402.548 250.41 402.68 250.091 402.916 249.855C403.151 249.62 403.471 249.487 403.804 249.487H491.744C492.077 249.487 492.397 249.62 492.632 249.855C492.868 250.091 493 250.41 493 250.744C493 251.077 492.868 251.396 492.632 251.632C492.397 251.868 492.077 252 491.744 252Z" fill="#CCCCCC"/>
</g>
<path d="M1.35181 254.334C14.0312 263.58 26.4051 273.449 40.5328 279.868C75.5152 295.763 115.786 288.35 152.594 278.019C189.403 267.688 226.976 254.561 264.729 259.886C286.137 262.905 306.348 271.742 327.012 278.371C347.675 285.001 369.909 289.44 390.757 283.488C411.605 277.536 430.41 258.662 430.955 235.882C273.563 205.18 127.642 204.269 1.35181 254.334Z" fill="#F2F2F2"/>
<path d="M41.3931 224.258C23.8283 223.815 4.99815 234.198 0 251.969L95.3475 247.874C93.5443 246.558 91.733 245.26 89.9135 243.978C75.2842 233.712 58.9578 224.702 41.3931 224.258Z" fill="#E84D3D"/>
<path d="M95.3477 247.874C108.027 257.12 120.401 266.989 134.529 273.408C169.511 289.303 209.782 281.89 246.59 271.559C283.399 261.228 320.972 248.102 358.725 253.426C380.133 256.446 400.344 265.282 421.007 271.912C441.671 278.541 463.905 282.98 484.753 277.028C505.601 271.076 524.406 252.202 524.951 229.422C367.558 198.721 221.638 197.809 95.3477 247.874Z" fill="#E84D3D"/>
<defs>
<linearGradient id="paint0_linear_174_2282" x1="290.98" y1="9.4362" x2="-27.7857" y2="243.355" gradientUnits="userSpaceOnUse">
<stop stop-color="#E84D3D"/>
<stop offset="1" stop-color="#5944D7"/>
</linearGradient>
<clipPath id="clip0_174_2282">
<rect width="250" height="165" fill="white" transform="translate(243 87)"/>
</clipPath>
</defs>
</svg>
